0
SECTION
2
HEADER
9
$INSUNITS
70
4
9
$ACADVER
1
AC1014
9
$HANDSEED
5
FFFF
0
ENDSEC
0
SECTION
2
TABLES
0
TABLE
2
VPORT
5
8
100
AcDbSymbolTable
0
ENDTAB
0
TABLE
2
LTYPE
5
5
100
AcDbSymbolTable
0
LTYPE
5
14
100
AcDbSymbolTableRecord
100
AcDbLinetypeTableRecord
2
BYBLOCK
70
0
0
LTYPE
5
15
100
AcDbSymbolTableRecord
100
AcDbLinetypeTableRecord
2
BYLAYER
70
0
0
ENDTAB
0
TABLE
2
LAYER
5
2
100
AcDbSymbolTable
70
2
0
LAYER
5
50
100
AcDbSymbolTableRecord
100
AcDbLayerTableRecord
2
0
70
0
6
CONTINUOUS
0
ENDTAB
0
TABLE
2
STYLE
5
3
100
AcDbSymbolTable
70
1
0
STYLE
5
11
100
AcDbSymbolTableRecord
100
AcDbTextStyleTableRecord
2
STANDARD
70
0
0
ENDTAB
0
TABLE
2
VIEW
5
6
100
AcDbSymbolTable
70
0
0
ENDTAB
0
TABLE
2
UCS
5
7
100
AcDbSymbolTable
70
0
0
ENDTAB
0
TABLE
2
APPID
5
9
100
AcDbSymbolTable
70
2
0
APPID
5
12
100
AcDbSymbolTableRecord
100
AcDbRegAppTableRecord
2
ACAD
70
0
0
ENDTAB
0
TABLE
2
DIMSTYLE
5
A
100
AcDbSymbolTable
70
1
0
ENDTAB
0
TABLE
2
BLOCK_RECORD
5
1
100
AcDbSymbolTable
70
1
0
BLOCK_RECORD
5
1F
100
AcDbSymbolTableRecord
100
AcDbBlockTableRecord
2
*MODEL_SPACE
0
BLOCK_RECORD
5
1B
100
AcDbSymbolTableRecord
100
AcDbBlockTableRecord
2
*PAPER_SPACE
0
ENDTAB
0
ENDSEC
0
SECTION
2
BLOCKS
0
BLOCK
5
20
100
AcDbEntity
100
AcDbBlockBegin
2
*MODEL_SPACE
0
ENDBLK
5
21
100
AcDbEntity
100
AcDbBlockEnd
0
BLOCK
5
1C
100
AcDbEntity
100
AcDbBlockBegin
2
*PAPER_SPACE
0
ENDBLK
5
1D
100
AcDbEntity
100
AcDbBlockEnd
0
ENDSEC
0
SECTION
2
ENTITIES
0
LINE
5
100
100
AcDbEntity
8
0
100
AcDbLine
10
43.455157851360951
20
-4.0227901831614732
30
0
11
43.455157851360951
21
39.928526562121213
31
0
0
ELLIPSE
5
101
100
AcDbEntity
8
0
100
AcDbEllipse
10
42.941468309270981
20
39.928160979446325
30
0
11
-0.0048250450019328784
21
-0.53349592886309716
31
0.0
40
0.96283186650137798
41
1.5801893853629476
42
3.1503004794812903
0
LINE
5
102
100
AcDbEntity
8
0
100
AcDbLine
10
42.941820306103224
20
40.461677135441462
30
0
11
41.300661420174251
21
40.461677135441533
31
0
0
ELLIPSE
5
103
100
AcDbEntity
8
0
100
AcDbEllipse
10
41.300661420174251
20
44.890691368314172
30
0
11
-1.6653345369377352e-15
21
-4.4290142328727358
31
0.0
40
0.96283783783783772
41
4.7123889803846915
42
6.2831853071795862
0
LINE
5
104
100
AcDbEntity
8
0
100
AcDbLine
10
37.036238932442053
20
44.890691368314172
30
0
11
37.036238932442032
21
46.595193228787892
31
0
0
ELLIPSE
5
105
100
AcDbEntity
8
0
100
AcDbEllipse
10
36.522549390352175
20
46.594827646113004
30
0
11
-0.0048250450019323233
21
-0.53349592886309705
31
0.0
40
0.96283186650137798
41
1.5801893853629354
42
3.1503004794815177
0
LINE
5
106
100
AcDbEntity
8
0
100
AcDbLine
10
36.522901387184298
20
47.128343802108141
30
0
11
-58.056529951951049
21
47.128343802108091
31
0
0
ELLIPSE
5
107
100
AcDbEntity
8
0
100
AcDbEllipse
10
-58.056177955118926
20
46.594827646113004
30
0
11
-0.0048250450019184802
21
0.53349592886309649
31
0.0
40
0.9628318665013782
41
6.2744774812879314
42
7.8445885754064593
0
LINE
5
108
100
AcDbEntity
8
0
100
AcDbLine
10
-58.569867497208826
20
46.595193228787892
30
0
11
-58.569867497208804
21
44.890691368314172
31
0
0
ELLIPSE
5
109
100
AcDbEntity
8
0
100
AcDbEllipse
10
-62.885641336292352
20
44.890691368314172
30
0
11
-3.3306690738754696e-15
21
4.4823475662060588
31
0.0
40
0.96283783783783794
41
3.1415926535897913
42
4.7123889803846897
0
LINE
5
110
100
AcDbEntity
8
0
100
AcDbLine
10
-62.885641336292359
20
40.408343802108114
30
0
11
-64.526800222221325
21
40.408343802108206
31
0
0
ELLIPSE
5
111
100
AcDbEntity
8
0
100
AcDbEllipse
10
-64.526448225389203
20
39.874827646113005
30
0
11
-0.0048250450019328784
21
0.53349592886309716
31
0.0
40
0.96283186650137798
41
6.274477481287863
42
7.8445885754064735
0
LINE
5
112
100
AcDbEntity
8
0
100
AcDbLine
10
-65.040137767479109
20
39.875193228787879
30
0
11
-65.040137767479067
21
-4.0761235164947474
31
0
0
ELLIPSE
5
113
100
AcDbEntity
8
0
100
AcDbEllipse
10
-64.526448225389203
20
-4.075757933819915
30
0
11
0.0048250450019194499
21
0.5334959288630966
31
0.0
40
0.96283186650137809
41
1.5801893853628073
42
3.1503004794815035
0
LINE
5
114
100
AcDbEntity
8
0
100
AcDbLine
10
-64.526800222221325
20
-4.6092740898150444
30
0
11
-62.885641336292352
21
-4.6092740898150399
31
0
0
ELLIPSE
5
115
100
AcDbEntity
8
0
100
AcDbEllipse
10
-62.885641336292352
20
-8.984954989354506
30
0
11
4.9960036108132044e-15
21
4.3756808995394554
31
0.0
40
0.96283783783783772
41
4.7123889803846897
42
6.2831853071795845
0
LINE
5
116
100
AcDbEntity
8
0
100
AcDbLine
10
-58.672570199911448
20
-8.9849549893545131
30
0
11
-58.672570199911398
21
-10.689456849828138
31
0
0
ELLIPSE
5
117
100
AcDbEntity
8
0
100
AcDbEllipse
10
-58.158880657821534
20
-10.689091267153312
30
0
11
0.004825045001917925
21
0.5334959288630966
31
0.0
40
0.96283186650137831
41
1.5801893853627929
42
3.1503004794812477
0
LINE
5
118
100
AcDbEntity
8
0
100
AcDbLine
10
-58.159232654653763
20
-11.222607423148441
30
0
11
36.522901387184291
21
-11.222607423148458
31
0
0
ELLIPSE
5
119
100
AcDbEntity
8
0
100
AcDbEllipse
10
36.522549390352175
20
-10.689091267153323
30
0
11
0.0048250450019184802
21
-0.53349592886309649
31
0.0
40
0.9628318665013782
41
6.2744774812879038
42
7.8445885754065623
0
LINE
5
120
100
AcDbEntity
8
0
100
AcDbLine
10
37.036238932442075
20
-10.689456849828163
30
0
11
37.036238932442032
21
-8.984954989354506
31
0
0
ELLIPSE
5
121
100
AcDbEntity
8
0
100
AcDbEllipse
10
41.300661420174251
20
-8.984954989354506
30
0
11
1.6653345369377352e-15
21
-4.4290142328727358
31
0.0
40
0.96283783783783772
41
3.1415926535897913
42
4.7123889803846897
0
LINE
5
122
100
AcDbEntity
8
0
100
AcDbLine
10
41.300661420174251
20
-4.5559407564817711
30
0
11
42.941820306103217
21
-4.5559407564817711
31
0
0
ELLIPSE
5
123
100
AcDbEntity
8
0
100
AcDbEllipse
10
42.941468309270981
20
-4.0224246004866417
30
0
11
0.0048250450019328784
21
-0.53349592886309716
31
0.0
40
0.96283186650137798
41
6.2744774812880602
42
7.8445885754065472
0
LWPOLYLINE
5
124
100
AcDbEntity
8
0
100
AcDbPolyline
90
4
70
1
43
0.0
10
34.207510041940949
20
45.426201522813223
10
-55.792489958059065
20
45.426201522813223
10
-55.792489958059065
20
-9.5737984771867808
10
34.207510041940949
20
-9.573798477186779
0
LINE
5
125
100
AcDbEntity
8
0
100
AcDbLine
10
-10.766814282383375
20
47.128343802108112
30
0
11
-10.818165633734731
21
-11.22260742314845
31
0
0
LINE
5
126
100
AcDbEntity
8
0
100
AcDbLine
10
-65.040137767479095
20
17.899534856146566
30
0
11
43.455157851360951
21
17.952868189479872
31
0
0
LINE
5
127
100
AcDbEntity
8
0
100
AcDbLine
10
-10.792489958059068
20
45.426201522813223
30
0
11
-10.792489958059068
21
-9.5737984771867808
31
0
0
LINE
5
128
100
AcDbEntity
8
0
100
AcDbLine
10
-55.792489958059065
20
17.926201522813219
30
0
11
34.207510041940949
21
17.926201522813219
31
0
0
CIRCLE
5
129
100
AcDbEntity
8
0
100
AcDbCircle
10
-50.792489958059065
20
40.426201522813223
30
0
40
1.5000000000000009
210
0
220
0
230
1
0
CIRCLE
5
130
100
AcDbEntity
8
0
100
AcDbCircle
10
29.247003056652638
20
40.355763320153663
30
0
40
1.5000000000000009
210
0
220
0
230
1
0
ENDSEC
0
SECTION
2
OBJECTS
0
DICTIONARY
5
C
100
AcDbDictionary
3
ACAD_GROUP
350
D
3
ACAD_MLINESTYLE
350
17
0
DICTIONARY
5
D
100
AcDbDictionary
0
DICTIONARY
5
1A
330
C
100
AcDbDictionary
0
DICTIONARY
5
17
100
AcDbDictionary
0
ENDSEC
0
EOF
