0
SECTION
2
HEADER
9
$INSUNITS
70
4
9
$ACADVER
1
AC1014
9
$HANDSEED
5
FFFF
0
ENDSEC
0
SECTION
2
TABLES
0
TABLE
2
VPORT
5
8
100
AcDbSymbolTable
0
ENDTAB
0
TABLE
2
LTYPE
5
5
100
AcDbSymbolTable
0
LTYPE
5
14
100
AcDbSymbolTableRecord
100
AcDbLinetypeTableRecord
2
BYBLOCK
70
0
0
LTYPE
5
15
100
AcDbSymbolTableRecord
100
AcDbLinetypeTableRecord
2
BYLAYER
70
0
0
ENDTAB
0
TABLE
2
LAYER
5
2
100
AcDbSymbolTable
70
2
0
LAYER
5
50
100
AcDbSymbolTableRecord
100
AcDbLayerTableRecord
2
0
70
0
6
CONTINUOUS
0
ENDTAB
0
TABLE
2
STYLE
5
3
100
AcDbSymbolTable
70
1
0
STYLE
5
11
100
AcDbSymbolTableRecord
100
AcDbTextStyleTableRecord
2
STANDARD
70
0
0
ENDTAB
0
TABLE
2
VIEW
5
6
100
AcDbSymbolTable
70
0
0
ENDTAB
0
TABLE
2
UCS
5
7
100
AcDbSymbolTable
70
0
0
ENDTAB
0
TABLE
2
APPID
5
9
100
AcDbSymbolTable
70
2
0
APPID
5
12
100
AcDbSymbolTableRecord
100
AcDbRegAppTableRecord
2
ACAD
70
0
0
ENDTAB
0
TABLE
2
DIMSTYLE
5
A
100
AcDbSymbolTable
70
1
0
ENDTAB
0
TABLE
2
BLOCK_RECORD
5
1
100
AcDbSymbolTable
70
1
0
BLOCK_RECORD
5
1F
100
AcDbSymbolTableRecord
100
AcDbBlockTableRecord
2
*MODEL_SPACE
0
BLOCK_RECORD
5
1B
100
AcDbSymbolTableRecord
100
AcDbBlockTableRecord
2
*PAPER_SPACE
0
ENDTAB
0
ENDSEC
0
SECTION
2
BLOCKS
0
BLOCK
5
20
100
AcDbEntity
100
AcDbBlockBegin
2
*MODEL_SPACE
0
ENDBLK
5
21
100
AcDbEntity
100
AcDbBlockEnd
0
BLOCK
5
1C
100
AcDbEntity
100
AcDbBlockBegin
2
*PAPER_SPACE
0
ENDBLK
5
1D
100
AcDbEntity
100
AcDbBlockEnd
0
ENDSEC
0
SECTION
2
ENTITIES
0
LINE
5
100
100
AcDbEntity
8
0
100
AcDbLine
10
43.455157851360951
20
-4.0227901831614732
30
0
11
43.455157851360951
21
39.928526562121213
31
0
0
ELLIPSE
5
101
100
AcDbEntity
8
0
100
AcDbEllipse
10
42.941468309270981
20
39.928160979446325
30
0
11
-0.0048250450019328784
21
-0.53349592886309716
31
0.0
40
0.96283186650137798
41
1.5801893853629476
42
3.1503004794812903
0
LINE
5
102
100
AcDbEntity
8
0
100
AcDbLine
10
42.941820306103224
20
40.461677135441462
30
0
11
41.300661420174251
21
40.461677135441533
31
0
0
ELLIPSE
5
103
100
AcDbEntity
8
0
100
AcDbEllipse
10
41.300661420174251
20
44.890691368314172
30
0
11
-1.6653345369377352e-15
21
-4.4290142328727358
31
0.0
40
0.96283783783783772
41
4.7123889803846915
42
6.2831853071795862
0
LINE
5
104
100
AcDbEntity
8
0
100
AcDbLine
10
37.036238932442053
20
44.890691368314172
30
0
11
37.036238932442032
21
46.595193228787892
31
0
0
ELLIPSE
5
105
100
AcDbEntity
8
0
100
AcDbEllipse
10
36.522549390352175
20
46.594827646113004
30
0
11
-0.0048250450019323233
21
-0.53349592886309705
31
0.0
40
0.96283186650137798
41
1.5801893853629354
42
3.1503004794815177
0
LINE
5
106
100
AcDbEntity
8
0
100
AcDbLine
10
35.749082177987781
20
47.128343802108091
30
0
11
-58.056529951951049
21
47.128343802108091
31
0
0
ELLIPSE
5
107
100
AcDbEntity
8
0
100
AcDbEllipse
10
-58.056177955118926
20
46.594827646113004
30
0
11
-0.0048250450019184802
21
0.53349592886309649
31
0.0
40
0.9628318665013782
41
6.2744774812879314
42
7.8445885754064593
0
LINE
5
108
100
AcDbEntity
8
0
100
AcDbLine
10
-58.569867497208826
20
46.595193228787892
30
0
11
-58.569867497208804
21
44.890691368314172
31
0
0
ELLIPSE
5
109
100
AcDbEntity
8
0
100
AcDbEllipse
10
-62.885641336292352
20
44.890691368314172
30
0
11
-3.3306690738754696e-15
21
4.4823475662060588
31
0.0
40
0.96283783783783794
41
3.1415926535897913
42
4.7123889803846897
0
LINE
5
110
100
AcDbEntity
8
0
100
AcDbLine
10
-62.885641336292359
20
40.408343802108114
30
0
11
-64.526800222221325
21
40.408343802108206
31
0
0
ELLIPSE
5
111
100
AcDbEntity
8
0
100
AcDbEllipse
10
-64.526448225389203
20
39.874827646113005
30
0
11
-0.0048250450019328784
21
0.53349592886309716
31
0.0
40
0.96283186650137798
41
6.274477481287863
42
7.8445885754064735
0
LINE
5
112
100
AcDbEntity
8
0
100
AcDbLine
10
-65.040137767479109
20
39.875193228787879
30
0
11
-65.040137767479067
21
-4.0761235164947474
31
0
0
ELLIPSE
5
113
100
AcDbEntity
8
0
100
AcDbEllipse
10
-64.526448225389203
20
-4.075757933819915
30
0
11
0.0048250450019194499
21
0.5334959288630966
31
0.0
40
0.96283186650137809
41
1.5801893853628073
42
3.1503004794815035
0
LINE
5
114
100
AcDbEntity
8
0
100
AcDbLine
10
-64.526800222221325
20
-4.6092740898150444
30
0
11
-62.885641336292352
21
-4.6092740898150399
31
0
0
ELLIPSE
5
115
100
AcDbEntity
8
0
100
AcDbEllipse
10
-62.885641336292352
20
-8.984954989354506
30
0
11
4.9960036108132044e-15
21
4.3756808995394554
31
0.0
40
0.96283783783783772
41
4.7123889803846897
42
6.2831853071795845
0
LINE
5
116
100
AcDbEntity
8
0
100
AcDbLine
10
-58.672570199911448
20
-8.9849549893545131
30
0
11
-58.672570199911398
21
-10.689456849828138
31
0
0
ELLIPSE
5
117
100
AcDbEntity
8
0
100
AcDbEllipse
10
-58.158880657821534
20
-10.689091267153312
30
0
11
0.004825045001917925
21
0.5334959288630966
31
0.0
40
0.96283186650137831
41
1.5801893853627929
42
3.1503004794812477
0
LINE
5
118
100
AcDbEntity
8
0
100
AcDbLine
10
-58.159232654653763
20
-11.222607423148441
30
0
11
35.749082177987773
21
-11.222607423148458
31
0
0
ELLIPSE
5
119
100
AcDbEntity
8
0
100
AcDbEllipse
10
36.522549390352175
20
-10.689091267153323
30
0
11
0.0048250450019184802
21
-0.53349592886309649
31
0.0
40
0.9628318665013782
41
6.274477481287918
42
7.8445885754065623
0
LINE
5
120
100
AcDbEntity
8
0
100
AcDbLine
10
37.036238932442075
20
-10.689456849828163
30
0
11
37.036238932442032
21
-8.984954989354506
31
0
0
ELLIPSE
5
121
100
AcDbEntity
8
0
100
AcDbEllipse
10
41.300661420174251
20
-8.984954989354506
30
0
11
1.6653345369377352e-15
21
-4.4290142328727358
31
0.0
40
0.96283783783783772
41
3.1415926535897913
42
4.7123889803846897
0
LINE
5
122
100
AcDbEntity
8
0
100
AcDbLine
10
41.300661420174251
20
-4.5559407564817711
30
0
11
42.941820306103217
21
-4.5559407564817711
31
0
0
ELLIPSE
5
123
100
AcDbEntity
8
0
100
AcDbEllipse
10
42.941468309270981
20
-4.0224246004866417
30
0
11
0.0048250450019328784
21
-0.53349592886309716
31
0.0
40
0.96283186650137798
41
6.2744774812880602
42
7.8445885754065472
0
LWPOLYLINE
5
124
100
AcDbEntity
8
0
100
AcDbPolyline
90
4
70
1
43
0.0
10
34.207510041940949
20
44.575010468774884
10
-55.792489958059051
20
44.575010468774884
10
-55.792489958059051
20
-8.7226074231484407
10
34.207510041940942
20
-8.7226074231484407
0
LINE
5
125
100
AcDbEntity
8
0
100
AcDbLine
10
-11.153723886981632
20
47.128343802108091
30
0
11
-11.205075238332993
21
-11.22260742314845
31
0
0
LINE
5
126
100
AcDbEntity
8
0
100
AcDbLine
10
-65.040137767479095
20
17.899534856146566
30
0
11
43.455157851360951
21
17.952868189479872
31
0
0
LINE
5
127
100
AcDbEntity
8
0
100
AcDbLine
10
-10.792489958059052
20
44.575010468774884
30
0
11
-10.792489958059052
21
-8.7226074231484407
31
0
0
LINE
5
128
100
AcDbEntity
8
0
100
AcDbLine
10
-55.792489958059065
20
17.926201522813219
30
0
11
34.207510041940949
21
17.926201522813219
31
0
0
CIRCLE
5
129
100
AcDbEntity
8
0
100
AcDbCircle
10
-50.792489958059051
20
39.575010468774884
30
0
40
1.5000000000000009
210
0
220
0
230
1
0
CIRCLE
5
130
100
AcDbEntity
8
0
100
AcDbCircle
10
28.471686278311488
20
39.50525457828774
30
0
40
1.5000000000000009
210
0
220
0
230
1
0
LINE
5
131
100
AcDbEntity
8
0
100
AcDbLine
10
35.749082177987773
20
-11.222607423148458
30
0
11
35.749082177987781
21
47.128343802108091
31
0
0
LINE
5
132
100
AcDbEntity
8
0
100
AcDbLine
10
35.749082177987781
20
47.128343802108091
30
0
11
35.749082177987773
21
-11.222607423148458
31
0
0
LINE
5
133
100
AcDbEntity
8
0
100
AcDbLine
10
35.749082177987773
20
-11.222607423148458
30
0
11
36.522901387184298
21
-11.222607423148451
31
0
0
LINE
5
134
100
AcDbEntity
8
0
100
AcDbLine
10
36.522901387184298
20
47.128343802108141
30
0
11
35.749082177987781
21
47.128343802108091
31
0
0
LINE
5
135
100
AcDbEntity
8
0
100
AcDbLine
10
-32.100000000000009
20
6.4000000000000412
30
20.800000000000001
11
-47.900000000000048
21
6.4000000000000403
31
20.800000000000001
0
LINE
5
136
100
AcDbEntity
8
0
100
AcDbLine
10
-47.900000000000048
20
6.4000000000000394
30
20.800000000000001
11
-47.900000000000048
21
-14.800000000000047
31
20.799999999999997
0
LINE
5
137
100
AcDbEntity
8
0
100
AcDbLine
10
-32.100000000000009
20
-14.80000000000004
30
20.799999999999997
11
-32.100000000000009
21
6.4000000000000412
31
20.800000000000001
0
LINE
5
138
100
AcDbEntity
8
0
100
AcDbLine
10
-47.900000000000048
20
-14.800000000000047
30
20.799999999999997
11
-32.100000000000009
21
-14.80000000000004
31
20.799999999999997
0
LINE
5
139
100
AcDbEntity
8
0
100
AcDbLine
10
-18.887703406842085
20
-11.539999999999752
30
19.646220441054247
11
32.212296593156402
21
-11.539999999999752
31
19.646220441053892
0
LINE
5
140
100
AcDbEntity
8
0
100
AcDbLine
10
32.212296593156402
20
-11.539999999999752
30
19.646220441053892
11
32.212296593156395
21
-9.5399999999998073
31
19.646220441053895
0
LINE
5
141
100
AcDbEntity
8
0
100
AcDbLine
10
32.212296593156395
20
-9.5399999999998073
30
19.646220441053895
11
27.71229659315653
21
-9.5399999999998073
31
19.646220441053927
0
LINE
5
142
100
AcDbEntity
8
0
100
AcDbLine
10
27.71229659315653
20
-9.5399999999998073
30
19.646220441053927
11
27.712296593156452
21
0.79999999999990856
31
19.646220441053931
0
LINE
5
143
100
AcDbEntity
8
0
100
AcDbLine
10
27.712296593156452
20
0.79999999999990856
30
19.646220441053931
11
-14.387703406842306
21
0.79999999999990745
31
19.646220441054226
0
LINE
5
144
100
AcDbEntity
8
0
100
AcDbLine
10
-14.387703406842306
20
0.79999999999990745
30
19.646220441054226
11
-14.387703406842235
21
-9.5399999999998091
31
19.646220441054215
0
LINE
5
145
100
AcDbEntity
8
0
100
AcDbLine
10
-14.387703406842235
20
-9.5399999999998091
30
19.646220441054215
11
-18.887703406842103
21
-9.5399999999998073
31
19.64622044105425
0
LINE
5
146
100
AcDbEntity
8
0
100
AcDbLine
10
-18.887703406842103
20
-9.5399999999998073
30
19.64622044105425
11
-18.887703406842085
21
-11.539999999999752
31
19.646220441054247
0
LINE
5
147
100
AcDbEntity
8
0
100
AcDbLine
10
-19.887703406842057
20
-11.539999999999701
30
7.1462204410546253
11
-19.887703406842142
21
0.79999999999995852
31
7.1462204410546279
0
LINE
5
148
100
AcDbEntity
8
0
100
AcDbLine
10
-19.887703406842142
20
0.79999999999995852
30
7.1462204410546279
11
33.212296593156289
21
0.79999999999995763
31
7.1462204410542611
0
LINE
5
149
100
AcDbEntity
8
0
100
AcDbLine
10
33.212296593156289
20
0.79999999999995763
30
7.1462204410542611
11
33.212296593156374
21
-11.539999999999701
31
7.1462204410542576
0
LINE
5
150
100
AcDbEntity
8
0
100
AcDbLine
10
33.212296593156374
20
-11.539999999999701
30
7.1462204410542576
11
32.212296593156402
21
-11.539999999999701
31
7.1462204410542629
0
LINE
5
151
100
AcDbEntity
8
0
100
AcDbLine
10
32.212296593156402
20
-11.539999999999701
30
7.1462204410542629
11
-18.887703406842085
21
-11.539999999999701
31
7.1462204410546173
0
LINE
5
152
100
AcDbEntity
8
0
100
AcDbLine
10
-18.887703406842085
20
-11.539999999999701
30
7.1462204410546173
11
-19.887703406842057
21
-11.539999999999701
31
7.1462204410546253
0
CIRCLE
5
153
100
AcDbEntity
8
0
100
AcDbCircle
10
12.202296593156925
20
-0.99999999999999289
30
7.146220441054405
40
0.31999999999999057
210
6.93889390390723e-15
220
-5.6898930012036068e-16
230
1
0
CIRCLE
5
154
100
AcDbEntity
8
0
100
AcDbCircle
10
13.5872965931569
20
-3.8399999999999146
30
7.1462204410543944
40
0.31999999999999057
210
6.93889390390723e-15
220
-5.6898930012036068e-16
230
1
0
CIRCLE
5
155
100
AcDbEntity
8
0
100
AcDbCircle
10
9.4322965931570035
20
-0.99999999999999289
30
7.1462204410544246
40
0.31999999999999057
210
6.93889390390723e-15
220
-5.6898930012036068e-16
230
1
0
CIRCLE
5
156
100
AcDbEntity
8
0
100
AcDbCircle
10
10.817296593156982
20
-3.8399999999999146
30
7.1462204410544139
40
0.31999999999999057
210
6.93889390390723e-15
220
-5.6898930012036068e-16
230
1
0
CIRCLE
5
157
100
AcDbEntity
8
0
100
AcDbCircle
10
5.2772965931571463
20
-3.8399999999999146
30
7.1462204410544512
40
0.31999999999999057
210
6.93889390390723e-15
220
-5.6898930012036068e-16
230
1
0
CIRCLE
5
158
100
AcDbEntity
8
0
100
AcDbCircle
10
6.6622965931570866
20
-0.99999999999999289
30
7.1462204410544423
40
0.31999999999999057
210
6.93889390390723e-15
220
-5.6898930012036068e-16
230
1
0
CIRCLE
5
159
100
AcDbEntity
8
0
100
AcDbCircle
10
8.0472965931570641
20
-3.8399999999999146
30
7.1462204410544334
40
0.31999999999999057
210
6.93889390390723e-15
220
-5.6898930012036068e-16
230
1
0
CIRCLE
5
160
100
AcDbEntity
8
0
100
AcDbCircle
10
-4.4177034068425867
20
-0.99999999999999289
30
7.1462204410545205
40
0.31999999999999057
210
6.93889390390723e-15
220
-5.6898930012036068e-16
230
1
0
CIRCLE
5
161
100
AcDbEntity
8
0
100
AcDbCircle
10
-1.6477034068426688
20
-0.99999999999999289
30
7.1462204410545009
40
0.31999999999999057
210
6.93889390390723e-15
220
-5.6898930012036068e-16
230
1
0
CIRCLE
5
162
100
AcDbEntity
8
0
100
AcDbCircle
10
-0.26270340684269033
20
-3.8399999999999146
30
7.1462204410544921
40
0.31999999999999057
210
6.93889390390723e-15
220
-5.6898930012036068e-16
230
1
0
CIRCLE
5
163
100
AcDbEntity
8
0
100
AcDbCircle
10
-3.0327034068426082
20
-3.8399999999999146
30
7.1462204410545098
40
0.31999999999999057
210
6.93889390390723e-15
220
-5.6898930012036068e-16
230
1
0
CIRCLE
5
164
100
AcDbEntity
8
0
100
AcDbCircle
10
3.8922965931571674
20
-0.99999999999999289
30
7.1462204410544627
40
0.31999999999999057
210
6.93889390390723e-15
220
-5.6898930012036068e-16
230
1
0
CIRCLE
5
165
100
AcDbEntity
8
0
100
AcDbCircle
10
2.5072965931572289
20
-3.8399999999999146
30
7.1462204410544716
40
0.31999999999999057
210
6.93889390390723e-15
220
-5.6898930012036068e-16
230
1
0
CIRCLE
5
166
100
AcDbEntity
8
0
100
AcDbCircle
10
1.1222965931572504
20
-0.99999999999999289
30
7.1462204410544832
40
0.31999999999999057
210
6.93889390390723e-15
220
-5.6898930012036068e-16
230
1
0
CIRCLE
5
167
100
AcDbEntity
8
0
100
AcDbCircle
10
-9.9577034068424233
20
-0.99999999999999289
30
7.1462204410545578
40
0.31999999999999057
210
6.93889390390723e-15
220
-5.6898930012036068e-16
230
1
0
CIRCLE
5
168
100
AcDbEntity
8
0
100
AcDbCircle
10
-7.1877034068425054
20
-0.99999999999999289
30
7.14622044105454
40
0.31999999999999057
210
6.93889390390723e-15
220
-5.6898930012036068e-16
230
1
0
CIRCLE
5
169
100
AcDbEntity
8
0
100
AcDbCircle
10
-5.8027034068425269
20
-3.8399999999999146
30
7.1462204410545294
40
0.31999999999999057
210
6.93889390390723e-15
220
-5.6898930012036068e-16
230
1
0
CIRCLE
5
170
100
AcDbEntity
8
0
100
AcDbCircle
10
-8.5727034068424466
20
-3.8399999999999146
30
7.1462204410545489
40
0.31999999999999057
210
6.93889390390723e-15
220
-5.6898930012036068e-16
230
1
0
LINE
5
171
100
AcDbEntity
8
0
100
AcDbLine
10
-15.287703406842246
20
-4.0199999999999108
30
7.146220441054596
11
-15.287703406842256
21
-2.4199999999999537
31
7.1462204410545951
0
ARC
5
172
100
AcDbEntity
8
0
100
AcDbCircle
10
-16.887703406842213
20
-2.4199999999999533
30
7.1462204410546075
40
1.5999999999999548
210
7.6327832942981674e-15
220
-2.4074124304841499e-31
230
1
100
AcDbArc
50
0
51
180
0
LINE
5
173
100
AcDbEntity
8
0
100
AcDbLine
10
-18.487703406842165
20
-2.4199999999999529
30
7.1462204410546182
11
-18.487703406842151
21
-4.0199999999999108
31
7.1462204410546173
0
ARC
5
174
100
AcDbEntity
8
0
100
AcDbCircle
10
-16.887703406842199
20
-4.0199999999999108
30
7.1462204410546049
40
1.5999999999999526
210
7.6327832942981784e-15
220
0
230
1
100
AcDbArc
50
-180
51
0
0
CIRCLE
5
175
100
AcDbEntity
8
0
100
AcDbCircle
10
23.282296593156598
20
-0.99999999999999289
30
7.1462204410543269
40
0.31999999999999057
210
6.93889390390723e-15
220
-5.6898930012036068e-16
230
1
0
CIRCLE
5
176
100
AcDbEntity
8
0
100
AcDbCircle
10
20.512296593156677
20
-0.99999999999999289
30
7.1462204410543473
40
0.31999999999999057
210
6.93889390390723e-15
220
-5.6898930012036068e-16
230
1
0
CIRCLE
5
177
100
AcDbEntity
8
0
100
AcDbCircle
10
19.127296593156736
20
-3.8399999999999146
30
7.1462204410543562
40
0.31999999999999057
210
6.93889390390723e-15
220
-5.6898930012036068e-16
230
1
0
CIRCLE
5
178
100
AcDbEntity
8
0
100
AcDbCircle
10
21.897296593156653
20
-3.8399999999999146
30
7.1462204410543357
40
0.31999999999999057
210
6.93889390390723e-15
220
-5.6898930012036068e-16
230
1
0
CIRCLE
5
179
100
AcDbEntity
8
0
100
AcDbCircle
10
16.357296593156821
20
-3.8399999999999146
30
7.1462204410543766
40
0.31999999999999057
210
6.93889390390723e-15
220
-5.6898930012036068e-16
230
1
0
CIRCLE
5
180
100
AcDbEntity
8
0
100
AcDbCircle
10
17.742296593156759
20
-0.99999999999999289
30
7.1462204410543677
40
0.31999999999999057
210
6.93889390390723e-15
220
-5.6898930012036068e-16
230
1
0
CIRCLE
5
181
100
AcDbEntity
8
0
100
AcDbCircle
10
14.972296593156841
20
-0.99999999999999289
30
7.1462204410543855
40
0.31999999999999057
210
6.93889390390723e-15
220
-5.6898930012036068e-16
230
1
0
ARC
5
182
100
AcDbEntity
8
0
100
AcDbCircle
10
30.212296593156399
20
-2.4199999999999555
30
7.1462204410542807
40
1.5999999999999526
210
6.9388939039074343e-15
220
1.4012984643248171e-45
230
1
100
AcDbArc
50
0
51
180
0
LINE
5
183
100
AcDbEntity
8
0
100
AcDbLine
10
28.612296593156444
20
-2.4199999999999573
30
7.1462204410542913
11
28.612296593156458
21
-4.0199999999999108
31
7.1462204410542904
0
LINE
5
184
100
AcDbEntity
8
0
100
AcDbLine
10
28.612296593156458
20
-4.0199999999999108
30
7.1462204410542904
11
31.812296593156372
21
-4.0199999999999108
31
7.14622044105427
0
LINE
5
185
100
AcDbEntity
8
0
100
AcDbLine
10
31.812296593156372
20
-4.0199999999999108
30
7.14622044105427
11
31.812296593156351
21
-2.4199999999999537
31
7.14622044105427
0
CIRCLE
5
186
100
AcDbEntity
8
0
100
AcDbCircle
10
-34.285000000000011
20
-4.0000000000000142
30
4.4999999999999662
40
1.6250000000000031
210
1.2246467991473564e-16
220
-2.4980018054065919e-16
230
1
0
CIRCLE
5
187
100
AcDbEntity
8
0
100
AcDbCircle
10
-45.715000000000039
20
-4.0000000000000178
30
4.4999999999999662
40
1.6250000000000031
210
1.2246467991473564e-16
220
-2.4980018054065919e-16
230
1
0
LINE
5
188
100
AcDbEntity
8
0
100
AcDbLine
10
-47.900000000000048
20
6.4000000000000403
30
20.800000000000001
11
-32.100000000000009
21
6.4000000000000403
31
20.799999999999997
0
LINE
5
189
100
AcDbEntity
8
0
100
AcDbLine
10
-32.100000000000009
20
6.4000000000000403
30
20.799999999999997
11
-32.100000000000009
21
-14.80000000000004
31
20.799999999999997
0
LINE
5
190
100
AcDbEntity
8
0
100
AcDbLine
10
-32.100000000000009
20
-14.80000000000004
30
20.799999999999997
11
-47.900000000000048
21
-14.80000000000004
31
20.799999999999997
0
LINE
5
191
100
AcDbEntity
8
0
100
AcDbLine
10
-47.900000000000048
20
-14.80000000000004
30
20.799999999999997
11
-47.900000000000048
21
6.4000000000000403
31
20.800000000000001
0
LINE
5
192
100
AcDbEntity
8
0
100
AcDbLine
10
-18.887703406842085
20
-11.539999999999752
30
19.646220441054247
11
-18.887703406842093
21
-10.539999999999781
31
19.64622044105425
0
LINE
5
193
100
AcDbEntity
8
0
100
AcDbLine
10
-14.387703406842235
20
-9.5399999999998091
30
19.646220441054215
11
-14.387703406842235
21
0.83526879681167898
31
19.646220441054215
0
LINE
5
194
100
AcDbEntity
8
0
100
AcDbLine
10
-14.387703406842235
20
0.83526879681167898
30
19.646220441054215
11
27.712296593156452
21
0.83526879681167898
31
19.646220441054215
0
LINE
5
195
100
AcDbEntity
8
0
100
AcDbLine
10
27.712296593156452
20
0.83526879681167898
30
19.646220441054215
11
27.712296593156452
21
-9.5399999999998073
31
19.646220441054215
0
LINE
5
196
100
AcDbEntity
8
0
100
AcDbLine
10
32.053432874675337
20
-9.5399999999998073
30
19.646220441053895
11
32.053432874675337
21
-11.634113989447489
31
19.646220441053895
0
LINE
5
197
100
AcDbEntity
8
0
100
AcDbLine
10
32.053432874675337
20
-11.634113989447489
30
19.646220441053895
11
-19.387703406842071
21
-11.539999999999701
31
7.14622044105462
0
CIRCLE
5
198
100
AcDbEntity
8
0
100
AcDbCircle
10
-45.715000000000039
20
-4.0000000000000169
30
4.4999999999999662
40
1.6250000000000029
210
0
220
0
230
1
0
CIRCLE
5
199
100
AcDbEntity
8
0
100
AcDbCircle
10
-34.285000000000011
20
-4.0000000000000142
30
4.4999999999999662
40
1.6250000000000031
210
0
220
0
230
1
0
CIRCLE
5
200
100
AcDbEntity
8
0
100
AcDbCircle
10
-9.9577034068424233
20
-0.99999999999999289
30
7.1462204410545578
40
0.31999999999999051
210
0
220
0
230
1
0
CIRCLE
5
201
100
AcDbEntity
8
0
100
AcDbCircle
10
-7.1877034068425054
20
-0.99999999999999267
30
7.14622044105454
40
0.31999999999999079
210
0
220
0
230
1
0
CIRCLE
5
202
100
AcDbEntity
8
0
100
AcDbCircle
10
-4.4177034068425867
20
-0.99999999999999289
30
7.1462204410545205
40
0.31999999999999074
210
0
220
0
230
1
0
CIRCLE
5
203
100
AcDbEntity
8
0
100
AcDbCircle
10
-1.6477034068426688
20
-0.99999999999999289
30
7.1462204410545009
40
0.31999999999999057
210
0
220
0
230
1
0
CIRCLE
5
204
100
AcDbEntity
8
0
100
AcDbCircle
10
1.1222965931572504
20
-0.99999999999999289
30
7.1462204410544832
40
0.31999999999999063
210
0
220
0
230
1
0
CIRCLE
5
205
100
AcDbEntity
8
0
100
AcDbCircle
10
3.8922965931571674
20
-0.99999999999999289
30
7.1462204410544627
40
0.31999999999999057
210
0
220
0
230
1
0
CIRCLE
5
206
100
AcDbEntity
8
0
100
AcDbCircle
10
6.6622965931570866
20
-0.99999999999999289
30
7.1462204410544423
40
0.31999999999999063
210
0
220
0
230
1
0
CIRCLE
5
207
100
AcDbEntity
8
0
100
AcDbCircle
10
9.4322965931570035
20
-0.99999999999999267
30
7.1462204410544246
40
0.31999999999999063
210
0
220
0
230
1
0
CIRCLE
5
208
100
AcDbEntity
8
0
100
AcDbCircle
10
12.202296593156925
20
-0.99999999999999312
30
7.146220441054405
40
0.31999999999999029
210
0
220
0
230
1
0
CIRCLE
5
209
100
AcDbEntity
8
0
100
AcDbCircle
10
14.972296593156841
20
-0.99999999999999289
30
7.1462204410543855
40
0.31999999999999074
210
0
220
0
230
1
0
CIRCLE
5
210
100
AcDbEntity
8
0
100
AcDbCircle
10
17.742296593156759
20
-0.99999999999999312
30
7.1462204410543677
40
0.31999999999999024
210
0
220
0
230
1
0
CIRCLE
5
211
100
AcDbEntity
8
0
100
AcDbCircle
10
20.512296593156677
20
-0.99999999999999312
30
7.1462204410543473
40
0.31999999999999024
210
0
220
0
230
1
0
CIRCLE
5
212
100
AcDbEntity
8
0
100
AcDbCircle
10
23.282296593156598
20
-0.99999999999999312
30
7.1462204410543269
40
0.31999999999999007
210
0
220
0
230
1
0
CIRCLE
5
213
100
AcDbEntity
8
0
100
AcDbCircle
10
21.897296593156653
20
-3.8399999999999141
30
7.1462204410543357
40
0.31999999999999118
210
0
220
0
230
1
0
CIRCLE
5
214
100
AcDbEntity
8
0
100
AcDbCircle
10
19.127296593156736
20
-3.8399999999999146
30
7.1462204410543562
40
0.31999999999999035
210
0
220
0
230
1
0
CIRCLE
5
215
100
AcDbEntity
8
0
100
AcDbCircle
10
16.357296593156821
20
-3.8399999999999146
30
7.1462204410543766
40
0.31999999999999018
210
0
220
0
230
1
0
CIRCLE
5
216
100
AcDbEntity
8
0
100
AcDbCircle
10
13.5872965931569
20
-3.8399999999999146
30
7.1462204410543944
40
0.31999999999999029
210
0
220
0
230
1
0
CIRCLE
5
217
100
AcDbEntity
8
0
100
AcDbCircle
10
10.817296593156982
20
-3.8399999999999146
30
7.1462204410544139
40
0.31999999999999074
210
0
220
0
230
1
0
CIRCLE
5
218
100
AcDbEntity
8
0
100
AcDbCircle
10
8.0472965931570641
20
-3.8399999999999146
30
7.1462204410544334
40
0.31999999999999074
210
0
220
0
230
1
0
CIRCLE
5
219
100
AcDbEntity
8
0
100
AcDbCircle
10
5.2772965931571463
20
-3.8399999999999146
30
7.1462204410544512
40
0.31999999999999096
210
0
220
0
230
1
0
CIRCLE
5
220
100
AcDbEntity
8
0
100
AcDbCircle
10
2.5072965931572289
20
-3.8399999999999146
30
7.1462204410544716
40
0.3199999999999904
210
0
220
0
230
1
0
CIRCLE
5
221
100
AcDbEntity
8
0
100
AcDbCircle
10
-0.26270340684269039
20
-3.8399999999999146
30
7.1462204410544921
40
0.31999999999999063
210
0
220
0
230
1
0
CIRCLE
5
222
100
AcDbEntity
8
0
100
AcDbCircle
10
-3.0327034068426082
20
-3.8399999999999146
30
7.1462204410545098
40
0.31999999999999057
210
0
220
0
230
1
0
CIRCLE
5
223
100
AcDbEntity
8
0
100
AcDbCircle
10
-5.8027034068425269
20
-3.8399999999999146
30
7.1462204410545294
40
0.31999999999999074
210
0
220
0
230
1
0
CIRCLE
5
224
100
AcDbEntity
8
0
100
AcDbCircle
10
-8.5727034068424466
20
-3.8399999999999146
30
7.1462204410545489
40
0.31999999999999074
210
0
220
0
230
1
0
ENDSEC
0
SECTION
2
OBJECTS
0
DICTIONARY
5
C
100
AcDbDictionary
3
ACAD_GROUP
350
D
3
ACAD_MLINESTYLE
350
17
0
DICTIONARY
5
D
100
AcDbDictionary
0
DICTIONARY
5
1A
330
C
100
AcDbDictionary
0
DICTIONARY
5
17
100
AcDbDictionary
0
ENDSEC
0
EOF
