%TF.GenerationSoftware,KiCad,Pcbnew,(5.1.8)-1*%
%TF.CreationDate,2021-02-10T22:47:22+08:00*%
%TF.ProjectId,mpg,6d70672e-6b69-4636-9164-5f7063625858,rev?*%
%TF.SameCoordinates,Original*%
%TF.FileFunction,Copper,L2,Inr*%
%TF.FilePolarity,Positive*%
%FSLAX46Y46*%
G04 Gerber Fmt 4.6, Leading zero omitted, Abs format (unit mm)*
G04 Created by KiCad (PCBNEW (5.1.8)-1) date 2021-02-10 22:47:22*
%MOMM*%
%LPD*%
G01*
G04 APERTURE LIST*
%TA.AperFunction,ComponentPad*%
%ADD10R,1.900000X1.900000*%
%TD*%
%TA.AperFunction,ComponentPad*%
%ADD11C,1.900000*%
%TD*%
%TA.AperFunction,ComponentPad*%
%ADD12C,2.600000*%
%TD*%
%TA.AperFunction,ComponentPad*%
%ADD13O,1.700000X1.700000*%
%TD*%
%TA.AperFunction,ComponentPad*%
%ADD14R,1.700000X1.700000*%
%TD*%
%TA.AperFunction,ComponentPad*%
%ADD15C,4.000000*%
%TD*%
%TA.AperFunction,ComponentPad*%
%ADD16C,1.600000*%
%TD*%
%TA.AperFunction,ComponentPad*%
%ADD17R,1.600000X1.600000*%
%TD*%
%TA.AperFunction,ComponentPad*%
%ADD18C,1.800000*%
%TD*%
%TA.AperFunction,ComponentPad*%
%ADD19R,1.800000X1.800000*%
%TD*%
%TA.AperFunction,ComponentPad*%
%ADD20C,0.800000*%
%TD*%
%TA.AperFunction,ComponentPad*%
%ADD21C,6.400000*%
%TD*%
%TA.AperFunction,ComponentPad*%
%ADD22C,2.000000*%
%TD*%
%TA.AperFunction,ViaPad*%
%ADD23C,1.200000*%
%TD*%
%TA.AperFunction,ViaPad*%
%ADD24C,0.800000*%
%TD*%
%TA.AperFunction,Conductor*%
%ADD25C,0.254000*%
%TD*%
%TA.AperFunction,Conductor*%
%ADD26C,0.100000*%
%TD*%
G04 APERTURE END LIST*
D10*
%TO.N,CAN_H*%
%TO.C,J5*%
X100550000Y-97664000D03*
D11*
%TO.N,CAN_L*%
X101820000Y-95124000D03*
%TO.N,GND*%
X103090000Y-97664000D03*
%TO.N,Net-(J5-Pad4)*%
X104360000Y-95124000D03*
%TO.N,Net-(J5-Pad5)*%
X105630000Y-97664000D03*
%TO.N,Net-(J5-Pad6)*%
X106900000Y-95124000D03*
%TO.N,GND*%
X108170000Y-97664000D03*
%TO.N,POW*%
X109440000Y-95124000D03*
D12*
%TO.N,GND*%
X97220000Y-100954000D03*
X112770000Y-100954000D03*
%TD*%
D13*
%TO.N,CAN_H*%
%TO.C,J4*%
X108597000Y-89238000D03*
D14*
%TO.N,Net-(J4-Pad1)*%
X106057000Y-89238000D03*
%TD*%
D13*
%TO.N,RESET*%
%TO.C,J2*%
X143776000Y-72220000D03*
%TO.N,SWDIO*%
X143776000Y-74760000D03*
%TO.N,SWCLK*%
X143776000Y-77300000D03*
D14*
%TO.N,GND*%
X143776000Y-79840000D03*
%TD*%
D15*
%TO.N,GND*%
%TO.C,J1*%
X175220000Y-102424000D03*
X128120000Y-102424000D03*
D16*
X166905000Y-103844000D03*
X164135000Y-103844000D03*
X161365000Y-103844000D03*
%TO.N,Net-(J1-Pad22)*%
X158595000Y-103844000D03*
%TO.N,/sheet60398AC6/In*%
X155825000Y-103844000D03*
%TO.N,GND*%
X153055000Y-103844000D03*
%TO.N,/sheet60278576/In*%
X150285000Y-103844000D03*
%TO.N,Net-(J1-Pad18)*%
X147515000Y-103844000D03*
%TO.N,GND*%
X144745000Y-103844000D03*
%TO.N,/sheet603603F0/In*%
X141975000Y-103844000D03*
%TO.N,/sheet603499BE/In*%
X139205000Y-103844000D03*
%TO.N,/sheet60382A0B/In*%
X136435000Y-103844000D03*
%TO.N,/sheet603E7B14/In*%
X168290000Y-101004000D03*
%TO.N,/sheet603E1701/In*%
X165520000Y-101004000D03*
%TO.N,/sheet603B693B/In*%
X162750000Y-101004000D03*
%TO.N,/sheet603B0EF4/In*%
X159980000Y-101004000D03*
%TO.N,/sheet603AB73C/In*%
X157210000Y-101004000D03*
%TO.N,Net-(J1-Pad8)*%
X154440000Y-101004000D03*
%TO.N,+12V*%
X151670000Y-101004000D03*
%TO.N,Net-(J1-Pad6)*%
X148900000Y-101004000D03*
%TO.N,Net-(J1-Pad5)*%
X146130000Y-101004000D03*
%TO.N,/sheet601EF97F/In*%
X143360000Y-101004000D03*
%TO.N,/sheet601ED88E/In*%
X140590000Y-101004000D03*
%TO.N,GND*%
X137820000Y-101004000D03*
D17*
%TO.N,+3V3*%
X135050000Y-101004000D03*
%TD*%
D18*
%TO.N,Net-(D6-Pad2)*%
%TO.C,D6*%
X120484200Y-93515360D03*
D19*
%TO.N,GND*%
X117944200Y-93515360D03*
%TD*%
D20*
%TO.N,GND*%
%TO.C,H2*%
X175197056Y-62191056D03*
X175900000Y-60494000D03*
X175197056Y-58796944D03*
X173500000Y-58094000D03*
X171802944Y-58796944D03*
X171100000Y-60494000D03*
X171802944Y-62191056D03*
X173500000Y-62894000D03*
D21*
X173500000Y-60494000D03*
%TD*%
D20*
%TO.N,GND*%
%TO.C,H1*%
X95907056Y-62121056D03*
X96610000Y-60424000D03*
X95907056Y-58726944D03*
X94210000Y-58024000D03*
X92512944Y-58726944D03*
X91810000Y-60424000D03*
X92512944Y-62121056D03*
X94210000Y-62824000D03*
D21*
X94210000Y-60424000D03*
%TD*%
D22*
%TO.N,RESET*%
%TO.C,SW1*%
X165438000Y-66886000D03*
%TO.N,GND*%
X169938000Y-66886000D03*
%TO.N,RESET*%
X165438000Y-73386000D03*
%TO.N,GND*%
X169938000Y-73386000D03*
%TD*%
D13*
%TO.N,USART1_RX*%
%TO.C,J3*%
X138950000Y-62568000D03*
%TO.N,USART1_TX*%
X141490000Y-62568000D03*
D14*
%TO.N,GND*%
X144030000Y-62568000D03*
%TD*%
D18*
%TO.N,Net-(D5-Pad2)*%
%TO.C,D5*%
X120476580Y-85890280D03*
D19*
%TO.N,GND*%
X117936580Y-85890280D03*
%TD*%
D18*
%TO.N,Net-(D4-Pad2)*%
%TO.C,D4*%
X120479120Y-78285520D03*
D19*
%TO.N,GND*%
X117939120Y-78285520D03*
%TD*%
D18*
%TO.N,Net-(D3-Pad2)*%
%TO.C,D3*%
X120481660Y-70652820D03*
D19*
%TO.N,GND*%
X117941660Y-70652820D03*
%TD*%
D23*
%TO.N,RESET*%
X152666000Y-73617000D03*
%TO.N,ENC_A*%
X156406000Y-72163000D03*
X139966000Y-86952000D03*
%TO.N,ENC_B*%
X157238000Y-73744000D03*
X142633000Y-86952000D03*
%TO.N,+12V*%
X102628000Y-70442000D03*
X101358000Y-70442000D03*
X92722000Y-95079990D03*
X92722000Y-93810000D03*
%TO.N,Net-(D5-Pad2)*%
X124853000Y-73490000D03*
D24*
%TO.N,SWDIO*%
X147459000Y-77300000D03*
D23*
%TO.N,LED_A*%
X160794000Y-68664000D03*
X112407000Y-57615000D03*
%TO.N,LED_B*%
X118249000Y-58885000D03*
X157619000Y-68156669D03*
%TO.N,LED_C*%
X123456000Y-60409000D03*
X156095000Y-68664000D03*
%TO.N,Net-(D6-Pad2)*%
X127393000Y-73617000D03*
%TO.N,LED_D*%
X144030000Y-65743000D03*
X129044000Y-61552000D03*
%TO.N,GND*%
X158508000Y-81237000D03*
X161289000Y-82647000D03*
X164350000Y-79713000D03*
X151904000Y-68791000D03*
X147827000Y-67788000D03*
X151891000Y-65121000D03*
X150634000Y-96858000D03*
X145363800Y-89809200D03*
X137108800Y-89809200D03*
X174256000Y-89746000D03*
X166128000Y-89746000D03*
X158000000Y-89746000D03*
X129107800Y-89809200D03*
X99961000Y-91905000D03*
X133171000Y-81047000D03*
X131965000Y-74125000D03*
X155078986Y-66886000D03*
X93840000Y-78454000D03*
X93840000Y-80954000D03*
X93840000Y-83454000D03*
X96340000Y-83454000D03*
X96340000Y-80954000D03*
X96340000Y-78454000D03*
X93840000Y-75954000D03*
X93840000Y-73454000D03*
X93840000Y-70954000D03*
X93840000Y-68454000D03*
X93840000Y-65954000D03*
X96340000Y-65954000D03*
X98840000Y-65954000D03*
X96340000Y-68454000D03*
X101340000Y-63454000D03*
X101340000Y-60954000D03*
X101340000Y-58454000D03*
X103840000Y-58454000D03*
X103840000Y-60954000D03*
X96340000Y-75954000D03*
X93840000Y-85954000D03*
X91340000Y-85954000D03*
X91340000Y-83454000D03*
X91340000Y-80954000D03*
X91340000Y-78454000D03*
X91340000Y-75954000D03*
X91340000Y-73454000D03*
X91340000Y-70954000D03*
X91340000Y-68454000D03*
X91340000Y-65954000D03*
X98840000Y-63454000D03*
X98840000Y-58454000D03*
X107200000Y-69934000D03*
X107200000Y-73744000D03*
%TO.N,+3V3*%
X161259037Y-77852963D03*
X149502000Y-70431000D03*
X145236800Y-92603200D03*
X137235800Y-92603200D03*
X174319800Y-92603200D03*
X166064800Y-92603200D03*
X158063800Y-92603200D03*
X129107800Y-92603200D03*
X106829000Y-77163000D03*
X105241500Y-75575500D03*
X101890000Y-73466000D03*
X133121000Y-75128000D03*
X153206000Y-68251000D03*
%TD*%
D25*
%TO.N,GND*%
X178472510Y-107987607D02*
X89942510Y-107987607D01*
X89942510Y-102303224D01*
X96050381Y-102303224D01*
X96182317Y-102598312D01*
X96523045Y-102769159D01*
X96890557Y-102870250D01*
X97270729Y-102897701D01*
X97303895Y-102893558D01*
X97277214Y-102933489D01*
X97106851Y-103344782D01*
X97020000Y-103781409D01*
X97020000Y-104226591D01*
X97106851Y-104663218D01*
X97277214Y-105074511D01*
X97524544Y-105444666D01*
X97839334Y-105759456D01*
X98209489Y-106006786D01*
X98620782Y-106177149D01*
X99057409Y-106264000D01*
X99502591Y-106264000D01*
X99939218Y-106177149D01*
X100350511Y-106006786D01*
X100720666Y-105759456D01*
X101035456Y-105444666D01*
X101282786Y-105074511D01*
X101453149Y-104663218D01*
X101540000Y-104226591D01*
X101540000Y-103781409D01*
X108450000Y-103781409D01*
X108450000Y-104226591D01*
X108536851Y-104663218D01*
X108707214Y-105074511D01*
X108954544Y-105444666D01*
X109269334Y-105759456D01*
X109639489Y-106006786D01*
X110050782Y-106177149D01*
X110487409Y-106264000D01*
X110932591Y-106264000D01*
X111369218Y-106177149D01*
X111780511Y-106006786D01*
X112150666Y-105759456D01*
X112465456Y-105444666D01*
X112712786Y-105074511D01*
X112883149Y-104663218D01*
X112961067Y-104271499D01*
X126452106Y-104271499D01*
X126668228Y-104638258D01*
X127128105Y-104878938D01*
X127626098Y-105025275D01*
X128143071Y-105071648D01*
X128659159Y-105016273D01*
X129154526Y-104861279D01*
X129571772Y-104638258D01*
X129787894Y-104271499D01*
X128120000Y-102603605D01*
X126452106Y-104271499D01*
X112961067Y-104271499D01*
X112970000Y-104226591D01*
X112970000Y-103781409D01*
X112883149Y-103344782D01*
X112712786Y-102933489D01*
X112682189Y-102887697D01*
X112820729Y-102897701D01*
X113198951Y-102850457D01*
X113560690Y-102730333D01*
X113807683Y-102598312D01*
X113875303Y-102447071D01*
X125472352Y-102447071D01*
X125527727Y-102963159D01*
X125682721Y-103458526D01*
X125905742Y-103875772D01*
X126272501Y-104091894D01*
X127940395Y-102424000D01*
X128299605Y-102424000D01*
X129967499Y-104091894D01*
X130334258Y-103875772D01*
X130424854Y-103702665D01*
X135000000Y-103702665D01*
X135000000Y-103985335D01*
X135055147Y-104262574D01*
X135163320Y-104523727D01*
X135320363Y-104758759D01*
X135520241Y-104958637D01*
X135755273Y-105115680D01*
X136016426Y-105223853D01*
X136293665Y-105279000D01*
X136576335Y-105279000D01*
X136853574Y-105223853D01*
X137114727Y-105115680D01*
X137349759Y-104958637D01*
X137549637Y-104758759D01*
X137706680Y-104523727D01*
X137814853Y-104262574D01*
X137820000Y-104236699D01*
X137825147Y-104262574D01*
X137933320Y-104523727D01*
X138090363Y-104758759D01*
X138290241Y-104958637D01*
X138525273Y-105115680D01*
X138786426Y-105223853D01*
X139063665Y-105279000D01*
X139346335Y-105279000D01*
X139623574Y-105223853D01*
X139884727Y-105115680D01*
X140119759Y-104958637D01*
X140319637Y-104758759D01*
X140476680Y-104523727D01*
X140584853Y-104262574D01*
X140590000Y-104236699D01*
X140595147Y-104262574D01*
X140703320Y-104523727D01*
X140860363Y-104758759D01*
X141060241Y-104958637D01*
X141295273Y-105115680D01*
X141556426Y-105223853D01*
X141833665Y-105279000D01*
X142116335Y-105279000D01*
X142393574Y-105223853D01*
X142654727Y-105115680D01*
X142889759Y-104958637D01*
X143011694Y-104836702D01*
X143931903Y-104836702D01*
X144003486Y-105080671D01*
X144258996Y-105201571D01*
X144533184Y-105270300D01*
X144815512Y-105284217D01*
X145095130Y-105242787D01*
X145361292Y-105147603D01*
X145486514Y-105080671D01*
X145558097Y-104836702D01*
X144745000Y-104023605D01*
X143931903Y-104836702D01*
X143011694Y-104836702D01*
X143089637Y-104758759D01*
X143246680Y-104523727D01*
X143354853Y-104262574D01*
X143360513Y-104234118D01*
X143441397Y-104460292D01*
X143508329Y-104585514D01*
X143752298Y-104657097D01*
X144565395Y-103844000D01*
X144924605Y-103844000D01*
X145737702Y-104657097D01*
X145981671Y-104585514D01*
X146102571Y-104330004D01*
X146128212Y-104227711D01*
X146135147Y-104262574D01*
X146243320Y-104523727D01*
X146400363Y-104758759D01*
X146600241Y-104958637D01*
X146835273Y-105115680D01*
X147096426Y-105223853D01*
X147373665Y-105279000D01*
X147656335Y-105279000D01*
X147933574Y-105223853D01*
X148194727Y-105115680D01*
X148429759Y-104958637D01*
X148629637Y-104758759D01*
X148786680Y-104523727D01*
X148894853Y-104262574D01*
X148900000Y-104236699D01*
X148905147Y-104262574D01*
X149013320Y-104523727D01*
X149170363Y-104758759D01*
X149370241Y-104958637D01*
X149605273Y-105115680D01*
X149866426Y-105223853D01*
X150143665Y-105279000D01*
X150426335Y-105279000D01*
X150703574Y-105223853D01*
X150964727Y-105115680D01*
X151199759Y-104958637D01*
X151321694Y-104836702D01*
X152241903Y-104836702D01*
X152313486Y-105080671D01*
X152568996Y-105201571D01*
X152843184Y-105270300D01*
X153125512Y-105284217D01*
X153405130Y-105242787D01*
X153671292Y-105147603D01*
X153796514Y-105080671D01*
X153868097Y-104836702D01*
X153055000Y-104023605D01*
X152241903Y-104836702D01*
X151321694Y-104836702D01*
X151399637Y-104758759D01*
X151556680Y-104523727D01*
X151664853Y-104262574D01*
X151670513Y-104234118D01*
X151751397Y-104460292D01*
X151818329Y-104585514D01*
X152062298Y-104657097D01*
X152875395Y-103844000D01*
X153234605Y-103844000D01*
X154047702Y-104657097D01*
X154291671Y-104585514D01*
X154412571Y-104330004D01*
X154438212Y-104227711D01*
X154445147Y-104262574D01*
X154553320Y-104523727D01*
X154710363Y-104758759D01*
X154910241Y-104958637D01*
X155145273Y-105115680D01*
X155406426Y-105223853D01*
X155683665Y-105279000D01*
X155966335Y-105279000D01*
X156243574Y-105223853D01*
X156504727Y-105115680D01*
X156739759Y-104958637D01*
X156939637Y-104758759D01*
X157096680Y-104523727D01*
X157204853Y-104262574D01*
X157210000Y-104236699D01*
X157215147Y-104262574D01*
X157323320Y-104523727D01*
X157480363Y-104758759D01*
X157680241Y-104958637D01*
X157915273Y-105115680D01*
X158176426Y-105223853D01*
X158453665Y-105279000D01*
X158736335Y-105279000D01*
X159013574Y-105223853D01*
X159274727Y-105115680D01*
X159509759Y-104958637D01*
X159631694Y-104836702D01*
X160551903Y-104836702D01*
X160623486Y-105080671D01*
X160878996Y-105201571D01*
X161153184Y-105270300D01*
X161435512Y-105284217D01*
X161715130Y-105242787D01*
X161981292Y-105147603D01*
X162106514Y-105080671D01*
X162178097Y-104836702D01*
X163321903Y-104836702D01*
X163393486Y-105080671D01*
X163648996Y-105201571D01*
X163923184Y-105270300D01*
X164205512Y-105284217D01*
X164485130Y-105242787D01*
X164751292Y-105147603D01*
X164876514Y-105080671D01*
X164948097Y-104836702D01*
X166091903Y-104836702D01*
X166163486Y-105080671D01*
X166418996Y-105201571D01*
X166693184Y-105270300D01*
X166975512Y-105284217D01*
X167255130Y-105242787D01*
X167521292Y-105147603D01*
X167646514Y-105080671D01*
X167718097Y-104836702D01*
X166905000Y-104023605D01*
X166091903Y-104836702D01*
X164948097Y-104836702D01*
X164135000Y-104023605D01*
X163321903Y-104836702D01*
X162178097Y-104836702D01*
X161365000Y-104023605D01*
X160551903Y-104836702D01*
X159631694Y-104836702D01*
X159709637Y-104758759D01*
X159866680Y-104523727D01*
X159974853Y-104262574D01*
X159980513Y-104234118D01*
X160061397Y-104460292D01*
X160128329Y-104585514D01*
X160372298Y-104657097D01*
X161185395Y-103844000D01*
X161544605Y-103844000D01*
X162357702Y-104657097D01*
X162601671Y-104585514D01*
X162722571Y-104330004D01*
X162748216Y-104227695D01*
X162831397Y-104460292D01*
X162898329Y-104585514D01*
X163142298Y-104657097D01*
X163955395Y-103844000D01*
X164314605Y-103844000D01*
X165127702Y-104657097D01*
X165371671Y-104585514D01*
X165492571Y-104330004D01*
X165518216Y-104227695D01*
X165601397Y-104460292D01*
X165668329Y-104585514D01*
X165912298Y-104657097D01*
X166725395Y-103844000D01*
X167084605Y-103844000D01*
X167897702Y-104657097D01*
X168141671Y-104585514D01*
X168262571Y-104330004D01*
X168277236Y-104271499D01*
X173552106Y-104271499D01*
X173768228Y-104638258D01*
X174228105Y-104878938D01*
X174726098Y-105025275D01*
X175243071Y-105071648D01*
X175759159Y-105016273D01*
X176254526Y-104861279D01*
X176671772Y-104638258D01*
X176887894Y-104271499D01*
X175220000Y-102603605D01*
X173552106Y-104271499D01*
X168277236Y-104271499D01*
X168331300Y-104055816D01*
X168345217Y-103773488D01*
X168303787Y-103493870D01*
X168208603Y-103227708D01*
X168141671Y-103102486D01*
X167897702Y-103030903D01*
X167084605Y-103844000D01*
X166725395Y-103844000D01*
X165912298Y-103030903D01*
X165668329Y-103102486D01*
X165547429Y-103357996D01*
X165521784Y-103460305D01*
X165438603Y-103227708D01*
X165371671Y-103102486D01*
X165127702Y-103030903D01*
X164314605Y-103844000D01*
X163955395Y-103844000D01*
X163142298Y-103030903D01*
X162898329Y-103102486D01*
X162777429Y-103357996D01*
X162751784Y-103460305D01*
X162668603Y-103227708D01*
X162601671Y-103102486D01*
X162357702Y-103030903D01*
X161544605Y-103844000D01*
X161185395Y-103844000D01*
X160372298Y-103030903D01*
X160128329Y-103102486D01*
X160007429Y-103357996D01*
X159981788Y-103460289D01*
X159974853Y-103425426D01*
X159866680Y-103164273D01*
X159709637Y-102929241D01*
X159631694Y-102851298D01*
X160551903Y-102851298D01*
X161365000Y-103664395D01*
X162178097Y-102851298D01*
X163321903Y-102851298D01*
X164135000Y-103664395D01*
X164948097Y-102851298D01*
X166091903Y-102851298D01*
X166905000Y-103664395D01*
X167718097Y-102851298D01*
X167646514Y-102607329D01*
X167391004Y-102486429D01*
X167233989Y-102447071D01*
X172572352Y-102447071D01*
X172627727Y-102963159D01*
X172782721Y-103458526D01*
X173005742Y-103875772D01*
X173372501Y-104091894D01*
X175040395Y-102424000D01*
X175399605Y-102424000D01*
X177067499Y-104091894D01*
X177434258Y-103875772D01*
X177674938Y-103415895D01*
X177821275Y-102917902D01*
X177867648Y-102400929D01*
X177812273Y-101884841D01*
X177657279Y-101389474D01*
X177434258Y-100972228D01*
X177067499Y-100756106D01*
X175399605Y-102424000D01*
X175040395Y-102424000D01*
X173372501Y-100756106D01*
X173005742Y-100972228D01*
X172765062Y-101432105D01*
X172618725Y-101930098D01*
X172572352Y-102447071D01*
X167233989Y-102447071D01*
X167116816Y-102417700D01*
X166834488Y-102403783D01*
X166554870Y-102445213D01*
X166288708Y-102540397D01*
X166163486Y-102607329D01*
X166091903Y-102851298D01*
X164948097Y-102851298D01*
X164876514Y-102607329D01*
X164621004Y-102486429D01*
X164346816Y-102417700D01*
X164064488Y-102403783D01*
X163784870Y-102445213D01*
X163518708Y-102540397D01*
X163393486Y-102607329D01*
X163321903Y-102851298D01*
X162178097Y-102851298D01*
X162106514Y-102607329D01*
X161851004Y-102486429D01*
X161576816Y-102417700D01*
X161294488Y-102403783D01*
X161014870Y-102445213D01*
X160748708Y-102540397D01*
X160623486Y-102607329D01*
X160551903Y-102851298D01*
X159631694Y-102851298D01*
X159509759Y-102729363D01*
X159274727Y-102572320D01*
X159013574Y-102464147D01*
X158736335Y-102409000D01*
X158453665Y-102409000D01*
X158176426Y-102464147D01*
X157915273Y-102572320D01*
X157680241Y-102729363D01*
X157480363Y-102929241D01*
X157323320Y-103164273D01*
X157215147Y-103425426D01*
X157210000Y-103451301D01*
X157204853Y-103425426D01*
X157096680Y-103164273D01*
X156939637Y-102929241D01*
X156739759Y-102729363D01*
X156504727Y-102572320D01*
X156243574Y-102464147D01*
X155966335Y-102409000D01*
X155683665Y-102409000D01*
X155406426Y-102464147D01*
X155145273Y-102572320D01*
X154910241Y-102729363D01*
X154710363Y-102929241D01*
X154553320Y-103164273D01*
X154445147Y-103425426D01*
X154439487Y-103453882D01*
X154358603Y-103227708D01*
X154291671Y-103102486D01*
X154047702Y-103030903D01*
X153234605Y-103844000D01*
X152875395Y-103844000D01*
X152062298Y-103030903D01*
X151818329Y-103102486D01*
X151697429Y-103357996D01*
X151671788Y-103460289D01*
X151664853Y-103425426D01*
X151556680Y-103164273D01*
X151399637Y-102929241D01*
X151321694Y-102851298D01*
X152241903Y-102851298D01*
X153055000Y-103664395D01*
X153868097Y-102851298D01*
X153796514Y-102607329D01*
X153541004Y-102486429D01*
X153266816Y-102417700D01*
X152984488Y-102403783D01*
X152704870Y-102445213D01*
X152438708Y-102540397D01*
X152313486Y-102607329D01*
X152241903Y-102851298D01*
X151321694Y-102851298D01*
X151199759Y-102729363D01*
X150964727Y-102572320D01*
X150703574Y-102464147D01*
X150426335Y-102409000D01*
X150143665Y-102409000D01*
X149866426Y-102464147D01*
X149605273Y-102572320D01*
X149370241Y-102729363D01*
X149170363Y-102929241D01*
X149013320Y-103164273D01*
X148905147Y-103425426D01*
X148900000Y-103451301D01*
X148894853Y-103425426D01*
X148786680Y-103164273D01*
X148629637Y-102929241D01*
X148429759Y-102729363D01*
X148194727Y-102572320D01*
X147933574Y-102464147D01*
X147656335Y-102409000D01*
X147373665Y-102409000D01*
X147096426Y-102464147D01*
X146835273Y-102572320D01*
X146600241Y-102729363D01*
X146400363Y-102929241D01*
X146243320Y-103164273D01*
X146135147Y-103425426D01*
X146129487Y-103453882D01*
X146048603Y-103227708D01*
X145981671Y-103102486D01*
X145737702Y-103030903D01*
X144924605Y-103844000D01*
X144565395Y-103844000D01*
X143752298Y-103030903D01*
X143508329Y-103102486D01*
X143387429Y-103357996D01*
X143361788Y-103460289D01*
X143354853Y-103425426D01*
X143246680Y-103164273D01*
X143089637Y-102929241D01*
X143011694Y-102851298D01*
X143931903Y-102851298D01*
X144745000Y-103664395D01*
X145558097Y-102851298D01*
X145486514Y-102607329D01*
X145231004Y-102486429D01*
X144956816Y-102417700D01*
X144674488Y-102403783D01*
X144394870Y-102445213D01*
X144128708Y-102540397D01*
X144003486Y-102607329D01*
X143931903Y-102851298D01*
X143011694Y-102851298D01*
X142889759Y-102729363D01*
X142654727Y-102572320D01*
X142393574Y-102464147D01*
X142116335Y-102409000D01*
X141833665Y-102409000D01*
X141556426Y-102464147D01*
X141295273Y-102572320D01*
X141060241Y-102729363D01*
X140860363Y-102929241D01*
X140703320Y-103164273D01*
X140595147Y-103425426D01*
X140590000Y-103451301D01*
X140584853Y-103425426D01*
X140476680Y-103164273D01*
X140319637Y-102929241D01*
X140119759Y-102729363D01*
X139884727Y-102572320D01*
X139623574Y-102464147D01*
X139346335Y-102409000D01*
X139063665Y-102409000D01*
X138786426Y-102464147D01*
X138525273Y-102572320D01*
X138290241Y-102729363D01*
X138090363Y-102929241D01*
X137933320Y-103164273D01*
X137825147Y-103425426D01*
X137820000Y-103451301D01*
X137814853Y-103425426D01*
X137706680Y-103164273D01*
X137549637Y-102929241D01*
X137349759Y-102729363D01*
X137114727Y-102572320D01*
X136853574Y-102464147D01*
X136576335Y-102409000D01*
X136293665Y-102409000D01*
X136016426Y-102464147D01*
X135755273Y-102572320D01*
X135520241Y-102729363D01*
X135320363Y-102929241D01*
X135163320Y-103164273D01*
X135055147Y-103425426D01*
X135000000Y-103702665D01*
X130424854Y-103702665D01*
X130574938Y-103415895D01*
X130721275Y-102917902D01*
X130767648Y-102400929D01*
X130712273Y-101884841D01*
X130557279Y-101389474D01*
X130334258Y-100972228D01*
X129967499Y-100756106D01*
X128299605Y-102424000D01*
X127940395Y-102424000D01*
X126272501Y-100756106D01*
X125905742Y-100972228D01*
X125665062Y-101432105D01*
X125518725Y-101930098D01*
X125472352Y-102447071D01*
X113875303Y-102447071D01*
X113939619Y-102303224D01*
X112770000Y-101133605D01*
X112755858Y-101147748D01*
X112576253Y-100968143D01*
X112590395Y-100954000D01*
X112949605Y-100954000D01*
X114119224Y-102123619D01*
X114414312Y-101991683D01*
X114585159Y-101650955D01*
X114686250Y-101283443D01*
X114713701Y-100903271D01*
X114672884Y-100576501D01*
X126452106Y-100576501D01*
X128120000Y-102244395D01*
X129787894Y-100576501D01*
X129571772Y-100209742D01*
X129560801Y-100204000D01*
X133611928Y-100204000D01*
X133611928Y-101804000D01*
X133624188Y-101928482D01*
X133660498Y-102048180D01*
X133719463Y-102158494D01*
X133798815Y-102255185D01*
X133895506Y-102334537D01*
X134005820Y-102393502D01*
X134125518Y-102429812D01*
X134250000Y-102442072D01*
X135850000Y-102442072D01*
X135974482Y-102429812D01*
X136094180Y-102393502D01*
X136204494Y-102334537D01*
X136301185Y-102255185D01*
X136380537Y-102158494D01*
X136439502Y-102048180D01*
X136455117Y-101996702D01*
X137006903Y-101996702D01*
X137078486Y-102240671D01*
X137333996Y-102361571D01*
X137608184Y-102430300D01*
X137890512Y-102444217D01*
X138170130Y-102402787D01*
X138436292Y-102307603D01*
X138561514Y-102240671D01*
X138633097Y-101996702D01*
X137820000Y-101183605D01*
X137006903Y-101996702D01*
X136455117Y-101996702D01*
X136475812Y-101928482D01*
X136488072Y-101804000D01*
X136488072Y-101541087D01*
X136516397Y-101620292D01*
X136583329Y-101745514D01*
X136827298Y-101817097D01*
X137640395Y-101004000D01*
X137999605Y-101004000D01*
X138812702Y-101817097D01*
X139056671Y-101745514D01*
X139177571Y-101490004D01*
X139203212Y-101387711D01*
X139210147Y-101422574D01*
X139318320Y-101683727D01*
X139475363Y-101918759D01*
X139675241Y-102118637D01*
X139910273Y-102275680D01*
X140171426Y-102383853D01*
X140448665Y-102439000D01*
X140731335Y-102439000D01*
X141008574Y-102383853D01*
X141269727Y-102275680D01*
X141504759Y-102118637D01*
X141704637Y-101918759D01*
X141861680Y-101683727D01*
X141969853Y-101422574D01*
X141975000Y-101396699D01*
X141980147Y-101422574D01*
X142088320Y-101683727D01*
X142245363Y-101918759D01*
X142445241Y-102118637D01*
X142680273Y-102275680D01*
X142941426Y-102383853D01*
X143218665Y-102439000D01*
X143501335Y-102439000D01*
X143778574Y-102383853D01*
X144039727Y-102275680D01*
X144274759Y-102118637D01*
X144474637Y-101918759D01*
X144631680Y-101683727D01*
X144739853Y-101422574D01*
X144745000Y-101396699D01*
X144750147Y-101422574D01*
X144858320Y-101683727D01*
X145015363Y-101918759D01*
X145215241Y-102118637D01*
X145450273Y-102275680D01*
X145711426Y-102383853D01*
X145988665Y-102439000D01*
X146271335Y-102439000D01*
X146548574Y-102383853D01*
X146809727Y-102275680D01*
X147044759Y-102118637D01*
X147244637Y-101918759D01*
X147401680Y-101683727D01*
X147509853Y-101422574D01*
X147515000Y-101396699D01*
X147520147Y-101422574D01*
X147628320Y-101683727D01*
X147785363Y-101918759D01*
X147985241Y-102118637D01*
X148220273Y-102275680D01*
X148481426Y-102383853D01*
X148758665Y-102439000D01*
X149041335Y-102439000D01*
X149318574Y-102383853D01*
X149579727Y-102275680D01*
X149814759Y-102118637D01*
X150014637Y-101918759D01*
X150171680Y-101683727D01*
X150279853Y-101422574D01*
X150285000Y-101396699D01*
X150290147Y-101422574D01*
X150398320Y-101683727D01*
X150555363Y-101918759D01*
X150755241Y-102118637D01*
X150990273Y-102275680D01*
X151251426Y-102383853D01*
X151528665Y-102439000D01*
X151811335Y-102439000D01*
X152088574Y-102383853D01*
X152349727Y-102275680D01*
X152584759Y-102118637D01*
X152784637Y-101918759D01*
X152941680Y-101683727D01*
X153049853Y-101422574D01*
X153055000Y-101396699D01*
X153060147Y-101422574D01*
X153168320Y-101683727D01*
X153325363Y-101918759D01*
X153525241Y-102118637D01*
X153760273Y-102275680D01*
X154021426Y-102383853D01*
X154298665Y-102439000D01*
X154581335Y-102439000D01*
X154858574Y-102383853D01*
X155119727Y-102275680D01*
X155354759Y-102118637D01*
X155554637Y-101918759D01*
X155711680Y-101683727D01*
X155819853Y-101422574D01*
X155825000Y-101396699D01*
X155830147Y-101422574D01*
X155938320Y-101683727D01*
X156095363Y-101918759D01*
X156295241Y-102118637D01*
X156530273Y-102275680D01*
X156791426Y-102383853D01*
X157068665Y-102439000D01*
X157351335Y-102439000D01*
X157628574Y-102383853D01*
X157889727Y-102275680D01*
X158124759Y-102118637D01*
X158324637Y-101918759D01*
X158481680Y-101683727D01*
X158589853Y-101422574D01*
X158595000Y-101396699D01*
X158600147Y-101422574D01*
X158708320Y-101683727D01*
X158865363Y-101918759D01*
X159065241Y-102118637D01*
X159300273Y-102275680D01*
X159561426Y-102383853D01*
X159838665Y-102439000D01*
X160121335Y-102439000D01*
X160398574Y-102383853D01*
X160659727Y-102275680D01*
X160894759Y-102118637D01*
X161094637Y-101918759D01*
X161251680Y-101683727D01*
X161359853Y-101422574D01*
X161365000Y-101396699D01*
X161370147Y-101422574D01*
X161478320Y-101683727D01*
X161635363Y-101918759D01*
X161835241Y-102118637D01*
X162070273Y-102275680D01*
X162331426Y-102383853D01*
X162608665Y-102439000D01*
X162891335Y-102439000D01*
X163168574Y-102383853D01*
X163429727Y-102275680D01*
X163664759Y-102118637D01*
X163864637Y-101918759D01*
X164021680Y-101683727D01*
X164129853Y-101422574D01*
X164135000Y-101396699D01*
X164140147Y-101422574D01*
X164248320Y-101683727D01*
X164405363Y-101918759D01*
X164605241Y-102118637D01*
X164840273Y-102275680D01*
X165101426Y-102383853D01*
X165378665Y-102439000D01*
X165661335Y-102439000D01*
X165938574Y-102383853D01*
X166199727Y-102275680D01*
X166434759Y-102118637D01*
X166634637Y-101918759D01*
X166791680Y-101683727D01*
X166899853Y-101422574D01*
X166905000Y-101396699D01*
X166910147Y-101422574D01*
X167018320Y-101683727D01*
X167175363Y-101918759D01*
X167375241Y-102118637D01*
X167610273Y-102275680D01*
X167871426Y-102383853D01*
X168148665Y-102439000D01*
X168431335Y-102439000D01*
X168708574Y-102383853D01*
X168969727Y-102275680D01*
X169204759Y-102118637D01*
X169404637Y-101918759D01*
X169561680Y-101683727D01*
X169669853Y-101422574D01*
X169725000Y-101145335D01*
X169725000Y-100862665D01*
X169669853Y-100585426D01*
X169666157Y-100576501D01*
X173552106Y-100576501D01*
X175220000Y-102244395D01*
X176887894Y-100576501D01*
X176671772Y-100209742D01*
X176211895Y-99969062D01*
X175713902Y-99822725D01*
X175196929Y-99776352D01*
X174680841Y-99831727D01*
X174185474Y-99986721D01*
X173768228Y-100209742D01*
X173552106Y-100576501D01*
X169666157Y-100576501D01*
X169561680Y-100324273D01*
X169404637Y-100089241D01*
X169204759Y-99889363D01*
X168969727Y-99732320D01*
X168708574Y-99624147D01*
X168431335Y-99569000D01*
X168148665Y-99569000D01*
X167871426Y-99624147D01*
X167610273Y-99732320D01*
X167375241Y-99889363D01*
X167175363Y-100089241D01*
X167018320Y-100324273D01*
X166910147Y-100585426D01*
X166905000Y-100611301D01*
X166899853Y-100585426D01*
X166791680Y-100324273D01*
X166634637Y-100089241D01*
X166434759Y-99889363D01*
X166199727Y-99732320D01*
X165938574Y-99624147D01*
X165661335Y-99569000D01*
X165378665Y-99569000D01*
X165101426Y-99624147D01*
X164840273Y-99732320D01*
X164605241Y-99889363D01*
X164405363Y-100089241D01*
X164248320Y-100324273D01*
X164140147Y-100585426D01*
X164135000Y-100611301D01*
X164129853Y-100585426D01*
X164021680Y-100324273D01*
X163864637Y-100089241D01*
X163664759Y-99889363D01*
X163429727Y-99732320D01*
X163168574Y-99624147D01*
X162891335Y-99569000D01*
X162608665Y-99569000D01*
X162331426Y-99624147D01*
X162070273Y-99732320D01*
X161835241Y-99889363D01*
X161635363Y-100089241D01*
X161478320Y-100324273D01*
X161370147Y-100585426D01*
X161365000Y-100611301D01*
X161359853Y-100585426D01*
X161251680Y-100324273D01*
X161094637Y-100089241D01*
X160894759Y-99889363D01*
X160659727Y-99732320D01*
X160398574Y-99624147D01*
X160121335Y-99569000D01*
X159838665Y-99569000D01*
X159561426Y-99624147D01*
X159300273Y-99732320D01*
X159065241Y-99889363D01*
X158865363Y-100089241D01*
X158708320Y-100324273D01*
X158600147Y-100585426D01*
X158595000Y-100611301D01*
X158589853Y-100585426D01*
X158481680Y-100324273D01*
X158324637Y-100089241D01*
X158124759Y-99889363D01*
X157889727Y-99732320D01*
X157628574Y-99624147D01*
X157351335Y-99569000D01*
X157068665Y-99569000D01*
X156791426Y-99624147D01*
X156530273Y-99732320D01*
X156295241Y-99889363D01*
X156095363Y-100089241D01*
X155938320Y-100324273D01*
X155830147Y-100585426D01*
X155825000Y-100611301D01*
X155819853Y-100585426D01*
X155711680Y-100324273D01*
X155554637Y-100089241D01*
X155354759Y-99889363D01*
X155119727Y-99732320D01*
X154858574Y-99624147D01*
X154581335Y-99569000D01*
X154298665Y-99569000D01*
X154021426Y-99624147D01*
X153760273Y-99732320D01*
X153525241Y-99889363D01*
X153325363Y-100089241D01*
X153168320Y-100324273D01*
X153060147Y-100585426D01*
X153055000Y-100611301D01*
X153049853Y-100585426D01*
X152941680Y-100324273D01*
X152784637Y-100089241D01*
X152584759Y-99889363D01*
X152349727Y-99732320D01*
X152088574Y-99624147D01*
X151811335Y-99569000D01*
X151528665Y-99569000D01*
X151251426Y-99624147D01*
X150990273Y-99732320D01*
X150755241Y-99889363D01*
X150555363Y-100089241D01*
X150398320Y-100324273D01*
X150290147Y-100585426D01*
X150285000Y-100611301D01*
X150279853Y-100585426D01*
X150171680Y-100324273D01*
X150014637Y-100089241D01*
X149814759Y-99889363D01*
X149579727Y-99732320D01*
X149318574Y-99624147D01*
X149041335Y-99569000D01*
X148758665Y-99569000D01*
X148481426Y-99624147D01*
X148220273Y-99732320D01*
X147985241Y-99889363D01*
X147785363Y-100089241D01*
X147628320Y-100324273D01*
X147520147Y-100585426D01*
X147515000Y-100611301D01*
X147509853Y-100585426D01*
X147401680Y-100324273D01*
X147244637Y-100089241D01*
X147044759Y-99889363D01*
X146809727Y-99732320D01*
X146548574Y-99624147D01*
X146271335Y-99569000D01*
X145988665Y-99569000D01*
X145711426Y-99624147D01*
X145450273Y-99732320D01*
X145215241Y-99889363D01*
X145015363Y-100089241D01*
X144858320Y-100324273D01*
X144750147Y-100585426D01*
X144745000Y-100611301D01*
X144739853Y-100585426D01*
X144631680Y-100324273D01*
X144474637Y-100089241D01*
X144274759Y-99889363D01*
X144039727Y-99732320D01*
X143778574Y-99624147D01*
X143501335Y-99569000D01*
X143218665Y-99569000D01*
X142941426Y-99624147D01*
X142680273Y-99732320D01*
X142445241Y-99889363D01*
X142245363Y-100089241D01*
X142088320Y-100324273D01*
X141980147Y-100585426D01*
X141975000Y-100611301D01*
X141969853Y-100585426D01*
X141861680Y-100324273D01*
X141704637Y-100089241D01*
X141504759Y-99889363D01*
X141269727Y-99732320D01*
X141008574Y-99624147D01*
X140731335Y-99569000D01*
X140448665Y-99569000D01*
X140171426Y-99624147D01*
X139910273Y-99732320D01*
X139675241Y-99889363D01*
X139475363Y-100089241D01*
X139318320Y-100324273D01*
X139210147Y-100585426D01*
X139204487Y-100613882D01*
X139123603Y-100387708D01*
X139056671Y-100262486D01*
X138812702Y-100190903D01*
X137999605Y-101004000D01*
X137640395Y-101004000D01*
X136827298Y-100190903D01*
X136583329Y-100262486D01*
X136488072Y-100463802D01*
X136488072Y-100204000D01*
X136475812Y-100079518D01*
X136455118Y-100011298D01*
X137006903Y-100011298D01*
X137820000Y-100824395D01*
X138633097Y-100011298D01*
X138561514Y-99767329D01*
X138306004Y-99646429D01*
X138031816Y-99577700D01*
X137749488Y-99563783D01*
X137469870Y-99605213D01*
X137203708Y-99700397D01*
X137078486Y-99767329D01*
X137006903Y-100011298D01*
X136455118Y-100011298D01*
X136439502Y-99959820D01*
X136380537Y-99849506D01*
X136301185Y-99752815D01*
X136204494Y-99673463D01*
X136094180Y-99614498D01*
X135974482Y-99578188D01*
X135850000Y-99565928D01*
X134250000Y-99565928D01*
X134125518Y-99578188D01*
X134005820Y-99614498D01*
X133895506Y-99673463D01*
X133798815Y-99752815D01*
X133719463Y-99849506D01*
X133660498Y-99959820D01*
X133624188Y-100079518D01*
X133611928Y-100204000D01*
X129560801Y-100204000D01*
X129111895Y-99969062D01*
X128613902Y-99822725D01*
X128096929Y-99776352D01*
X127580841Y-99831727D01*
X127085474Y-99986721D01*
X126668228Y-100209742D01*
X126452106Y-100576501D01*
X114672884Y-100576501D01*
X114666457Y-100525049D01*
X114546333Y-100163310D01*
X114414312Y-99916317D01*
X114119224Y-99784381D01*
X112949605Y-100954000D01*
X112590395Y-100954000D01*
X111420776Y-99784381D01*
X111125688Y-99916317D01*
X110954841Y-100257045D01*
X110853750Y-100624557D01*
X110826299Y-101004729D01*
X110873543Y-101382951D01*
X110993667Y-101744690D01*
X111000521Y-101757512D01*
X110932591Y-101744000D01*
X110487409Y-101744000D01*
X110050782Y-101830851D01*
X109639489Y-102001214D01*
X109269334Y-102248544D01*
X108954544Y-102563334D01*
X108707214Y-102933489D01*
X108536851Y-103344782D01*
X108450000Y-103781409D01*
X101540000Y-103781409D01*
X101453149Y-103344782D01*
X101282786Y-102933489D01*
X101035456Y-102563334D01*
X100720666Y-102248544D01*
X100350511Y-102001214D01*
X99939218Y-101830851D01*
X99502591Y-101744000D01*
X99057409Y-101744000D01*
X98980871Y-101759224D01*
X99035159Y-101650955D01*
X99136250Y-101283443D01*
X99163701Y-100903271D01*
X99116457Y-100525049D01*
X98996333Y-100163310D01*
X98864312Y-99916317D01*
X98569224Y-99784381D01*
X97399605Y-100954000D01*
X97413748Y-100968143D01*
X97234143Y-101147748D01*
X97220000Y-101133605D01*
X96050381Y-102303224D01*
X89942510Y-102303224D01*
X89942510Y-101004729D01*
X95276299Y-101004729D01*
X95323543Y-101382951D01*
X95443667Y-101744690D01*
X95575688Y-101991683D01*
X95870776Y-102123619D01*
X97040395Y-100954000D01*
X95870776Y-99784381D01*
X95575688Y-99916317D01*
X95404841Y-100257045D01*
X95303750Y-100624557D01*
X95276299Y-101004729D01*
X89942510Y-101004729D01*
X89942510Y-99604776D01*
X96050381Y-99604776D01*
X97220000Y-100774395D01*
X98389619Y-99604776D01*
X111600381Y-99604776D01*
X112770000Y-100774395D01*
X113939619Y-99604776D01*
X113807683Y-99309688D01*
X113466955Y-99138841D01*
X113099443Y-99037750D01*
X112719271Y-99010299D01*
X112341049Y-99057543D01*
X111979310Y-99177667D01*
X111732317Y-99309688D01*
X111600381Y-99604776D01*
X98389619Y-99604776D01*
X98257683Y-99309688D01*
X97916955Y-99138841D01*
X97549443Y-99037750D01*
X97169271Y-99010299D01*
X96791049Y-99057543D01*
X96429310Y-99177667D01*
X96182317Y-99309688D01*
X96050381Y-99604776D01*
X89942510Y-99604776D01*
X89942510Y-96714000D01*
X98961928Y-96714000D01*
X98961928Y-98614000D01*
X98974188Y-98738482D01*
X99010498Y-98858180D01*
X99069463Y-98968494D01*
X99148815Y-99065185D01*
X99245506Y-99144537D01*
X99355820Y-99203502D01*
X99475518Y-99239812D01*
X99600000Y-99252072D01*
X101500000Y-99252072D01*
X101624482Y-99239812D01*
X101744180Y-99203502D01*
X101854494Y-99144537D01*
X101951185Y-99065185D01*
X102030537Y-98968494D01*
X102089502Y-98858180D01*
X102095630Y-98837978D01*
X102169854Y-98763754D01*
X102259579Y-99023042D01*
X102540671Y-99158935D01*
X102842873Y-99237379D01*
X103154573Y-99255359D01*
X103463791Y-99212184D01*
X103758644Y-99109513D01*
X103920421Y-99023042D01*
X104010147Y-98763752D01*
X103090000Y-97843605D01*
X103075858Y-97857748D01*
X102896253Y-97678143D01*
X102910395Y-97664000D01*
X102896253Y-97649858D01*
X103075858Y-97470253D01*
X103090000Y-97484395D01*
X103104143Y-97470253D01*
X103283748Y-97649858D01*
X103269605Y-97664000D01*
X104189752Y-98584147D01*
X104310613Y-98542324D01*
X104398850Y-98674379D01*
X104619621Y-98895150D01*
X104879221Y-99068609D01*
X105167673Y-99188089D01*
X105473891Y-99249000D01*
X105786109Y-99249000D01*
X106092327Y-99188089D01*
X106380779Y-99068609D01*
X106640379Y-98895150D01*
X106771777Y-98763752D01*
X107249853Y-98763752D01*
X107339579Y-99023042D01*
X107620671Y-99158935D01*
X107922873Y-99237379D01*
X108234573Y-99255359D01*
X108543791Y-99212184D01*
X108838644Y-99109513D01*
X109000421Y-99023042D01*
X109090147Y-98763752D01*
X108170000Y-97843605D01*
X107249853Y-98763752D01*
X106771777Y-98763752D01*
X106861150Y-98674379D01*
X106949387Y-98542324D01*
X107070248Y-98584147D01*
X107990395Y-97664000D01*
X107976253Y-97649858D01*
X108155858Y-97470253D01*
X108170000Y-97484395D01*
X108184143Y-97470253D01*
X108363748Y-97649858D01*
X108349605Y-97664000D01*
X109269752Y-98584147D01*
X109529042Y-98494421D01*
X109664935Y-98213329D01*
X109743379Y-97911127D01*
X109761359Y-97599427D01*
X109718184Y-97290209D01*
X109615513Y-96995356D01*
X109529042Y-96833579D01*
X109269754Y-96743854D01*
X109304608Y-96709000D01*
X109596109Y-96709000D01*
X109902327Y-96648089D01*
X110190779Y-96528609D01*
X110450379Y-96355150D01*
X110671150Y-96134379D01*
X110844609Y-95874779D01*
X110964089Y-95586327D01*
X111025000Y-95280109D01*
X111025000Y-94967891D01*
X110964089Y-94661673D01*
X110862064Y-94415360D01*
X116406128Y-94415360D01*
X116418388Y-94539842D01*
X116454698Y-94659540D01*
X116513663Y-94769854D01*
X116593015Y-94866545D01*
X116689706Y-94945897D01*
X116800020Y-95004862D01*
X116919718Y-95041172D01*
X117044200Y-95053432D01*
X117658450Y-95050360D01*
X117817200Y-94891610D01*
X117817200Y-93642360D01*
X116567950Y-93642360D01*
X116409200Y-93801110D01*
X116406128Y-94415360D01*
X110862064Y-94415360D01*
X110844609Y-94373221D01*
X110671150Y-94113621D01*
X110450379Y-93892850D01*
X110190779Y-93719391D01*
X109902327Y-93599911D01*
X109596109Y-93539000D01*
X109283891Y-93539000D01*
X108977673Y-93599911D01*
X108689221Y-93719391D01*
X108429621Y-93892850D01*
X108208850Y-94113621D01*
X108170000Y-94171764D01*
X108131150Y-94113621D01*
X107910379Y-93892850D01*
X107650779Y-93719391D01*
X107362327Y-93599911D01*
X107056109Y-93539000D01*
X106743891Y-93539000D01*
X106437673Y-93599911D01*
X106149221Y-93719391D01*
X105889621Y-93892850D01*
X105668850Y-94113621D01*
X105630000Y-94171764D01*
X105591150Y-94113621D01*
X105370379Y-93892850D01*
X105110779Y-93719391D01*
X104822327Y-93599911D01*
X104516109Y-93539000D01*
X104203891Y-93539000D01*
X103897673Y-93599911D01*
X103609221Y-93719391D01*
X103349621Y-93892850D01*
X103128850Y-94113621D01*
X103090000Y-94171764D01*
X103051150Y-94113621D01*
X102830379Y-93892850D01*
X102570779Y-93719391D01*
X102282327Y-93599911D01*
X101976109Y-93539000D01*
X101663891Y-93539000D01*
X101357673Y-93599911D01*
X101069221Y-93719391D01*
X100809621Y-93892850D01*
X100588850Y-94113621D01*
X100415391Y-94373221D01*
X100295911Y-94661673D01*
X100235000Y-94967891D01*
X100235000Y-95280109D01*
X100295911Y-95586327D01*
X100415391Y-95874779D01*
X100549794Y-96075928D01*
X99600000Y-96075928D01*
X99475518Y-96088188D01*
X99355820Y-96124498D01*
X99245506Y-96183463D01*
X99148815Y-96262815D01*
X99069463Y-96359506D01*
X99010498Y-96469820D01*
X98974188Y-96589518D01*
X98961928Y-96714000D01*
X89942510Y-96714000D01*
X89942510Y-93688363D01*
X91487000Y-93688363D01*
X91487000Y-93931637D01*
X91534460Y-94170236D01*
X91627557Y-94394992D01*
X91660968Y-94444995D01*
X91627557Y-94494998D01*
X91534460Y-94719754D01*
X91487000Y-94958353D01*
X91487000Y-95201627D01*
X91534460Y-95440226D01*
X91627557Y-95664982D01*
X91762713Y-95867257D01*
X91934733Y-96039277D01*
X92137008Y-96174433D01*
X92361764Y-96267530D01*
X92600363Y-96314990D01*
X92843637Y-96314990D01*
X93082236Y-96267530D01*
X93306992Y-96174433D01*
X93509267Y-96039277D01*
X93681287Y-95867257D01*
X93816443Y-95664982D01*
X93909540Y-95440226D01*
X93957000Y-95201627D01*
X93957000Y-94958353D01*
X93909540Y-94719754D01*
X93816443Y-94494998D01*
X93783032Y-94444995D01*
X93816443Y-94394992D01*
X93909540Y-94170236D01*
X93957000Y-93931637D01*
X93957000Y-93688363D01*
X93909540Y-93449764D01*
X93816443Y-93225008D01*
X93681287Y-93022733D01*
X93509267Y-92850713D01*
X93306992Y-92715557D01*
X93082236Y-92622460D01*
X93046542Y-92615360D01*
X116406128Y-92615360D01*
X116409200Y-93229610D01*
X116567950Y-93388360D01*
X117817200Y-93388360D01*
X117817200Y-92139110D01*
X118071200Y-92139110D01*
X118071200Y-93388360D01*
X118091200Y-93388360D01*
X118091200Y-93642360D01*
X118071200Y-93642360D01*
X118071200Y-94891610D01*
X118229950Y-95050360D01*
X118844200Y-95053432D01*
X118968682Y-95041172D01*
X119088380Y-95004862D01*
X119198694Y-94945897D01*
X119295385Y-94866545D01*
X119374737Y-94769854D01*
X119433702Y-94659540D01*
X119439256Y-94641233D01*
X119505695Y-94707672D01*
X119757105Y-94875659D01*
X120036457Y-94991371D01*
X120333016Y-95050360D01*
X120635384Y-95050360D01*
X120931943Y-94991371D01*
X121211295Y-94875659D01*
X121462705Y-94707672D01*
X121676512Y-94493865D01*
X121844499Y-94242455D01*
X121960211Y-93963103D01*
X122019200Y-93666544D01*
X122019200Y-93364176D01*
X121960211Y-93067617D01*
X121844499Y-92788265D01*
X121676512Y-92536855D01*
X121621220Y-92481563D01*
X127872800Y-92481563D01*
X127872800Y-92724837D01*
X127920260Y-92963436D01*
X128013357Y-93188192D01*
X128148513Y-93390467D01*
X128320533Y-93562487D01*
X128522808Y-93697643D01*
X128747564Y-93790740D01*
X128986163Y-93838200D01*
X129229437Y-93838200D01*
X129468036Y-93790740D01*
X129692792Y-93697643D01*
X129895067Y-93562487D01*
X130067087Y-93390467D01*
X130202243Y-93188192D01*
X130295340Y-92963436D01*
X130342800Y-92724837D01*
X130342800Y-92481563D01*
X136000800Y-92481563D01*
X136000800Y-92724837D01*
X136048260Y-92963436D01*
X136141357Y-93188192D01*
X136276513Y-93390467D01*
X136448533Y-93562487D01*
X136650808Y-93697643D01*
X136875564Y-93790740D01*
X137114163Y-93838200D01*
X137357437Y-93838200D01*
X137596036Y-93790740D01*
X137820792Y-93697643D01*
X138023067Y-93562487D01*
X138195087Y-93390467D01*
X138330243Y-93188192D01*
X138423340Y-92963436D01*
X138470800Y-92724837D01*
X138470800Y-92481563D01*
X144001800Y-92481563D01*
X144001800Y-92724837D01*
X144049260Y-92963436D01*
X144142357Y-93188192D01*
X144277513Y-93390467D01*
X144449533Y-93562487D01*
X144651808Y-93697643D01*
X144876564Y-93790740D01*
X145115163Y-93838200D01*
X145358437Y-93838200D01*
X145597036Y-93790740D01*
X145821792Y-93697643D01*
X146024067Y-93562487D01*
X146196087Y-93390467D01*
X146331243Y-93188192D01*
X146424340Y-92963436D01*
X146471800Y-92724837D01*
X146471800Y-92481563D01*
X156828800Y-92481563D01*
X156828800Y-92724837D01*
X156876260Y-92963436D01*
X156969357Y-93188192D01*
X157104513Y-93390467D01*
X157276533Y-93562487D01*
X157478808Y-93697643D01*
X157703564Y-93790740D01*
X157942163Y-93838200D01*
X158185437Y-93838200D01*
X158424036Y-93790740D01*
X158648792Y-93697643D01*
X158851067Y-93562487D01*
X159023087Y-93390467D01*
X159158243Y-93188192D01*
X159251340Y-92963436D01*
X159298800Y-92724837D01*
X159298800Y-92481563D01*
X164829800Y-92481563D01*
X164829800Y-92724837D01*
X164877260Y-92963436D01*
X164970357Y-93188192D01*
X165105513Y-93390467D01*
X165277533Y-93562487D01*
X165479808Y-93697643D01*
X165704564Y-93790740D01*
X165943163Y-93838200D01*
X166186437Y-93838200D01*
X166425036Y-93790740D01*
X166649792Y-93697643D01*
X166852067Y-93562487D01*
X167024087Y-93390467D01*
X167159243Y-93188192D01*
X167252340Y-92963436D01*
X167299800Y-92724837D01*
X167299800Y-92481563D01*
X173084800Y-92481563D01*
X173084800Y-92724837D01*
X173132260Y-92963436D01*
X173225357Y-93188192D01*
X173360513Y-93390467D01*
X173532533Y-93562487D01*
X173734808Y-93697643D01*
X173959564Y-93790740D01*
X174198163Y-93838200D01*
X174441437Y-93838200D01*
X174680036Y-93790740D01*
X174904792Y-93697643D01*
X175107067Y-93562487D01*
X175279087Y-93390467D01*
X175414243Y-93188192D01*
X175507340Y-92963436D01*
X175554800Y-92724837D01*
X175554800Y-92481563D01*
X175507340Y-92242964D01*
X175414243Y-92018208D01*
X175279087Y-91815933D01*
X175107067Y-91643913D01*
X174904792Y-91508757D01*
X174680036Y-91415660D01*
X174441437Y-91368200D01*
X174198163Y-91368200D01*
X173959564Y-91415660D01*
X173734808Y-91508757D01*
X173532533Y-91643913D01*
X173360513Y-91815933D01*
X173225357Y-92018208D01*
X173132260Y-92242964D01*
X173084800Y-92481563D01*
X167299800Y-92481563D01*
X167252340Y-92242964D01*
X167159243Y-92018208D01*
X167024087Y-91815933D01*
X166852067Y-91643913D01*
X166649792Y-91508757D01*
X166425036Y-91415660D01*
X166186437Y-91368200D01*
X165943163Y-91368200D01*
X165704564Y-91415660D01*
X165479808Y-91508757D01*
X165277533Y-91643913D01*
X165105513Y-91815933D01*
X164970357Y-92018208D01*
X164877260Y-92242964D01*
X164829800Y-92481563D01*
X159298800Y-92481563D01*
X159251340Y-92242964D01*
X159158243Y-92018208D01*
X159023087Y-91815933D01*
X158851067Y-91643913D01*
X158648792Y-91508757D01*
X158424036Y-91415660D01*
X158185437Y-91368200D01*
X157942163Y-91368200D01*
X157703564Y-91415660D01*
X157478808Y-91508757D01*
X157276533Y-91643913D01*
X157104513Y-91815933D01*
X156969357Y-92018208D01*
X156876260Y-92242964D01*
X156828800Y-92481563D01*
X146471800Y-92481563D01*
X146424340Y-92242964D01*
X146331243Y-92018208D01*
X146196087Y-91815933D01*
X146024067Y-91643913D01*
X145821792Y-91508757D01*
X145597036Y-91415660D01*
X145358437Y-91368200D01*
X145115163Y-91368200D01*
X144876564Y-91415660D01*
X144651808Y-91508757D01*
X144449533Y-91643913D01*
X144277513Y-91815933D01*
X144142357Y-92018208D01*
X144049260Y-92242964D01*
X144001800Y-92481563D01*
X138470800Y-92481563D01*
X138423340Y-92242964D01*
X138330243Y-92018208D01*
X138195087Y-91815933D01*
X138023067Y-91643913D01*
X137820792Y-91508757D01*
X137596036Y-91415660D01*
X137357437Y-91368200D01*
X137114163Y-91368200D01*
X136875564Y-91415660D01*
X136650808Y-91508757D01*
X136448533Y-91643913D01*
X136276513Y-91815933D01*
X136141357Y-92018208D01*
X136048260Y-92242964D01*
X136000800Y-92481563D01*
X130342800Y-92481563D01*
X130295340Y-92242964D01*
X130202243Y-92018208D01*
X130067087Y-91815933D01*
X129895067Y-91643913D01*
X129692792Y-91508757D01*
X129468036Y-91415660D01*
X129229437Y-91368200D01*
X128986163Y-91368200D01*
X128747564Y-91415660D01*
X128522808Y-91508757D01*
X128320533Y-91643913D01*
X128148513Y-91815933D01*
X128013357Y-92018208D01*
X127920260Y-92242964D01*
X127872800Y-92481563D01*
X121621220Y-92481563D01*
X121462705Y-92323048D01*
X121211295Y-92155061D01*
X120931943Y-92039349D01*
X120635384Y-91980360D01*
X120333016Y-91980360D01*
X120036457Y-92039349D01*
X119757105Y-92155061D01*
X119505695Y-92323048D01*
X119439256Y-92389487D01*
X119433702Y-92371180D01*
X119374737Y-92260866D01*
X119295385Y-92164175D01*
X119198694Y-92084823D01*
X119088380Y-92025858D01*
X118968682Y-91989548D01*
X118844200Y-91977288D01*
X118229950Y-91980360D01*
X118071200Y-92139110D01*
X117817200Y-92139110D01*
X117658450Y-91980360D01*
X117044200Y-91977288D01*
X116919718Y-91989548D01*
X116800020Y-92025858D01*
X116689706Y-92084823D01*
X116593015Y-92164175D01*
X116513663Y-92260866D01*
X116454698Y-92371180D01*
X116418388Y-92490878D01*
X116406128Y-92615360D01*
X93046542Y-92615360D01*
X92843637Y-92575000D01*
X92600363Y-92575000D01*
X92361764Y-92622460D01*
X92137008Y-92715557D01*
X91934733Y-92850713D01*
X91762713Y-93022733D01*
X91627557Y-93225008D01*
X91534460Y-93449764D01*
X91487000Y-93688363D01*
X89942510Y-93688363D01*
X89942510Y-88388000D01*
X104568928Y-88388000D01*
X104568928Y-90088000D01*
X104581188Y-90212482D01*
X104617498Y-90332180D01*
X104676463Y-90442494D01*
X104755815Y-90539185D01*
X104852506Y-90618537D01*
X104962820Y-90677502D01*
X105082518Y-90713812D01*
X105207000Y-90726072D01*
X106907000Y-90726072D01*
X107031482Y-90713812D01*
X107151180Y-90677502D01*
X107261494Y-90618537D01*
X107358185Y-90539185D01*
X107437537Y-90442494D01*
X107496502Y-90332180D01*
X107518513Y-90259620D01*
X107650368Y-90391475D01*
X107893589Y-90553990D01*
X108163842Y-90665932D01*
X108450740Y-90723000D01*
X108743260Y-90723000D01*
X109030158Y-90665932D01*
X109300411Y-90553990D01*
X109543632Y-90391475D01*
X109750475Y-90184632D01*
X109912990Y-89941411D01*
X110024932Y-89671158D01*
X110082000Y-89384260D01*
X110082000Y-89091740D01*
X110024932Y-88804842D01*
X109912990Y-88534589D01*
X109750475Y-88291368D01*
X109543632Y-88084525D01*
X109300411Y-87922010D01*
X109030158Y-87810068D01*
X108743260Y-87753000D01*
X108450740Y-87753000D01*
X108163842Y-87810068D01*
X107893589Y-87922010D01*
X107650368Y-88084525D01*
X107518513Y-88216380D01*
X107496502Y-88143820D01*
X107437537Y-88033506D01*
X107358185Y-87936815D01*
X107261494Y-87857463D01*
X107151180Y-87798498D01*
X107031482Y-87762188D01*
X106907000Y-87749928D01*
X105207000Y-87749928D01*
X105082518Y-87762188D01*
X104962820Y-87798498D01*
X104852506Y-87857463D01*
X104755815Y-87936815D01*
X104676463Y-88033506D01*
X104617498Y-88143820D01*
X104581188Y-88263518D01*
X104568928Y-88388000D01*
X89942510Y-88388000D01*
X89942510Y-86790280D01*
X116398508Y-86790280D01*
X116410768Y-86914762D01*
X116447078Y-87034460D01*
X116506043Y-87144774D01*
X116585395Y-87241465D01*
X116682086Y-87320817D01*
X116792400Y-87379782D01*
X116912098Y-87416092D01*
X117036580Y-87428352D01*
X117650830Y-87425280D01*
X117809580Y-87266530D01*
X117809580Y-86017280D01*
X116560330Y-86017280D01*
X116401580Y-86176030D01*
X116398508Y-86790280D01*
X89942510Y-86790280D01*
X89942510Y-84990280D01*
X116398508Y-84990280D01*
X116401580Y-85604530D01*
X116560330Y-85763280D01*
X117809580Y-85763280D01*
X117809580Y-84514030D01*
X118063580Y-84514030D01*
X118063580Y-85763280D01*
X118083580Y-85763280D01*
X118083580Y-86017280D01*
X118063580Y-86017280D01*
X118063580Y-87266530D01*
X118222330Y-87425280D01*
X118836580Y-87428352D01*
X118961062Y-87416092D01*
X119080760Y-87379782D01*
X119191074Y-87320817D01*
X119287765Y-87241465D01*
X119367117Y-87144774D01*
X119426082Y-87034460D01*
X119431636Y-87016153D01*
X119498075Y-87082592D01*
X119749485Y-87250579D01*
X120028837Y-87366291D01*
X120325396Y-87425280D01*
X120627764Y-87425280D01*
X120924323Y-87366291D01*
X121203675Y-87250579D01*
X121455085Y-87082592D01*
X121668892Y-86868785D01*
X121694564Y-86830363D01*
X138731000Y-86830363D01*
X138731000Y-87073637D01*
X138778460Y-87312236D01*
X138871557Y-87536992D01*
X139006713Y-87739267D01*
X139178733Y-87911287D01*
X139381008Y-88046443D01*
X139605764Y-88139540D01*
X139844363Y-88187000D01*
X140087637Y-88187000D01*
X140326236Y-88139540D01*
X140550992Y-88046443D01*
X140753267Y-87911287D01*
X140925287Y-87739267D01*
X141060443Y-87536992D01*
X141153540Y-87312236D01*
X141201000Y-87073637D01*
X141201000Y-86830363D01*
X141398000Y-86830363D01*
X141398000Y-87073637D01*
X141445460Y-87312236D01*
X141538557Y-87536992D01*
X141673713Y-87739267D01*
X141845733Y-87911287D01*
X142048008Y-88046443D01*
X142272764Y-88139540D01*
X142511363Y-88187000D01*
X142754637Y-88187000D01*
X142993236Y-88139540D01*
X143217992Y-88046443D01*
X143420267Y-87911287D01*
X143592287Y-87739267D01*
X143727443Y-87536992D01*
X143820540Y-87312236D01*
X143868000Y-87073637D01*
X143868000Y-86830363D01*
X143820540Y-86591764D01*
X143727443Y-86367008D01*
X143592287Y-86164733D01*
X143420267Y-85992713D01*
X143217992Y-85857557D01*
X142993236Y-85764460D01*
X142754637Y-85717000D01*
X142511363Y-85717000D01*
X142272764Y-85764460D01*
X142048008Y-85857557D01*
X141845733Y-85992713D01*
X141673713Y-86164733D01*
X141538557Y-86367008D01*
X141445460Y-86591764D01*
X141398000Y-86830363D01*
X141201000Y-86830363D01*
X141153540Y-86591764D01*
X141060443Y-86367008D01*
X140925287Y-86164733D01*
X140753267Y-85992713D01*
X140550992Y-85857557D01*
X140326236Y-85764460D01*
X140087637Y-85717000D01*
X139844363Y-85717000D01*
X139605764Y-85764460D01*
X139381008Y-85857557D01*
X139178733Y-85992713D01*
X139006713Y-86164733D01*
X138871557Y-86367008D01*
X138778460Y-86591764D01*
X138731000Y-86830363D01*
X121694564Y-86830363D01*
X121836879Y-86617375D01*
X121952591Y-86338023D01*
X122011580Y-86041464D01*
X122011580Y-85739096D01*
X121952591Y-85442537D01*
X121836879Y-85163185D01*
X121668892Y-84911775D01*
X121455085Y-84697968D01*
X121203675Y-84529981D01*
X120924323Y-84414269D01*
X120627764Y-84355280D01*
X120325396Y-84355280D01*
X120028837Y-84414269D01*
X119749485Y-84529981D01*
X119498075Y-84697968D01*
X119431636Y-84764407D01*
X119426082Y-84746100D01*
X119367117Y-84635786D01*
X119287765Y-84539095D01*
X119191074Y-84459743D01*
X119080760Y-84400778D01*
X118961062Y-84364468D01*
X118836580Y-84352208D01*
X118222330Y-84355280D01*
X118063580Y-84514030D01*
X117809580Y-84514030D01*
X117650830Y-84355280D01*
X117036580Y-84352208D01*
X116912098Y-84364468D01*
X116792400Y-84400778D01*
X116682086Y-84459743D01*
X116585395Y-84539095D01*
X116506043Y-84635786D01*
X116447078Y-84746100D01*
X116410768Y-84865798D01*
X116398508Y-84990280D01*
X89942510Y-84990280D01*
X89942510Y-80690000D01*
X142287928Y-80690000D01*
X142300188Y-80814482D01*
X142336498Y-80934180D01*
X142395463Y-81044494D01*
X142474815Y-81141185D01*
X142571506Y-81220537D01*
X142681820Y-81279502D01*
X142801518Y-81315812D01*
X142926000Y-81328072D01*
X143490250Y-81325000D01*
X143649000Y-81166250D01*
X143649000Y-79967000D01*
X143903000Y-79967000D01*
X143903000Y-81166250D01*
X144061750Y-81325000D01*
X144626000Y-81328072D01*
X144750482Y-81315812D01*
X144870180Y-81279502D01*
X144980494Y-81220537D01*
X145077185Y-81141185D01*
X145156537Y-81044494D01*
X145215502Y-80934180D01*
X145251812Y-80814482D01*
X145264072Y-80690000D01*
X145261000Y-80125750D01*
X145102250Y-79967000D01*
X143903000Y-79967000D01*
X143649000Y-79967000D01*
X142449750Y-79967000D01*
X142291000Y-80125750D01*
X142287928Y-80690000D01*
X89942510Y-80690000D01*
X89942510Y-79185520D01*
X116401048Y-79185520D01*
X116413308Y-79310002D01*
X116449618Y-79429700D01*
X116508583Y-79540014D01*
X116587935Y-79636705D01*
X116684626Y-79716057D01*
X116794940Y-79775022D01*
X116914638Y-79811332D01*
X117039120Y-79823592D01*
X117653370Y-79820520D01*
X117812120Y-79661770D01*
X117812120Y-78412520D01*
X116562870Y-78412520D01*
X116404120Y-78571270D01*
X116401048Y-79185520D01*
X89942510Y-79185520D01*
X89942510Y-75453863D01*
X104006500Y-75453863D01*
X104006500Y-75697137D01*
X104053960Y-75935736D01*
X104147057Y-76160492D01*
X104282213Y-76362767D01*
X104454233Y-76534787D01*
X104656508Y-76669943D01*
X104881264Y-76763040D01*
X105119863Y-76810500D01*
X105363137Y-76810500D01*
X105601736Y-76763040D01*
X105669549Y-76734951D01*
X105641460Y-76802764D01*
X105594000Y-77041363D01*
X105594000Y-77284637D01*
X105641460Y-77523236D01*
X105734557Y-77747992D01*
X105869713Y-77950267D01*
X106041733Y-78122287D01*
X106244008Y-78257443D01*
X106468764Y-78350540D01*
X106707363Y-78398000D01*
X106950637Y-78398000D01*
X107189236Y-78350540D01*
X107413992Y-78257443D01*
X107616267Y-78122287D01*
X107788287Y-77950267D01*
X107923443Y-77747992D01*
X108016540Y-77523236D01*
X108043933Y-77385520D01*
X116401048Y-77385520D01*
X116404120Y-77999770D01*
X116562870Y-78158520D01*
X117812120Y-78158520D01*
X117812120Y-76909270D01*
X118066120Y-76909270D01*
X118066120Y-78158520D01*
X118086120Y-78158520D01*
X118086120Y-78412520D01*
X118066120Y-78412520D01*
X118066120Y-79661770D01*
X118224870Y-79820520D01*
X118839120Y-79823592D01*
X118963602Y-79811332D01*
X119083300Y-79775022D01*
X119193614Y-79716057D01*
X119290305Y-79636705D01*
X119369657Y-79540014D01*
X119428622Y-79429700D01*
X119434176Y-79411393D01*
X119500615Y-79477832D01*
X119752025Y-79645819D01*
X120031377Y-79761531D01*
X120327936Y-79820520D01*
X120630304Y-79820520D01*
X120926863Y-79761531D01*
X121206215Y-79645819D01*
X121457625Y-79477832D01*
X121671432Y-79264025D01*
X121839419Y-79012615D01*
X121848786Y-78990000D01*
X142287928Y-78990000D01*
X142291000Y-79554250D01*
X142449750Y-79713000D01*
X143649000Y-79713000D01*
X143649000Y-79693000D01*
X143903000Y-79693000D01*
X143903000Y-79713000D01*
X145102250Y-79713000D01*
X145261000Y-79554250D01*
X145264072Y-78990000D01*
X145251812Y-78865518D01*
X145215502Y-78745820D01*
X145156537Y-78635506D01*
X145077185Y-78538815D01*
X144980494Y-78459463D01*
X144870180Y-78400498D01*
X144797620Y-78378487D01*
X144929475Y-78246632D01*
X145091990Y-78003411D01*
X145203932Y-77733158D01*
X145261000Y-77446260D01*
X145261000Y-77198061D01*
X146424000Y-77198061D01*
X146424000Y-77401939D01*
X146463774Y-77601898D01*
X146541795Y-77790256D01*
X146655063Y-77959774D01*
X146799226Y-78103937D01*
X146968744Y-78217205D01*
X147157102Y-78295226D01*
X147357061Y-78335000D01*
X147560939Y-78335000D01*
X147760898Y-78295226D01*
X147949256Y-78217205D01*
X148118774Y-78103937D01*
X148262937Y-77959774D01*
X148376205Y-77790256D01*
X148400614Y-77731326D01*
X160024037Y-77731326D01*
X160024037Y-77974600D01*
X160071497Y-78213199D01*
X160164594Y-78437955D01*
X160299750Y-78640230D01*
X160471770Y-78812250D01*
X160674045Y-78947406D01*
X160898801Y-79040503D01*
X161137400Y-79087963D01*
X161380674Y-79087963D01*
X161619273Y-79040503D01*
X161844029Y-78947406D01*
X162046304Y-78812250D01*
X162218324Y-78640230D01*
X162353480Y-78437955D01*
X162446577Y-78213199D01*
X162494037Y-77974600D01*
X162494037Y-77731326D01*
X162446577Y-77492727D01*
X162353480Y-77267971D01*
X162218324Y-77065696D01*
X162046304Y-76893676D01*
X161844029Y-76758520D01*
X161619273Y-76665423D01*
X161380674Y-76617963D01*
X161137400Y-76617963D01*
X160898801Y-76665423D01*
X160674045Y-76758520D01*
X160471770Y-76893676D01*
X160299750Y-77065696D01*
X160164594Y-77267971D01*
X160071497Y-77492727D01*
X160024037Y-77731326D01*
X148400614Y-77731326D01*
X148454226Y-77601898D01*
X148494000Y-77401939D01*
X148494000Y-77198061D01*
X148454226Y-76998102D01*
X148376205Y-76809744D01*
X148262937Y-76640226D01*
X148118774Y-76496063D01*
X147949256Y-76382795D01*
X147760898Y-76304774D01*
X147560939Y-76265000D01*
X147357061Y-76265000D01*
X147157102Y-76304774D01*
X146968744Y-76382795D01*
X146799226Y-76496063D01*
X146655063Y-76640226D01*
X146541795Y-76809744D01*
X146463774Y-76998102D01*
X146424000Y-77198061D01*
X145261000Y-77198061D01*
X145261000Y-77153740D01*
X145203932Y-76866842D01*
X145091990Y-76596589D01*
X144929475Y-76353368D01*
X144722632Y-76146525D01*
X144548240Y-76030000D01*
X144722632Y-75913475D01*
X144929475Y-75706632D01*
X145091990Y-75463411D01*
X145203932Y-75193158D01*
X145261000Y-74906260D01*
X145261000Y-74613740D01*
X145203932Y-74326842D01*
X145091990Y-74056589D01*
X144929475Y-73813368D01*
X144722632Y-73606525D01*
X144556267Y-73495363D01*
X151431000Y-73495363D01*
X151431000Y-73738637D01*
X151478460Y-73977236D01*
X151571557Y-74201992D01*
X151706713Y-74404267D01*
X151878733Y-74576287D01*
X152081008Y-74711443D01*
X152305764Y-74804540D01*
X152544363Y-74852000D01*
X152787637Y-74852000D01*
X153026236Y-74804540D01*
X153250992Y-74711443D01*
X153453267Y-74576287D01*
X153625287Y-74404267D01*
X153760443Y-74201992D01*
X153853540Y-73977236D01*
X153901000Y-73738637D01*
X153901000Y-73495363D01*
X153853540Y-73256764D01*
X153760443Y-73032008D01*
X153625287Y-72829733D01*
X153453267Y-72657713D01*
X153250992Y-72522557D01*
X153026236Y-72429460D01*
X152787637Y-72382000D01*
X152544363Y-72382000D01*
X152305764Y-72429460D01*
X152081008Y-72522557D01*
X151878733Y-72657713D01*
X151706713Y-72829733D01*
X151571557Y-73032008D01*
X151478460Y-73256764D01*
X151431000Y-73495363D01*
X144556267Y-73495363D01*
X144548240Y-73490000D01*
X144722632Y-73373475D01*
X144929475Y-73166632D01*
X145091990Y-72923411D01*
X145203932Y-72653158D01*
X145261000Y-72366260D01*
X145261000Y-72073740D01*
X145254560Y-72041363D01*
X155171000Y-72041363D01*
X155171000Y-72284637D01*
X155218460Y-72523236D01*
X155311557Y-72747992D01*
X155446713Y-72950267D01*
X155618733Y-73122287D01*
X155821008Y-73257443D01*
X156045764Y-73350540D01*
X156062817Y-73353932D01*
X156050460Y-73383764D01*
X156003000Y-73622363D01*
X156003000Y-73865637D01*
X156050460Y-74104236D01*
X156143557Y-74328992D01*
X156278713Y-74531267D01*
X156450733Y-74703287D01*
X156653008Y-74838443D01*
X156877764Y-74931540D01*
X157116363Y-74979000D01*
X157359637Y-74979000D01*
X157598236Y-74931540D01*
X157822992Y-74838443D01*
X158025267Y-74703287D01*
X158197287Y-74531267D01*
X158332443Y-74328992D01*
X158425540Y-74104236D01*
X158473000Y-73865637D01*
X158473000Y-73622363D01*
X158425540Y-73383764D01*
X158359765Y-73224967D01*
X163803000Y-73224967D01*
X163803000Y-73547033D01*
X163865832Y-73862912D01*
X163989082Y-74160463D01*
X164168013Y-74428252D01*
X164395748Y-74655987D01*
X164663537Y-74834918D01*
X164961088Y-74958168D01*
X165276967Y-75021000D01*
X165599033Y-75021000D01*
X165914912Y-74958168D01*
X166212463Y-74834918D01*
X166480252Y-74655987D01*
X166614826Y-74521413D01*
X168982192Y-74521413D01*
X169077956Y-74785814D01*
X169367571Y-74926704D01*
X169679108Y-75008384D01*
X170000595Y-75027718D01*
X170319675Y-74983961D01*
X170624088Y-74878795D01*
X170798044Y-74785814D01*
X170893808Y-74521413D01*
X169938000Y-73565605D01*
X168982192Y-74521413D01*
X166614826Y-74521413D01*
X166707987Y-74428252D01*
X166886918Y-74160463D01*
X167010168Y-73862912D01*
X167073000Y-73547033D01*
X167073000Y-73448595D01*
X168296282Y-73448595D01*
X168340039Y-73767675D01*
X168445205Y-74072088D01*
X168538186Y-74246044D01*
X168802587Y-74341808D01*
X169758395Y-73386000D01*
X170117605Y-73386000D01*
X171073413Y-74341808D01*
X171337814Y-74246044D01*
X171478704Y-73956429D01*
X171560384Y-73644892D01*
X171579718Y-73323405D01*
X171535961Y-73004325D01*
X171430795Y-72699912D01*
X171337814Y-72525956D01*
X171073413Y-72430192D01*
X170117605Y-73386000D01*
X169758395Y-73386000D01*
X168802587Y-72430192D01*
X168538186Y-72525956D01*
X168397296Y-72815571D01*
X168315616Y-73127108D01*
X168296282Y-73448595D01*
X167073000Y-73448595D01*
X167073000Y-73224967D01*
X167010168Y-72909088D01*
X166886918Y-72611537D01*
X166707987Y-72343748D01*
X166614826Y-72250587D01*
X168982192Y-72250587D01*
X169938000Y-73206395D01*
X170893808Y-72250587D01*
X170798044Y-71986186D01*
X170508429Y-71845296D01*
X170196892Y-71763616D01*
X169875405Y-71744282D01*
X169556325Y-71788039D01*
X169251912Y-71893205D01*
X169077956Y-71986186D01*
X168982192Y-72250587D01*
X166614826Y-72250587D01*
X166480252Y-72116013D01*
X166212463Y-71937082D01*
X165914912Y-71813832D01*
X165599033Y-71751000D01*
X165276967Y-71751000D01*
X164961088Y-71813832D01*
X164663537Y-71937082D01*
X164395748Y-72116013D01*
X164168013Y-72343748D01*
X163989082Y-72611537D01*
X163865832Y-72909088D01*
X163803000Y-73224967D01*
X158359765Y-73224967D01*
X158332443Y-73159008D01*
X158197287Y-72956733D01*
X158025267Y-72784713D01*
X157822992Y-72649557D01*
X157598236Y-72556460D01*
X157581183Y-72553068D01*
X157593540Y-72523236D01*
X157641000Y-72284637D01*
X157641000Y-72041363D01*
X157593540Y-71802764D01*
X157500443Y-71578008D01*
X157365287Y-71375733D01*
X157193267Y-71203713D01*
X156990992Y-71068557D01*
X156766236Y-70975460D01*
X156527637Y-70928000D01*
X156284363Y-70928000D01*
X156045764Y-70975460D01*
X155821008Y-71068557D01*
X155618733Y-71203713D01*
X155446713Y-71375733D01*
X155311557Y-71578008D01*
X155218460Y-71802764D01*
X155171000Y-72041363D01*
X145254560Y-72041363D01*
X145203932Y-71786842D01*
X145091990Y-71516589D01*
X144929475Y-71273368D01*
X144722632Y-71066525D01*
X144479411Y-70904010D01*
X144209158Y-70792068D01*
X143922260Y-70735000D01*
X143629740Y-70735000D01*
X143342842Y-70792068D01*
X143072589Y-70904010D01*
X142829368Y-71066525D01*
X142622525Y-71273368D01*
X142460010Y-71516589D01*
X142348068Y-71786842D01*
X142291000Y-72073740D01*
X142291000Y-72366260D01*
X142348068Y-72653158D01*
X142460010Y-72923411D01*
X142622525Y-73166632D01*
X142829368Y-73373475D01*
X143003760Y-73490000D01*
X142829368Y-73606525D01*
X142622525Y-73813368D01*
X142460010Y-74056589D01*
X142348068Y-74326842D01*
X142291000Y-74613740D01*
X142291000Y-74906260D01*
X142348068Y-75193158D01*
X142460010Y-75463411D01*
X142622525Y-75706632D01*
X142829368Y-75913475D01*
X143003760Y-76030000D01*
X142829368Y-76146525D01*
X142622525Y-76353368D01*
X142460010Y-76596589D01*
X142348068Y-76866842D01*
X142291000Y-77153740D01*
X142291000Y-77446260D01*
X142348068Y-77733158D01*
X142460010Y-78003411D01*
X142622525Y-78246632D01*
X142754380Y-78378487D01*
X142681820Y-78400498D01*
X142571506Y-78459463D01*
X142474815Y-78538815D01*
X142395463Y-78635506D01*
X142336498Y-78745820D01*
X142300188Y-78865518D01*
X142287928Y-78990000D01*
X121848786Y-78990000D01*
X121955131Y-78733263D01*
X122014120Y-78436704D01*
X122014120Y-78134336D01*
X121955131Y-77837777D01*
X121839419Y-77558425D01*
X121671432Y-77307015D01*
X121457625Y-77093208D01*
X121206215Y-76925221D01*
X120926863Y-76809509D01*
X120630304Y-76750520D01*
X120327936Y-76750520D01*
X120031377Y-76809509D01*
X119752025Y-76925221D01*
X119500615Y-77093208D01*
X119434176Y-77159647D01*
X119428622Y-77141340D01*
X119369657Y-77031026D01*
X119290305Y-76934335D01*
X119193614Y-76854983D01*
X119083300Y-76796018D01*
X118963602Y-76759708D01*
X118839120Y-76747448D01*
X118224870Y-76750520D01*
X118066120Y-76909270D01*
X117812120Y-76909270D01*
X117653370Y-76750520D01*
X117039120Y-76747448D01*
X116914638Y-76759708D01*
X116794940Y-76796018D01*
X116684626Y-76854983D01*
X116587935Y-76934335D01*
X116508583Y-77031026D01*
X116449618Y-77141340D01*
X116413308Y-77261038D01*
X116401048Y-77385520D01*
X108043933Y-77385520D01*
X108064000Y-77284637D01*
X108064000Y-77041363D01*
X108016540Y-76802764D01*
X107923443Y-76578008D01*
X107788287Y-76375733D01*
X107616267Y-76203713D01*
X107413992Y-76068557D01*
X107189236Y-75975460D01*
X106950637Y-75928000D01*
X106707363Y-75928000D01*
X106468764Y-75975460D01*
X106400951Y-76003549D01*
X106429040Y-75935736D01*
X106476500Y-75697137D01*
X106476500Y-75453863D01*
X106429040Y-75215264D01*
X106342511Y-75006363D01*
X131886000Y-75006363D01*
X131886000Y-75249637D01*
X131933460Y-75488236D01*
X132026557Y-75712992D01*
X132161713Y-75915267D01*
X132333733Y-76087287D01*
X132536008Y-76222443D01*
X132760764Y-76315540D01*
X132999363Y-76363000D01*
X133242637Y-76363000D01*
X133481236Y-76315540D01*
X133705992Y-76222443D01*
X133908267Y-76087287D01*
X134080287Y-75915267D01*
X134215443Y-75712992D01*
X134308540Y-75488236D01*
X134356000Y-75249637D01*
X134356000Y-75006363D01*
X134308540Y-74767764D01*
X134215443Y-74543008D01*
X134080287Y-74340733D01*
X133908267Y-74168713D01*
X133705992Y-74033557D01*
X133481236Y-73940460D01*
X133242637Y-73893000D01*
X132999363Y-73893000D01*
X132760764Y-73940460D01*
X132536008Y-74033557D01*
X132333733Y-74168713D01*
X132161713Y-74340733D01*
X132026557Y-74543008D01*
X131933460Y-74767764D01*
X131886000Y-75006363D01*
X106342511Y-75006363D01*
X106335943Y-74990508D01*
X106200787Y-74788233D01*
X106028767Y-74616213D01*
X105826492Y-74481057D01*
X105601736Y-74387960D01*
X105363137Y-74340500D01*
X105119863Y-74340500D01*
X104881264Y-74387960D01*
X104656508Y-74481057D01*
X104454233Y-74616213D01*
X104282213Y-74788233D01*
X104147057Y-74990508D01*
X104053960Y-75215264D01*
X104006500Y-75453863D01*
X89942510Y-75453863D01*
X89942510Y-73344363D01*
X100655000Y-73344363D01*
X100655000Y-73587637D01*
X100702460Y-73826236D01*
X100795557Y-74050992D01*
X100930713Y-74253267D01*
X101102733Y-74425287D01*
X101305008Y-74560443D01*
X101529764Y-74653540D01*
X101768363Y-74701000D01*
X102011637Y-74701000D01*
X102250236Y-74653540D01*
X102474992Y-74560443D01*
X102677267Y-74425287D01*
X102849287Y-74253267D01*
X102984443Y-74050992D01*
X103077540Y-73826236D01*
X103125000Y-73587637D01*
X103125000Y-73368363D01*
X123618000Y-73368363D01*
X123618000Y-73611637D01*
X123665460Y-73850236D01*
X123758557Y-74074992D01*
X123893713Y-74277267D01*
X124065733Y-74449287D01*
X124268008Y-74584443D01*
X124492764Y-74677540D01*
X124731363Y-74725000D01*
X124974637Y-74725000D01*
X125213236Y-74677540D01*
X125437992Y-74584443D01*
X125640267Y-74449287D01*
X125812287Y-74277267D01*
X125947443Y-74074992D01*
X126040540Y-73850236D01*
X126088000Y-73611637D01*
X126088000Y-73495363D01*
X126158000Y-73495363D01*
X126158000Y-73738637D01*
X126205460Y-73977236D01*
X126298557Y-74201992D01*
X126433713Y-74404267D01*
X126605733Y-74576287D01*
X126808008Y-74711443D01*
X127032764Y-74804540D01*
X127271363Y-74852000D01*
X127514637Y-74852000D01*
X127753236Y-74804540D01*
X127977992Y-74711443D01*
X128180267Y-74576287D01*
X128352287Y-74404267D01*
X128487443Y-74201992D01*
X128580540Y-73977236D01*
X128628000Y-73738637D01*
X128628000Y-73495363D01*
X128580540Y-73256764D01*
X128487443Y-73032008D01*
X128352287Y-72829733D01*
X128180267Y-72657713D01*
X127977992Y-72522557D01*
X127753236Y-72429460D01*
X127514637Y-72382000D01*
X127271363Y-72382000D01*
X127032764Y-72429460D01*
X126808008Y-72522557D01*
X126605733Y-72657713D01*
X126433713Y-72829733D01*
X126298557Y-73032008D01*
X126205460Y-73256764D01*
X126158000Y-73495363D01*
X126088000Y-73495363D01*
X126088000Y-73368363D01*
X126040540Y-73129764D01*
X125947443Y-72905008D01*
X125812287Y-72702733D01*
X125640267Y-72530713D01*
X125437992Y-72395557D01*
X125213236Y-72302460D01*
X124974637Y-72255000D01*
X124731363Y-72255000D01*
X124492764Y-72302460D01*
X124268008Y-72395557D01*
X124065733Y-72530713D01*
X123893713Y-72702733D01*
X123758557Y-72905008D01*
X123665460Y-73129764D01*
X123618000Y-73368363D01*
X103125000Y-73368363D01*
X103125000Y-73344363D01*
X103077540Y-73105764D01*
X102984443Y-72881008D01*
X102849287Y-72678733D01*
X102677267Y-72506713D01*
X102474992Y-72371557D01*
X102250236Y-72278460D01*
X102011637Y-72231000D01*
X101768363Y-72231000D01*
X101529764Y-72278460D01*
X101305008Y-72371557D01*
X101102733Y-72506713D01*
X100930713Y-72678733D01*
X100795557Y-72881008D01*
X100702460Y-73105764D01*
X100655000Y-73344363D01*
X89942510Y-73344363D01*
X89942510Y-70320363D01*
X100123000Y-70320363D01*
X100123000Y-70563637D01*
X100170460Y-70802236D01*
X100263557Y-71026992D01*
X100398713Y-71229267D01*
X100570733Y-71401287D01*
X100773008Y-71536443D01*
X100997764Y-71629540D01*
X101236363Y-71677000D01*
X101479637Y-71677000D01*
X101718236Y-71629540D01*
X101942992Y-71536443D01*
X101993000Y-71503029D01*
X102043008Y-71536443D01*
X102267764Y-71629540D01*
X102506363Y-71677000D01*
X102749637Y-71677000D01*
X102988236Y-71629540D01*
X103173454Y-71552820D01*
X116403588Y-71552820D01*
X116415848Y-71677302D01*
X116452158Y-71797000D01*
X116511123Y-71907314D01*
X116590475Y-72004005D01*
X116687166Y-72083357D01*
X116797480Y-72142322D01*
X116917178Y-72178632D01*
X117041660Y-72190892D01*
X117655910Y-72187820D01*
X117814660Y-72029070D01*
X117814660Y-70779820D01*
X116565410Y-70779820D01*
X116406660Y-70938570D01*
X116403588Y-71552820D01*
X103173454Y-71552820D01*
X103212992Y-71536443D01*
X103415267Y-71401287D01*
X103587287Y-71229267D01*
X103722443Y-71026992D01*
X103815540Y-70802236D01*
X103863000Y-70563637D01*
X103863000Y-70320363D01*
X103815540Y-70081764D01*
X103722443Y-69857008D01*
X103652827Y-69752820D01*
X116403588Y-69752820D01*
X116406660Y-70367070D01*
X116565410Y-70525820D01*
X117814660Y-70525820D01*
X117814660Y-69276570D01*
X118068660Y-69276570D01*
X118068660Y-70525820D01*
X118088660Y-70525820D01*
X118088660Y-70779820D01*
X118068660Y-70779820D01*
X118068660Y-72029070D01*
X118227410Y-72187820D01*
X118841660Y-72190892D01*
X118966142Y-72178632D01*
X119085840Y-72142322D01*
X119196154Y-72083357D01*
X119292845Y-72004005D01*
X119372197Y-71907314D01*
X119431162Y-71797000D01*
X119436716Y-71778693D01*
X119503155Y-71845132D01*
X119754565Y-72013119D01*
X120033917Y-72128831D01*
X120330476Y-72187820D01*
X120632844Y-72187820D01*
X120929403Y-72128831D01*
X121208755Y-72013119D01*
X121460165Y-71845132D01*
X121673972Y-71631325D01*
X121841959Y-71379915D01*
X121957671Y-71100563D01*
X122016660Y-70804004D01*
X122016660Y-70501636D01*
X121978415Y-70309363D01*
X148267000Y-70309363D01*
X148267000Y-70552637D01*
X148314460Y-70791236D01*
X148407557Y-71015992D01*
X148542713Y-71218267D01*
X148714733Y-71390287D01*
X148917008Y-71525443D01*
X149141764Y-71618540D01*
X149380363Y-71666000D01*
X149623637Y-71666000D01*
X149862236Y-71618540D01*
X150086992Y-71525443D01*
X150289267Y-71390287D01*
X150461287Y-71218267D01*
X150596443Y-71015992D01*
X150689540Y-70791236D01*
X150737000Y-70552637D01*
X150737000Y-70309363D01*
X150689540Y-70070764D01*
X150596443Y-69846008D01*
X150461287Y-69643733D01*
X150289267Y-69471713D01*
X150086992Y-69336557D01*
X149862236Y-69243460D01*
X149623637Y-69196000D01*
X149380363Y-69196000D01*
X149141764Y-69243460D01*
X148917008Y-69336557D01*
X148714733Y-69471713D01*
X148542713Y-69643733D01*
X148407557Y-69846008D01*
X148314460Y-70070764D01*
X148267000Y-70309363D01*
X121978415Y-70309363D01*
X121957671Y-70205077D01*
X121841959Y-69925725D01*
X121673972Y-69674315D01*
X121460165Y-69460508D01*
X121208755Y-69292521D01*
X120929403Y-69176809D01*
X120632844Y-69117820D01*
X120330476Y-69117820D01*
X120033917Y-69176809D01*
X119754565Y-69292521D01*
X119503155Y-69460508D01*
X119436716Y-69526947D01*
X119431162Y-69508640D01*
X119372197Y-69398326D01*
X119292845Y-69301635D01*
X119196154Y-69222283D01*
X119085840Y-69163318D01*
X118966142Y-69127008D01*
X118841660Y-69114748D01*
X118227410Y-69117820D01*
X118068660Y-69276570D01*
X117814660Y-69276570D01*
X117655910Y-69117820D01*
X117041660Y-69114748D01*
X116917178Y-69127008D01*
X116797480Y-69163318D01*
X116687166Y-69222283D01*
X116590475Y-69301635D01*
X116511123Y-69398326D01*
X116452158Y-69508640D01*
X116415848Y-69628338D01*
X116403588Y-69752820D01*
X103652827Y-69752820D01*
X103587287Y-69654733D01*
X103415267Y-69482713D01*
X103212992Y-69347557D01*
X102988236Y-69254460D01*
X102749637Y-69207000D01*
X102506363Y-69207000D01*
X102267764Y-69254460D01*
X102043008Y-69347557D01*
X101993000Y-69380971D01*
X101942992Y-69347557D01*
X101718236Y-69254460D01*
X101479637Y-69207000D01*
X101236363Y-69207000D01*
X100997764Y-69254460D01*
X100773008Y-69347557D01*
X100570733Y-69482713D01*
X100398713Y-69654733D01*
X100263557Y-69857008D01*
X100170460Y-70081764D01*
X100123000Y-70320363D01*
X89942510Y-70320363D01*
X89942510Y-68129363D01*
X151971000Y-68129363D01*
X151971000Y-68372637D01*
X152018460Y-68611236D01*
X152111557Y-68835992D01*
X152246713Y-69038267D01*
X152418733Y-69210287D01*
X152621008Y-69345443D01*
X152845764Y-69438540D01*
X153084363Y-69486000D01*
X153327637Y-69486000D01*
X153566236Y-69438540D01*
X153790992Y-69345443D01*
X153993267Y-69210287D01*
X154165287Y-69038267D01*
X154300443Y-68835992D01*
X154393540Y-68611236D01*
X154407239Y-68542363D01*
X154860000Y-68542363D01*
X154860000Y-68785637D01*
X154907460Y-69024236D01*
X155000557Y-69248992D01*
X155135713Y-69451267D01*
X155307733Y-69623287D01*
X155510008Y-69758443D01*
X155734764Y-69851540D01*
X155973363Y-69899000D01*
X156216637Y-69899000D01*
X156455236Y-69851540D01*
X156679992Y-69758443D01*
X156882267Y-69623287D01*
X157054287Y-69451267D01*
X157154639Y-69301079D01*
X157258764Y-69344209D01*
X157497363Y-69391669D01*
X157740637Y-69391669D01*
X157979236Y-69344209D01*
X158203992Y-69251112D01*
X158406267Y-69115956D01*
X158578287Y-68943936D01*
X158713443Y-68741661D01*
X158795994Y-68542363D01*
X159559000Y-68542363D01*
X159559000Y-68785637D01*
X159606460Y-69024236D01*
X159699557Y-69248992D01*
X159834713Y-69451267D01*
X160006733Y-69623287D01*
X160209008Y-69758443D01*
X160433764Y-69851540D01*
X160672363Y-69899000D01*
X160915637Y-69899000D01*
X161154236Y-69851540D01*
X161378992Y-69758443D01*
X161581267Y-69623287D01*
X161753287Y-69451267D01*
X161888443Y-69248992D01*
X161981540Y-69024236D01*
X162029000Y-68785637D01*
X162029000Y-68542363D01*
X161981540Y-68303764D01*
X161888443Y-68079008D01*
X161753287Y-67876733D01*
X161581267Y-67704713D01*
X161378992Y-67569557D01*
X161154236Y-67476460D01*
X160915637Y-67429000D01*
X160672363Y-67429000D01*
X160433764Y-67476460D01*
X160209008Y-67569557D01*
X160006733Y-67704713D01*
X159834713Y-67876733D01*
X159699557Y-68079008D01*
X159606460Y-68303764D01*
X159559000Y-68542363D01*
X158795994Y-68542363D01*
X158806540Y-68516905D01*
X158854000Y-68278306D01*
X158854000Y-68035032D01*
X158806540Y-67796433D01*
X158713443Y-67571677D01*
X158578287Y-67369402D01*
X158406267Y-67197382D01*
X158203992Y-67062226D01*
X157979236Y-66969129D01*
X157740637Y-66921669D01*
X157497363Y-66921669D01*
X157258764Y-66969129D01*
X157034008Y-67062226D01*
X156831733Y-67197382D01*
X156659713Y-67369402D01*
X156559361Y-67519590D01*
X156455236Y-67476460D01*
X156216637Y-67429000D01*
X155973363Y-67429000D01*
X155734764Y-67476460D01*
X155510008Y-67569557D01*
X155307733Y-67704713D01*
X155135713Y-67876733D01*
X155000557Y-68079008D01*
X154907460Y-68303764D01*
X154860000Y-68542363D01*
X154407239Y-68542363D01*
X154441000Y-68372637D01*
X154441000Y-68129363D01*
X154393540Y-67890764D01*
X154300443Y-67666008D01*
X154165287Y-67463733D01*
X153993267Y-67291713D01*
X153790992Y-67156557D01*
X153566236Y-67063460D01*
X153327637Y-67016000D01*
X153084363Y-67016000D01*
X152845764Y-67063460D01*
X152621008Y-67156557D01*
X152418733Y-67291713D01*
X152246713Y-67463733D01*
X152111557Y-67666008D01*
X152018460Y-67890764D01*
X151971000Y-68129363D01*
X89942510Y-68129363D01*
X89942510Y-65621363D01*
X142795000Y-65621363D01*
X142795000Y-65864637D01*
X142842460Y-66103236D01*
X142935557Y-66327992D01*
X143070713Y-66530267D01*
X143242733Y-66702287D01*
X143445008Y-66837443D01*
X143669764Y-66930540D01*
X143908363Y-66978000D01*
X144151637Y-66978000D01*
X144390236Y-66930540D01*
X144614992Y-66837443D01*
X144783324Y-66724967D01*
X163803000Y-66724967D01*
X163803000Y-67047033D01*
X163865832Y-67362912D01*
X163989082Y-67660463D01*
X164168013Y-67928252D01*
X164395748Y-68155987D01*
X164663537Y-68334918D01*
X164961088Y-68458168D01*
X165276967Y-68521000D01*
X165599033Y-68521000D01*
X165914912Y-68458168D01*
X166212463Y-68334918D01*
X166480252Y-68155987D01*
X166614826Y-68021413D01*
X168982192Y-68021413D01*
X169077956Y-68285814D01*
X169367571Y-68426704D01*
X169679108Y-68508384D01*
X170000595Y-68527718D01*
X170319675Y-68483961D01*
X170624088Y-68378795D01*
X170798044Y-68285814D01*
X170893808Y-68021413D01*
X169938000Y-67065605D01*
X168982192Y-68021413D01*
X166614826Y-68021413D01*
X166707987Y-67928252D01*
X166886918Y-67660463D01*
X167010168Y-67362912D01*
X167073000Y-67047033D01*
X167073000Y-66948595D01*
X168296282Y-66948595D01*
X168340039Y-67267675D01*
X168445205Y-67572088D01*
X168538186Y-67746044D01*
X168802587Y-67841808D01*
X169758395Y-66886000D01*
X170117605Y-66886000D01*
X171073413Y-67841808D01*
X171337814Y-67746044D01*
X171478704Y-67456429D01*
X171560384Y-67144892D01*
X171579718Y-66823405D01*
X171535961Y-66504325D01*
X171430795Y-66199912D01*
X171337814Y-66025956D01*
X171073413Y-65930192D01*
X170117605Y-66886000D01*
X169758395Y-66886000D01*
X168802587Y-65930192D01*
X168538186Y-66025956D01*
X168397296Y-66315571D01*
X168315616Y-66627108D01*
X168296282Y-66948595D01*
X167073000Y-66948595D01*
X167073000Y-66724967D01*
X167010168Y-66409088D01*
X166886918Y-66111537D01*
X166707987Y-65843748D01*
X166614826Y-65750587D01*
X168982192Y-65750587D01*
X169938000Y-66706395D01*
X170893808Y-65750587D01*
X170798044Y-65486186D01*
X170508429Y-65345296D01*
X170196892Y-65263616D01*
X169875405Y-65244282D01*
X169556325Y-65288039D01*
X169251912Y-65393205D01*
X169077956Y-65486186D01*
X168982192Y-65750587D01*
X166614826Y-65750587D01*
X166480252Y-65616013D01*
X166212463Y-65437082D01*
X165914912Y-65313832D01*
X165599033Y-65251000D01*
X165276967Y-65251000D01*
X164961088Y-65313832D01*
X164663537Y-65437082D01*
X164395748Y-65616013D01*
X164168013Y-65843748D01*
X163989082Y-66111537D01*
X163865832Y-66409088D01*
X163803000Y-66724967D01*
X144783324Y-66724967D01*
X144817267Y-66702287D01*
X144989287Y-66530267D01*
X145124443Y-66327992D01*
X145217540Y-66103236D01*
X145265000Y-65864637D01*
X145265000Y-65621363D01*
X145217540Y-65382764D01*
X145124443Y-65158008D01*
X144989287Y-64955733D01*
X144817267Y-64783713D01*
X144614992Y-64648557D01*
X144390236Y-64555460D01*
X144151637Y-64508000D01*
X143908363Y-64508000D01*
X143669764Y-64555460D01*
X143445008Y-64648557D01*
X143242733Y-64783713D01*
X143070713Y-64955733D01*
X142935557Y-65158008D01*
X142842460Y-65382764D01*
X142795000Y-65621363D01*
X89942510Y-65621363D01*
X89942510Y-63124881D01*
X91688724Y-63124881D01*
X92048912Y-63614548D01*
X92712882Y-63974849D01*
X93434385Y-64198694D01*
X94185695Y-64277480D01*
X94937938Y-64208178D01*
X95662208Y-63993452D01*
X96330670Y-63641555D01*
X96371088Y-63614548D01*
X96731276Y-63124881D01*
X94210000Y-60603605D01*
X91688724Y-63124881D01*
X89942510Y-63124881D01*
X89942510Y-60399695D01*
X90356520Y-60399695D01*
X90425822Y-61151938D01*
X90640548Y-61876208D01*
X90992445Y-62544670D01*
X91019452Y-62585088D01*
X91509119Y-62945276D01*
X94030395Y-60424000D01*
X94389605Y-60424000D01*
X96910881Y-62945276D01*
X97400548Y-62585088D01*
X97760849Y-61921118D01*
X97984694Y-61199615D01*
X98063480Y-60448305D01*
X98048653Y-60287363D01*
X122221000Y-60287363D01*
X122221000Y-60530637D01*
X122268460Y-60769236D01*
X122361557Y-60993992D01*
X122496713Y-61196267D01*
X122668733Y-61368287D01*
X122871008Y-61503443D01*
X123095764Y-61596540D01*
X123334363Y-61644000D01*
X123577637Y-61644000D01*
X123816236Y-61596540D01*
X124040992Y-61503443D01*
X124150363Y-61430363D01*
X127809000Y-61430363D01*
X127809000Y-61673637D01*
X127856460Y-61912236D01*
X127949557Y-62136992D01*
X128084713Y-62339267D01*
X128256733Y-62511287D01*
X128459008Y-62646443D01*
X128683764Y-62739540D01*
X128922363Y-62787000D01*
X129165637Y-62787000D01*
X129404236Y-62739540D01*
X129628992Y-62646443D01*
X129831267Y-62511287D01*
X129920814Y-62421740D01*
X137465000Y-62421740D01*
X137465000Y-62714260D01*
X137522068Y-63001158D01*
X137634010Y-63271411D01*
X137796525Y-63514632D01*
X138003368Y-63721475D01*
X138246589Y-63883990D01*
X138516842Y-63995932D01*
X138803740Y-64053000D01*
X139096260Y-64053000D01*
X139383158Y-63995932D01*
X139653411Y-63883990D01*
X139896632Y-63721475D01*
X140103475Y-63514632D01*
X140220000Y-63340240D01*
X140336525Y-63514632D01*
X140543368Y-63721475D01*
X140786589Y-63883990D01*
X141056842Y-63995932D01*
X141343740Y-64053000D01*
X141636260Y-64053000D01*
X141923158Y-63995932D01*
X142193411Y-63883990D01*
X142436632Y-63721475D01*
X142568487Y-63589620D01*
X142590498Y-63662180D01*
X142649463Y-63772494D01*
X142728815Y-63869185D01*
X142825506Y-63948537D01*
X142935820Y-64007502D01*
X143055518Y-64043812D01*
X143180000Y-64056072D01*
X143744250Y-64053000D01*
X143903000Y-63894250D01*
X143903000Y-62695000D01*
X144157000Y-62695000D01*
X144157000Y-63894250D01*
X144315750Y-64053000D01*
X144880000Y-64056072D01*
X145004482Y-64043812D01*
X145124180Y-64007502D01*
X145234494Y-63948537D01*
X145331185Y-63869185D01*
X145410537Y-63772494D01*
X145469502Y-63662180D01*
X145505812Y-63542482D01*
X145518072Y-63418000D01*
X145516858Y-63194881D01*
X170978724Y-63194881D01*
X171338912Y-63684548D01*
X172002882Y-64044849D01*
X172724385Y-64268694D01*
X173475695Y-64347480D01*
X174227938Y-64278178D01*
X174952208Y-64063452D01*
X175620670Y-63711555D01*
X175661088Y-63684548D01*
X176021276Y-63194881D01*
X173500000Y-60673605D01*
X170978724Y-63194881D01*
X145516858Y-63194881D01*
X145515000Y-62853750D01*
X145356250Y-62695000D01*
X144157000Y-62695000D01*
X143903000Y-62695000D01*
X143883000Y-62695000D01*
X143883000Y-62441000D01*
X143903000Y-62441000D01*
X143903000Y-61241750D01*
X144157000Y-61241750D01*
X144157000Y-62441000D01*
X145356250Y-62441000D01*
X145515000Y-62282250D01*
X145518072Y-61718000D01*
X145505812Y-61593518D01*
X145469502Y-61473820D01*
X145410537Y-61363506D01*
X145331185Y-61266815D01*
X145234494Y-61187463D01*
X145124180Y-61128498D01*
X145004482Y-61092188D01*
X144880000Y-61079928D01*
X144315750Y-61083000D01*
X144157000Y-61241750D01*
X143903000Y-61241750D01*
X143744250Y-61083000D01*
X143180000Y-61079928D01*
X143055518Y-61092188D01*
X142935820Y-61128498D01*
X142825506Y-61187463D01*
X142728815Y-61266815D01*
X142649463Y-61363506D01*
X142590498Y-61473820D01*
X142568487Y-61546380D01*
X142436632Y-61414525D01*
X142193411Y-61252010D01*
X141923158Y-61140068D01*
X141636260Y-61083000D01*
X141343740Y-61083000D01*
X141056842Y-61140068D01*
X140786589Y-61252010D01*
X140543368Y-61414525D01*
X140336525Y-61621368D01*
X140220000Y-61795760D01*
X140103475Y-61621368D01*
X139896632Y-61414525D01*
X139653411Y-61252010D01*
X139383158Y-61140068D01*
X139096260Y-61083000D01*
X138803740Y-61083000D01*
X138516842Y-61140068D01*
X138246589Y-61252010D01*
X138003368Y-61414525D01*
X137796525Y-61621368D01*
X137634010Y-61864589D01*
X137522068Y-62134842D01*
X137465000Y-62421740D01*
X129920814Y-62421740D01*
X130003287Y-62339267D01*
X130138443Y-62136992D01*
X130231540Y-61912236D01*
X130279000Y-61673637D01*
X130279000Y-61430363D01*
X130231540Y-61191764D01*
X130138443Y-60967008D01*
X130003287Y-60764733D01*
X129831267Y-60592713D01*
X129647158Y-60469695D01*
X169646520Y-60469695D01*
X169715822Y-61221938D01*
X169930548Y-61946208D01*
X170282445Y-62614670D01*
X170309452Y-62655088D01*
X170799119Y-63015276D01*
X173320395Y-60494000D01*
X173679605Y-60494000D01*
X176200881Y-63015276D01*
X176690548Y-62655088D01*
X177050849Y-61991118D01*
X177274694Y-61269615D01*
X177353480Y-60518305D01*
X177284178Y-59766062D01*
X177069452Y-59041792D01*
X176717555Y-58373330D01*
X176690548Y-58332912D01*
X176200881Y-57972724D01*
X173679605Y-60494000D01*
X173320395Y-60494000D01*
X170799119Y-57972724D01*
X170309452Y-58332912D01*
X169949151Y-58996882D01*
X169725306Y-59718385D01*
X169646520Y-60469695D01*
X129647158Y-60469695D01*
X129628992Y-60457557D01*
X129404236Y-60364460D01*
X129165637Y-60317000D01*
X128922363Y-60317000D01*
X128683764Y-60364460D01*
X128459008Y-60457557D01*
X128256733Y-60592713D01*
X128084713Y-60764733D01*
X127949557Y-60967008D01*
X127856460Y-61191764D01*
X127809000Y-61430363D01*
X124150363Y-61430363D01*
X124243267Y-61368287D01*
X124415287Y-61196267D01*
X124550443Y-60993992D01*
X124643540Y-60769236D01*
X124691000Y-60530637D01*
X124691000Y-60287363D01*
X124643540Y-60048764D01*
X124550443Y-59824008D01*
X124415287Y-59621733D01*
X124243267Y-59449713D01*
X124040992Y-59314557D01*
X123816236Y-59221460D01*
X123577637Y-59174000D01*
X123334363Y-59174000D01*
X123095764Y-59221460D01*
X122871008Y-59314557D01*
X122668733Y-59449713D01*
X122496713Y-59621733D01*
X122361557Y-59824008D01*
X122268460Y-60048764D01*
X122221000Y-60287363D01*
X98048653Y-60287363D01*
X97994178Y-59696062D01*
X97779452Y-58971792D01*
X97427555Y-58303330D01*
X97400548Y-58262912D01*
X96910881Y-57902724D01*
X94389605Y-60424000D01*
X94030395Y-60424000D01*
X91509119Y-57902724D01*
X91019452Y-58262912D01*
X90659151Y-58926882D01*
X90435306Y-59648385D01*
X90356520Y-60399695D01*
X89942510Y-60399695D01*
X89942510Y-57723119D01*
X91688724Y-57723119D01*
X94210000Y-60244395D01*
X96731276Y-57723119D01*
X96562273Y-57493363D01*
X111172000Y-57493363D01*
X111172000Y-57736637D01*
X111219460Y-57975236D01*
X111312557Y-58199992D01*
X111447713Y-58402267D01*
X111619733Y-58574287D01*
X111822008Y-58709443D01*
X112046764Y-58802540D01*
X112285363Y-58850000D01*
X112528637Y-58850000D01*
X112767236Y-58802540D01*
X112861817Y-58763363D01*
X117014000Y-58763363D01*
X117014000Y-59006637D01*
X117061460Y-59245236D01*
X117154557Y-59469992D01*
X117289713Y-59672267D01*
X117461733Y-59844287D01*
X117664008Y-59979443D01*
X117888764Y-60072540D01*
X118127363Y-60120000D01*
X118370637Y-60120000D01*
X118609236Y-60072540D01*
X118833992Y-59979443D01*
X119036267Y-59844287D01*
X119208287Y-59672267D01*
X119343443Y-59469992D01*
X119436540Y-59245236D01*
X119484000Y-59006637D01*
X119484000Y-58763363D01*
X119436540Y-58524764D01*
X119343443Y-58300008D01*
X119208287Y-58097733D01*
X119036267Y-57925713D01*
X118837827Y-57793119D01*
X170978724Y-57793119D01*
X173500000Y-60314395D01*
X176021276Y-57793119D01*
X175661088Y-57303452D01*
X174997118Y-56943151D01*
X174275615Y-56719306D01*
X173524305Y-56640520D01*
X172772062Y-56709822D01*
X172047792Y-56924548D01*
X171379330Y-57276445D01*
X171338912Y-57303452D01*
X170978724Y-57793119D01*
X118837827Y-57793119D01*
X118833992Y-57790557D01*
X118609236Y-57697460D01*
X118370637Y-57650000D01*
X118127363Y-57650000D01*
X117888764Y-57697460D01*
X117664008Y-57790557D01*
X117461733Y-57925713D01*
X117289713Y-58097733D01*
X117154557Y-58300008D01*
X117061460Y-58524764D01*
X117014000Y-58763363D01*
X112861817Y-58763363D01*
X112991992Y-58709443D01*
X113194267Y-58574287D01*
X113366287Y-58402267D01*
X113501443Y-58199992D01*
X113594540Y-57975236D01*
X113642000Y-57736637D01*
X113642000Y-57493363D01*
X113594540Y-57254764D01*
X113501443Y-57030008D01*
X113366287Y-56827733D01*
X113194267Y-56655713D01*
X112991992Y-56520557D01*
X112767236Y-56427460D01*
X112528637Y-56380000D01*
X112285363Y-56380000D01*
X112046764Y-56427460D01*
X111822008Y-56520557D01*
X111619733Y-56655713D01*
X111447713Y-56827733D01*
X111312557Y-57030008D01*
X111219460Y-57254764D01*
X111172000Y-57493363D01*
X96562273Y-57493363D01*
X96371088Y-57233452D01*
X95707118Y-56873151D01*
X94985615Y-56649306D01*
X94234305Y-56570520D01*
X93482062Y-56639822D01*
X92757792Y-56854548D01*
X92089330Y-57206445D01*
X92048912Y-57233452D01*
X91688724Y-57723119D01*
X89942510Y-57723119D01*
X89942510Y-56159989D01*
X178472511Y-56159989D01*
X178472510Y-107987607D01*
%TA.AperFunction,Conductor*%
D26*
G36*
X178472510Y-107987607D02*
G01*
X89942510Y-107987607D01*
X89942510Y-102303224D01*
X96050381Y-102303224D01*
X96182317Y-102598312D01*
X96523045Y-102769159D01*
X96890557Y-102870250D01*
X97270729Y-102897701D01*
X97303895Y-102893558D01*
X97277214Y-102933489D01*
X97106851Y-103344782D01*
X97020000Y-103781409D01*
X97020000Y-104226591D01*
X97106851Y-104663218D01*
X97277214Y-105074511D01*
X97524544Y-105444666D01*
X97839334Y-105759456D01*
X98209489Y-106006786D01*
X98620782Y-106177149D01*
X99057409Y-106264000D01*
X99502591Y-106264000D01*
X99939218Y-106177149D01*
X100350511Y-106006786D01*
X100720666Y-105759456D01*
X101035456Y-105444666D01*
X101282786Y-105074511D01*
X101453149Y-104663218D01*
X101540000Y-104226591D01*
X101540000Y-103781409D01*
X108450000Y-103781409D01*
X108450000Y-104226591D01*
X108536851Y-104663218D01*
X108707214Y-105074511D01*
X108954544Y-105444666D01*
X109269334Y-105759456D01*
X109639489Y-106006786D01*
X110050782Y-106177149D01*
X110487409Y-106264000D01*
X110932591Y-106264000D01*
X111369218Y-106177149D01*
X111780511Y-106006786D01*
X112150666Y-105759456D01*
X112465456Y-105444666D01*
X112712786Y-105074511D01*
X112883149Y-104663218D01*
X112961067Y-104271499D01*
X126452106Y-104271499D01*
X126668228Y-104638258D01*
X127128105Y-104878938D01*
X127626098Y-105025275D01*
X128143071Y-105071648D01*
X128659159Y-105016273D01*
X129154526Y-104861279D01*
X129571772Y-104638258D01*
X129787894Y-104271499D01*
X128120000Y-102603605D01*
X126452106Y-104271499D01*
X112961067Y-104271499D01*
X112970000Y-104226591D01*
X112970000Y-103781409D01*
X112883149Y-103344782D01*
X112712786Y-102933489D01*
X112682189Y-102887697D01*
X112820729Y-102897701D01*
X113198951Y-102850457D01*
X113560690Y-102730333D01*
X113807683Y-102598312D01*
X113875303Y-102447071D01*
X125472352Y-102447071D01*
X125527727Y-102963159D01*
X125682721Y-103458526D01*
X125905742Y-103875772D01*
X126272501Y-104091894D01*
X127940395Y-102424000D01*
X128299605Y-102424000D01*
X129967499Y-104091894D01*
X130334258Y-103875772D01*
X130424854Y-103702665D01*
X135000000Y-103702665D01*
X135000000Y-103985335D01*
X135055147Y-104262574D01*
X135163320Y-104523727D01*
X135320363Y-104758759D01*
X135520241Y-104958637D01*
X135755273Y-105115680D01*
X136016426Y-105223853D01*
X136293665Y-105279000D01*
X136576335Y-105279000D01*
X136853574Y-105223853D01*
X137114727Y-105115680D01*
X137349759Y-104958637D01*
X137549637Y-104758759D01*
X137706680Y-104523727D01*
X137814853Y-104262574D01*
X137820000Y-104236699D01*
X137825147Y-104262574D01*
X137933320Y-104523727D01*
X138090363Y-104758759D01*
X138290241Y-104958637D01*
X138525273Y-105115680D01*
X138786426Y-105223853D01*
X139063665Y-105279000D01*
X139346335Y-105279000D01*
X139623574Y-105223853D01*
X139884727Y-105115680D01*
X140119759Y-104958637D01*
X140319637Y-104758759D01*
X140476680Y-104523727D01*
X140584853Y-104262574D01*
X140590000Y-104236699D01*
X140595147Y-104262574D01*
X140703320Y-104523727D01*
X140860363Y-104758759D01*
X141060241Y-104958637D01*
X141295273Y-105115680D01*
X141556426Y-105223853D01*
X141833665Y-105279000D01*
X142116335Y-105279000D01*
X142393574Y-105223853D01*
X142654727Y-105115680D01*
X142889759Y-104958637D01*
X143011694Y-104836702D01*
X143931903Y-104836702D01*
X144003486Y-105080671D01*
X144258996Y-105201571D01*
X144533184Y-105270300D01*
X144815512Y-105284217D01*
X145095130Y-105242787D01*
X145361292Y-105147603D01*
X145486514Y-105080671D01*
X145558097Y-104836702D01*
X144745000Y-104023605D01*
X143931903Y-104836702D01*
X143011694Y-104836702D01*
X143089637Y-104758759D01*
X143246680Y-104523727D01*
X143354853Y-104262574D01*
X143360513Y-104234118D01*
X143441397Y-104460292D01*
X143508329Y-104585514D01*
X143752298Y-104657097D01*
X144565395Y-103844000D01*
X144924605Y-103844000D01*
X145737702Y-104657097D01*
X145981671Y-104585514D01*
X146102571Y-104330004D01*
X146128212Y-104227711D01*
X146135147Y-104262574D01*
X146243320Y-104523727D01*
X146400363Y-104758759D01*
X146600241Y-104958637D01*
X146835273Y-105115680D01*
X147096426Y-105223853D01*
X147373665Y-105279000D01*
X147656335Y-105279000D01*
X147933574Y-105223853D01*
X148194727Y-105115680D01*
X148429759Y-104958637D01*
X148629637Y-104758759D01*
X148786680Y-104523727D01*
X148894853Y-104262574D01*
X148900000Y-104236699D01*
X148905147Y-104262574D01*
X149013320Y-104523727D01*
X149170363Y-104758759D01*
X149370241Y-104958637D01*
X149605273Y-105115680D01*
X149866426Y-105223853D01*
X150143665Y-105279000D01*
X150426335Y-105279000D01*
X150703574Y-105223853D01*
X150964727Y-105115680D01*
X151199759Y-104958637D01*
X151321694Y-104836702D01*
X152241903Y-104836702D01*
X152313486Y-105080671D01*
X152568996Y-105201571D01*
X152843184Y-105270300D01*
X153125512Y-105284217D01*
X153405130Y-105242787D01*
X153671292Y-105147603D01*
X153796514Y-105080671D01*
X153868097Y-104836702D01*
X153055000Y-104023605D01*
X152241903Y-104836702D01*
X151321694Y-104836702D01*
X151399637Y-104758759D01*
X151556680Y-104523727D01*
X151664853Y-104262574D01*
X151670513Y-104234118D01*
X151751397Y-104460292D01*
X151818329Y-104585514D01*
X152062298Y-104657097D01*
X152875395Y-103844000D01*
X153234605Y-103844000D01*
X154047702Y-104657097D01*
X154291671Y-104585514D01*
X154412571Y-104330004D01*
X154438212Y-104227711D01*
X154445147Y-104262574D01*
X154553320Y-104523727D01*
X154710363Y-104758759D01*
X154910241Y-104958637D01*
X155145273Y-105115680D01*
X155406426Y-105223853D01*
X155683665Y-105279000D01*
X155966335Y-105279000D01*
X156243574Y-105223853D01*
X156504727Y-105115680D01*
X156739759Y-104958637D01*
X156939637Y-104758759D01*
X157096680Y-104523727D01*
X157204853Y-104262574D01*
X157210000Y-104236699D01*
X157215147Y-104262574D01*
X157323320Y-104523727D01*
X157480363Y-104758759D01*
X157680241Y-104958637D01*
X157915273Y-105115680D01*
X158176426Y-105223853D01*
X158453665Y-105279000D01*
X158736335Y-105279000D01*
X159013574Y-105223853D01*
X159274727Y-105115680D01*
X159509759Y-104958637D01*
X159631694Y-104836702D01*
X160551903Y-104836702D01*
X160623486Y-105080671D01*
X160878996Y-105201571D01*
X161153184Y-105270300D01*
X161435512Y-105284217D01*
X161715130Y-105242787D01*
X161981292Y-105147603D01*
X162106514Y-105080671D01*
X162178097Y-104836702D01*
X163321903Y-104836702D01*
X163393486Y-105080671D01*
X163648996Y-105201571D01*
X163923184Y-105270300D01*
X164205512Y-105284217D01*
X164485130Y-105242787D01*
X164751292Y-105147603D01*
X164876514Y-105080671D01*
X164948097Y-104836702D01*
X166091903Y-104836702D01*
X166163486Y-105080671D01*
X166418996Y-105201571D01*
X166693184Y-105270300D01*
X166975512Y-105284217D01*
X167255130Y-105242787D01*
X167521292Y-105147603D01*
X167646514Y-105080671D01*
X167718097Y-104836702D01*
X166905000Y-104023605D01*
X166091903Y-104836702D01*
X164948097Y-104836702D01*
X164135000Y-104023605D01*
X163321903Y-104836702D01*
X162178097Y-104836702D01*
X161365000Y-104023605D01*
X160551903Y-104836702D01*
X159631694Y-104836702D01*
X159709637Y-104758759D01*
X159866680Y-104523727D01*
X159974853Y-104262574D01*
X159980513Y-104234118D01*
X160061397Y-104460292D01*
X160128329Y-104585514D01*
X160372298Y-104657097D01*
X161185395Y-103844000D01*
X161544605Y-103844000D01*
X162357702Y-104657097D01*
X162601671Y-104585514D01*
X162722571Y-104330004D01*
X162748216Y-104227695D01*
X162831397Y-104460292D01*
X162898329Y-104585514D01*
X163142298Y-104657097D01*
X163955395Y-103844000D01*
X164314605Y-103844000D01*
X165127702Y-104657097D01*
X165371671Y-104585514D01*
X165492571Y-104330004D01*
X165518216Y-104227695D01*
X165601397Y-104460292D01*
X165668329Y-104585514D01*
X165912298Y-104657097D01*
X166725395Y-103844000D01*
X167084605Y-103844000D01*
X167897702Y-104657097D01*
X168141671Y-104585514D01*
X168262571Y-104330004D01*
X168277236Y-104271499D01*
X173552106Y-104271499D01*
X173768228Y-104638258D01*
X174228105Y-104878938D01*
X174726098Y-105025275D01*
X175243071Y-105071648D01*
X175759159Y-105016273D01*
X176254526Y-104861279D01*
X176671772Y-104638258D01*
X176887894Y-104271499D01*
X175220000Y-102603605D01*
X173552106Y-104271499D01*
X168277236Y-104271499D01*
X168331300Y-104055816D01*
X168345217Y-103773488D01*
X168303787Y-103493870D01*
X168208603Y-103227708D01*
X168141671Y-103102486D01*
X167897702Y-103030903D01*
X167084605Y-103844000D01*
X166725395Y-103844000D01*
X165912298Y-103030903D01*
X165668329Y-103102486D01*
X165547429Y-103357996D01*
X165521784Y-103460305D01*
X165438603Y-103227708D01*
X165371671Y-103102486D01*
X165127702Y-103030903D01*
X164314605Y-103844000D01*
X163955395Y-103844000D01*
X163142298Y-103030903D01*
X162898329Y-103102486D01*
X162777429Y-103357996D01*
X162751784Y-103460305D01*
X162668603Y-103227708D01*
X162601671Y-103102486D01*
X162357702Y-103030903D01*
X161544605Y-103844000D01*
X161185395Y-103844000D01*
X160372298Y-103030903D01*
X160128329Y-103102486D01*
X160007429Y-103357996D01*
X159981788Y-103460289D01*
X159974853Y-103425426D01*
X159866680Y-103164273D01*
X159709637Y-102929241D01*
X159631694Y-102851298D01*
X160551903Y-102851298D01*
X161365000Y-103664395D01*
X162178097Y-102851298D01*
X163321903Y-102851298D01*
X164135000Y-103664395D01*
X164948097Y-102851298D01*
X166091903Y-102851298D01*
X166905000Y-103664395D01*
X167718097Y-102851298D01*
X167646514Y-102607329D01*
X167391004Y-102486429D01*
X167233989Y-102447071D01*
X172572352Y-102447071D01*
X172627727Y-102963159D01*
X172782721Y-103458526D01*
X173005742Y-103875772D01*
X173372501Y-104091894D01*
X175040395Y-102424000D01*
X175399605Y-102424000D01*
X177067499Y-104091894D01*
X177434258Y-103875772D01*
X177674938Y-103415895D01*
X177821275Y-102917902D01*
X177867648Y-102400929D01*
X177812273Y-101884841D01*
X177657279Y-101389474D01*
X177434258Y-100972228D01*
X177067499Y-100756106D01*
X175399605Y-102424000D01*
X175040395Y-102424000D01*
X173372501Y-100756106D01*
X173005742Y-100972228D01*
X172765062Y-101432105D01*
X172618725Y-101930098D01*
X172572352Y-102447071D01*
X167233989Y-102447071D01*
X167116816Y-102417700D01*
X166834488Y-102403783D01*
X166554870Y-102445213D01*
X166288708Y-102540397D01*
X166163486Y-102607329D01*
X166091903Y-102851298D01*
X164948097Y-102851298D01*
X164876514Y-102607329D01*
X164621004Y-102486429D01*
X164346816Y-102417700D01*
X164064488Y-102403783D01*
X163784870Y-102445213D01*
X163518708Y-102540397D01*
X163393486Y-102607329D01*
X163321903Y-102851298D01*
X162178097Y-102851298D01*
X162106514Y-102607329D01*
X161851004Y-102486429D01*
X161576816Y-102417700D01*
X161294488Y-102403783D01*
X161014870Y-102445213D01*
X160748708Y-102540397D01*
X160623486Y-102607329D01*
X160551903Y-102851298D01*
X159631694Y-102851298D01*
X159509759Y-102729363D01*
X159274727Y-102572320D01*
X159013574Y-102464147D01*
X158736335Y-102409000D01*
X158453665Y-102409000D01*
X158176426Y-102464147D01*
X157915273Y-102572320D01*
X157680241Y-102729363D01*
X157480363Y-102929241D01*
X157323320Y-103164273D01*
X157215147Y-103425426D01*
X157210000Y-103451301D01*
X157204853Y-103425426D01*
X157096680Y-103164273D01*
X156939637Y-102929241D01*
X156739759Y-102729363D01*
X156504727Y-102572320D01*
X156243574Y-102464147D01*
X155966335Y-102409000D01*
X155683665Y-102409000D01*
X155406426Y-102464147D01*
X155145273Y-102572320D01*
X154910241Y-102729363D01*
X154710363Y-102929241D01*
X154553320Y-103164273D01*
X154445147Y-103425426D01*
X154439487Y-103453882D01*
X154358603Y-103227708D01*
X154291671Y-103102486D01*
X154047702Y-103030903D01*
X153234605Y-103844000D01*
X152875395Y-103844000D01*
X152062298Y-103030903D01*
X151818329Y-103102486D01*
X151697429Y-103357996D01*
X151671788Y-103460289D01*
X151664853Y-103425426D01*
X151556680Y-103164273D01*
X151399637Y-102929241D01*
X151321694Y-102851298D01*
X152241903Y-102851298D01*
X153055000Y-103664395D01*
X153868097Y-102851298D01*
X153796514Y-102607329D01*
X153541004Y-102486429D01*
X153266816Y-102417700D01*
X152984488Y-102403783D01*
X152704870Y-102445213D01*
X152438708Y-102540397D01*
X152313486Y-102607329D01*
X152241903Y-102851298D01*
X151321694Y-102851298D01*
X151199759Y-102729363D01*
X150964727Y-102572320D01*
X150703574Y-102464147D01*
X150426335Y-102409000D01*
X150143665Y-102409000D01*
X149866426Y-102464147D01*
X149605273Y-102572320D01*
X149370241Y-102729363D01*
X149170363Y-102929241D01*
X149013320Y-103164273D01*
X148905147Y-103425426D01*
X148900000Y-103451301D01*
X148894853Y-103425426D01*
X148786680Y-103164273D01*
X148629637Y-102929241D01*
X148429759Y-102729363D01*
X148194727Y-102572320D01*
X147933574Y-102464147D01*
X147656335Y-102409000D01*
X147373665Y-102409000D01*
X147096426Y-102464147D01*
X146835273Y-102572320D01*
X146600241Y-102729363D01*
X146400363Y-102929241D01*
X146243320Y-103164273D01*
X146135147Y-103425426D01*
X146129487Y-103453882D01*
X146048603Y-103227708D01*
X145981671Y-103102486D01*
X145737702Y-103030903D01*
X144924605Y-103844000D01*
X144565395Y-103844000D01*
X143752298Y-103030903D01*
X143508329Y-103102486D01*
X143387429Y-103357996D01*
X143361788Y-103460289D01*
X143354853Y-103425426D01*
X143246680Y-103164273D01*
X143089637Y-102929241D01*
X143011694Y-102851298D01*
X143931903Y-102851298D01*
X144745000Y-103664395D01*
X145558097Y-102851298D01*
X145486514Y-102607329D01*
X145231004Y-102486429D01*
X144956816Y-102417700D01*
X144674488Y-102403783D01*
X144394870Y-102445213D01*
X144128708Y-102540397D01*
X144003486Y-102607329D01*
X143931903Y-102851298D01*
X143011694Y-102851298D01*
X142889759Y-102729363D01*
X142654727Y-102572320D01*
X142393574Y-102464147D01*
X142116335Y-102409000D01*
X141833665Y-102409000D01*
X141556426Y-102464147D01*
X141295273Y-102572320D01*
X141060241Y-102729363D01*
X140860363Y-102929241D01*
X140703320Y-103164273D01*
X140595147Y-103425426D01*
X140590000Y-103451301D01*
X140584853Y-103425426D01*
X140476680Y-103164273D01*
X140319637Y-102929241D01*
X140119759Y-102729363D01*
X139884727Y-102572320D01*
X139623574Y-102464147D01*
X139346335Y-102409000D01*
X139063665Y-102409000D01*
X138786426Y-102464147D01*
X138525273Y-102572320D01*
X138290241Y-102729363D01*
X138090363Y-102929241D01*
X137933320Y-103164273D01*
X137825147Y-103425426D01*
X137820000Y-103451301D01*
X137814853Y-103425426D01*
X137706680Y-103164273D01*
X137549637Y-102929241D01*
X137349759Y-102729363D01*
X137114727Y-102572320D01*
X136853574Y-102464147D01*
X136576335Y-102409000D01*
X136293665Y-102409000D01*
X136016426Y-102464147D01*
X135755273Y-102572320D01*
X135520241Y-102729363D01*
X135320363Y-102929241D01*
X135163320Y-103164273D01*
X135055147Y-103425426D01*
X135000000Y-103702665D01*
X130424854Y-103702665D01*
X130574938Y-103415895D01*
X130721275Y-102917902D01*
X130767648Y-102400929D01*
X130712273Y-101884841D01*
X130557279Y-101389474D01*
X130334258Y-100972228D01*
X129967499Y-100756106D01*
X128299605Y-102424000D01*
X127940395Y-102424000D01*
X126272501Y-100756106D01*
X125905742Y-100972228D01*
X125665062Y-101432105D01*
X125518725Y-101930098D01*
X125472352Y-102447071D01*
X113875303Y-102447071D01*
X113939619Y-102303224D01*
X112770000Y-101133605D01*
X112755858Y-101147748D01*
X112576253Y-100968143D01*
X112590395Y-100954000D01*
X112949605Y-100954000D01*
X114119224Y-102123619D01*
X114414312Y-101991683D01*
X114585159Y-101650955D01*
X114686250Y-101283443D01*
X114713701Y-100903271D01*
X114672884Y-100576501D01*
X126452106Y-100576501D01*
X128120000Y-102244395D01*
X129787894Y-100576501D01*
X129571772Y-100209742D01*
X129560801Y-100204000D01*
X133611928Y-100204000D01*
X133611928Y-101804000D01*
X133624188Y-101928482D01*
X133660498Y-102048180D01*
X133719463Y-102158494D01*
X133798815Y-102255185D01*
X133895506Y-102334537D01*
X134005820Y-102393502D01*
X134125518Y-102429812D01*
X134250000Y-102442072D01*
X135850000Y-102442072D01*
X135974482Y-102429812D01*
X136094180Y-102393502D01*
X136204494Y-102334537D01*
X136301185Y-102255185D01*
X136380537Y-102158494D01*
X136439502Y-102048180D01*
X136455117Y-101996702D01*
X137006903Y-101996702D01*
X137078486Y-102240671D01*
X137333996Y-102361571D01*
X137608184Y-102430300D01*
X137890512Y-102444217D01*
X138170130Y-102402787D01*
X138436292Y-102307603D01*
X138561514Y-102240671D01*
X138633097Y-101996702D01*
X137820000Y-101183605D01*
X137006903Y-101996702D01*
X136455117Y-101996702D01*
X136475812Y-101928482D01*
X136488072Y-101804000D01*
X136488072Y-101541087D01*
X136516397Y-101620292D01*
X136583329Y-101745514D01*
X136827298Y-101817097D01*
X137640395Y-101004000D01*
X137999605Y-101004000D01*
X138812702Y-101817097D01*
X139056671Y-101745514D01*
X139177571Y-101490004D01*
X139203212Y-101387711D01*
X139210147Y-101422574D01*
X139318320Y-101683727D01*
X139475363Y-101918759D01*
X139675241Y-102118637D01*
X139910273Y-102275680D01*
X140171426Y-102383853D01*
X140448665Y-102439000D01*
X140731335Y-102439000D01*
X141008574Y-102383853D01*
X141269727Y-102275680D01*
X141504759Y-102118637D01*
X141704637Y-101918759D01*
X141861680Y-101683727D01*
X141969853Y-101422574D01*
X141975000Y-101396699D01*
X141980147Y-101422574D01*
X142088320Y-101683727D01*
X142245363Y-101918759D01*
X142445241Y-102118637D01*
X142680273Y-102275680D01*
X142941426Y-102383853D01*
X143218665Y-102439000D01*
X143501335Y-102439000D01*
X143778574Y-102383853D01*
X144039727Y-102275680D01*
X144274759Y-102118637D01*
X144474637Y-101918759D01*
X144631680Y-101683727D01*
X144739853Y-101422574D01*
X144745000Y-101396699D01*
X144750147Y-101422574D01*
X144858320Y-101683727D01*
X145015363Y-101918759D01*
X145215241Y-102118637D01*
X145450273Y-102275680D01*
X145711426Y-102383853D01*
X145988665Y-102439000D01*
X146271335Y-102439000D01*
X146548574Y-102383853D01*
X146809727Y-102275680D01*
X147044759Y-102118637D01*
X147244637Y-101918759D01*
X147401680Y-101683727D01*
X147509853Y-101422574D01*
X147515000Y-101396699D01*
X147520147Y-101422574D01*
X147628320Y-101683727D01*
X147785363Y-101918759D01*
X147985241Y-102118637D01*
X148220273Y-102275680D01*
X148481426Y-102383853D01*
X148758665Y-102439000D01*
X149041335Y-102439000D01*
X149318574Y-102383853D01*
X149579727Y-102275680D01*
X149814759Y-102118637D01*
X150014637Y-101918759D01*
X150171680Y-101683727D01*
X150279853Y-101422574D01*
X150285000Y-101396699D01*
X150290147Y-101422574D01*
X150398320Y-101683727D01*
X150555363Y-101918759D01*
X150755241Y-102118637D01*
X150990273Y-102275680D01*
X151251426Y-102383853D01*
X151528665Y-102439000D01*
X151811335Y-102439000D01*
X152088574Y-102383853D01*
X152349727Y-102275680D01*
X152584759Y-102118637D01*
X152784637Y-101918759D01*
X152941680Y-101683727D01*
X153049853Y-101422574D01*
X153055000Y-101396699D01*
X153060147Y-101422574D01*
X153168320Y-101683727D01*
X153325363Y-101918759D01*
X153525241Y-102118637D01*
X153760273Y-102275680D01*
X154021426Y-102383853D01*
X154298665Y-102439000D01*
X154581335Y-102439000D01*
X154858574Y-102383853D01*
X155119727Y-102275680D01*
X155354759Y-102118637D01*
X155554637Y-101918759D01*
X155711680Y-101683727D01*
X155819853Y-101422574D01*
X155825000Y-101396699D01*
X155830147Y-101422574D01*
X155938320Y-101683727D01*
X156095363Y-101918759D01*
X156295241Y-102118637D01*
X156530273Y-102275680D01*
X156791426Y-102383853D01*
X157068665Y-102439000D01*
X157351335Y-102439000D01*
X157628574Y-102383853D01*
X157889727Y-102275680D01*
X158124759Y-102118637D01*
X158324637Y-101918759D01*
X158481680Y-101683727D01*
X158589853Y-101422574D01*
X158595000Y-101396699D01*
X158600147Y-101422574D01*
X158708320Y-101683727D01*
X158865363Y-101918759D01*
X159065241Y-102118637D01*
X159300273Y-102275680D01*
X159561426Y-102383853D01*
X159838665Y-102439000D01*
X160121335Y-102439000D01*
X160398574Y-102383853D01*
X160659727Y-102275680D01*
X160894759Y-102118637D01*
X161094637Y-101918759D01*
X161251680Y-101683727D01*
X161359853Y-101422574D01*
X161365000Y-101396699D01*
X161370147Y-101422574D01*
X161478320Y-101683727D01*
X161635363Y-101918759D01*
X161835241Y-102118637D01*
X162070273Y-102275680D01*
X162331426Y-102383853D01*
X162608665Y-102439000D01*
X162891335Y-102439000D01*
X163168574Y-102383853D01*
X163429727Y-102275680D01*
X163664759Y-102118637D01*
X163864637Y-101918759D01*
X164021680Y-101683727D01*
X164129853Y-101422574D01*
X164135000Y-101396699D01*
X164140147Y-101422574D01*
X164248320Y-101683727D01*
X164405363Y-101918759D01*
X164605241Y-102118637D01*
X164840273Y-102275680D01*
X165101426Y-102383853D01*
X165378665Y-102439000D01*
X165661335Y-102439000D01*
X165938574Y-102383853D01*
X166199727Y-102275680D01*
X166434759Y-102118637D01*
X166634637Y-101918759D01*
X166791680Y-101683727D01*
X166899853Y-101422574D01*
X166905000Y-101396699D01*
X166910147Y-101422574D01*
X167018320Y-101683727D01*
X167175363Y-101918759D01*
X167375241Y-102118637D01*
X167610273Y-102275680D01*
X167871426Y-102383853D01*
X168148665Y-102439000D01*
X168431335Y-102439000D01*
X168708574Y-102383853D01*
X168969727Y-102275680D01*
X169204759Y-102118637D01*
X169404637Y-101918759D01*
X169561680Y-101683727D01*
X169669853Y-101422574D01*
X169725000Y-101145335D01*
X169725000Y-100862665D01*
X169669853Y-100585426D01*
X169666157Y-100576501D01*
X173552106Y-100576501D01*
X175220000Y-102244395D01*
X176887894Y-100576501D01*
X176671772Y-100209742D01*
X176211895Y-99969062D01*
X175713902Y-99822725D01*
X175196929Y-99776352D01*
X174680841Y-99831727D01*
X174185474Y-99986721D01*
X173768228Y-100209742D01*
X173552106Y-100576501D01*
X169666157Y-100576501D01*
X169561680Y-100324273D01*
X169404637Y-100089241D01*
X169204759Y-99889363D01*
X168969727Y-99732320D01*
X168708574Y-99624147D01*
X168431335Y-99569000D01*
X168148665Y-99569000D01*
X167871426Y-99624147D01*
X167610273Y-99732320D01*
X167375241Y-99889363D01*
X167175363Y-100089241D01*
X167018320Y-100324273D01*
X166910147Y-100585426D01*
X166905000Y-100611301D01*
X166899853Y-100585426D01*
X166791680Y-100324273D01*
X166634637Y-100089241D01*
X166434759Y-99889363D01*
X166199727Y-99732320D01*
X165938574Y-99624147D01*
X165661335Y-99569000D01*
X165378665Y-99569000D01*
X165101426Y-99624147D01*
X164840273Y-99732320D01*
X164605241Y-99889363D01*
X164405363Y-100089241D01*
X164248320Y-100324273D01*
X164140147Y-100585426D01*
X164135000Y-100611301D01*
X164129853Y-100585426D01*
X164021680Y-100324273D01*
X163864637Y-100089241D01*
X163664759Y-99889363D01*
X163429727Y-99732320D01*
X163168574Y-99624147D01*
X162891335Y-99569000D01*
X162608665Y-99569000D01*
X162331426Y-99624147D01*
X162070273Y-99732320D01*
X161835241Y-99889363D01*
X161635363Y-100089241D01*
X161478320Y-100324273D01*
X161370147Y-100585426D01*
X161365000Y-100611301D01*
X161359853Y-100585426D01*
X161251680Y-100324273D01*
X161094637Y-100089241D01*
X160894759Y-99889363D01*
X160659727Y-99732320D01*
X160398574Y-99624147D01*
X160121335Y-99569000D01*
X159838665Y-99569000D01*
X159561426Y-99624147D01*
X159300273Y-99732320D01*
X159065241Y-99889363D01*
X158865363Y-100089241D01*
X158708320Y-100324273D01*
X158600147Y-100585426D01*
X158595000Y-100611301D01*
X158589853Y-100585426D01*
X158481680Y-100324273D01*
X158324637Y-100089241D01*
X158124759Y-99889363D01*
X157889727Y-99732320D01*
X157628574Y-99624147D01*
X157351335Y-99569000D01*
X157068665Y-99569000D01*
X156791426Y-99624147D01*
X156530273Y-99732320D01*
X156295241Y-99889363D01*
X156095363Y-100089241D01*
X155938320Y-100324273D01*
X155830147Y-100585426D01*
X155825000Y-100611301D01*
X155819853Y-100585426D01*
X155711680Y-100324273D01*
X155554637Y-100089241D01*
X155354759Y-99889363D01*
X155119727Y-99732320D01*
X154858574Y-99624147D01*
X154581335Y-99569000D01*
X154298665Y-99569000D01*
X154021426Y-99624147D01*
X153760273Y-99732320D01*
X153525241Y-99889363D01*
X153325363Y-100089241D01*
X153168320Y-100324273D01*
X153060147Y-100585426D01*
X153055000Y-100611301D01*
X153049853Y-100585426D01*
X152941680Y-100324273D01*
X152784637Y-100089241D01*
X152584759Y-99889363D01*
X152349727Y-99732320D01*
X152088574Y-99624147D01*
X151811335Y-99569000D01*
X151528665Y-99569000D01*
X151251426Y-99624147D01*
X150990273Y-99732320D01*
X150755241Y-99889363D01*
X150555363Y-100089241D01*
X150398320Y-100324273D01*
X150290147Y-100585426D01*
X150285000Y-100611301D01*
X150279853Y-100585426D01*
X150171680Y-100324273D01*
X150014637Y-100089241D01*
X149814759Y-99889363D01*
X149579727Y-99732320D01*
X149318574Y-99624147D01*
X149041335Y-99569000D01*
X148758665Y-99569000D01*
X148481426Y-99624147D01*
X148220273Y-99732320D01*
X147985241Y-99889363D01*
X147785363Y-100089241D01*
X147628320Y-100324273D01*
X147520147Y-100585426D01*
X147515000Y-100611301D01*
X147509853Y-100585426D01*
X147401680Y-100324273D01*
X147244637Y-100089241D01*
X147044759Y-99889363D01*
X146809727Y-99732320D01*
X146548574Y-99624147D01*
X146271335Y-99569000D01*
X145988665Y-99569000D01*
X145711426Y-99624147D01*
X145450273Y-99732320D01*
X145215241Y-99889363D01*
X145015363Y-100089241D01*
X144858320Y-100324273D01*
X144750147Y-100585426D01*
X144745000Y-100611301D01*
X144739853Y-100585426D01*
X144631680Y-100324273D01*
X144474637Y-100089241D01*
X144274759Y-99889363D01*
X144039727Y-99732320D01*
X143778574Y-99624147D01*
X143501335Y-99569000D01*
X143218665Y-99569000D01*
X142941426Y-99624147D01*
X142680273Y-99732320D01*
X142445241Y-99889363D01*
X142245363Y-100089241D01*
X142088320Y-100324273D01*
X141980147Y-100585426D01*
X141975000Y-100611301D01*
X141969853Y-100585426D01*
X141861680Y-100324273D01*
X141704637Y-100089241D01*
X141504759Y-99889363D01*
X141269727Y-99732320D01*
X141008574Y-99624147D01*
X140731335Y-99569000D01*
X140448665Y-99569000D01*
X140171426Y-99624147D01*
X139910273Y-99732320D01*
X139675241Y-99889363D01*
X139475363Y-100089241D01*
X139318320Y-100324273D01*
X139210147Y-100585426D01*
X139204487Y-100613882D01*
X139123603Y-100387708D01*
X139056671Y-100262486D01*
X138812702Y-100190903D01*
X137999605Y-101004000D01*
X137640395Y-101004000D01*
X136827298Y-100190903D01*
X136583329Y-100262486D01*
X136488072Y-100463802D01*
X136488072Y-100204000D01*
X136475812Y-100079518D01*
X136455118Y-100011298D01*
X137006903Y-100011298D01*
X137820000Y-100824395D01*
X138633097Y-100011298D01*
X138561514Y-99767329D01*
X138306004Y-99646429D01*
X138031816Y-99577700D01*
X137749488Y-99563783D01*
X137469870Y-99605213D01*
X137203708Y-99700397D01*
X137078486Y-99767329D01*
X137006903Y-100011298D01*
X136455118Y-100011298D01*
X136439502Y-99959820D01*
X136380537Y-99849506D01*
X136301185Y-99752815D01*
X136204494Y-99673463D01*
X136094180Y-99614498D01*
X135974482Y-99578188D01*
X135850000Y-99565928D01*
X134250000Y-99565928D01*
X134125518Y-99578188D01*
X134005820Y-99614498D01*
X133895506Y-99673463D01*
X133798815Y-99752815D01*
X133719463Y-99849506D01*
X133660498Y-99959820D01*
X133624188Y-100079518D01*
X133611928Y-100204000D01*
X129560801Y-100204000D01*
X129111895Y-99969062D01*
X128613902Y-99822725D01*
X128096929Y-99776352D01*
X127580841Y-99831727D01*
X127085474Y-99986721D01*
X126668228Y-100209742D01*
X126452106Y-100576501D01*
X114672884Y-100576501D01*
X114666457Y-100525049D01*
X114546333Y-100163310D01*
X114414312Y-99916317D01*
X114119224Y-99784381D01*
X112949605Y-100954000D01*
X112590395Y-100954000D01*
X111420776Y-99784381D01*
X111125688Y-99916317D01*
X110954841Y-100257045D01*
X110853750Y-100624557D01*
X110826299Y-101004729D01*
X110873543Y-101382951D01*
X110993667Y-101744690D01*
X111000521Y-101757512D01*
X110932591Y-101744000D01*
X110487409Y-101744000D01*
X110050782Y-101830851D01*
X109639489Y-102001214D01*
X109269334Y-102248544D01*
X108954544Y-102563334D01*
X108707214Y-102933489D01*
X108536851Y-103344782D01*
X108450000Y-103781409D01*
X101540000Y-103781409D01*
X101453149Y-103344782D01*
X101282786Y-102933489D01*
X101035456Y-102563334D01*
X100720666Y-102248544D01*
X100350511Y-102001214D01*
X99939218Y-101830851D01*
X99502591Y-101744000D01*
X99057409Y-101744000D01*
X98980871Y-101759224D01*
X99035159Y-101650955D01*
X99136250Y-101283443D01*
X99163701Y-100903271D01*
X99116457Y-100525049D01*
X98996333Y-100163310D01*
X98864312Y-99916317D01*
X98569224Y-99784381D01*
X97399605Y-100954000D01*
X97413748Y-100968143D01*
X97234143Y-101147748D01*
X97220000Y-101133605D01*
X96050381Y-102303224D01*
X89942510Y-102303224D01*
X89942510Y-101004729D01*
X95276299Y-101004729D01*
X95323543Y-101382951D01*
X95443667Y-101744690D01*
X95575688Y-101991683D01*
X95870776Y-102123619D01*
X97040395Y-100954000D01*
X95870776Y-99784381D01*
X95575688Y-99916317D01*
X95404841Y-100257045D01*
X95303750Y-100624557D01*
X95276299Y-101004729D01*
X89942510Y-101004729D01*
X89942510Y-99604776D01*
X96050381Y-99604776D01*
X97220000Y-100774395D01*
X98389619Y-99604776D01*
X111600381Y-99604776D01*
X112770000Y-100774395D01*
X113939619Y-99604776D01*
X113807683Y-99309688D01*
X113466955Y-99138841D01*
X113099443Y-99037750D01*
X112719271Y-99010299D01*
X112341049Y-99057543D01*
X111979310Y-99177667D01*
X111732317Y-99309688D01*
X111600381Y-99604776D01*
X98389619Y-99604776D01*
X98257683Y-99309688D01*
X97916955Y-99138841D01*
X97549443Y-99037750D01*
X97169271Y-99010299D01*
X96791049Y-99057543D01*
X96429310Y-99177667D01*
X96182317Y-99309688D01*
X96050381Y-99604776D01*
X89942510Y-99604776D01*
X89942510Y-96714000D01*
X98961928Y-96714000D01*
X98961928Y-98614000D01*
X98974188Y-98738482D01*
X99010498Y-98858180D01*
X99069463Y-98968494D01*
X99148815Y-99065185D01*
X99245506Y-99144537D01*
X99355820Y-99203502D01*
X99475518Y-99239812D01*
X99600000Y-99252072D01*
X101500000Y-99252072D01*
X101624482Y-99239812D01*
X101744180Y-99203502D01*
X101854494Y-99144537D01*
X101951185Y-99065185D01*
X102030537Y-98968494D01*
X102089502Y-98858180D01*
X102095630Y-98837978D01*
X102169854Y-98763754D01*
X102259579Y-99023042D01*
X102540671Y-99158935D01*
X102842873Y-99237379D01*
X103154573Y-99255359D01*
X103463791Y-99212184D01*
X103758644Y-99109513D01*
X103920421Y-99023042D01*
X104010147Y-98763752D01*
X103090000Y-97843605D01*
X103075858Y-97857748D01*
X102896253Y-97678143D01*
X102910395Y-97664000D01*
X102896253Y-97649858D01*
X103075858Y-97470253D01*
X103090000Y-97484395D01*
X103104143Y-97470253D01*
X103283748Y-97649858D01*
X103269605Y-97664000D01*
X104189752Y-98584147D01*
X104310613Y-98542324D01*
X104398850Y-98674379D01*
X104619621Y-98895150D01*
X104879221Y-99068609D01*
X105167673Y-99188089D01*
X105473891Y-99249000D01*
X105786109Y-99249000D01*
X106092327Y-99188089D01*
X106380779Y-99068609D01*
X106640379Y-98895150D01*
X106771777Y-98763752D01*
X107249853Y-98763752D01*
X107339579Y-99023042D01*
X107620671Y-99158935D01*
X107922873Y-99237379D01*
X108234573Y-99255359D01*
X108543791Y-99212184D01*
X108838644Y-99109513D01*
X109000421Y-99023042D01*
X109090147Y-98763752D01*
X108170000Y-97843605D01*
X107249853Y-98763752D01*
X106771777Y-98763752D01*
X106861150Y-98674379D01*
X106949387Y-98542324D01*
X107070248Y-98584147D01*
X107990395Y-97664000D01*
X107976253Y-97649858D01*
X108155858Y-97470253D01*
X108170000Y-97484395D01*
X108184143Y-97470253D01*
X108363748Y-97649858D01*
X108349605Y-97664000D01*
X109269752Y-98584147D01*
X109529042Y-98494421D01*
X109664935Y-98213329D01*
X109743379Y-97911127D01*
X109761359Y-97599427D01*
X109718184Y-97290209D01*
X109615513Y-96995356D01*
X109529042Y-96833579D01*
X109269754Y-96743854D01*
X109304608Y-96709000D01*
X109596109Y-96709000D01*
X109902327Y-96648089D01*
X110190779Y-96528609D01*
X110450379Y-96355150D01*
X110671150Y-96134379D01*
X110844609Y-95874779D01*
X110964089Y-95586327D01*
X111025000Y-95280109D01*
X111025000Y-94967891D01*
X110964089Y-94661673D01*
X110862064Y-94415360D01*
X116406128Y-94415360D01*
X116418388Y-94539842D01*
X116454698Y-94659540D01*
X116513663Y-94769854D01*
X116593015Y-94866545D01*
X116689706Y-94945897D01*
X116800020Y-95004862D01*
X116919718Y-95041172D01*
X117044200Y-95053432D01*
X117658450Y-95050360D01*
X117817200Y-94891610D01*
X117817200Y-93642360D01*
X116567950Y-93642360D01*
X116409200Y-93801110D01*
X116406128Y-94415360D01*
X110862064Y-94415360D01*
X110844609Y-94373221D01*
X110671150Y-94113621D01*
X110450379Y-93892850D01*
X110190779Y-93719391D01*
X109902327Y-93599911D01*
X109596109Y-93539000D01*
X109283891Y-93539000D01*
X108977673Y-93599911D01*
X108689221Y-93719391D01*
X108429621Y-93892850D01*
X108208850Y-94113621D01*
X108170000Y-94171764D01*
X108131150Y-94113621D01*
X107910379Y-93892850D01*
X107650779Y-93719391D01*
X107362327Y-93599911D01*
X107056109Y-93539000D01*
X106743891Y-93539000D01*
X106437673Y-93599911D01*
X106149221Y-93719391D01*
X105889621Y-93892850D01*
X105668850Y-94113621D01*
X105630000Y-94171764D01*
X105591150Y-94113621D01*
X105370379Y-93892850D01*
X105110779Y-93719391D01*
X104822327Y-93599911D01*
X104516109Y-93539000D01*
X104203891Y-93539000D01*
X103897673Y-93599911D01*
X103609221Y-93719391D01*
X103349621Y-93892850D01*
X103128850Y-94113621D01*
X103090000Y-94171764D01*
X103051150Y-94113621D01*
X102830379Y-93892850D01*
X102570779Y-93719391D01*
X102282327Y-93599911D01*
X101976109Y-93539000D01*
X101663891Y-93539000D01*
X101357673Y-93599911D01*
X101069221Y-93719391D01*
X100809621Y-93892850D01*
X100588850Y-94113621D01*
X100415391Y-94373221D01*
X100295911Y-94661673D01*
X100235000Y-94967891D01*
X100235000Y-95280109D01*
X100295911Y-95586327D01*
X100415391Y-95874779D01*
X100549794Y-96075928D01*
X99600000Y-96075928D01*
X99475518Y-96088188D01*
X99355820Y-96124498D01*
X99245506Y-96183463D01*
X99148815Y-96262815D01*
X99069463Y-96359506D01*
X99010498Y-96469820D01*
X98974188Y-96589518D01*
X98961928Y-96714000D01*
X89942510Y-96714000D01*
X89942510Y-93688363D01*
X91487000Y-93688363D01*
X91487000Y-93931637D01*
X91534460Y-94170236D01*
X91627557Y-94394992D01*
X91660968Y-94444995D01*
X91627557Y-94494998D01*
X91534460Y-94719754D01*
X91487000Y-94958353D01*
X91487000Y-95201627D01*
X91534460Y-95440226D01*
X91627557Y-95664982D01*
X91762713Y-95867257D01*
X91934733Y-96039277D01*
X92137008Y-96174433D01*
X92361764Y-96267530D01*
X92600363Y-96314990D01*
X92843637Y-96314990D01*
X93082236Y-96267530D01*
X93306992Y-96174433D01*
X93509267Y-96039277D01*
X93681287Y-95867257D01*
X93816443Y-95664982D01*
X93909540Y-95440226D01*
X93957000Y-95201627D01*
X93957000Y-94958353D01*
X93909540Y-94719754D01*
X93816443Y-94494998D01*
X93783032Y-94444995D01*
X93816443Y-94394992D01*
X93909540Y-94170236D01*
X93957000Y-93931637D01*
X93957000Y-93688363D01*
X93909540Y-93449764D01*
X93816443Y-93225008D01*
X93681287Y-93022733D01*
X93509267Y-92850713D01*
X93306992Y-92715557D01*
X93082236Y-92622460D01*
X93046542Y-92615360D01*
X116406128Y-92615360D01*
X116409200Y-93229610D01*
X116567950Y-93388360D01*
X117817200Y-93388360D01*
X117817200Y-92139110D01*
X118071200Y-92139110D01*
X118071200Y-93388360D01*
X118091200Y-93388360D01*
X118091200Y-93642360D01*
X118071200Y-93642360D01*
X118071200Y-94891610D01*
X118229950Y-95050360D01*
X118844200Y-95053432D01*
X118968682Y-95041172D01*
X119088380Y-95004862D01*
X119198694Y-94945897D01*
X119295385Y-94866545D01*
X119374737Y-94769854D01*
X119433702Y-94659540D01*
X119439256Y-94641233D01*
X119505695Y-94707672D01*
X119757105Y-94875659D01*
X120036457Y-94991371D01*
X120333016Y-95050360D01*
X120635384Y-95050360D01*
X120931943Y-94991371D01*
X121211295Y-94875659D01*
X121462705Y-94707672D01*
X121676512Y-94493865D01*
X121844499Y-94242455D01*
X121960211Y-93963103D01*
X122019200Y-93666544D01*
X122019200Y-93364176D01*
X121960211Y-93067617D01*
X121844499Y-92788265D01*
X121676512Y-92536855D01*
X121621220Y-92481563D01*
X127872800Y-92481563D01*
X127872800Y-92724837D01*
X127920260Y-92963436D01*
X128013357Y-93188192D01*
X128148513Y-93390467D01*
X128320533Y-93562487D01*
X128522808Y-93697643D01*
X128747564Y-93790740D01*
X128986163Y-93838200D01*
X129229437Y-93838200D01*
X129468036Y-93790740D01*
X129692792Y-93697643D01*
X129895067Y-93562487D01*
X130067087Y-93390467D01*
X130202243Y-93188192D01*
X130295340Y-92963436D01*
X130342800Y-92724837D01*
X130342800Y-92481563D01*
X136000800Y-92481563D01*
X136000800Y-92724837D01*
X136048260Y-92963436D01*
X136141357Y-93188192D01*
X136276513Y-93390467D01*
X136448533Y-93562487D01*
X136650808Y-93697643D01*
X136875564Y-93790740D01*
X137114163Y-93838200D01*
X137357437Y-93838200D01*
X137596036Y-93790740D01*
X137820792Y-93697643D01*
X138023067Y-93562487D01*
X138195087Y-93390467D01*
X138330243Y-93188192D01*
X138423340Y-92963436D01*
X138470800Y-92724837D01*
X138470800Y-92481563D01*
X144001800Y-92481563D01*
X144001800Y-92724837D01*
X144049260Y-92963436D01*
X144142357Y-93188192D01*
X144277513Y-93390467D01*
X144449533Y-93562487D01*
X144651808Y-93697643D01*
X144876564Y-93790740D01*
X145115163Y-93838200D01*
X145358437Y-93838200D01*
X145597036Y-93790740D01*
X145821792Y-93697643D01*
X146024067Y-93562487D01*
X146196087Y-93390467D01*
X146331243Y-93188192D01*
X146424340Y-92963436D01*
X146471800Y-92724837D01*
X146471800Y-92481563D01*
X156828800Y-92481563D01*
X156828800Y-92724837D01*
X156876260Y-92963436D01*
X156969357Y-93188192D01*
X157104513Y-93390467D01*
X157276533Y-93562487D01*
X157478808Y-93697643D01*
X157703564Y-93790740D01*
X157942163Y-93838200D01*
X158185437Y-93838200D01*
X158424036Y-93790740D01*
X158648792Y-93697643D01*
X158851067Y-93562487D01*
X159023087Y-93390467D01*
X159158243Y-93188192D01*
X159251340Y-92963436D01*
X159298800Y-92724837D01*
X159298800Y-92481563D01*
X164829800Y-92481563D01*
X164829800Y-92724837D01*
X164877260Y-92963436D01*
X164970357Y-93188192D01*
X165105513Y-93390467D01*
X165277533Y-93562487D01*
X165479808Y-93697643D01*
X165704564Y-93790740D01*
X165943163Y-93838200D01*
X166186437Y-93838200D01*
X166425036Y-93790740D01*
X166649792Y-93697643D01*
X166852067Y-93562487D01*
X167024087Y-93390467D01*
X167159243Y-93188192D01*
X167252340Y-92963436D01*
X167299800Y-92724837D01*
X167299800Y-92481563D01*
X173084800Y-92481563D01*
X173084800Y-92724837D01*
X173132260Y-92963436D01*
X173225357Y-93188192D01*
X173360513Y-93390467D01*
X173532533Y-93562487D01*
X173734808Y-93697643D01*
X173959564Y-93790740D01*
X174198163Y-93838200D01*
X174441437Y-93838200D01*
X174680036Y-93790740D01*
X174904792Y-93697643D01*
X175107067Y-93562487D01*
X175279087Y-93390467D01*
X175414243Y-93188192D01*
X175507340Y-92963436D01*
X175554800Y-92724837D01*
X175554800Y-92481563D01*
X175507340Y-92242964D01*
X175414243Y-92018208D01*
X175279087Y-91815933D01*
X175107067Y-91643913D01*
X174904792Y-91508757D01*
X174680036Y-91415660D01*
X174441437Y-91368200D01*
X174198163Y-91368200D01*
X173959564Y-91415660D01*
X173734808Y-91508757D01*
X173532533Y-91643913D01*
X173360513Y-91815933D01*
X173225357Y-92018208D01*
X173132260Y-92242964D01*
X173084800Y-92481563D01*
X167299800Y-92481563D01*
X167252340Y-92242964D01*
X167159243Y-92018208D01*
X167024087Y-91815933D01*
X166852067Y-91643913D01*
X166649792Y-91508757D01*
X166425036Y-91415660D01*
X166186437Y-91368200D01*
X165943163Y-91368200D01*
X165704564Y-91415660D01*
X165479808Y-91508757D01*
X165277533Y-91643913D01*
X165105513Y-91815933D01*
X164970357Y-92018208D01*
X164877260Y-92242964D01*
X164829800Y-92481563D01*
X159298800Y-92481563D01*
X159251340Y-92242964D01*
X159158243Y-92018208D01*
X159023087Y-91815933D01*
X158851067Y-91643913D01*
X158648792Y-91508757D01*
X158424036Y-91415660D01*
X158185437Y-91368200D01*
X157942163Y-91368200D01*
X157703564Y-91415660D01*
X157478808Y-91508757D01*
X157276533Y-91643913D01*
X157104513Y-91815933D01*
X156969357Y-92018208D01*
X156876260Y-92242964D01*
X156828800Y-92481563D01*
X146471800Y-92481563D01*
X146424340Y-92242964D01*
X146331243Y-92018208D01*
X146196087Y-91815933D01*
X146024067Y-91643913D01*
X145821792Y-91508757D01*
X145597036Y-91415660D01*
X145358437Y-91368200D01*
X145115163Y-91368200D01*
X144876564Y-91415660D01*
X144651808Y-91508757D01*
X144449533Y-91643913D01*
X144277513Y-91815933D01*
X144142357Y-92018208D01*
X144049260Y-92242964D01*
X144001800Y-92481563D01*
X138470800Y-92481563D01*
X138423340Y-92242964D01*
X138330243Y-92018208D01*
X138195087Y-91815933D01*
X138023067Y-91643913D01*
X137820792Y-91508757D01*
X137596036Y-91415660D01*
X137357437Y-91368200D01*
X137114163Y-91368200D01*
X136875564Y-91415660D01*
X136650808Y-91508757D01*
X136448533Y-91643913D01*
X136276513Y-91815933D01*
X136141357Y-92018208D01*
X136048260Y-92242964D01*
X136000800Y-92481563D01*
X130342800Y-92481563D01*
X130295340Y-92242964D01*
X130202243Y-92018208D01*
X130067087Y-91815933D01*
X129895067Y-91643913D01*
X129692792Y-91508757D01*
X129468036Y-91415660D01*
X129229437Y-91368200D01*
X128986163Y-91368200D01*
X128747564Y-91415660D01*
X128522808Y-91508757D01*
X128320533Y-91643913D01*
X128148513Y-91815933D01*
X128013357Y-92018208D01*
X127920260Y-92242964D01*
X127872800Y-92481563D01*
X121621220Y-92481563D01*
X121462705Y-92323048D01*
X121211295Y-92155061D01*
X120931943Y-92039349D01*
X120635384Y-91980360D01*
X120333016Y-91980360D01*
X120036457Y-92039349D01*
X119757105Y-92155061D01*
X119505695Y-92323048D01*
X119439256Y-92389487D01*
X119433702Y-92371180D01*
X119374737Y-92260866D01*
X119295385Y-92164175D01*
X119198694Y-92084823D01*
X119088380Y-92025858D01*
X118968682Y-91989548D01*
X118844200Y-91977288D01*
X118229950Y-91980360D01*
X118071200Y-92139110D01*
X117817200Y-92139110D01*
X117658450Y-91980360D01*
X117044200Y-91977288D01*
X116919718Y-91989548D01*
X116800020Y-92025858D01*
X116689706Y-92084823D01*
X116593015Y-92164175D01*
X116513663Y-92260866D01*
X116454698Y-92371180D01*
X116418388Y-92490878D01*
X116406128Y-92615360D01*
X93046542Y-92615360D01*
X92843637Y-92575000D01*
X92600363Y-92575000D01*
X92361764Y-92622460D01*
X92137008Y-92715557D01*
X91934733Y-92850713D01*
X91762713Y-93022733D01*
X91627557Y-93225008D01*
X91534460Y-93449764D01*
X91487000Y-93688363D01*
X89942510Y-93688363D01*
X89942510Y-88388000D01*
X104568928Y-88388000D01*
X104568928Y-90088000D01*
X104581188Y-90212482D01*
X104617498Y-90332180D01*
X104676463Y-90442494D01*
X104755815Y-90539185D01*
X104852506Y-90618537D01*
X104962820Y-90677502D01*
X105082518Y-90713812D01*
X105207000Y-90726072D01*
X106907000Y-90726072D01*
X107031482Y-90713812D01*
X107151180Y-90677502D01*
X107261494Y-90618537D01*
X107358185Y-90539185D01*
X107437537Y-90442494D01*
X107496502Y-90332180D01*
X107518513Y-90259620D01*
X107650368Y-90391475D01*
X107893589Y-90553990D01*
X108163842Y-90665932D01*
X108450740Y-90723000D01*
X108743260Y-90723000D01*
X109030158Y-90665932D01*
X109300411Y-90553990D01*
X109543632Y-90391475D01*
X109750475Y-90184632D01*
X109912990Y-89941411D01*
X110024932Y-89671158D01*
X110082000Y-89384260D01*
X110082000Y-89091740D01*
X110024932Y-88804842D01*
X109912990Y-88534589D01*
X109750475Y-88291368D01*
X109543632Y-88084525D01*
X109300411Y-87922010D01*
X109030158Y-87810068D01*
X108743260Y-87753000D01*
X108450740Y-87753000D01*
X108163842Y-87810068D01*
X107893589Y-87922010D01*
X107650368Y-88084525D01*
X107518513Y-88216380D01*
X107496502Y-88143820D01*
X107437537Y-88033506D01*
X107358185Y-87936815D01*
X107261494Y-87857463D01*
X107151180Y-87798498D01*
X107031482Y-87762188D01*
X106907000Y-87749928D01*
X105207000Y-87749928D01*
X105082518Y-87762188D01*
X104962820Y-87798498D01*
X104852506Y-87857463D01*
X104755815Y-87936815D01*
X104676463Y-88033506D01*
X104617498Y-88143820D01*
X104581188Y-88263518D01*
X104568928Y-88388000D01*
X89942510Y-88388000D01*
X89942510Y-86790280D01*
X116398508Y-86790280D01*
X116410768Y-86914762D01*
X116447078Y-87034460D01*
X116506043Y-87144774D01*
X116585395Y-87241465D01*
X116682086Y-87320817D01*
X116792400Y-87379782D01*
X116912098Y-87416092D01*
X117036580Y-87428352D01*
X117650830Y-87425280D01*
X117809580Y-87266530D01*
X117809580Y-86017280D01*
X116560330Y-86017280D01*
X116401580Y-86176030D01*
X116398508Y-86790280D01*
X89942510Y-86790280D01*
X89942510Y-84990280D01*
X116398508Y-84990280D01*
X116401580Y-85604530D01*
X116560330Y-85763280D01*
X117809580Y-85763280D01*
X117809580Y-84514030D01*
X118063580Y-84514030D01*
X118063580Y-85763280D01*
X118083580Y-85763280D01*
X118083580Y-86017280D01*
X118063580Y-86017280D01*
X118063580Y-87266530D01*
X118222330Y-87425280D01*
X118836580Y-87428352D01*
X118961062Y-87416092D01*
X119080760Y-87379782D01*
X119191074Y-87320817D01*
X119287765Y-87241465D01*
X119367117Y-87144774D01*
X119426082Y-87034460D01*
X119431636Y-87016153D01*
X119498075Y-87082592D01*
X119749485Y-87250579D01*
X120028837Y-87366291D01*
X120325396Y-87425280D01*
X120627764Y-87425280D01*
X120924323Y-87366291D01*
X121203675Y-87250579D01*
X121455085Y-87082592D01*
X121668892Y-86868785D01*
X121694564Y-86830363D01*
X138731000Y-86830363D01*
X138731000Y-87073637D01*
X138778460Y-87312236D01*
X138871557Y-87536992D01*
X139006713Y-87739267D01*
X139178733Y-87911287D01*
X139381008Y-88046443D01*
X139605764Y-88139540D01*
X139844363Y-88187000D01*
X140087637Y-88187000D01*
X140326236Y-88139540D01*
X140550992Y-88046443D01*
X140753267Y-87911287D01*
X140925287Y-87739267D01*
X141060443Y-87536992D01*
X141153540Y-87312236D01*
X141201000Y-87073637D01*
X141201000Y-86830363D01*
X141398000Y-86830363D01*
X141398000Y-87073637D01*
X141445460Y-87312236D01*
X141538557Y-87536992D01*
X141673713Y-87739267D01*
X141845733Y-87911287D01*
X142048008Y-88046443D01*
X142272764Y-88139540D01*
X142511363Y-88187000D01*
X142754637Y-88187000D01*
X142993236Y-88139540D01*
X143217992Y-88046443D01*
X143420267Y-87911287D01*
X143592287Y-87739267D01*
X143727443Y-87536992D01*
X143820540Y-87312236D01*
X143868000Y-87073637D01*
X143868000Y-86830363D01*
X143820540Y-86591764D01*
X143727443Y-86367008D01*
X143592287Y-86164733D01*
X143420267Y-85992713D01*
X143217992Y-85857557D01*
X142993236Y-85764460D01*
X142754637Y-85717000D01*
X142511363Y-85717000D01*
X142272764Y-85764460D01*
X142048008Y-85857557D01*
X141845733Y-85992713D01*
X141673713Y-86164733D01*
X141538557Y-86367008D01*
X141445460Y-86591764D01*
X141398000Y-86830363D01*
X141201000Y-86830363D01*
X141153540Y-86591764D01*
X141060443Y-86367008D01*
X140925287Y-86164733D01*
X140753267Y-85992713D01*
X140550992Y-85857557D01*
X140326236Y-85764460D01*
X140087637Y-85717000D01*
X139844363Y-85717000D01*
X139605764Y-85764460D01*
X139381008Y-85857557D01*
X139178733Y-85992713D01*
X139006713Y-86164733D01*
X138871557Y-86367008D01*
X138778460Y-86591764D01*
X138731000Y-86830363D01*
X121694564Y-86830363D01*
X121836879Y-86617375D01*
X121952591Y-86338023D01*
X122011580Y-86041464D01*
X122011580Y-85739096D01*
X121952591Y-85442537D01*
X121836879Y-85163185D01*
X121668892Y-84911775D01*
X121455085Y-84697968D01*
X121203675Y-84529981D01*
X120924323Y-84414269D01*
X120627764Y-84355280D01*
X120325396Y-84355280D01*
X120028837Y-84414269D01*
X119749485Y-84529981D01*
X119498075Y-84697968D01*
X119431636Y-84764407D01*
X119426082Y-84746100D01*
X119367117Y-84635786D01*
X119287765Y-84539095D01*
X119191074Y-84459743D01*
X119080760Y-84400778D01*
X118961062Y-84364468D01*
X118836580Y-84352208D01*
X118222330Y-84355280D01*
X118063580Y-84514030D01*
X117809580Y-84514030D01*
X117650830Y-84355280D01*
X117036580Y-84352208D01*
X116912098Y-84364468D01*
X116792400Y-84400778D01*
X116682086Y-84459743D01*
X116585395Y-84539095D01*
X116506043Y-84635786D01*
X116447078Y-84746100D01*
X116410768Y-84865798D01*
X116398508Y-84990280D01*
X89942510Y-84990280D01*
X89942510Y-80690000D01*
X142287928Y-80690000D01*
X142300188Y-80814482D01*
X142336498Y-80934180D01*
X142395463Y-81044494D01*
X142474815Y-81141185D01*
X142571506Y-81220537D01*
X142681820Y-81279502D01*
X142801518Y-81315812D01*
X142926000Y-81328072D01*
X143490250Y-81325000D01*
X143649000Y-81166250D01*
X143649000Y-79967000D01*
X143903000Y-79967000D01*
X143903000Y-81166250D01*
X144061750Y-81325000D01*
X144626000Y-81328072D01*
X144750482Y-81315812D01*
X144870180Y-81279502D01*
X144980494Y-81220537D01*
X145077185Y-81141185D01*
X145156537Y-81044494D01*
X145215502Y-80934180D01*
X145251812Y-80814482D01*
X145264072Y-80690000D01*
X145261000Y-80125750D01*
X145102250Y-79967000D01*
X143903000Y-79967000D01*
X143649000Y-79967000D01*
X142449750Y-79967000D01*
X142291000Y-80125750D01*
X142287928Y-80690000D01*
X89942510Y-80690000D01*
X89942510Y-79185520D01*
X116401048Y-79185520D01*
X116413308Y-79310002D01*
X116449618Y-79429700D01*
X116508583Y-79540014D01*
X116587935Y-79636705D01*
X116684626Y-79716057D01*
X116794940Y-79775022D01*
X116914638Y-79811332D01*
X117039120Y-79823592D01*
X117653370Y-79820520D01*
X117812120Y-79661770D01*
X117812120Y-78412520D01*
X116562870Y-78412520D01*
X116404120Y-78571270D01*
X116401048Y-79185520D01*
X89942510Y-79185520D01*
X89942510Y-75453863D01*
X104006500Y-75453863D01*
X104006500Y-75697137D01*
X104053960Y-75935736D01*
X104147057Y-76160492D01*
X104282213Y-76362767D01*
X104454233Y-76534787D01*
X104656508Y-76669943D01*
X104881264Y-76763040D01*
X105119863Y-76810500D01*
X105363137Y-76810500D01*
X105601736Y-76763040D01*
X105669549Y-76734951D01*
X105641460Y-76802764D01*
X105594000Y-77041363D01*
X105594000Y-77284637D01*
X105641460Y-77523236D01*
X105734557Y-77747992D01*
X105869713Y-77950267D01*
X106041733Y-78122287D01*
X106244008Y-78257443D01*
X106468764Y-78350540D01*
X106707363Y-78398000D01*
X106950637Y-78398000D01*
X107189236Y-78350540D01*
X107413992Y-78257443D01*
X107616267Y-78122287D01*
X107788287Y-77950267D01*
X107923443Y-77747992D01*
X108016540Y-77523236D01*
X108043933Y-77385520D01*
X116401048Y-77385520D01*
X116404120Y-77999770D01*
X116562870Y-78158520D01*
X117812120Y-78158520D01*
X117812120Y-76909270D01*
X118066120Y-76909270D01*
X118066120Y-78158520D01*
X118086120Y-78158520D01*
X118086120Y-78412520D01*
X118066120Y-78412520D01*
X118066120Y-79661770D01*
X118224870Y-79820520D01*
X118839120Y-79823592D01*
X118963602Y-79811332D01*
X119083300Y-79775022D01*
X119193614Y-79716057D01*
X119290305Y-79636705D01*
X119369657Y-79540014D01*
X119428622Y-79429700D01*
X119434176Y-79411393D01*
X119500615Y-79477832D01*
X119752025Y-79645819D01*
X120031377Y-79761531D01*
X120327936Y-79820520D01*
X120630304Y-79820520D01*
X120926863Y-79761531D01*
X121206215Y-79645819D01*
X121457625Y-79477832D01*
X121671432Y-79264025D01*
X121839419Y-79012615D01*
X121848786Y-78990000D01*
X142287928Y-78990000D01*
X142291000Y-79554250D01*
X142449750Y-79713000D01*
X143649000Y-79713000D01*
X143649000Y-79693000D01*
X143903000Y-79693000D01*
X143903000Y-79713000D01*
X145102250Y-79713000D01*
X145261000Y-79554250D01*
X145264072Y-78990000D01*
X145251812Y-78865518D01*
X145215502Y-78745820D01*
X145156537Y-78635506D01*
X145077185Y-78538815D01*
X144980494Y-78459463D01*
X144870180Y-78400498D01*
X144797620Y-78378487D01*
X144929475Y-78246632D01*
X145091990Y-78003411D01*
X145203932Y-77733158D01*
X145261000Y-77446260D01*
X145261000Y-77198061D01*
X146424000Y-77198061D01*
X146424000Y-77401939D01*
X146463774Y-77601898D01*
X146541795Y-77790256D01*
X146655063Y-77959774D01*
X146799226Y-78103937D01*
X146968744Y-78217205D01*
X147157102Y-78295226D01*
X147357061Y-78335000D01*
X147560939Y-78335000D01*
X147760898Y-78295226D01*
X147949256Y-78217205D01*
X148118774Y-78103937D01*
X148262937Y-77959774D01*
X148376205Y-77790256D01*
X148400614Y-77731326D01*
X160024037Y-77731326D01*
X160024037Y-77974600D01*
X160071497Y-78213199D01*
X160164594Y-78437955D01*
X160299750Y-78640230D01*
X160471770Y-78812250D01*
X160674045Y-78947406D01*
X160898801Y-79040503D01*
X161137400Y-79087963D01*
X161380674Y-79087963D01*
X161619273Y-79040503D01*
X161844029Y-78947406D01*
X162046304Y-78812250D01*
X162218324Y-78640230D01*
X162353480Y-78437955D01*
X162446577Y-78213199D01*
X162494037Y-77974600D01*
X162494037Y-77731326D01*
X162446577Y-77492727D01*
X162353480Y-77267971D01*
X162218324Y-77065696D01*
X162046304Y-76893676D01*
X161844029Y-76758520D01*
X161619273Y-76665423D01*
X161380674Y-76617963D01*
X161137400Y-76617963D01*
X160898801Y-76665423D01*
X160674045Y-76758520D01*
X160471770Y-76893676D01*
X160299750Y-77065696D01*
X160164594Y-77267971D01*
X160071497Y-77492727D01*
X160024037Y-77731326D01*
X148400614Y-77731326D01*
X148454226Y-77601898D01*
X148494000Y-77401939D01*
X148494000Y-77198061D01*
X148454226Y-76998102D01*
X148376205Y-76809744D01*
X148262937Y-76640226D01*
X148118774Y-76496063D01*
X147949256Y-76382795D01*
X147760898Y-76304774D01*
X147560939Y-76265000D01*
X147357061Y-76265000D01*
X147157102Y-76304774D01*
X146968744Y-76382795D01*
X146799226Y-76496063D01*
X146655063Y-76640226D01*
X146541795Y-76809744D01*
X146463774Y-76998102D01*
X146424000Y-77198061D01*
X145261000Y-77198061D01*
X145261000Y-77153740D01*
X145203932Y-76866842D01*
X145091990Y-76596589D01*
X144929475Y-76353368D01*
X144722632Y-76146525D01*
X144548240Y-76030000D01*
X144722632Y-75913475D01*
X144929475Y-75706632D01*
X145091990Y-75463411D01*
X145203932Y-75193158D01*
X145261000Y-74906260D01*
X145261000Y-74613740D01*
X145203932Y-74326842D01*
X145091990Y-74056589D01*
X144929475Y-73813368D01*
X144722632Y-73606525D01*
X144556267Y-73495363D01*
X151431000Y-73495363D01*
X151431000Y-73738637D01*
X151478460Y-73977236D01*
X151571557Y-74201992D01*
X151706713Y-74404267D01*
X151878733Y-74576287D01*
X152081008Y-74711443D01*
X152305764Y-74804540D01*
X152544363Y-74852000D01*
X152787637Y-74852000D01*
X153026236Y-74804540D01*
X153250992Y-74711443D01*
X153453267Y-74576287D01*
X153625287Y-74404267D01*
X153760443Y-74201992D01*
X153853540Y-73977236D01*
X153901000Y-73738637D01*
X153901000Y-73495363D01*
X153853540Y-73256764D01*
X153760443Y-73032008D01*
X153625287Y-72829733D01*
X153453267Y-72657713D01*
X153250992Y-72522557D01*
X153026236Y-72429460D01*
X152787637Y-72382000D01*
X152544363Y-72382000D01*
X152305764Y-72429460D01*
X152081008Y-72522557D01*
X151878733Y-72657713D01*
X151706713Y-72829733D01*
X151571557Y-73032008D01*
X151478460Y-73256764D01*
X151431000Y-73495363D01*
X144556267Y-73495363D01*
X144548240Y-73490000D01*
X144722632Y-73373475D01*
X144929475Y-73166632D01*
X145091990Y-72923411D01*
X145203932Y-72653158D01*
X145261000Y-72366260D01*
X145261000Y-72073740D01*
X145254560Y-72041363D01*
X155171000Y-72041363D01*
X155171000Y-72284637D01*
X155218460Y-72523236D01*
X155311557Y-72747992D01*
X155446713Y-72950267D01*
X155618733Y-73122287D01*
X155821008Y-73257443D01*
X156045764Y-73350540D01*
X156062817Y-73353932D01*
X156050460Y-73383764D01*
X156003000Y-73622363D01*
X156003000Y-73865637D01*
X156050460Y-74104236D01*
X156143557Y-74328992D01*
X156278713Y-74531267D01*
X156450733Y-74703287D01*
X156653008Y-74838443D01*
X156877764Y-74931540D01*
X157116363Y-74979000D01*
X157359637Y-74979000D01*
X157598236Y-74931540D01*
X157822992Y-74838443D01*
X158025267Y-74703287D01*
X158197287Y-74531267D01*
X158332443Y-74328992D01*
X158425540Y-74104236D01*
X158473000Y-73865637D01*
X158473000Y-73622363D01*
X158425540Y-73383764D01*
X158359765Y-73224967D01*
X163803000Y-73224967D01*
X163803000Y-73547033D01*
X163865832Y-73862912D01*
X163989082Y-74160463D01*
X164168013Y-74428252D01*
X164395748Y-74655987D01*
X164663537Y-74834918D01*
X164961088Y-74958168D01*
X165276967Y-75021000D01*
X165599033Y-75021000D01*
X165914912Y-74958168D01*
X166212463Y-74834918D01*
X166480252Y-74655987D01*
X166614826Y-74521413D01*
X168982192Y-74521413D01*
X169077956Y-74785814D01*
X169367571Y-74926704D01*
X169679108Y-75008384D01*
X170000595Y-75027718D01*
X170319675Y-74983961D01*
X170624088Y-74878795D01*
X170798044Y-74785814D01*
X170893808Y-74521413D01*
X169938000Y-73565605D01*
X168982192Y-74521413D01*
X166614826Y-74521413D01*
X166707987Y-74428252D01*
X166886918Y-74160463D01*
X167010168Y-73862912D01*
X167073000Y-73547033D01*
X167073000Y-73448595D01*
X168296282Y-73448595D01*
X168340039Y-73767675D01*
X168445205Y-74072088D01*
X168538186Y-74246044D01*
X168802587Y-74341808D01*
X169758395Y-73386000D01*
X170117605Y-73386000D01*
X171073413Y-74341808D01*
X171337814Y-74246044D01*
X171478704Y-73956429D01*
X171560384Y-73644892D01*
X171579718Y-73323405D01*
X171535961Y-73004325D01*
X171430795Y-72699912D01*
X171337814Y-72525956D01*
X171073413Y-72430192D01*
X170117605Y-73386000D01*
X169758395Y-73386000D01*
X168802587Y-72430192D01*
X168538186Y-72525956D01*
X168397296Y-72815571D01*
X168315616Y-73127108D01*
X168296282Y-73448595D01*
X167073000Y-73448595D01*
X167073000Y-73224967D01*
X167010168Y-72909088D01*
X166886918Y-72611537D01*
X166707987Y-72343748D01*
X166614826Y-72250587D01*
X168982192Y-72250587D01*
X169938000Y-73206395D01*
X170893808Y-72250587D01*
X170798044Y-71986186D01*
X170508429Y-71845296D01*
X170196892Y-71763616D01*
X169875405Y-71744282D01*
X169556325Y-71788039D01*
X169251912Y-71893205D01*
X169077956Y-71986186D01*
X168982192Y-72250587D01*
X166614826Y-72250587D01*
X166480252Y-72116013D01*
X166212463Y-71937082D01*
X165914912Y-71813832D01*
X165599033Y-71751000D01*
X165276967Y-71751000D01*
X164961088Y-71813832D01*
X164663537Y-71937082D01*
X164395748Y-72116013D01*
X164168013Y-72343748D01*
X163989082Y-72611537D01*
X163865832Y-72909088D01*
X163803000Y-73224967D01*
X158359765Y-73224967D01*
X158332443Y-73159008D01*
X158197287Y-72956733D01*
X158025267Y-72784713D01*
X157822992Y-72649557D01*
X157598236Y-72556460D01*
X157581183Y-72553068D01*
X157593540Y-72523236D01*
X157641000Y-72284637D01*
X157641000Y-72041363D01*
X157593540Y-71802764D01*
X157500443Y-71578008D01*
X157365287Y-71375733D01*
X157193267Y-71203713D01*
X156990992Y-71068557D01*
X156766236Y-70975460D01*
X156527637Y-70928000D01*
X156284363Y-70928000D01*
X156045764Y-70975460D01*
X155821008Y-71068557D01*
X155618733Y-71203713D01*
X155446713Y-71375733D01*
X155311557Y-71578008D01*
X155218460Y-71802764D01*
X155171000Y-72041363D01*
X145254560Y-72041363D01*
X145203932Y-71786842D01*
X145091990Y-71516589D01*
X144929475Y-71273368D01*
X144722632Y-71066525D01*
X144479411Y-70904010D01*
X144209158Y-70792068D01*
X143922260Y-70735000D01*
X143629740Y-70735000D01*
X143342842Y-70792068D01*
X143072589Y-70904010D01*
X142829368Y-71066525D01*
X142622525Y-71273368D01*
X142460010Y-71516589D01*
X142348068Y-71786842D01*
X142291000Y-72073740D01*
X142291000Y-72366260D01*
X142348068Y-72653158D01*
X142460010Y-72923411D01*
X142622525Y-73166632D01*
X142829368Y-73373475D01*
X143003760Y-73490000D01*
X142829368Y-73606525D01*
X142622525Y-73813368D01*
X142460010Y-74056589D01*
X142348068Y-74326842D01*
X142291000Y-74613740D01*
X142291000Y-74906260D01*
X142348068Y-75193158D01*
X142460010Y-75463411D01*
X142622525Y-75706632D01*
X142829368Y-75913475D01*
X143003760Y-76030000D01*
X142829368Y-76146525D01*
X142622525Y-76353368D01*
X142460010Y-76596589D01*
X142348068Y-76866842D01*
X142291000Y-77153740D01*
X142291000Y-77446260D01*
X142348068Y-77733158D01*
X142460010Y-78003411D01*
X142622525Y-78246632D01*
X142754380Y-78378487D01*
X142681820Y-78400498D01*
X142571506Y-78459463D01*
X142474815Y-78538815D01*
X142395463Y-78635506D01*
X142336498Y-78745820D01*
X142300188Y-78865518D01*
X142287928Y-78990000D01*
X121848786Y-78990000D01*
X121955131Y-78733263D01*
X122014120Y-78436704D01*
X122014120Y-78134336D01*
X121955131Y-77837777D01*
X121839419Y-77558425D01*
X121671432Y-77307015D01*
X121457625Y-77093208D01*
X121206215Y-76925221D01*
X120926863Y-76809509D01*
X120630304Y-76750520D01*
X120327936Y-76750520D01*
X120031377Y-76809509D01*
X119752025Y-76925221D01*
X119500615Y-77093208D01*
X119434176Y-77159647D01*
X119428622Y-77141340D01*
X119369657Y-77031026D01*
X119290305Y-76934335D01*
X119193614Y-76854983D01*
X119083300Y-76796018D01*
X118963602Y-76759708D01*
X118839120Y-76747448D01*
X118224870Y-76750520D01*
X118066120Y-76909270D01*
X117812120Y-76909270D01*
X117653370Y-76750520D01*
X117039120Y-76747448D01*
X116914638Y-76759708D01*
X116794940Y-76796018D01*
X116684626Y-76854983D01*
X116587935Y-76934335D01*
X116508583Y-77031026D01*
X116449618Y-77141340D01*
X116413308Y-77261038D01*
X116401048Y-77385520D01*
X108043933Y-77385520D01*
X108064000Y-77284637D01*
X108064000Y-77041363D01*
X108016540Y-76802764D01*
X107923443Y-76578008D01*
X107788287Y-76375733D01*
X107616267Y-76203713D01*
X107413992Y-76068557D01*
X107189236Y-75975460D01*
X106950637Y-75928000D01*
X106707363Y-75928000D01*
X106468764Y-75975460D01*
X106400951Y-76003549D01*
X106429040Y-75935736D01*
X106476500Y-75697137D01*
X106476500Y-75453863D01*
X106429040Y-75215264D01*
X106342511Y-75006363D01*
X131886000Y-75006363D01*
X131886000Y-75249637D01*
X131933460Y-75488236D01*
X132026557Y-75712992D01*
X132161713Y-75915267D01*
X132333733Y-76087287D01*
X132536008Y-76222443D01*
X132760764Y-76315540D01*
X132999363Y-76363000D01*
X133242637Y-76363000D01*
X133481236Y-76315540D01*
X133705992Y-76222443D01*
X133908267Y-76087287D01*
X134080287Y-75915267D01*
X134215443Y-75712992D01*
X134308540Y-75488236D01*
X134356000Y-75249637D01*
X134356000Y-75006363D01*
X134308540Y-74767764D01*
X134215443Y-74543008D01*
X134080287Y-74340733D01*
X133908267Y-74168713D01*
X133705992Y-74033557D01*
X133481236Y-73940460D01*
X133242637Y-73893000D01*
X132999363Y-73893000D01*
X132760764Y-73940460D01*
X132536008Y-74033557D01*
X132333733Y-74168713D01*
X132161713Y-74340733D01*
X132026557Y-74543008D01*
X131933460Y-74767764D01*
X131886000Y-75006363D01*
X106342511Y-75006363D01*
X106335943Y-74990508D01*
X106200787Y-74788233D01*
X106028767Y-74616213D01*
X105826492Y-74481057D01*
X105601736Y-74387960D01*
X105363137Y-74340500D01*
X105119863Y-74340500D01*
X104881264Y-74387960D01*
X104656508Y-74481057D01*
X104454233Y-74616213D01*
X104282213Y-74788233D01*
X104147057Y-74990508D01*
X104053960Y-75215264D01*
X104006500Y-75453863D01*
X89942510Y-75453863D01*
X89942510Y-73344363D01*
X100655000Y-73344363D01*
X100655000Y-73587637D01*
X100702460Y-73826236D01*
X100795557Y-74050992D01*
X100930713Y-74253267D01*
X101102733Y-74425287D01*
X101305008Y-74560443D01*
X101529764Y-74653540D01*
X101768363Y-74701000D01*
X102011637Y-74701000D01*
X102250236Y-74653540D01*
X102474992Y-74560443D01*
X102677267Y-74425287D01*
X102849287Y-74253267D01*
X102984443Y-74050992D01*
X103077540Y-73826236D01*
X103125000Y-73587637D01*
X103125000Y-73368363D01*
X123618000Y-73368363D01*
X123618000Y-73611637D01*
X123665460Y-73850236D01*
X123758557Y-74074992D01*
X123893713Y-74277267D01*
X124065733Y-74449287D01*
X124268008Y-74584443D01*
X124492764Y-74677540D01*
X124731363Y-74725000D01*
X124974637Y-74725000D01*
X125213236Y-74677540D01*
X125437992Y-74584443D01*
X125640267Y-74449287D01*
X125812287Y-74277267D01*
X125947443Y-74074992D01*
X126040540Y-73850236D01*
X126088000Y-73611637D01*
X126088000Y-73495363D01*
X126158000Y-73495363D01*
X126158000Y-73738637D01*
X126205460Y-73977236D01*
X126298557Y-74201992D01*
X126433713Y-74404267D01*
X126605733Y-74576287D01*
X126808008Y-74711443D01*
X127032764Y-74804540D01*
X127271363Y-74852000D01*
X127514637Y-74852000D01*
X127753236Y-74804540D01*
X127977992Y-74711443D01*
X128180267Y-74576287D01*
X128352287Y-74404267D01*
X128487443Y-74201992D01*
X128580540Y-73977236D01*
X128628000Y-73738637D01*
X128628000Y-73495363D01*
X128580540Y-73256764D01*
X128487443Y-73032008D01*
X128352287Y-72829733D01*
X128180267Y-72657713D01*
X127977992Y-72522557D01*
X127753236Y-72429460D01*
X127514637Y-72382000D01*
X127271363Y-72382000D01*
X127032764Y-72429460D01*
X126808008Y-72522557D01*
X126605733Y-72657713D01*
X126433713Y-72829733D01*
X126298557Y-73032008D01*
X126205460Y-73256764D01*
X126158000Y-73495363D01*
X126088000Y-73495363D01*
X126088000Y-73368363D01*
X126040540Y-73129764D01*
X125947443Y-72905008D01*
X125812287Y-72702733D01*
X125640267Y-72530713D01*
X125437992Y-72395557D01*
X125213236Y-72302460D01*
X124974637Y-72255000D01*
X124731363Y-72255000D01*
X124492764Y-72302460D01*
X124268008Y-72395557D01*
X124065733Y-72530713D01*
X123893713Y-72702733D01*
X123758557Y-72905008D01*
X123665460Y-73129764D01*
X123618000Y-73368363D01*
X103125000Y-73368363D01*
X103125000Y-73344363D01*
X103077540Y-73105764D01*
X102984443Y-72881008D01*
X102849287Y-72678733D01*
X102677267Y-72506713D01*
X102474992Y-72371557D01*
X102250236Y-72278460D01*
X102011637Y-72231000D01*
X101768363Y-72231000D01*
X101529764Y-72278460D01*
X101305008Y-72371557D01*
X101102733Y-72506713D01*
X100930713Y-72678733D01*
X100795557Y-72881008D01*
X100702460Y-73105764D01*
X100655000Y-73344363D01*
X89942510Y-73344363D01*
X89942510Y-70320363D01*
X100123000Y-70320363D01*
X100123000Y-70563637D01*
X100170460Y-70802236D01*
X100263557Y-71026992D01*
X100398713Y-71229267D01*
X100570733Y-71401287D01*
X100773008Y-71536443D01*
X100997764Y-71629540D01*
X101236363Y-71677000D01*
X101479637Y-71677000D01*
X101718236Y-71629540D01*
X101942992Y-71536443D01*
X101993000Y-71503029D01*
X102043008Y-71536443D01*
X102267764Y-71629540D01*
X102506363Y-71677000D01*
X102749637Y-71677000D01*
X102988236Y-71629540D01*
X103173454Y-71552820D01*
X116403588Y-71552820D01*
X116415848Y-71677302D01*
X116452158Y-71797000D01*
X116511123Y-71907314D01*
X116590475Y-72004005D01*
X116687166Y-72083357D01*
X116797480Y-72142322D01*
X116917178Y-72178632D01*
X117041660Y-72190892D01*
X117655910Y-72187820D01*
X117814660Y-72029070D01*
X117814660Y-70779820D01*
X116565410Y-70779820D01*
X116406660Y-70938570D01*
X116403588Y-71552820D01*
X103173454Y-71552820D01*
X103212992Y-71536443D01*
X103415267Y-71401287D01*
X103587287Y-71229267D01*
X103722443Y-71026992D01*
X103815540Y-70802236D01*
X103863000Y-70563637D01*
X103863000Y-70320363D01*
X103815540Y-70081764D01*
X103722443Y-69857008D01*
X103652827Y-69752820D01*
X116403588Y-69752820D01*
X116406660Y-70367070D01*
X116565410Y-70525820D01*
X117814660Y-70525820D01*
X117814660Y-69276570D01*
X118068660Y-69276570D01*
X118068660Y-70525820D01*
X118088660Y-70525820D01*
X118088660Y-70779820D01*
X118068660Y-70779820D01*
X118068660Y-72029070D01*
X118227410Y-72187820D01*
X118841660Y-72190892D01*
X118966142Y-72178632D01*
X119085840Y-72142322D01*
X119196154Y-72083357D01*
X119292845Y-72004005D01*
X119372197Y-71907314D01*
X119431162Y-71797000D01*
X119436716Y-71778693D01*
X119503155Y-71845132D01*
X119754565Y-72013119D01*
X120033917Y-72128831D01*
X120330476Y-72187820D01*
X120632844Y-72187820D01*
X120929403Y-72128831D01*
X121208755Y-72013119D01*
X121460165Y-71845132D01*
X121673972Y-71631325D01*
X121841959Y-71379915D01*
X121957671Y-71100563D01*
X122016660Y-70804004D01*
X122016660Y-70501636D01*
X121978415Y-70309363D01*
X148267000Y-70309363D01*
X148267000Y-70552637D01*
X148314460Y-70791236D01*
X148407557Y-71015992D01*
X148542713Y-71218267D01*
X148714733Y-71390287D01*
X148917008Y-71525443D01*
X149141764Y-71618540D01*
X149380363Y-71666000D01*
X149623637Y-71666000D01*
X149862236Y-71618540D01*
X150086992Y-71525443D01*
X150289267Y-71390287D01*
X150461287Y-71218267D01*
X150596443Y-71015992D01*
X150689540Y-70791236D01*
X150737000Y-70552637D01*
X150737000Y-70309363D01*
X150689540Y-70070764D01*
X150596443Y-69846008D01*
X150461287Y-69643733D01*
X150289267Y-69471713D01*
X150086992Y-69336557D01*
X149862236Y-69243460D01*
X149623637Y-69196000D01*
X149380363Y-69196000D01*
X149141764Y-69243460D01*
X148917008Y-69336557D01*
X148714733Y-69471713D01*
X148542713Y-69643733D01*
X148407557Y-69846008D01*
X148314460Y-70070764D01*
X148267000Y-70309363D01*
X121978415Y-70309363D01*
X121957671Y-70205077D01*
X121841959Y-69925725D01*
X121673972Y-69674315D01*
X121460165Y-69460508D01*
X121208755Y-69292521D01*
X120929403Y-69176809D01*
X120632844Y-69117820D01*
X120330476Y-69117820D01*
X120033917Y-69176809D01*
X119754565Y-69292521D01*
X119503155Y-69460508D01*
X119436716Y-69526947D01*
X119431162Y-69508640D01*
X119372197Y-69398326D01*
X119292845Y-69301635D01*
X119196154Y-69222283D01*
X119085840Y-69163318D01*
X118966142Y-69127008D01*
X118841660Y-69114748D01*
X118227410Y-69117820D01*
X118068660Y-69276570D01*
X117814660Y-69276570D01*
X117655910Y-69117820D01*
X117041660Y-69114748D01*
X116917178Y-69127008D01*
X116797480Y-69163318D01*
X116687166Y-69222283D01*
X116590475Y-69301635D01*
X116511123Y-69398326D01*
X116452158Y-69508640D01*
X116415848Y-69628338D01*
X116403588Y-69752820D01*
X103652827Y-69752820D01*
X103587287Y-69654733D01*
X103415267Y-69482713D01*
X103212992Y-69347557D01*
X102988236Y-69254460D01*
X102749637Y-69207000D01*
X102506363Y-69207000D01*
X102267764Y-69254460D01*
X102043008Y-69347557D01*
X101993000Y-69380971D01*
X101942992Y-69347557D01*
X101718236Y-69254460D01*
X101479637Y-69207000D01*
X101236363Y-69207000D01*
X100997764Y-69254460D01*
X100773008Y-69347557D01*
X100570733Y-69482713D01*
X100398713Y-69654733D01*
X100263557Y-69857008D01*
X100170460Y-70081764D01*
X100123000Y-70320363D01*
X89942510Y-70320363D01*
X89942510Y-68129363D01*
X151971000Y-68129363D01*
X151971000Y-68372637D01*
X152018460Y-68611236D01*
X152111557Y-68835992D01*
X152246713Y-69038267D01*
X152418733Y-69210287D01*
X152621008Y-69345443D01*
X152845764Y-69438540D01*
X153084363Y-69486000D01*
X153327637Y-69486000D01*
X153566236Y-69438540D01*
X153790992Y-69345443D01*
X153993267Y-69210287D01*
X154165287Y-69038267D01*
X154300443Y-68835992D01*
X154393540Y-68611236D01*
X154407239Y-68542363D01*
X154860000Y-68542363D01*
X154860000Y-68785637D01*
X154907460Y-69024236D01*
X155000557Y-69248992D01*
X155135713Y-69451267D01*
X155307733Y-69623287D01*
X155510008Y-69758443D01*
X155734764Y-69851540D01*
X155973363Y-69899000D01*
X156216637Y-69899000D01*
X156455236Y-69851540D01*
X156679992Y-69758443D01*
X156882267Y-69623287D01*
X157054287Y-69451267D01*
X157154639Y-69301079D01*
X157258764Y-69344209D01*
X157497363Y-69391669D01*
X157740637Y-69391669D01*
X157979236Y-69344209D01*
X158203992Y-69251112D01*
X158406267Y-69115956D01*
X158578287Y-68943936D01*
X158713443Y-68741661D01*
X158795994Y-68542363D01*
X159559000Y-68542363D01*
X159559000Y-68785637D01*
X159606460Y-69024236D01*
X159699557Y-69248992D01*
X159834713Y-69451267D01*
X160006733Y-69623287D01*
X160209008Y-69758443D01*
X160433764Y-69851540D01*
X160672363Y-69899000D01*
X160915637Y-69899000D01*
X161154236Y-69851540D01*
X161378992Y-69758443D01*
X161581267Y-69623287D01*
X161753287Y-69451267D01*
X161888443Y-69248992D01*
X161981540Y-69024236D01*
X162029000Y-68785637D01*
X162029000Y-68542363D01*
X161981540Y-68303764D01*
X161888443Y-68079008D01*
X161753287Y-67876733D01*
X161581267Y-67704713D01*
X161378992Y-67569557D01*
X161154236Y-67476460D01*
X160915637Y-67429000D01*
X160672363Y-67429000D01*
X160433764Y-67476460D01*
X160209008Y-67569557D01*
X160006733Y-67704713D01*
X159834713Y-67876733D01*
X159699557Y-68079008D01*
X159606460Y-68303764D01*
X159559000Y-68542363D01*
X158795994Y-68542363D01*
X158806540Y-68516905D01*
X158854000Y-68278306D01*
X158854000Y-68035032D01*
X158806540Y-67796433D01*
X158713443Y-67571677D01*
X158578287Y-67369402D01*
X158406267Y-67197382D01*
X158203992Y-67062226D01*
X157979236Y-66969129D01*
X157740637Y-66921669D01*
X157497363Y-66921669D01*
X157258764Y-66969129D01*
X157034008Y-67062226D01*
X156831733Y-67197382D01*
X156659713Y-67369402D01*
X156559361Y-67519590D01*
X156455236Y-67476460D01*
X156216637Y-67429000D01*
X155973363Y-67429000D01*
X155734764Y-67476460D01*
X155510008Y-67569557D01*
X155307733Y-67704713D01*
X155135713Y-67876733D01*
X155000557Y-68079008D01*
X154907460Y-68303764D01*
X154860000Y-68542363D01*
X154407239Y-68542363D01*
X154441000Y-68372637D01*
X154441000Y-68129363D01*
X154393540Y-67890764D01*
X154300443Y-67666008D01*
X154165287Y-67463733D01*
X153993267Y-67291713D01*
X153790992Y-67156557D01*
X153566236Y-67063460D01*
X153327637Y-67016000D01*
X153084363Y-67016000D01*
X152845764Y-67063460D01*
X152621008Y-67156557D01*
X152418733Y-67291713D01*
X152246713Y-67463733D01*
X152111557Y-67666008D01*
X152018460Y-67890764D01*
X151971000Y-68129363D01*
X89942510Y-68129363D01*
X89942510Y-65621363D01*
X142795000Y-65621363D01*
X142795000Y-65864637D01*
X142842460Y-66103236D01*
X142935557Y-66327992D01*
X143070713Y-66530267D01*
X143242733Y-66702287D01*
X143445008Y-66837443D01*
X143669764Y-66930540D01*
X143908363Y-66978000D01*
X144151637Y-66978000D01*
X144390236Y-66930540D01*
X144614992Y-66837443D01*
X144783324Y-66724967D01*
X163803000Y-66724967D01*
X163803000Y-67047033D01*
X163865832Y-67362912D01*
X163989082Y-67660463D01*
X164168013Y-67928252D01*
X164395748Y-68155987D01*
X164663537Y-68334918D01*
X164961088Y-68458168D01*
X165276967Y-68521000D01*
X165599033Y-68521000D01*
X165914912Y-68458168D01*
X166212463Y-68334918D01*
X166480252Y-68155987D01*
X166614826Y-68021413D01*
X168982192Y-68021413D01*
X169077956Y-68285814D01*
X169367571Y-68426704D01*
X169679108Y-68508384D01*
X170000595Y-68527718D01*
X170319675Y-68483961D01*
X170624088Y-68378795D01*
X170798044Y-68285814D01*
X170893808Y-68021413D01*
X169938000Y-67065605D01*
X168982192Y-68021413D01*
X166614826Y-68021413D01*
X166707987Y-67928252D01*
X166886918Y-67660463D01*
X167010168Y-67362912D01*
X167073000Y-67047033D01*
X167073000Y-66948595D01*
X168296282Y-66948595D01*
X168340039Y-67267675D01*
X168445205Y-67572088D01*
X168538186Y-67746044D01*
X168802587Y-67841808D01*
X169758395Y-66886000D01*
X170117605Y-66886000D01*
X171073413Y-67841808D01*
X171337814Y-67746044D01*
X171478704Y-67456429D01*
X171560384Y-67144892D01*
X171579718Y-66823405D01*
X171535961Y-66504325D01*
X171430795Y-66199912D01*
X171337814Y-66025956D01*
X171073413Y-65930192D01*
X170117605Y-66886000D01*
X169758395Y-66886000D01*
X168802587Y-65930192D01*
X168538186Y-66025956D01*
X168397296Y-66315571D01*
X168315616Y-66627108D01*
X168296282Y-66948595D01*
X167073000Y-66948595D01*
X167073000Y-66724967D01*
X167010168Y-66409088D01*
X166886918Y-66111537D01*
X166707987Y-65843748D01*
X166614826Y-65750587D01*
X168982192Y-65750587D01*
X169938000Y-66706395D01*
X170893808Y-65750587D01*
X170798044Y-65486186D01*
X170508429Y-65345296D01*
X170196892Y-65263616D01*
X169875405Y-65244282D01*
X169556325Y-65288039D01*
X169251912Y-65393205D01*
X169077956Y-65486186D01*
X168982192Y-65750587D01*
X166614826Y-65750587D01*
X166480252Y-65616013D01*
X166212463Y-65437082D01*
X165914912Y-65313832D01*
X165599033Y-65251000D01*
X165276967Y-65251000D01*
X164961088Y-65313832D01*
X164663537Y-65437082D01*
X164395748Y-65616013D01*
X164168013Y-65843748D01*
X163989082Y-66111537D01*
X163865832Y-66409088D01*
X163803000Y-66724967D01*
X144783324Y-66724967D01*
X144817267Y-66702287D01*
X144989287Y-66530267D01*
X145124443Y-66327992D01*
X145217540Y-66103236D01*
X145265000Y-65864637D01*
X145265000Y-65621363D01*
X145217540Y-65382764D01*
X145124443Y-65158008D01*
X144989287Y-64955733D01*
X144817267Y-64783713D01*
X144614992Y-64648557D01*
X144390236Y-64555460D01*
X144151637Y-64508000D01*
X143908363Y-64508000D01*
X143669764Y-64555460D01*
X143445008Y-64648557D01*
X143242733Y-64783713D01*
X143070713Y-64955733D01*
X142935557Y-65158008D01*
X142842460Y-65382764D01*
X142795000Y-65621363D01*
X89942510Y-65621363D01*
X89942510Y-63124881D01*
X91688724Y-63124881D01*
X92048912Y-63614548D01*
X92712882Y-63974849D01*
X93434385Y-64198694D01*
X94185695Y-64277480D01*
X94937938Y-64208178D01*
X95662208Y-63993452D01*
X96330670Y-63641555D01*
X96371088Y-63614548D01*
X96731276Y-63124881D01*
X94210000Y-60603605D01*
X91688724Y-63124881D01*
X89942510Y-63124881D01*
X89942510Y-60399695D01*
X90356520Y-60399695D01*
X90425822Y-61151938D01*
X90640548Y-61876208D01*
X90992445Y-62544670D01*
X91019452Y-62585088D01*
X91509119Y-62945276D01*
X94030395Y-60424000D01*
X94389605Y-60424000D01*
X96910881Y-62945276D01*
X97400548Y-62585088D01*
X97760849Y-61921118D01*
X97984694Y-61199615D01*
X98063480Y-60448305D01*
X98048653Y-60287363D01*
X122221000Y-60287363D01*
X122221000Y-60530637D01*
X122268460Y-60769236D01*
X122361557Y-60993992D01*
X122496713Y-61196267D01*
X122668733Y-61368287D01*
X122871008Y-61503443D01*
X123095764Y-61596540D01*
X123334363Y-61644000D01*
X123577637Y-61644000D01*
X123816236Y-61596540D01*
X124040992Y-61503443D01*
X124150363Y-61430363D01*
X127809000Y-61430363D01*
X127809000Y-61673637D01*
X127856460Y-61912236D01*
X127949557Y-62136992D01*
X128084713Y-62339267D01*
X128256733Y-62511287D01*
X128459008Y-62646443D01*
X128683764Y-62739540D01*
X128922363Y-62787000D01*
X129165637Y-62787000D01*
X129404236Y-62739540D01*
X129628992Y-62646443D01*
X129831267Y-62511287D01*
X129920814Y-62421740D01*
X137465000Y-62421740D01*
X137465000Y-62714260D01*
X137522068Y-63001158D01*
X137634010Y-63271411D01*
X137796525Y-63514632D01*
X138003368Y-63721475D01*
X138246589Y-63883990D01*
X138516842Y-63995932D01*
X138803740Y-64053000D01*
X139096260Y-64053000D01*
X139383158Y-63995932D01*
X139653411Y-63883990D01*
X139896632Y-63721475D01*
X140103475Y-63514632D01*
X140220000Y-63340240D01*
X140336525Y-63514632D01*
X140543368Y-63721475D01*
X140786589Y-63883990D01*
X141056842Y-63995932D01*
X141343740Y-64053000D01*
X141636260Y-64053000D01*
X141923158Y-63995932D01*
X142193411Y-63883990D01*
X142436632Y-63721475D01*
X142568487Y-63589620D01*
X142590498Y-63662180D01*
X142649463Y-63772494D01*
X142728815Y-63869185D01*
X142825506Y-63948537D01*
X142935820Y-64007502D01*
X143055518Y-64043812D01*
X143180000Y-64056072D01*
X143744250Y-64053000D01*
X143903000Y-63894250D01*
X143903000Y-62695000D01*
X144157000Y-62695000D01*
X144157000Y-63894250D01*
X144315750Y-64053000D01*
X144880000Y-64056072D01*
X145004482Y-64043812D01*
X145124180Y-64007502D01*
X145234494Y-63948537D01*
X145331185Y-63869185D01*
X145410537Y-63772494D01*
X145469502Y-63662180D01*
X145505812Y-63542482D01*
X145518072Y-63418000D01*
X145516858Y-63194881D01*
X170978724Y-63194881D01*
X171338912Y-63684548D01*
X172002882Y-64044849D01*
X172724385Y-64268694D01*
X173475695Y-64347480D01*
X174227938Y-64278178D01*
X174952208Y-64063452D01*
X175620670Y-63711555D01*
X175661088Y-63684548D01*
X176021276Y-63194881D01*
X173500000Y-60673605D01*
X170978724Y-63194881D01*
X145516858Y-63194881D01*
X145515000Y-62853750D01*
X145356250Y-62695000D01*
X144157000Y-62695000D01*
X143903000Y-62695000D01*
X143883000Y-62695000D01*
X143883000Y-62441000D01*
X143903000Y-62441000D01*
X143903000Y-61241750D01*
X144157000Y-61241750D01*
X144157000Y-62441000D01*
X145356250Y-62441000D01*
X145515000Y-62282250D01*
X145518072Y-61718000D01*
X145505812Y-61593518D01*
X145469502Y-61473820D01*
X145410537Y-61363506D01*
X145331185Y-61266815D01*
X145234494Y-61187463D01*
X145124180Y-61128498D01*
X145004482Y-61092188D01*
X144880000Y-61079928D01*
X144315750Y-61083000D01*
X144157000Y-61241750D01*
X143903000Y-61241750D01*
X143744250Y-61083000D01*
X143180000Y-61079928D01*
X143055518Y-61092188D01*
X142935820Y-61128498D01*
X142825506Y-61187463D01*
X142728815Y-61266815D01*
X142649463Y-61363506D01*
X142590498Y-61473820D01*
X142568487Y-61546380D01*
X142436632Y-61414525D01*
X142193411Y-61252010D01*
X141923158Y-61140068D01*
X141636260Y-61083000D01*
X141343740Y-61083000D01*
X141056842Y-61140068D01*
X140786589Y-61252010D01*
X140543368Y-61414525D01*
X140336525Y-61621368D01*
X140220000Y-61795760D01*
X140103475Y-61621368D01*
X139896632Y-61414525D01*
X139653411Y-61252010D01*
X139383158Y-61140068D01*
X139096260Y-61083000D01*
X138803740Y-61083000D01*
X138516842Y-61140068D01*
X138246589Y-61252010D01*
X138003368Y-61414525D01*
X137796525Y-61621368D01*
X137634010Y-61864589D01*
X137522068Y-62134842D01*
X137465000Y-62421740D01*
X129920814Y-62421740D01*
X130003287Y-62339267D01*
X130138443Y-62136992D01*
X130231540Y-61912236D01*
X130279000Y-61673637D01*
X130279000Y-61430363D01*
X130231540Y-61191764D01*
X130138443Y-60967008D01*
X130003287Y-60764733D01*
X129831267Y-60592713D01*
X129647158Y-60469695D01*
X169646520Y-60469695D01*
X169715822Y-61221938D01*
X169930548Y-61946208D01*
X170282445Y-62614670D01*
X170309452Y-62655088D01*
X170799119Y-63015276D01*
X173320395Y-60494000D01*
X173679605Y-60494000D01*
X176200881Y-63015276D01*
X176690548Y-62655088D01*
X177050849Y-61991118D01*
X177274694Y-61269615D01*
X177353480Y-60518305D01*
X177284178Y-59766062D01*
X177069452Y-59041792D01*
X176717555Y-58373330D01*
X176690548Y-58332912D01*
X176200881Y-57972724D01*
X173679605Y-60494000D01*
X173320395Y-60494000D01*
X170799119Y-57972724D01*
X170309452Y-58332912D01*
X169949151Y-58996882D01*
X169725306Y-59718385D01*
X169646520Y-60469695D01*
X129647158Y-60469695D01*
X129628992Y-60457557D01*
X129404236Y-60364460D01*
X129165637Y-60317000D01*
X128922363Y-60317000D01*
X128683764Y-60364460D01*
X128459008Y-60457557D01*
X128256733Y-60592713D01*
X128084713Y-60764733D01*
X127949557Y-60967008D01*
X127856460Y-61191764D01*
X127809000Y-61430363D01*
X124150363Y-61430363D01*
X124243267Y-61368287D01*
X124415287Y-61196267D01*
X124550443Y-60993992D01*
X124643540Y-60769236D01*
X124691000Y-60530637D01*
X124691000Y-60287363D01*
X124643540Y-60048764D01*
X124550443Y-59824008D01*
X124415287Y-59621733D01*
X124243267Y-59449713D01*
X124040992Y-59314557D01*
X123816236Y-59221460D01*
X123577637Y-59174000D01*
X123334363Y-59174000D01*
X123095764Y-59221460D01*
X122871008Y-59314557D01*
X122668733Y-59449713D01*
X122496713Y-59621733D01*
X122361557Y-59824008D01*
X122268460Y-60048764D01*
X122221000Y-60287363D01*
X98048653Y-60287363D01*
X97994178Y-59696062D01*
X97779452Y-58971792D01*
X97427555Y-58303330D01*
X97400548Y-58262912D01*
X96910881Y-57902724D01*
X94389605Y-60424000D01*
X94030395Y-60424000D01*
X91509119Y-57902724D01*
X91019452Y-58262912D01*
X90659151Y-58926882D01*
X90435306Y-59648385D01*
X90356520Y-60399695D01*
X89942510Y-60399695D01*
X89942510Y-57723119D01*
X91688724Y-57723119D01*
X94210000Y-60244395D01*
X96731276Y-57723119D01*
X96562273Y-57493363D01*
X111172000Y-57493363D01*
X111172000Y-57736637D01*
X111219460Y-57975236D01*
X111312557Y-58199992D01*
X111447713Y-58402267D01*
X111619733Y-58574287D01*
X111822008Y-58709443D01*
X112046764Y-58802540D01*
X112285363Y-58850000D01*
X112528637Y-58850000D01*
X112767236Y-58802540D01*
X112861817Y-58763363D01*
X117014000Y-58763363D01*
X117014000Y-59006637D01*
X117061460Y-59245236D01*
X117154557Y-59469992D01*
X117289713Y-59672267D01*
X117461733Y-59844287D01*
X117664008Y-59979443D01*
X117888764Y-60072540D01*
X118127363Y-60120000D01*
X118370637Y-60120000D01*
X118609236Y-60072540D01*
X118833992Y-59979443D01*
X119036267Y-59844287D01*
X119208287Y-59672267D01*
X119343443Y-59469992D01*
X119436540Y-59245236D01*
X119484000Y-59006637D01*
X119484000Y-58763363D01*
X119436540Y-58524764D01*
X119343443Y-58300008D01*
X119208287Y-58097733D01*
X119036267Y-57925713D01*
X118837827Y-57793119D01*
X170978724Y-57793119D01*
X173500000Y-60314395D01*
X176021276Y-57793119D01*
X175661088Y-57303452D01*
X174997118Y-56943151D01*
X174275615Y-56719306D01*
X173524305Y-56640520D01*
X172772062Y-56709822D01*
X172047792Y-56924548D01*
X171379330Y-57276445D01*
X171338912Y-57303452D01*
X170978724Y-57793119D01*
X118837827Y-57793119D01*
X118833992Y-57790557D01*
X118609236Y-57697460D01*
X118370637Y-57650000D01*
X118127363Y-57650000D01*
X117888764Y-57697460D01*
X117664008Y-57790557D01*
X117461733Y-57925713D01*
X117289713Y-58097733D01*
X117154557Y-58300008D01*
X117061460Y-58524764D01*
X117014000Y-58763363D01*
X112861817Y-58763363D01*
X112991992Y-58709443D01*
X113194267Y-58574287D01*
X113366287Y-58402267D01*
X113501443Y-58199992D01*
X113594540Y-57975236D01*
X113642000Y-57736637D01*
X113642000Y-57493363D01*
X113594540Y-57254764D01*
X113501443Y-57030008D01*
X113366287Y-56827733D01*
X113194267Y-56655713D01*
X112991992Y-56520557D01*
X112767236Y-56427460D01*
X112528637Y-56380000D01*
X112285363Y-56380000D01*
X112046764Y-56427460D01*
X111822008Y-56520557D01*
X111619733Y-56655713D01*
X111447713Y-56827733D01*
X111312557Y-57030008D01*
X111219460Y-57254764D01*
X111172000Y-57493363D01*
X96562273Y-57493363D01*
X96371088Y-57233452D01*
X95707118Y-56873151D01*
X94985615Y-56649306D01*
X94234305Y-56570520D01*
X93482062Y-56639822D01*
X92757792Y-56854548D01*
X92089330Y-57206445D01*
X92048912Y-57233452D01*
X91688724Y-57723119D01*
X89942510Y-57723119D01*
X89942510Y-56159989D01*
X178472511Y-56159989D01*
X178472510Y-107987607D01*
G37*
%TD.AperFunction*%
%TD*%
M02*
