M48
; DRILL file {KiCad (5.1.8)-1} date 02/10/21 22:47:16
; FORMAT={-:-/ absolute / inch / decimal}
; #@! TF.CreationDate,2021-02-10T22:47:16+08:00
; #@! TF.GenerationSoftware,Kicad,Pcbnew,(5.1.8)-1
; #@! TF.FileFunction,Plated,1,4,PTH
FMAT,2
INCH
T1C0.0157
T2C0.0197
T3C0.0236
T4C0.0354
T5C0.0394
T6C0.0433
T7C0.0630
T8C0.1260
%
G90
G05
T1
X5.8055Y-3.0433
T2
X3.6146Y-2.3789
X3.6422Y-2.3121
X3.6422Y-2.4457
X3.7091Y-2.2844
X3.7091Y-2.4734
X3.7759Y-2.3121
X3.7759Y-2.4457
X3.8035Y-2.3789
X6.7362Y-2.3817
X6.7639Y-2.3148
X6.7639Y-2.4485
X6.8307Y-2.2872
X6.8307Y-2.4761
X6.8975Y-2.3148
X6.8975Y-2.4485
X6.9252Y-2.3817
T3
X3.5961Y-2.5966
X3.5961Y-2.695
X3.5961Y-2.7935
X3.5961Y-2.8919
X3.5961Y-2.9903
X3.5961Y-3.0887
X3.5961Y-3.1872
X3.5961Y-3.2856
X3.5961Y-3.384
X3.6505Y-3.6933
X3.6505Y-3.7433
X3.6945Y-2.5966
X3.6945Y-2.695
X3.6945Y-2.7935
X3.6945Y-2.8919
X3.6945Y-2.9903
X3.6945Y-3.0887
X3.6945Y-3.1872
X3.6945Y-3.2856
X3.6945Y-3.384
X3.7929Y-2.5966
X3.7929Y-2.695
X3.7929Y-2.9903
X3.7929Y-3.0887
X3.7929Y-3.1872
X3.7929Y-3.2856
X3.8913Y-2.3013
X3.8913Y-2.4982
X3.8913Y-2.5966
X3.9355Y-3.6183
X3.9898Y-2.3013
X3.9898Y-2.3998
X3.9898Y-2.4982
X3.9905Y-2.7733
X4.0114Y-2.8924
X4.0405Y-2.7733
X4.0882Y-2.3013
X4.0882Y-2.3998
X4.1434Y-2.9754
X4.2059Y-3.0379
X4.2205Y-2.7533
X4.2205Y-2.9033
X4.4255Y-2.2683
X4.6555Y-2.3183
X4.8605Y-2.3783
X4.9155Y-2.8933
X5.0155Y-2.8983
X5.0805Y-2.4233
X5.083Y-3.5358
X5.083Y-3.6458
X5.1955Y-2.9183
X5.241Y-2.9578
X5.243Y-3.1908
X5.398Y-3.5358
X5.403Y-3.6458
X5.5105Y-3.4233
X5.6155Y-3.4233
X5.6705Y-2.5883
X5.718Y-3.6458
X5.723Y-3.5358
X5.82Y-2.6688
X5.8859Y-2.7729
X5.9305Y-3.8133
X5.98Y-2.5638
X5.9805Y-2.7083
X6.0105Y-2.8983
X6.0317Y-2.687
X6.1055Y-2.6333
X6.1455Y-2.7033
X6.1577Y-2.8411
X6.1905Y-2.9033
X6.2055Y-2.6833
X6.2205Y-3.5333
X6.223Y-3.6458
X6.2405Y-3.1983
X6.3305Y-2.7033
X6.3488Y-3.0651
X6.35Y-3.2538
X6.4705Y-3.1383
X6.538Y-3.6458
X6.5405Y-3.5333
X6.8605Y-3.5333
X6.863Y-3.6458
T4
X4.6432Y-3.3815
X4.7432Y-3.3815
X4.6433Y-3.0821
X4.7433Y-3.0821
X3.9587Y-3.845
X4.0087Y-3.745
X4.0587Y-3.845
X4.1087Y-3.745
X4.1587Y-3.845
X4.2087Y-3.745
X4.2587Y-3.845
X4.3087Y-3.745
X4.6434Y-2.7816
X4.7434Y-2.7816
X4.6435Y-3.6817
X4.7435Y-3.6817
T5
X4.1755Y-3.5133
X4.2755Y-3.5133
X5.6605Y-2.8433
X5.6605Y-2.9433
X5.6605Y-3.0433
X5.6605Y-3.1433
X5.3169Y-3.9765
X5.3715Y-4.0883
X5.426Y-3.9765
X5.4805Y-4.0883
X5.535Y-3.9765
X5.5896Y-4.0883
X5.6441Y-3.9765
X5.6986Y-4.0883
X5.7531Y-3.9765
X5.8077Y-4.0883
X5.8622Y-3.9765
X5.9167Y-4.0883
X5.9713Y-3.9765
X6.0258Y-4.0883
X6.0803Y-3.9765
X6.1348Y-4.0883
X6.1894Y-3.9765
X6.2439Y-4.0883
X6.2984Y-3.9765
X6.353Y-4.0883
X6.4075Y-3.9765
X6.462Y-4.0883
X6.5165Y-3.9765
X6.5711Y-4.0883
X6.6256Y-3.9765
X5.4705Y-2.4633
X5.5705Y-2.4633
X5.6705Y-2.4633
T6
X6.5133Y-2.6333
X6.5133Y-2.8892
X6.6905Y-2.6333
X6.6905Y-2.8892
T7
X3.8276Y-3.9746
X4.4398Y-3.9746
T8
X5.0441Y-4.0324
X6.8984Y-4.0324
X3.7091Y-2.3789
X6.8307Y-2.3817
T0
M30
