%TF.GenerationSoftware,KiCad,Pcbnew,(5.1.8)-1*%
%TF.CreationDate,2021-02-10T22:47:22+08:00*%
%TF.ProjectId,mpg,6d70672e-6b69-4636-9164-5f7063625858,rev?*%
%TF.SameCoordinates,Original*%
%TF.FileFunction,Legend,Top*%
%TF.FilePolarity,Positive*%
%FSLAX46Y46*%
G04 Gerber Fmt 4.6, Leading zero omitted, Abs format (unit mm)*
G04 Created by KiCad (PCBNEW (5.1.8)-1) date 2021-02-10 22:47:22*
%MOMM*%
%LPD*%
G01*
G04 APERTURE LIST*
%ADD10C,0.150000*%
%ADD11C,0.500000*%
%ADD12C,0.120000*%
G04 APERTURE END LIST*
D10*
X177375380Y-81641047D02*
X176375380Y-81641047D01*
X177089666Y-81307714D01*
X176375380Y-80974380D01*
X177375380Y-80974380D01*
X177375380Y-80069619D02*
X176851571Y-80069619D01*
X176756333Y-80117238D01*
X176708714Y-80212476D01*
X176708714Y-80402952D01*
X176756333Y-80498190D01*
X177327761Y-80069619D02*
X177375380Y-80164857D01*
X177375380Y-80402952D01*
X177327761Y-80498190D01*
X177232523Y-80545809D01*
X177137285Y-80545809D01*
X177042047Y-80498190D01*
X176994428Y-80402952D01*
X176994428Y-80164857D01*
X176946809Y-80069619D01*
X177375380Y-79593428D02*
X176708714Y-79593428D01*
X176899190Y-79593428D02*
X176803952Y-79545809D01*
X176756333Y-79498190D01*
X176708714Y-79402952D01*
X176708714Y-79307714D01*
X177375380Y-78545809D02*
X176851571Y-78545809D01*
X176756333Y-78593428D01*
X176708714Y-78688666D01*
X176708714Y-78879142D01*
X176756333Y-78974380D01*
X177327761Y-78545809D02*
X177375380Y-78641047D01*
X177375380Y-78879142D01*
X177327761Y-78974380D01*
X177232523Y-79022000D01*
X177137285Y-79022000D01*
X177042047Y-78974380D01*
X176994428Y-78879142D01*
X176994428Y-78641047D01*
X176946809Y-78545809D01*
X176708714Y-78069619D02*
X177375380Y-78069619D01*
X176803952Y-78069619D02*
X176756333Y-78022000D01*
X176708714Y-77926761D01*
X176708714Y-77783904D01*
X176756333Y-77688666D01*
X176851571Y-77641047D01*
X177375380Y-77641047D01*
X176708714Y-76736285D02*
X177518238Y-76736285D01*
X177613476Y-76783904D01*
X177661095Y-76831523D01*
X177708714Y-76926761D01*
X177708714Y-77069619D01*
X177661095Y-77164857D01*
X177327761Y-76736285D02*
X177375380Y-76831523D01*
X177375380Y-77022000D01*
X177327761Y-77117238D01*
X177280142Y-77164857D01*
X177184904Y-77212476D01*
X176899190Y-77212476D01*
X176803952Y-77164857D01*
X176756333Y-77117238D01*
X176708714Y-77022000D01*
X176708714Y-76831523D01*
X176756333Y-76736285D01*
X177375380Y-76260095D02*
X176708714Y-76260095D01*
X176375380Y-76260095D02*
X176423000Y-76307714D01*
X176470619Y-76260095D01*
X176423000Y-76212476D01*
X176375380Y-76260095D01*
X176470619Y-76260095D01*
X177327761Y-75831523D02*
X177375380Y-75736285D01*
X177375380Y-75545809D01*
X177327761Y-75450571D01*
X177232523Y-75402952D01*
X177184904Y-75402952D01*
X177089666Y-75450571D01*
X177042047Y-75545809D01*
X177042047Y-75688666D01*
X176994428Y-75783904D01*
X176899190Y-75831523D01*
X176851571Y-75831523D01*
X176756333Y-75783904D01*
X176708714Y-75688666D01*
X176708714Y-75545809D01*
X176756333Y-75450571D01*
X176708714Y-75117238D02*
X176708714Y-74736285D01*
X176375380Y-74974380D02*
X177232523Y-74974380D01*
X177327761Y-74926761D01*
X177375380Y-74831523D01*
X177375380Y-74736285D01*
X177375380Y-74260095D02*
X177327761Y-74355333D01*
X177280142Y-74402952D01*
X177184904Y-74450571D01*
X176899190Y-74450571D01*
X176803952Y-74402952D01*
X176756333Y-74355333D01*
X176708714Y-74260095D01*
X176708714Y-74117238D01*
X176756333Y-74022000D01*
X176803952Y-73974380D01*
X176899190Y-73926761D01*
X177184904Y-73926761D01*
X177280142Y-73974380D01*
X177327761Y-74022000D01*
X177375380Y-74117238D01*
X177375380Y-74260095D01*
X176470619Y-72783904D02*
X176423000Y-72736285D01*
X176375380Y-72641047D01*
X176375380Y-72402952D01*
X176423000Y-72307714D01*
X176470619Y-72260095D01*
X176565857Y-72212476D01*
X176661095Y-72212476D01*
X176803952Y-72260095D01*
X177375380Y-72831523D01*
X177375380Y-72212476D01*
X176375380Y-71593428D02*
X176375380Y-71498190D01*
X176423000Y-71402952D01*
X176470619Y-71355333D01*
X176565857Y-71307714D01*
X176756333Y-71260095D01*
X176994428Y-71260095D01*
X177184904Y-71307714D01*
X177280142Y-71355333D01*
X177327761Y-71402952D01*
X177375380Y-71498190D01*
X177375380Y-71593428D01*
X177327761Y-71688666D01*
X177280142Y-71736285D01*
X177184904Y-71783904D01*
X176994428Y-71831523D01*
X176756333Y-71831523D01*
X176565857Y-71783904D01*
X176470619Y-71736285D01*
X176423000Y-71688666D01*
X176375380Y-71593428D01*
X176470619Y-70879142D02*
X176423000Y-70831523D01*
X176375380Y-70736285D01*
X176375380Y-70498190D01*
X176423000Y-70402952D01*
X176470619Y-70355333D01*
X176565857Y-70307714D01*
X176661095Y-70307714D01*
X176803952Y-70355333D01*
X177375380Y-70926761D01*
X177375380Y-70307714D01*
X177375380Y-69355333D02*
X177375380Y-69926761D01*
X177375380Y-69641047D02*
X176375380Y-69641047D01*
X176518238Y-69736285D01*
X176613476Y-69831523D01*
X176661095Y-69926761D01*
X118082476Y-105819380D02*
X117749142Y-105343190D01*
X117511047Y-105819380D02*
X117511047Y-104819380D01*
X117892000Y-104819380D01*
X117987238Y-104867000D01*
X118034857Y-104914619D01*
X118082476Y-105009857D01*
X118082476Y-105152714D01*
X118034857Y-105247952D01*
X117987238Y-105295571D01*
X117892000Y-105343190D01*
X117511047Y-105343190D01*
X118892000Y-105771761D02*
X118796761Y-105819380D01*
X118606285Y-105819380D01*
X118511047Y-105771761D01*
X118463428Y-105676523D01*
X118463428Y-105295571D01*
X118511047Y-105200333D01*
X118606285Y-105152714D01*
X118796761Y-105152714D01*
X118892000Y-105200333D01*
X118939619Y-105295571D01*
X118939619Y-105390809D01*
X118463428Y-105486047D01*
X119272952Y-105152714D02*
X119511047Y-105819380D01*
X119749142Y-105152714D01*
X120844380Y-105533666D02*
X121320571Y-105533666D01*
X120749142Y-105819380D02*
X121082476Y-104819380D01*
X121415809Y-105819380D01*
D11*
X149238000Y-60551761D02*
X149238000Y-58551761D01*
X151238000Y-59980333D01*
X153238000Y-58551761D01*
X153238000Y-60551761D01*
X156095142Y-60551761D02*
X156095142Y-58551761D01*
X158380857Y-58551761D01*
X158952285Y-58647000D01*
X159238000Y-58742238D01*
X159523714Y-58932714D01*
X159523714Y-59218428D01*
X159238000Y-59408904D01*
X158952285Y-59504142D01*
X158380857Y-59599380D01*
X156095142Y-59599380D01*
X165238000Y-58647000D02*
X164666571Y-58551761D01*
X163809428Y-58551761D01*
X162952285Y-58647000D01*
X162380857Y-58837476D01*
X162095142Y-59027952D01*
X161809428Y-59408904D01*
X161809428Y-59694619D01*
X162095142Y-60075571D01*
X162380857Y-60266047D01*
X162952285Y-60456523D01*
X163809428Y-60551761D01*
X164380857Y-60551761D01*
X165238000Y-60456523D01*
X165523714Y-60361285D01*
X165523714Y-59694619D01*
X164380857Y-59694619D01*
D10*
X143791904Y-59401000D02*
X143696666Y-59353380D01*
X143553809Y-59353380D01*
X143410952Y-59401000D01*
X143315714Y-59496238D01*
X143268095Y-59591476D01*
X143220476Y-59781952D01*
X143220476Y-59924809D01*
X143268095Y-60115285D01*
X143315714Y-60210523D01*
X143410952Y-60305761D01*
X143553809Y-60353380D01*
X143649047Y-60353380D01*
X143791904Y-60305761D01*
X143839523Y-60258142D01*
X143839523Y-59924809D01*
X143649047Y-59924809D01*
X144268095Y-60353380D02*
X144268095Y-59353380D01*
X144506190Y-59353380D01*
X144649047Y-59401000D01*
X144744285Y-59496238D01*
X144791904Y-59591476D01*
X144839523Y-59781952D01*
X144839523Y-59924809D01*
X144791904Y-60115285D01*
X144744285Y-60210523D01*
X144649047Y-60305761D01*
X144506190Y-60353380D01*
X144268095Y-60353380D01*
X140601095Y-59353380D02*
X141172523Y-59353380D01*
X140886809Y-60353380D02*
X140886809Y-59353380D01*
X141410619Y-59353380D02*
X142077285Y-60353380D01*
X142077285Y-59353380D02*
X141410619Y-60353380D01*
X138656333Y-60353380D02*
X138323000Y-59877190D01*
X138084904Y-60353380D02*
X138084904Y-59353380D01*
X138465857Y-59353380D01*
X138561095Y-59401000D01*
X138608714Y-59448619D01*
X138656333Y-59543857D01*
X138656333Y-59686714D01*
X138608714Y-59781952D01*
X138561095Y-59829571D01*
X138465857Y-59877190D01*
X138084904Y-59877190D01*
X138989666Y-59353380D02*
X139656333Y-60353380D01*
X139656333Y-59353380D02*
X138989666Y-60353380D01*
X139458095Y-79467000D02*
X139362857Y-79419380D01*
X139220000Y-79419380D01*
X139077142Y-79467000D01*
X138981904Y-79562238D01*
X138934285Y-79657476D01*
X138886666Y-79847952D01*
X138886666Y-79990809D01*
X138934285Y-80181285D01*
X138981904Y-80276523D01*
X139077142Y-80371761D01*
X139220000Y-80419380D01*
X139315238Y-80419380D01*
X139458095Y-80371761D01*
X139505714Y-80324142D01*
X139505714Y-79990809D01*
X139315238Y-79990809D01*
X139934285Y-80419380D02*
X139934285Y-79419380D01*
X140505714Y-80419380D01*
X140505714Y-79419380D01*
X140981904Y-80419380D02*
X140981904Y-79419380D01*
X141220000Y-79419380D01*
X141362857Y-79467000D01*
X141458095Y-79562238D01*
X141505714Y-79657476D01*
X141553333Y-79847952D01*
X141553333Y-79990809D01*
X141505714Y-80181285D01*
X141458095Y-80276523D01*
X141362857Y-80371761D01*
X141220000Y-80419380D01*
X140981904Y-80419380D01*
X137839048Y-77831761D02*
X137981905Y-77879380D01*
X138220000Y-77879380D01*
X138315238Y-77831761D01*
X138362857Y-77784142D01*
X138410476Y-77688904D01*
X138410476Y-77593666D01*
X138362857Y-77498428D01*
X138315238Y-77450809D01*
X138220000Y-77403190D01*
X138029524Y-77355571D01*
X137934286Y-77307952D01*
X137886667Y-77260333D01*
X137839048Y-77165095D01*
X137839048Y-77069857D01*
X137886667Y-76974619D01*
X137934286Y-76927000D01*
X138029524Y-76879380D01*
X138267619Y-76879380D01*
X138410476Y-76927000D01*
X138743810Y-76879380D02*
X138981905Y-77879380D01*
X139172381Y-77165095D01*
X139362857Y-77879380D01*
X139600952Y-76879380D01*
X140553333Y-77784142D02*
X140505714Y-77831761D01*
X140362857Y-77879380D01*
X140267619Y-77879380D01*
X140124762Y-77831761D01*
X140029524Y-77736523D01*
X139981905Y-77641285D01*
X139934286Y-77450809D01*
X139934286Y-77307952D01*
X139981905Y-77117476D01*
X140029524Y-77022238D01*
X140124762Y-76927000D01*
X140267619Y-76879380D01*
X140362857Y-76879380D01*
X140505714Y-76927000D01*
X140553333Y-76974619D01*
X140981905Y-77879380D02*
X140981905Y-76879380D01*
X141553333Y-77879380D02*
X141124762Y-77307952D01*
X141553333Y-76879380D02*
X140981905Y-77450809D01*
X138839048Y-75164761D02*
X138981905Y-75212380D01*
X139220000Y-75212380D01*
X139315238Y-75164761D01*
X139362857Y-75117142D01*
X139410476Y-75021904D01*
X139410476Y-74926666D01*
X139362857Y-74831428D01*
X139315238Y-74783809D01*
X139220000Y-74736190D01*
X139029524Y-74688571D01*
X138934286Y-74640952D01*
X138886667Y-74593333D01*
X138839048Y-74498095D01*
X138839048Y-74402857D01*
X138886667Y-74307619D01*
X138934286Y-74260000D01*
X139029524Y-74212380D01*
X139267619Y-74212380D01*
X139410476Y-74260000D01*
X139743810Y-74212380D02*
X139981905Y-75212380D01*
X140172381Y-74498095D01*
X140362857Y-75212380D01*
X140600952Y-74212380D01*
X140981905Y-75212380D02*
X140981905Y-74212380D01*
X141220000Y-74212380D01*
X141362857Y-74260000D01*
X141458095Y-74355238D01*
X141505714Y-74450476D01*
X141553333Y-74640952D01*
X141553333Y-74783809D01*
X141505714Y-74974285D01*
X141458095Y-75069523D01*
X141362857Y-75164761D01*
X141220000Y-75212380D01*
X140981905Y-75212380D01*
X139839047Y-72672380D02*
X139505714Y-72196190D01*
X139267619Y-72672380D02*
X139267619Y-71672380D01*
X139648571Y-71672380D01*
X139743809Y-71720000D01*
X139791428Y-71767619D01*
X139839047Y-71862857D01*
X139839047Y-72005714D01*
X139791428Y-72100952D01*
X139743809Y-72148571D01*
X139648571Y-72196190D01*
X139267619Y-72196190D01*
X140220000Y-72624761D02*
X140362857Y-72672380D01*
X140600952Y-72672380D01*
X140696190Y-72624761D01*
X140743809Y-72577142D01*
X140791428Y-72481904D01*
X140791428Y-72386666D01*
X140743809Y-72291428D01*
X140696190Y-72243809D01*
X140600952Y-72196190D01*
X140410476Y-72148571D01*
X140315238Y-72100952D01*
X140267619Y-72053333D01*
X140220000Y-71958095D01*
X140220000Y-71862857D01*
X140267619Y-71767619D01*
X140315238Y-71720000D01*
X140410476Y-71672380D01*
X140648571Y-71672380D01*
X140791428Y-71720000D01*
X141077143Y-71672380D02*
X141648571Y-71672380D01*
X141362857Y-72672380D02*
X141362857Y-71672380D01*
D12*
%TO.C,J5*%
X96820000Y-96664000D02*
X96820000Y-98664000D01*
X97020000Y-114994000D02*
X97020000Y-102554000D01*
X112970000Y-114994000D02*
X97020000Y-114994000D01*
X112970000Y-102554000D02*
X112970000Y-114994000D01*
X112970000Y-93074000D02*
X112970000Y-99354000D01*
X97020000Y-93074000D02*
X112970000Y-93074000D01*
X97020000Y-99354000D02*
X97020000Y-93074000D01*
%TO.C,J4*%
X109927000Y-90568000D02*
X109927000Y-87908000D01*
X107327000Y-90568000D02*
X109927000Y-90568000D01*
X107327000Y-87908000D02*
X109927000Y-87908000D01*
X107327000Y-90568000D02*
X107327000Y-87908000D01*
X106057000Y-90568000D02*
X104727000Y-90568000D01*
X104727000Y-90568000D02*
X104727000Y-89238000D01*
%TO.C,U2*%
X151896000Y-71150000D02*
X151596000Y-71150000D01*
X151596000Y-71150000D02*
X151596000Y-71450000D01*
X158516000Y-71150000D02*
X158816000Y-71150000D01*
X158816000Y-71150000D02*
X158816000Y-71450000D01*
X151896000Y-78370000D02*
X151596000Y-78370000D01*
X151596000Y-78370000D02*
X151596000Y-78070000D01*
X158516000Y-78370000D02*
X158816000Y-78370000D01*
X158816000Y-78370000D02*
X158816000Y-78070000D01*
X158816000Y-78070000D02*
X160131000Y-78070000D01*
%TO.C,J2*%
X145106000Y-70890000D02*
X142446000Y-70890000D01*
X145106000Y-78570000D02*
X145106000Y-70890000D01*
X142446000Y-78570000D02*
X142446000Y-70890000D01*
X145106000Y-78570000D02*
X142446000Y-78570000D01*
X145106000Y-79840000D02*
X145106000Y-81170000D01*
X145106000Y-81170000D02*
X143776000Y-81170000D01*
%TO.C,J1*%
X125060000Y-111484000D02*
X125060000Y-99144000D01*
X125060000Y-99144000D02*
X178280000Y-99144000D01*
X178280000Y-99144000D02*
X178280000Y-111484000D01*
X134800000Y-98249662D02*
X135300000Y-98249662D01*
X135300000Y-98249662D02*
X135050000Y-98682675D01*
X135050000Y-98682675D02*
X134800000Y-98249662D01*
%TO.C,D6*%
X120255330Y-94595197D02*
G75*
G02*
X118173239Y-94595360I-1041130J1079837D01*
G01*
X120255330Y-92435523D02*
G75*
G03*
X118173239Y-92435360I-1041130J-1079837D01*
G01*
X120886535Y-94593968D02*
G75*
G02*
X117654200Y-94750876I-1672335J1078608D01*
G01*
X120886535Y-92436752D02*
G75*
G03*
X117654200Y-92279844I-1672335J-1078608D01*
G01*
X117654200Y-92279360D02*
X117654200Y-92435360D01*
X117654200Y-94595360D02*
X117654200Y-94751360D01*
%TO.C,C10*%
X113270000Y-80576000D02*
X113270000Y-79376000D01*
X113270000Y-76056000D02*
X113270000Y-77256000D01*
X109814437Y-76056000D02*
X113270000Y-76056000D01*
X109814437Y-80576000D02*
X113270000Y-80576000D01*
X108750000Y-79511563D02*
X108750000Y-79376000D01*
X108750000Y-77120437D02*
X108750000Y-77256000D01*
X108750000Y-77120437D02*
X109814437Y-76056000D01*
X108750000Y-79511563D02*
X109814437Y-80576000D01*
X108010000Y-76756000D02*
X108510000Y-76756000D01*
X108260000Y-76506000D02*
X108260000Y-77006000D01*
%TO.C,C8*%
X104519420Y-69678000D02*
X104800580Y-69678000D01*
X104519420Y-70698000D02*
X104800580Y-70698000D01*
%TO.C,C6*%
X91730000Y-91065252D02*
X91730000Y-89642748D01*
X93550000Y-91065252D02*
X93550000Y-89642748D01*
%TO.C,C5*%
X104519420Y-73234000D02*
X104800580Y-73234000D01*
X104519420Y-74254000D02*
X104800580Y-74254000D01*
%TO.C,Y1*%
X164748000Y-79887200D02*
X164748000Y-83587200D01*
X164748000Y-83587200D02*
X170048000Y-83587200D01*
%TO.C,U4*%
X98381000Y-90506000D02*
X99311000Y-90506000D01*
X101541000Y-90506000D02*
X100611000Y-90506000D01*
X101541000Y-90506000D02*
X101541000Y-88346000D01*
X98381000Y-90506000D02*
X98381000Y-89046000D01*
%TO.C,R34*%
X132075258Y-65376500D02*
X131600742Y-65376500D01*
X132075258Y-64331500D02*
X131600742Y-64331500D01*
%TO.C,R33*%
X164366742Y-77285500D02*
X164841258Y-77285500D01*
X164366742Y-78330500D02*
X164841258Y-78330500D01*
%TO.C,R32*%
X176057762Y-92080700D02*
X176532278Y-92080700D01*
X176057762Y-93125700D02*
X176532278Y-93125700D01*
%TO.C,R31*%
X176532278Y-96110500D02*
X176057762Y-96110500D01*
X176532278Y-95065500D02*
X176057762Y-95065500D01*
%TO.C,R30*%
X172461258Y-93125700D02*
X171986742Y-93125700D01*
X172461258Y-92080700D02*
X171986742Y-92080700D01*
%TO.C,R29*%
X171986742Y-95065500D02*
X172461258Y-95065500D01*
X171986742Y-96110500D02*
X172461258Y-96110500D01*
%TO.C,R28*%
X167922742Y-92080700D02*
X168397258Y-92080700D01*
X167922742Y-93125700D02*
X168397258Y-93125700D01*
%TO.C,R27*%
X168397258Y-96110500D02*
X167922742Y-96110500D01*
X168397258Y-95065500D02*
X167922742Y-95065500D01*
%TO.C,R26*%
X164333258Y-93125700D02*
X163858742Y-93125700D01*
X164333258Y-92080700D02*
X163858742Y-92080700D01*
%TO.C,R25*%
X163858742Y-95065500D02*
X164333258Y-95065500D01*
X163858742Y-96110500D02*
X164333258Y-96110500D01*
%TO.C,R24*%
X159794742Y-92080700D02*
X160269258Y-92080700D01*
X159794742Y-93125700D02*
X160269258Y-93125700D01*
%TO.C,R23*%
X160269258Y-96110500D02*
X159794742Y-96110500D01*
X160269258Y-95065500D02*
X159794742Y-95065500D01*
%TO.C,C24*%
X168527420Y-77298000D02*
X168808580Y-77298000D01*
X168527420Y-78318000D02*
X168808580Y-78318000D01*
%TO.C,C23*%
X163082000Y-81731420D02*
X163082000Y-82012580D01*
X162062000Y-81731420D02*
X162062000Y-82012580D01*
%TO.C,C22*%
X176428580Y-90256000D02*
X176147420Y-90256000D01*
X176428580Y-89236000D02*
X176147420Y-89236000D01*
%TO.C,C21*%
X172083420Y-89236000D02*
X172364580Y-89236000D01*
X172083420Y-90256000D02*
X172364580Y-90256000D01*
%TO.C,C20*%
X168300580Y-90256000D02*
X168019420Y-90256000D01*
X168300580Y-89236000D02*
X168019420Y-89236000D01*
%TO.C,C19*%
X163955420Y-89236000D02*
X164236580Y-89236000D01*
X163955420Y-90256000D02*
X164236580Y-90256000D01*
%TO.C,C18*%
X160172580Y-90256000D02*
X159891420Y-90256000D01*
X160172580Y-89236000D02*
X159891420Y-89236000D01*
%TO.C,C17*%
X155827420Y-89236000D02*
X156108580Y-89236000D01*
X155827420Y-90256000D02*
X156108580Y-90256000D01*
%TO.C,C16*%
X126871420Y-89299200D02*
X127152580Y-89299200D01*
X126871420Y-90319200D02*
X127152580Y-90319200D01*
%TO.C,C15*%
X134999420Y-89299200D02*
X135280580Y-89299200D01*
X134999420Y-90319200D02*
X135280580Y-90319200D01*
%TO.C,C14*%
X131216580Y-90319200D02*
X130935420Y-90319200D01*
X131216580Y-89299200D02*
X130935420Y-89299200D01*
%TO.C,U3*%
X132600000Y-74740000D02*
X130650000Y-74740000D01*
X132600000Y-74740000D02*
X134550000Y-74740000D01*
X132600000Y-79860000D02*
X130650000Y-79860000D01*
X132600000Y-79860000D02*
X136050000Y-79860000D01*
%TO.C,U1*%
X96380000Y-70916000D02*
X96380000Y-69606000D01*
X96380000Y-69606000D02*
X99100000Y-69606000D01*
X100240000Y-74096000D02*
X99100000Y-74096000D01*
X96380000Y-74326000D02*
X96380000Y-73016000D01*
X99100000Y-74326000D02*
X96380000Y-74326000D01*
X99100000Y-74326000D02*
X99100000Y-74096000D01*
X99100000Y-69606000D02*
X99100000Y-69836000D01*
%TO.C,SW1*%
X166938000Y-73636000D02*
X168438000Y-73636000D01*
X170938000Y-72386000D02*
X170938000Y-67886000D01*
X168438000Y-66636000D02*
X166938000Y-66636000D01*
X164438000Y-67886000D02*
X164438000Y-72386000D01*
%TO.C,R22*%
X156205258Y-93125700D02*
X155730742Y-93125700D01*
X156205258Y-92080700D02*
X155730742Y-92080700D01*
%TO.C,R21*%
X155730742Y-95065500D02*
X156205258Y-95065500D01*
X155730742Y-96110500D02*
X156205258Y-96110500D01*
%TO.C,R20*%
X127370278Y-93125700D02*
X126895762Y-93125700D01*
X127370278Y-92080700D02*
X126895762Y-92080700D01*
%TO.C,R19*%
X126895762Y-95128700D02*
X127370278Y-95128700D01*
X126895762Y-96173700D02*
X127370278Y-96173700D01*
%TO.C,R18*%
X135377258Y-93125700D02*
X134902742Y-93125700D01*
X135377258Y-92080700D02*
X134902742Y-92080700D01*
%TO.C,R17*%
X134902742Y-95128700D02*
X135377258Y-95128700D01*
X134902742Y-96173700D02*
X135377258Y-96173700D01*
%TO.C,R16*%
X130845762Y-92080700D02*
X131320278Y-92080700D01*
X130845762Y-93125700D02*
X131320278Y-93125700D01*
%TO.C,R15*%
X131320278Y-96173700D02*
X130845762Y-96173700D01*
X131320278Y-95128700D02*
X130845762Y-95128700D01*
%TO.C,R14*%
X147031742Y-92080700D02*
X147506258Y-92080700D01*
X147031742Y-93125700D02*
X147506258Y-93125700D01*
%TO.C,R13*%
X147569258Y-96110500D02*
X147094742Y-96110500D01*
X147569258Y-95065500D02*
X147094742Y-95065500D01*
%TO.C,R12*%
X143505258Y-93125700D02*
X143030742Y-93125700D01*
X143505258Y-92080700D02*
X143030742Y-92080700D01*
%TO.C,R11*%
X143030742Y-95128700D02*
X143505258Y-95128700D01*
X143030742Y-96173700D02*
X143505258Y-96173700D01*
%TO.C,R10*%
X138973762Y-92080700D02*
X139448278Y-92080700D01*
X138973762Y-93125700D02*
X139448278Y-93125700D01*
%TO.C,R9*%
X139448278Y-96173700D02*
X138973762Y-96173700D01*
X139448278Y-95128700D02*
X138973762Y-95128700D01*
%TO.C,R8*%
X103500258Y-86331500D02*
X103025742Y-86331500D01*
X103500258Y-85286500D02*
X103025742Y-85286500D01*
%TO.C,R7*%
X126487258Y-65376500D02*
X126012742Y-65376500D01*
X126487258Y-64331500D02*
X126012742Y-64331500D01*
%TO.C,R6*%
X132108742Y-81857500D02*
X132583258Y-81857500D01*
X132108742Y-82902500D02*
X132583258Y-82902500D01*
%TO.C,R5*%
X120899258Y-65376500D02*
X120424742Y-65376500D01*
X120899258Y-64331500D02*
X120424742Y-64331500D01*
%TO.C,R4*%
X115311258Y-65376500D02*
X114836742Y-65376500D01*
X115311258Y-64331500D02*
X114836742Y-64331500D01*
%TO.C,R3*%
X158778742Y-63061500D02*
X159253258Y-63061500D01*
X158778742Y-64106500D02*
X159253258Y-64106500D01*
%TO.C,R2*%
X109723258Y-60267500D02*
X109248742Y-60267500D01*
X109723258Y-61312500D02*
X109248742Y-61312500D01*
%TO.C,R1*%
X151887258Y-90268500D02*
X151412742Y-90268500D01*
X151887258Y-89223500D02*
X151412742Y-89223500D01*
%TO.C,Q5*%
X132598000Y-62370000D02*
X132598000Y-61440000D01*
X132598000Y-59210000D02*
X132598000Y-60140000D01*
X132598000Y-59210000D02*
X130438000Y-59210000D01*
X132598000Y-62370000D02*
X131138000Y-62370000D01*
%TO.C,Q4*%
X127010000Y-62370000D02*
X127010000Y-61440000D01*
X127010000Y-59210000D02*
X127010000Y-60140000D01*
X127010000Y-59210000D02*
X124850000Y-59210000D01*
X127010000Y-62370000D02*
X125550000Y-62370000D01*
%TO.C,Q3*%
X121422000Y-62370000D02*
X121422000Y-61440000D01*
X121422000Y-59210000D02*
X121422000Y-60140000D01*
X121422000Y-59210000D02*
X119262000Y-59210000D01*
X121422000Y-62370000D02*
X119962000Y-62370000D01*
%TO.C,Q2*%
X115834000Y-62370000D02*
X115834000Y-61440000D01*
X115834000Y-59210000D02*
X115834000Y-60140000D01*
X115834000Y-59210000D02*
X113674000Y-59210000D01*
X115834000Y-62370000D02*
X114374000Y-62370000D01*
%TO.C,Q1*%
X152410000Y-96152000D02*
X152410000Y-95222000D01*
X152410000Y-92992000D02*
X152410000Y-93922000D01*
X152410000Y-92992000D02*
X150250000Y-92992000D01*
X152410000Y-96152000D02*
X150950000Y-96152000D01*
%TO.C,J3*%
X137620000Y-61238000D02*
X137620000Y-63898000D01*
X142760000Y-61238000D02*
X137620000Y-61238000D01*
X142760000Y-63898000D02*
X137620000Y-63898000D01*
X142760000Y-61238000D02*
X142760000Y-63898000D01*
X144030000Y-61238000D02*
X145360000Y-61238000D01*
X145360000Y-61238000D02*
X145360000Y-62568000D01*
%TO.C,FB1*%
X93232000Y-97203221D02*
X93232000Y-97528779D01*
X92212000Y-97203221D02*
X92212000Y-97528779D01*
%TO.C,D5*%
X120247710Y-86970117D02*
G75*
G02*
X118165619Y-86970280I-1041130J1079837D01*
G01*
X120247710Y-84810443D02*
G75*
G03*
X118165619Y-84810280I-1041130J-1079837D01*
G01*
X120878915Y-86968888D02*
G75*
G02*
X117646580Y-87125796I-1672335J1078608D01*
G01*
X120878915Y-84811672D02*
G75*
G03*
X117646580Y-84654764I-1672335J-1078608D01*
G01*
X117646580Y-84654280D02*
X117646580Y-84810280D01*
X117646580Y-86970280D02*
X117646580Y-87126280D01*
%TO.C,D4*%
X120250250Y-79365357D02*
G75*
G02*
X118168159Y-79365520I-1041130J1079837D01*
G01*
X120250250Y-77205683D02*
G75*
G03*
X118168159Y-77205520I-1041130J-1079837D01*
G01*
X120881455Y-79364128D02*
G75*
G02*
X117649120Y-79521036I-1672335J1078608D01*
G01*
X120881455Y-77206912D02*
G75*
G03*
X117649120Y-77050004I-1672335J-1078608D01*
G01*
X117649120Y-77049520D02*
X117649120Y-77205520D01*
X117649120Y-79365520D02*
X117649120Y-79521520D01*
%TO.C,D3*%
X120252790Y-71732657D02*
G75*
G02*
X118170699Y-71732820I-1041130J1079837D01*
G01*
X120252790Y-69572983D02*
G75*
G03*
X118170699Y-69572820I-1041130J-1079837D01*
G01*
X120883995Y-71731428D02*
G75*
G02*
X117651660Y-71888336I-1672335J1078608D01*
G01*
X120883995Y-69574212D02*
G75*
G03*
X117651660Y-69417304I-1672335J-1078608D01*
G01*
X117651660Y-69416820D02*
X117651660Y-69572820D01*
X117651660Y-71732820D02*
X117651660Y-71888820D01*
%TO.C,D2*%
X107801000Y-65539000D02*
X110286000Y-65539000D01*
X107801000Y-64169000D02*
X107801000Y-65539000D01*
X110286000Y-64169000D02*
X107801000Y-64169000D01*
%TO.C,D1*%
X93722000Y-104462000D02*
X93722000Y-101262000D01*
X91722000Y-101262000D02*
X91722000Y-104462000D01*
X91722000Y-101262000D02*
X93722000Y-101262000D01*
%TO.C,C13*%
X147472580Y-90256000D02*
X147191420Y-90256000D01*
X147472580Y-89236000D02*
X147191420Y-89236000D01*
%TO.C,C12*%
X143210440Y-89299200D02*
X143491600Y-89299200D01*
X143210440Y-90319200D02*
X143491600Y-90319200D01*
%TO.C,C11*%
X139246600Y-90319200D02*
X138965440Y-90319200D01*
X139246600Y-89299200D02*
X138965440Y-89299200D01*
%TO.C,C9*%
X148742580Y-69547200D02*
X148461420Y-69547200D01*
X148742580Y-68527200D02*
X148461420Y-68527200D01*
%TO.C,C7*%
X159156580Y-66888000D02*
X158875420Y-66888000D01*
X159156580Y-65868000D02*
X158875420Y-65868000D01*
%TO.C,C4*%
X160415000Y-81731420D02*
X160415000Y-82012580D01*
X159395000Y-81731420D02*
X159395000Y-82012580D01*
%TO.C,C3*%
X132486580Y-72984000D02*
X132205420Y-72984000D01*
X132486580Y-71964000D02*
X132205420Y-71964000D01*
%TO.C,C2*%
X152806580Y-66888000D02*
X152525420Y-66888000D01*
X152806580Y-65868000D02*
X152525420Y-65868000D01*
%TO.C,C1*%
X148742580Y-66888000D02*
X148461420Y-66888000D01*
X148742580Y-65868000D02*
X148461420Y-65868000D01*
%TO.C,J5*%
D10*
X104661666Y-91626380D02*
X104661666Y-92340666D01*
X104614047Y-92483523D01*
X104518809Y-92578761D01*
X104375952Y-92626380D01*
X104280714Y-92626380D01*
X105614047Y-91626380D02*
X105137857Y-91626380D01*
X105090238Y-92102571D01*
X105137857Y-92054952D01*
X105233095Y-92007333D01*
X105471190Y-92007333D01*
X105566428Y-92054952D01*
X105614047Y-92102571D01*
X105661666Y-92197809D01*
X105661666Y-92435904D01*
X105614047Y-92531142D01*
X105566428Y-92578761D01*
X105471190Y-92626380D01*
X105233095Y-92626380D01*
X105137857Y-92578761D01*
X105090238Y-92531142D01*
%TO.C,J4*%
X106866666Y-86150380D02*
X106866666Y-86864666D01*
X106819047Y-87007523D01*
X106723809Y-87102761D01*
X106580952Y-87150380D01*
X106485714Y-87150380D01*
X107771428Y-86483714D02*
X107771428Y-87150380D01*
X107533333Y-86102761D02*
X107295238Y-86817047D01*
X107914285Y-86817047D01*
%TO.C,U2*%
X159143095Y-69894380D02*
X159143095Y-70703904D01*
X159190714Y-70799142D01*
X159238333Y-70846761D01*
X159333571Y-70894380D01*
X159524047Y-70894380D01*
X159619285Y-70846761D01*
X159666904Y-70799142D01*
X159714523Y-70703904D01*
X159714523Y-69894380D01*
X160143095Y-69989619D02*
X160190714Y-69942000D01*
X160285952Y-69894380D01*
X160524047Y-69894380D01*
X160619285Y-69942000D01*
X160666904Y-69989619D01*
X160714523Y-70084857D01*
X160714523Y-70180095D01*
X160666904Y-70322952D01*
X160095476Y-70894380D01*
X160714523Y-70894380D01*
%TO.C,J2*%
X143442666Y-69005380D02*
X143442666Y-69719666D01*
X143395047Y-69862523D01*
X143299809Y-69957761D01*
X143156952Y-70005380D01*
X143061714Y-70005380D01*
X143871238Y-69100619D02*
X143918857Y-69053000D01*
X144014095Y-69005380D01*
X144252190Y-69005380D01*
X144347428Y-69053000D01*
X144395047Y-69100619D01*
X144442666Y-69195857D01*
X144442666Y-69291095D01*
X144395047Y-69433952D01*
X143823619Y-70005380D01*
X144442666Y-70005380D01*
%TO.C,J1*%
X151336666Y-97656380D02*
X151336666Y-98370666D01*
X151289047Y-98513523D01*
X151193809Y-98608761D01*
X151050952Y-98656380D01*
X150955714Y-98656380D01*
X152336666Y-98656380D02*
X151765238Y-98656380D01*
X152050952Y-98656380D02*
X152050952Y-97656380D01*
X151955714Y-97799238D01*
X151860476Y-97894476D01*
X151765238Y-97942095D01*
%TO.C,D6*%
X118476104Y-91007740D02*
X118476104Y-90007740D01*
X118714200Y-90007740D01*
X118857057Y-90055360D01*
X118952295Y-90150598D01*
X118999914Y-90245836D01*
X119047533Y-90436312D01*
X119047533Y-90579169D01*
X118999914Y-90769645D01*
X118952295Y-90864883D01*
X118857057Y-90960121D01*
X118714200Y-91007740D01*
X118476104Y-91007740D01*
X119904676Y-90007740D02*
X119714200Y-90007740D01*
X119618961Y-90055360D01*
X119571342Y-90102979D01*
X119476104Y-90245836D01*
X119428485Y-90436312D01*
X119428485Y-90817264D01*
X119476104Y-90912502D01*
X119523723Y-90960121D01*
X119618961Y-91007740D01*
X119809438Y-91007740D01*
X119904676Y-90960121D01*
X119952295Y-90912502D01*
X119999914Y-90817264D01*
X119999914Y-90579169D01*
X119952295Y-90483931D01*
X119904676Y-90436312D01*
X119809438Y-90388693D01*
X119618961Y-90388693D01*
X119523723Y-90436312D01*
X119476104Y-90483931D01*
X119428485Y-90579169D01*
%TO.C,C10*%
X110367142Y-75473142D02*
X110319523Y-75520761D01*
X110176666Y-75568380D01*
X110081428Y-75568380D01*
X109938571Y-75520761D01*
X109843333Y-75425523D01*
X109795714Y-75330285D01*
X109748095Y-75139809D01*
X109748095Y-74996952D01*
X109795714Y-74806476D01*
X109843333Y-74711238D01*
X109938571Y-74616000D01*
X110081428Y-74568380D01*
X110176666Y-74568380D01*
X110319523Y-74616000D01*
X110367142Y-74663619D01*
X111319523Y-75568380D02*
X110748095Y-75568380D01*
X111033809Y-75568380D02*
X111033809Y-74568380D01*
X110938571Y-74711238D01*
X110843333Y-74806476D01*
X110748095Y-74854095D01*
X111938571Y-74568380D02*
X112033809Y-74568380D01*
X112129047Y-74616000D01*
X112176666Y-74663619D01*
X112224285Y-74758857D01*
X112271904Y-74949333D01*
X112271904Y-75187428D01*
X112224285Y-75377904D01*
X112176666Y-75473142D01*
X112129047Y-75520761D01*
X112033809Y-75568380D01*
X111938571Y-75568380D01*
X111843333Y-75520761D01*
X111795714Y-75473142D01*
X111748095Y-75377904D01*
X111700476Y-75187428D01*
X111700476Y-74949333D01*
X111748095Y-74758857D01*
X111795714Y-74663619D01*
X111843333Y-74616000D01*
X111938571Y-74568380D01*
%TO.C,C8*%
X104493333Y-69115142D02*
X104445714Y-69162761D01*
X104302857Y-69210380D01*
X104207619Y-69210380D01*
X104064761Y-69162761D01*
X103969523Y-69067523D01*
X103921904Y-68972285D01*
X103874285Y-68781809D01*
X103874285Y-68638952D01*
X103921904Y-68448476D01*
X103969523Y-68353238D01*
X104064761Y-68258000D01*
X104207619Y-68210380D01*
X104302857Y-68210380D01*
X104445714Y-68258000D01*
X104493333Y-68305619D01*
X105064761Y-68638952D02*
X104969523Y-68591333D01*
X104921904Y-68543714D01*
X104874285Y-68448476D01*
X104874285Y-68400857D01*
X104921904Y-68305619D01*
X104969523Y-68258000D01*
X105064761Y-68210380D01*
X105255238Y-68210380D01*
X105350476Y-68258000D01*
X105398095Y-68305619D01*
X105445714Y-68400857D01*
X105445714Y-68448476D01*
X105398095Y-68543714D01*
X105350476Y-68591333D01*
X105255238Y-68638952D01*
X105064761Y-68638952D01*
X104969523Y-68686571D01*
X104921904Y-68734190D01*
X104874285Y-68829428D01*
X104874285Y-69019904D01*
X104921904Y-69115142D01*
X104969523Y-69162761D01*
X105064761Y-69210380D01*
X105255238Y-69210380D01*
X105350476Y-69162761D01*
X105398095Y-69115142D01*
X105445714Y-69019904D01*
X105445714Y-68829428D01*
X105398095Y-68734190D01*
X105350476Y-68686571D01*
X105255238Y-68638952D01*
%TO.C,C6*%
X91174142Y-90547666D02*
X91221761Y-90595285D01*
X91269380Y-90738142D01*
X91269380Y-90833380D01*
X91221761Y-90976238D01*
X91126523Y-91071476D01*
X91031285Y-91119095D01*
X90840809Y-91166714D01*
X90697952Y-91166714D01*
X90507476Y-91119095D01*
X90412238Y-91071476D01*
X90317000Y-90976238D01*
X90269380Y-90833380D01*
X90269380Y-90738142D01*
X90317000Y-90595285D01*
X90364619Y-90547666D01*
X90269380Y-89690523D02*
X90269380Y-89881000D01*
X90317000Y-89976238D01*
X90364619Y-90023857D01*
X90507476Y-90119095D01*
X90697952Y-90166714D01*
X91078904Y-90166714D01*
X91174142Y-90119095D01*
X91221761Y-90071476D01*
X91269380Y-89976238D01*
X91269380Y-89785761D01*
X91221761Y-89690523D01*
X91174142Y-89642904D01*
X91078904Y-89595285D01*
X90840809Y-89595285D01*
X90745571Y-89642904D01*
X90697952Y-89690523D01*
X90650333Y-89785761D01*
X90650333Y-89976238D01*
X90697952Y-90071476D01*
X90745571Y-90119095D01*
X90840809Y-90166714D01*
%TO.C,C5*%
X104493333Y-72671142D02*
X104445714Y-72718761D01*
X104302857Y-72766380D01*
X104207619Y-72766380D01*
X104064761Y-72718761D01*
X103969523Y-72623523D01*
X103921904Y-72528285D01*
X103874285Y-72337809D01*
X103874285Y-72194952D01*
X103921904Y-72004476D01*
X103969523Y-71909238D01*
X104064761Y-71814000D01*
X104207619Y-71766380D01*
X104302857Y-71766380D01*
X104445714Y-71814000D01*
X104493333Y-71861619D01*
X105398095Y-71766380D02*
X104921904Y-71766380D01*
X104874285Y-72242571D01*
X104921904Y-72194952D01*
X105017142Y-72147333D01*
X105255238Y-72147333D01*
X105350476Y-72194952D01*
X105398095Y-72242571D01*
X105445714Y-72337809D01*
X105445714Y-72575904D01*
X105398095Y-72671142D01*
X105350476Y-72718761D01*
X105255238Y-72766380D01*
X105017142Y-72766380D01*
X104921904Y-72718761D01*
X104874285Y-72671142D01*
%TO.C,Y1*%
X166159809Y-79181190D02*
X166159809Y-79657380D01*
X165826476Y-78657380D02*
X166159809Y-79181190D01*
X166493142Y-78657380D01*
X167350285Y-79657380D02*
X166778857Y-79657380D01*
X167064571Y-79657380D02*
X167064571Y-78657380D01*
X166969333Y-78800238D01*
X166874095Y-78895476D01*
X166778857Y-78943095D01*
%TO.C,U4*%
X99199095Y-86658380D02*
X99199095Y-87467904D01*
X99246714Y-87563142D01*
X99294333Y-87610761D01*
X99389571Y-87658380D01*
X99580047Y-87658380D01*
X99675285Y-87610761D01*
X99722904Y-87563142D01*
X99770523Y-87467904D01*
X99770523Y-86658380D01*
X100675285Y-86991714D02*
X100675285Y-87658380D01*
X100437190Y-86610761D02*
X100199095Y-87325047D01*
X100818142Y-87325047D01*
%TO.C,R34*%
X131195142Y-63815380D02*
X130861809Y-63339190D01*
X130623714Y-63815380D02*
X130623714Y-62815380D01*
X131004666Y-62815380D01*
X131099904Y-62863000D01*
X131147523Y-62910619D01*
X131195142Y-63005857D01*
X131195142Y-63148714D01*
X131147523Y-63243952D01*
X131099904Y-63291571D01*
X131004666Y-63339190D01*
X130623714Y-63339190D01*
X131528476Y-62815380D02*
X132147523Y-62815380D01*
X131814190Y-63196333D01*
X131957047Y-63196333D01*
X132052285Y-63243952D01*
X132099904Y-63291571D01*
X132147523Y-63386809D01*
X132147523Y-63624904D01*
X132099904Y-63720142D01*
X132052285Y-63767761D01*
X131957047Y-63815380D01*
X131671333Y-63815380D01*
X131576095Y-63767761D01*
X131528476Y-63720142D01*
X133004666Y-63148714D02*
X133004666Y-63815380D01*
X132766571Y-62767761D02*
X132528476Y-63482047D01*
X133147523Y-63482047D01*
%TO.C,R33*%
X163961142Y-76830380D02*
X163627809Y-76354190D01*
X163389714Y-76830380D02*
X163389714Y-75830380D01*
X163770666Y-75830380D01*
X163865904Y-75878000D01*
X163913523Y-75925619D01*
X163961142Y-76020857D01*
X163961142Y-76163714D01*
X163913523Y-76258952D01*
X163865904Y-76306571D01*
X163770666Y-76354190D01*
X163389714Y-76354190D01*
X164294476Y-75830380D02*
X164913523Y-75830380D01*
X164580190Y-76211333D01*
X164723047Y-76211333D01*
X164818285Y-76258952D01*
X164865904Y-76306571D01*
X164913523Y-76401809D01*
X164913523Y-76639904D01*
X164865904Y-76735142D01*
X164818285Y-76782761D01*
X164723047Y-76830380D01*
X164437333Y-76830380D01*
X164342095Y-76782761D01*
X164294476Y-76735142D01*
X165246857Y-75830380D02*
X165865904Y-75830380D01*
X165532571Y-76211333D01*
X165675428Y-76211333D01*
X165770666Y-76258952D01*
X165818285Y-76306571D01*
X165865904Y-76401809D01*
X165865904Y-76639904D01*
X165818285Y-76735142D01*
X165770666Y-76782761D01*
X165675428Y-76830380D01*
X165389714Y-76830380D01*
X165294476Y-76782761D01*
X165246857Y-76735142D01*
%TO.C,R32*%
X175652162Y-91625580D02*
X175318829Y-91149390D01*
X175080734Y-91625580D02*
X175080734Y-90625580D01*
X175461686Y-90625580D01*
X175556924Y-90673200D01*
X175604543Y-90720819D01*
X175652162Y-90816057D01*
X175652162Y-90958914D01*
X175604543Y-91054152D01*
X175556924Y-91101771D01*
X175461686Y-91149390D01*
X175080734Y-91149390D01*
X175985496Y-90625580D02*
X176604543Y-90625580D01*
X176271210Y-91006533D01*
X176414067Y-91006533D01*
X176509305Y-91054152D01*
X176556924Y-91101771D01*
X176604543Y-91197009D01*
X176604543Y-91435104D01*
X176556924Y-91530342D01*
X176509305Y-91577961D01*
X176414067Y-91625580D01*
X176128353Y-91625580D01*
X176033115Y-91577961D01*
X175985496Y-91530342D01*
X176985496Y-90720819D02*
X177033115Y-90673200D01*
X177128353Y-90625580D01*
X177366448Y-90625580D01*
X177461686Y-90673200D01*
X177509305Y-90720819D01*
X177556924Y-90816057D01*
X177556924Y-90911295D01*
X177509305Y-91054152D01*
X176937877Y-91625580D01*
X177556924Y-91625580D01*
%TO.C,R31*%
X175645142Y-94643380D02*
X175311809Y-94167190D01*
X175073714Y-94643380D02*
X175073714Y-93643380D01*
X175454666Y-93643380D01*
X175549904Y-93691000D01*
X175597523Y-93738619D01*
X175645142Y-93833857D01*
X175645142Y-93976714D01*
X175597523Y-94071952D01*
X175549904Y-94119571D01*
X175454666Y-94167190D01*
X175073714Y-94167190D01*
X175978476Y-93643380D02*
X176597523Y-93643380D01*
X176264190Y-94024333D01*
X176407047Y-94024333D01*
X176502285Y-94071952D01*
X176549904Y-94119571D01*
X176597523Y-94214809D01*
X176597523Y-94452904D01*
X176549904Y-94548142D01*
X176502285Y-94595761D01*
X176407047Y-94643380D01*
X176121333Y-94643380D01*
X176026095Y-94595761D01*
X175978476Y-94548142D01*
X177549904Y-94643380D02*
X176978476Y-94643380D01*
X177264190Y-94643380D02*
X177264190Y-93643380D01*
X177168952Y-93786238D01*
X177073714Y-93881476D01*
X176978476Y-93929095D01*
%TO.C,R30*%
X171581142Y-91722380D02*
X171247809Y-91246190D01*
X171009714Y-91722380D02*
X171009714Y-90722380D01*
X171390666Y-90722380D01*
X171485904Y-90770000D01*
X171533523Y-90817619D01*
X171581142Y-90912857D01*
X171581142Y-91055714D01*
X171533523Y-91150952D01*
X171485904Y-91198571D01*
X171390666Y-91246190D01*
X171009714Y-91246190D01*
X171914476Y-90722380D02*
X172533523Y-90722380D01*
X172200190Y-91103333D01*
X172343047Y-91103333D01*
X172438285Y-91150952D01*
X172485904Y-91198571D01*
X172533523Y-91293809D01*
X172533523Y-91531904D01*
X172485904Y-91627142D01*
X172438285Y-91674761D01*
X172343047Y-91722380D01*
X172057333Y-91722380D01*
X171962095Y-91674761D01*
X171914476Y-91627142D01*
X173152571Y-90722380D02*
X173247809Y-90722380D01*
X173343047Y-90770000D01*
X173390666Y-90817619D01*
X173438285Y-90912857D01*
X173485904Y-91103333D01*
X173485904Y-91341428D01*
X173438285Y-91531904D01*
X173390666Y-91627142D01*
X173343047Y-91674761D01*
X173247809Y-91722380D01*
X173152571Y-91722380D01*
X173057333Y-91674761D01*
X173009714Y-91627142D01*
X172962095Y-91531904D01*
X172914476Y-91341428D01*
X172914476Y-91103333D01*
X172962095Y-90912857D01*
X173009714Y-90817619D01*
X173057333Y-90770000D01*
X173152571Y-90722380D01*
%TO.C,R29*%
X171581142Y-94610380D02*
X171247809Y-94134190D01*
X171009714Y-94610380D02*
X171009714Y-93610380D01*
X171390666Y-93610380D01*
X171485904Y-93658000D01*
X171533523Y-93705619D01*
X171581142Y-93800857D01*
X171581142Y-93943714D01*
X171533523Y-94038952D01*
X171485904Y-94086571D01*
X171390666Y-94134190D01*
X171009714Y-94134190D01*
X171962095Y-93705619D02*
X172009714Y-93658000D01*
X172104952Y-93610380D01*
X172343047Y-93610380D01*
X172438285Y-93658000D01*
X172485904Y-93705619D01*
X172533523Y-93800857D01*
X172533523Y-93896095D01*
X172485904Y-94038952D01*
X171914476Y-94610380D01*
X172533523Y-94610380D01*
X173009714Y-94610380D02*
X173200190Y-94610380D01*
X173295428Y-94562761D01*
X173343047Y-94515142D01*
X173438285Y-94372285D01*
X173485904Y-94181809D01*
X173485904Y-93800857D01*
X173438285Y-93705619D01*
X173390666Y-93658000D01*
X173295428Y-93610380D01*
X173104952Y-93610380D01*
X173009714Y-93658000D01*
X172962095Y-93705619D01*
X172914476Y-93800857D01*
X172914476Y-94038952D01*
X172962095Y-94134190D01*
X173009714Y-94181809D01*
X173104952Y-94229428D01*
X173295428Y-94229428D01*
X173390666Y-94181809D01*
X173438285Y-94134190D01*
X173485904Y-94038952D01*
%TO.C,R28*%
X167517142Y-91625580D02*
X167183809Y-91149390D01*
X166945714Y-91625580D02*
X166945714Y-90625580D01*
X167326666Y-90625580D01*
X167421904Y-90673200D01*
X167469523Y-90720819D01*
X167517142Y-90816057D01*
X167517142Y-90958914D01*
X167469523Y-91054152D01*
X167421904Y-91101771D01*
X167326666Y-91149390D01*
X166945714Y-91149390D01*
X167898095Y-90720819D02*
X167945714Y-90673200D01*
X168040952Y-90625580D01*
X168279047Y-90625580D01*
X168374285Y-90673200D01*
X168421904Y-90720819D01*
X168469523Y-90816057D01*
X168469523Y-90911295D01*
X168421904Y-91054152D01*
X167850476Y-91625580D01*
X168469523Y-91625580D01*
X169040952Y-91054152D02*
X168945714Y-91006533D01*
X168898095Y-90958914D01*
X168850476Y-90863676D01*
X168850476Y-90816057D01*
X168898095Y-90720819D01*
X168945714Y-90673200D01*
X169040952Y-90625580D01*
X169231428Y-90625580D01*
X169326666Y-90673200D01*
X169374285Y-90720819D01*
X169421904Y-90816057D01*
X169421904Y-90863676D01*
X169374285Y-90958914D01*
X169326666Y-91006533D01*
X169231428Y-91054152D01*
X169040952Y-91054152D01*
X168945714Y-91101771D01*
X168898095Y-91149390D01*
X168850476Y-91244628D01*
X168850476Y-91435104D01*
X168898095Y-91530342D01*
X168945714Y-91577961D01*
X169040952Y-91625580D01*
X169231428Y-91625580D01*
X169326666Y-91577961D01*
X169374285Y-91530342D01*
X169421904Y-91435104D01*
X169421904Y-91244628D01*
X169374285Y-91149390D01*
X169326666Y-91101771D01*
X169231428Y-91054152D01*
%TO.C,R27*%
X167517142Y-94643380D02*
X167183809Y-94167190D01*
X166945714Y-94643380D02*
X166945714Y-93643380D01*
X167326666Y-93643380D01*
X167421904Y-93691000D01*
X167469523Y-93738619D01*
X167517142Y-93833857D01*
X167517142Y-93976714D01*
X167469523Y-94071952D01*
X167421904Y-94119571D01*
X167326666Y-94167190D01*
X166945714Y-94167190D01*
X167898095Y-93738619D02*
X167945714Y-93691000D01*
X168040952Y-93643380D01*
X168279047Y-93643380D01*
X168374285Y-93691000D01*
X168421904Y-93738619D01*
X168469523Y-93833857D01*
X168469523Y-93929095D01*
X168421904Y-94071952D01*
X167850476Y-94643380D01*
X168469523Y-94643380D01*
X168802857Y-93643380D02*
X169469523Y-93643380D01*
X169040952Y-94643380D01*
%TO.C,R26*%
X163453142Y-91595380D02*
X163119809Y-91119190D01*
X162881714Y-91595380D02*
X162881714Y-90595380D01*
X163262666Y-90595380D01*
X163357904Y-90643000D01*
X163405523Y-90690619D01*
X163453142Y-90785857D01*
X163453142Y-90928714D01*
X163405523Y-91023952D01*
X163357904Y-91071571D01*
X163262666Y-91119190D01*
X162881714Y-91119190D01*
X163834095Y-90690619D02*
X163881714Y-90643000D01*
X163976952Y-90595380D01*
X164215047Y-90595380D01*
X164310285Y-90643000D01*
X164357904Y-90690619D01*
X164405523Y-90785857D01*
X164405523Y-90881095D01*
X164357904Y-91023952D01*
X163786476Y-91595380D01*
X164405523Y-91595380D01*
X165262666Y-90595380D02*
X165072190Y-90595380D01*
X164976952Y-90643000D01*
X164929333Y-90690619D01*
X164834095Y-90833476D01*
X164786476Y-91023952D01*
X164786476Y-91404904D01*
X164834095Y-91500142D01*
X164881714Y-91547761D01*
X164976952Y-91595380D01*
X165167428Y-91595380D01*
X165262666Y-91547761D01*
X165310285Y-91500142D01*
X165357904Y-91404904D01*
X165357904Y-91166809D01*
X165310285Y-91071571D01*
X165262666Y-91023952D01*
X165167428Y-90976333D01*
X164976952Y-90976333D01*
X164881714Y-91023952D01*
X164834095Y-91071571D01*
X164786476Y-91166809D01*
%TO.C,R25*%
X163453142Y-94610380D02*
X163119809Y-94134190D01*
X162881714Y-94610380D02*
X162881714Y-93610380D01*
X163262666Y-93610380D01*
X163357904Y-93658000D01*
X163405523Y-93705619D01*
X163453142Y-93800857D01*
X163453142Y-93943714D01*
X163405523Y-94038952D01*
X163357904Y-94086571D01*
X163262666Y-94134190D01*
X162881714Y-94134190D01*
X163834095Y-93705619D02*
X163881714Y-93658000D01*
X163976952Y-93610380D01*
X164215047Y-93610380D01*
X164310285Y-93658000D01*
X164357904Y-93705619D01*
X164405523Y-93800857D01*
X164405523Y-93896095D01*
X164357904Y-94038952D01*
X163786476Y-94610380D01*
X164405523Y-94610380D01*
X165310285Y-93610380D02*
X164834095Y-93610380D01*
X164786476Y-94086571D01*
X164834095Y-94038952D01*
X164929333Y-93991333D01*
X165167428Y-93991333D01*
X165262666Y-94038952D01*
X165310285Y-94086571D01*
X165357904Y-94181809D01*
X165357904Y-94419904D01*
X165310285Y-94515142D01*
X165262666Y-94562761D01*
X165167428Y-94610380D01*
X164929333Y-94610380D01*
X164834095Y-94562761D01*
X164786476Y-94515142D01*
%TO.C,R24*%
X159389142Y-91625580D02*
X159055809Y-91149390D01*
X158817714Y-91625580D02*
X158817714Y-90625580D01*
X159198666Y-90625580D01*
X159293904Y-90673200D01*
X159341523Y-90720819D01*
X159389142Y-90816057D01*
X159389142Y-90958914D01*
X159341523Y-91054152D01*
X159293904Y-91101771D01*
X159198666Y-91149390D01*
X158817714Y-91149390D01*
X159770095Y-90720819D02*
X159817714Y-90673200D01*
X159912952Y-90625580D01*
X160151047Y-90625580D01*
X160246285Y-90673200D01*
X160293904Y-90720819D01*
X160341523Y-90816057D01*
X160341523Y-90911295D01*
X160293904Y-91054152D01*
X159722476Y-91625580D01*
X160341523Y-91625580D01*
X161198666Y-90958914D02*
X161198666Y-91625580D01*
X160960571Y-90577961D02*
X160722476Y-91292247D01*
X161341523Y-91292247D01*
%TO.C,R23*%
X159389142Y-94516380D02*
X159055809Y-94040190D01*
X158817714Y-94516380D02*
X158817714Y-93516380D01*
X159198666Y-93516380D01*
X159293904Y-93564000D01*
X159341523Y-93611619D01*
X159389142Y-93706857D01*
X159389142Y-93849714D01*
X159341523Y-93944952D01*
X159293904Y-93992571D01*
X159198666Y-94040190D01*
X158817714Y-94040190D01*
X159770095Y-93611619D02*
X159817714Y-93564000D01*
X159912952Y-93516380D01*
X160151047Y-93516380D01*
X160246285Y-93564000D01*
X160293904Y-93611619D01*
X160341523Y-93706857D01*
X160341523Y-93802095D01*
X160293904Y-93944952D01*
X159722476Y-94516380D01*
X160341523Y-94516380D01*
X160674857Y-93516380D02*
X161293904Y-93516380D01*
X160960571Y-93897333D01*
X161103428Y-93897333D01*
X161198666Y-93944952D01*
X161246285Y-93992571D01*
X161293904Y-94087809D01*
X161293904Y-94325904D01*
X161246285Y-94421142D01*
X161198666Y-94468761D01*
X161103428Y-94516380D01*
X160817714Y-94516380D01*
X160722476Y-94468761D01*
X160674857Y-94421142D01*
%TO.C,C24*%
X168025142Y-76735142D02*
X167977523Y-76782761D01*
X167834666Y-76830380D01*
X167739428Y-76830380D01*
X167596571Y-76782761D01*
X167501333Y-76687523D01*
X167453714Y-76592285D01*
X167406095Y-76401809D01*
X167406095Y-76258952D01*
X167453714Y-76068476D01*
X167501333Y-75973238D01*
X167596571Y-75878000D01*
X167739428Y-75830380D01*
X167834666Y-75830380D01*
X167977523Y-75878000D01*
X168025142Y-75925619D01*
X168406095Y-75925619D02*
X168453714Y-75878000D01*
X168548952Y-75830380D01*
X168787047Y-75830380D01*
X168882285Y-75878000D01*
X168929904Y-75925619D01*
X168977523Y-76020857D01*
X168977523Y-76116095D01*
X168929904Y-76258952D01*
X168358476Y-76830380D01*
X168977523Y-76830380D01*
X169834666Y-76163714D02*
X169834666Y-76830380D01*
X169596571Y-75782761D02*
X169358476Y-76497047D01*
X169977523Y-76497047D01*
%TO.C,C23*%
X161675142Y-79943142D02*
X161627523Y-79990761D01*
X161484666Y-80038380D01*
X161389428Y-80038380D01*
X161246571Y-79990761D01*
X161151333Y-79895523D01*
X161103714Y-79800285D01*
X161056095Y-79609809D01*
X161056095Y-79466952D01*
X161103714Y-79276476D01*
X161151333Y-79181238D01*
X161246571Y-79086000D01*
X161389428Y-79038380D01*
X161484666Y-79038380D01*
X161627523Y-79086000D01*
X161675142Y-79133619D01*
X162056095Y-79133619D02*
X162103714Y-79086000D01*
X162198952Y-79038380D01*
X162437047Y-79038380D01*
X162532285Y-79086000D01*
X162579904Y-79133619D01*
X162627523Y-79228857D01*
X162627523Y-79324095D01*
X162579904Y-79466952D01*
X162008476Y-80038380D01*
X162627523Y-80038380D01*
X162960857Y-79038380D02*
X163579904Y-79038380D01*
X163246571Y-79419333D01*
X163389428Y-79419333D01*
X163484666Y-79466952D01*
X163532285Y-79514571D01*
X163579904Y-79609809D01*
X163579904Y-79847904D01*
X163532285Y-79943142D01*
X163484666Y-79990761D01*
X163389428Y-80038380D01*
X163103714Y-80038380D01*
X163008476Y-79990761D01*
X162960857Y-79943142D01*
%TO.C,C22*%
X175645142Y-88706142D02*
X175597523Y-88753761D01*
X175454666Y-88801380D01*
X175359428Y-88801380D01*
X175216571Y-88753761D01*
X175121333Y-88658523D01*
X175073714Y-88563285D01*
X175026095Y-88372809D01*
X175026095Y-88229952D01*
X175073714Y-88039476D01*
X175121333Y-87944238D01*
X175216571Y-87849000D01*
X175359428Y-87801380D01*
X175454666Y-87801380D01*
X175597523Y-87849000D01*
X175645142Y-87896619D01*
X176026095Y-87896619D02*
X176073714Y-87849000D01*
X176168952Y-87801380D01*
X176407047Y-87801380D01*
X176502285Y-87849000D01*
X176549904Y-87896619D01*
X176597523Y-87991857D01*
X176597523Y-88087095D01*
X176549904Y-88229952D01*
X175978476Y-88801380D01*
X176597523Y-88801380D01*
X176978476Y-87896619D02*
X177026095Y-87849000D01*
X177121333Y-87801380D01*
X177359428Y-87801380D01*
X177454666Y-87849000D01*
X177502285Y-87896619D01*
X177549904Y-87991857D01*
X177549904Y-88087095D01*
X177502285Y-88229952D01*
X176930857Y-88801380D01*
X177549904Y-88801380D01*
%TO.C,C21*%
X171581142Y-88673142D02*
X171533523Y-88720761D01*
X171390666Y-88768380D01*
X171295428Y-88768380D01*
X171152571Y-88720761D01*
X171057333Y-88625523D01*
X171009714Y-88530285D01*
X170962095Y-88339809D01*
X170962095Y-88196952D01*
X171009714Y-88006476D01*
X171057333Y-87911238D01*
X171152571Y-87816000D01*
X171295428Y-87768380D01*
X171390666Y-87768380D01*
X171533523Y-87816000D01*
X171581142Y-87863619D01*
X171962095Y-87863619D02*
X172009714Y-87816000D01*
X172104952Y-87768380D01*
X172343047Y-87768380D01*
X172438285Y-87816000D01*
X172485904Y-87863619D01*
X172533523Y-87958857D01*
X172533523Y-88054095D01*
X172485904Y-88196952D01*
X171914476Y-88768380D01*
X172533523Y-88768380D01*
X173485904Y-88768380D02*
X172914476Y-88768380D01*
X173200190Y-88768380D02*
X173200190Y-87768380D01*
X173104952Y-87911238D01*
X173009714Y-88006476D01*
X172914476Y-88054095D01*
%TO.C,C20*%
X167517142Y-88706142D02*
X167469523Y-88753761D01*
X167326666Y-88801380D01*
X167231428Y-88801380D01*
X167088571Y-88753761D01*
X166993333Y-88658523D01*
X166945714Y-88563285D01*
X166898095Y-88372809D01*
X166898095Y-88229952D01*
X166945714Y-88039476D01*
X166993333Y-87944238D01*
X167088571Y-87849000D01*
X167231428Y-87801380D01*
X167326666Y-87801380D01*
X167469523Y-87849000D01*
X167517142Y-87896619D01*
X167898095Y-87896619D02*
X167945714Y-87849000D01*
X168040952Y-87801380D01*
X168279047Y-87801380D01*
X168374285Y-87849000D01*
X168421904Y-87896619D01*
X168469523Y-87991857D01*
X168469523Y-88087095D01*
X168421904Y-88229952D01*
X167850476Y-88801380D01*
X168469523Y-88801380D01*
X169088571Y-87801380D02*
X169183809Y-87801380D01*
X169279047Y-87849000D01*
X169326666Y-87896619D01*
X169374285Y-87991857D01*
X169421904Y-88182333D01*
X169421904Y-88420428D01*
X169374285Y-88610904D01*
X169326666Y-88706142D01*
X169279047Y-88753761D01*
X169183809Y-88801380D01*
X169088571Y-88801380D01*
X168993333Y-88753761D01*
X168945714Y-88706142D01*
X168898095Y-88610904D01*
X168850476Y-88420428D01*
X168850476Y-88182333D01*
X168898095Y-87991857D01*
X168945714Y-87896619D01*
X168993333Y-87849000D01*
X169088571Y-87801380D01*
%TO.C,C19*%
X163453142Y-88673142D02*
X163405523Y-88720761D01*
X163262666Y-88768380D01*
X163167428Y-88768380D01*
X163024571Y-88720761D01*
X162929333Y-88625523D01*
X162881714Y-88530285D01*
X162834095Y-88339809D01*
X162834095Y-88196952D01*
X162881714Y-88006476D01*
X162929333Y-87911238D01*
X163024571Y-87816000D01*
X163167428Y-87768380D01*
X163262666Y-87768380D01*
X163405523Y-87816000D01*
X163453142Y-87863619D01*
X164405523Y-88768380D02*
X163834095Y-88768380D01*
X164119809Y-88768380D02*
X164119809Y-87768380D01*
X164024571Y-87911238D01*
X163929333Y-88006476D01*
X163834095Y-88054095D01*
X164881714Y-88768380D02*
X165072190Y-88768380D01*
X165167428Y-88720761D01*
X165215047Y-88673142D01*
X165310285Y-88530285D01*
X165357904Y-88339809D01*
X165357904Y-87958857D01*
X165310285Y-87863619D01*
X165262666Y-87816000D01*
X165167428Y-87768380D01*
X164976952Y-87768380D01*
X164881714Y-87816000D01*
X164834095Y-87863619D01*
X164786476Y-87958857D01*
X164786476Y-88196952D01*
X164834095Y-88292190D01*
X164881714Y-88339809D01*
X164976952Y-88387428D01*
X165167428Y-88387428D01*
X165262666Y-88339809D01*
X165310285Y-88292190D01*
X165357904Y-88196952D01*
%TO.C,C18*%
X159389142Y-88706142D02*
X159341523Y-88753761D01*
X159198666Y-88801380D01*
X159103428Y-88801380D01*
X158960571Y-88753761D01*
X158865333Y-88658523D01*
X158817714Y-88563285D01*
X158770095Y-88372809D01*
X158770095Y-88229952D01*
X158817714Y-88039476D01*
X158865333Y-87944238D01*
X158960571Y-87849000D01*
X159103428Y-87801380D01*
X159198666Y-87801380D01*
X159341523Y-87849000D01*
X159389142Y-87896619D01*
X160341523Y-88801380D02*
X159770095Y-88801380D01*
X160055809Y-88801380D02*
X160055809Y-87801380D01*
X159960571Y-87944238D01*
X159865333Y-88039476D01*
X159770095Y-88087095D01*
X160912952Y-88229952D02*
X160817714Y-88182333D01*
X160770095Y-88134714D01*
X160722476Y-88039476D01*
X160722476Y-87991857D01*
X160770095Y-87896619D01*
X160817714Y-87849000D01*
X160912952Y-87801380D01*
X161103428Y-87801380D01*
X161198666Y-87849000D01*
X161246285Y-87896619D01*
X161293904Y-87991857D01*
X161293904Y-88039476D01*
X161246285Y-88134714D01*
X161198666Y-88182333D01*
X161103428Y-88229952D01*
X160912952Y-88229952D01*
X160817714Y-88277571D01*
X160770095Y-88325190D01*
X160722476Y-88420428D01*
X160722476Y-88610904D01*
X160770095Y-88706142D01*
X160817714Y-88753761D01*
X160912952Y-88801380D01*
X161103428Y-88801380D01*
X161198666Y-88753761D01*
X161246285Y-88706142D01*
X161293904Y-88610904D01*
X161293904Y-88420428D01*
X161246285Y-88325190D01*
X161198666Y-88277571D01*
X161103428Y-88229952D01*
%TO.C,C17*%
X155325142Y-88673142D02*
X155277523Y-88720761D01*
X155134666Y-88768380D01*
X155039428Y-88768380D01*
X154896571Y-88720761D01*
X154801333Y-88625523D01*
X154753714Y-88530285D01*
X154706095Y-88339809D01*
X154706095Y-88196952D01*
X154753714Y-88006476D01*
X154801333Y-87911238D01*
X154896571Y-87816000D01*
X155039428Y-87768380D01*
X155134666Y-87768380D01*
X155277523Y-87816000D01*
X155325142Y-87863619D01*
X156277523Y-88768380D02*
X155706095Y-88768380D01*
X155991809Y-88768380D02*
X155991809Y-87768380D01*
X155896571Y-87911238D01*
X155801333Y-88006476D01*
X155706095Y-88054095D01*
X156610857Y-87768380D02*
X157277523Y-87768380D01*
X156848952Y-88768380D01*
%TO.C,C16*%
X126369142Y-88736342D02*
X126321523Y-88783961D01*
X126178666Y-88831580D01*
X126083428Y-88831580D01*
X125940571Y-88783961D01*
X125845333Y-88688723D01*
X125797714Y-88593485D01*
X125750095Y-88403009D01*
X125750095Y-88260152D01*
X125797714Y-88069676D01*
X125845333Y-87974438D01*
X125940571Y-87879200D01*
X126083428Y-87831580D01*
X126178666Y-87831580D01*
X126321523Y-87879200D01*
X126369142Y-87926819D01*
X127321523Y-88831580D02*
X126750095Y-88831580D01*
X127035809Y-88831580D02*
X127035809Y-87831580D01*
X126940571Y-87974438D01*
X126845333Y-88069676D01*
X126750095Y-88117295D01*
X128178666Y-87831580D02*
X127988190Y-87831580D01*
X127892952Y-87879200D01*
X127845333Y-87926819D01*
X127750095Y-88069676D01*
X127702476Y-88260152D01*
X127702476Y-88641104D01*
X127750095Y-88736342D01*
X127797714Y-88783961D01*
X127892952Y-88831580D01*
X128083428Y-88831580D01*
X128178666Y-88783961D01*
X128226285Y-88736342D01*
X128273904Y-88641104D01*
X128273904Y-88403009D01*
X128226285Y-88307771D01*
X128178666Y-88260152D01*
X128083428Y-88212533D01*
X127892952Y-88212533D01*
X127797714Y-88260152D01*
X127750095Y-88307771D01*
X127702476Y-88403009D01*
%TO.C,C15*%
X134497142Y-88736342D02*
X134449523Y-88783961D01*
X134306666Y-88831580D01*
X134211428Y-88831580D01*
X134068571Y-88783961D01*
X133973333Y-88688723D01*
X133925714Y-88593485D01*
X133878095Y-88403009D01*
X133878095Y-88260152D01*
X133925714Y-88069676D01*
X133973333Y-87974438D01*
X134068571Y-87879200D01*
X134211428Y-87831580D01*
X134306666Y-87831580D01*
X134449523Y-87879200D01*
X134497142Y-87926819D01*
X135449523Y-88831580D02*
X134878095Y-88831580D01*
X135163809Y-88831580D02*
X135163809Y-87831580D01*
X135068571Y-87974438D01*
X134973333Y-88069676D01*
X134878095Y-88117295D01*
X136354285Y-87831580D02*
X135878095Y-87831580D01*
X135830476Y-88307771D01*
X135878095Y-88260152D01*
X135973333Y-88212533D01*
X136211428Y-88212533D01*
X136306666Y-88260152D01*
X136354285Y-88307771D01*
X136401904Y-88403009D01*
X136401904Y-88641104D01*
X136354285Y-88736342D01*
X136306666Y-88783961D01*
X136211428Y-88831580D01*
X135973333Y-88831580D01*
X135878095Y-88783961D01*
X135830476Y-88736342D01*
%TO.C,C14*%
X130433142Y-88706142D02*
X130385523Y-88753761D01*
X130242666Y-88801380D01*
X130147428Y-88801380D01*
X130004571Y-88753761D01*
X129909333Y-88658523D01*
X129861714Y-88563285D01*
X129814095Y-88372809D01*
X129814095Y-88229952D01*
X129861714Y-88039476D01*
X129909333Y-87944238D01*
X130004571Y-87849000D01*
X130147428Y-87801380D01*
X130242666Y-87801380D01*
X130385523Y-87849000D01*
X130433142Y-87896619D01*
X131385523Y-88801380D02*
X130814095Y-88801380D01*
X131099809Y-88801380D02*
X131099809Y-87801380D01*
X131004571Y-87944238D01*
X130909333Y-88039476D01*
X130814095Y-88087095D01*
X132242666Y-88134714D02*
X132242666Y-88801380D01*
X132004571Y-87753761D02*
X131766476Y-88468047D01*
X132385523Y-88468047D01*
%TO.C,U3*%
X132854095Y-73323380D02*
X132854095Y-74132904D01*
X132901714Y-74228142D01*
X132949333Y-74275761D01*
X133044571Y-74323380D01*
X133235047Y-74323380D01*
X133330285Y-74275761D01*
X133377904Y-74228142D01*
X133425523Y-74132904D01*
X133425523Y-73323380D01*
X133806476Y-73323380D02*
X134425523Y-73323380D01*
X134092190Y-73704333D01*
X134235047Y-73704333D01*
X134330285Y-73751952D01*
X134377904Y-73799571D01*
X134425523Y-73894809D01*
X134425523Y-74132904D01*
X134377904Y-74228142D01*
X134330285Y-74275761D01*
X134235047Y-74323380D01*
X133949333Y-74323380D01*
X133854095Y-74275761D01*
X133806476Y-74228142D01*
%TO.C,U1*%
X96978095Y-74918380D02*
X96978095Y-75727904D01*
X97025714Y-75823142D01*
X97073333Y-75870761D01*
X97168571Y-75918380D01*
X97359047Y-75918380D01*
X97454285Y-75870761D01*
X97501904Y-75823142D01*
X97549523Y-75727904D01*
X97549523Y-74918380D01*
X98549523Y-75918380D02*
X97978095Y-75918380D01*
X98263809Y-75918380D02*
X98263809Y-74918380D01*
X98168571Y-75061238D01*
X98073333Y-75156476D01*
X97978095Y-75204095D01*
%TO.C,SW1*%
X166318666Y-64877761D02*
X166461523Y-64925380D01*
X166699619Y-64925380D01*
X166794857Y-64877761D01*
X166842476Y-64830142D01*
X166890095Y-64734904D01*
X166890095Y-64639666D01*
X166842476Y-64544428D01*
X166794857Y-64496809D01*
X166699619Y-64449190D01*
X166509142Y-64401571D01*
X166413904Y-64353952D01*
X166366285Y-64306333D01*
X166318666Y-64211095D01*
X166318666Y-64115857D01*
X166366285Y-64020619D01*
X166413904Y-63973000D01*
X166509142Y-63925380D01*
X166747238Y-63925380D01*
X166890095Y-63973000D01*
X167223428Y-63925380D02*
X167461523Y-64925380D01*
X167652000Y-64211095D01*
X167842476Y-64925380D01*
X168080571Y-63925380D01*
X168985333Y-64925380D02*
X168413904Y-64925380D01*
X168699619Y-64925380D02*
X168699619Y-63925380D01*
X168604380Y-64068238D01*
X168509142Y-64163476D01*
X168413904Y-64211095D01*
%TO.C,R22*%
X155325142Y-91595380D02*
X154991809Y-91119190D01*
X154753714Y-91595380D02*
X154753714Y-90595380D01*
X155134666Y-90595380D01*
X155229904Y-90643000D01*
X155277523Y-90690619D01*
X155325142Y-90785857D01*
X155325142Y-90928714D01*
X155277523Y-91023952D01*
X155229904Y-91071571D01*
X155134666Y-91119190D01*
X154753714Y-91119190D01*
X155706095Y-90690619D02*
X155753714Y-90643000D01*
X155848952Y-90595380D01*
X156087047Y-90595380D01*
X156182285Y-90643000D01*
X156229904Y-90690619D01*
X156277523Y-90785857D01*
X156277523Y-90881095D01*
X156229904Y-91023952D01*
X155658476Y-91595380D01*
X156277523Y-91595380D01*
X156658476Y-90690619D02*
X156706095Y-90643000D01*
X156801333Y-90595380D01*
X157039428Y-90595380D01*
X157134666Y-90643000D01*
X157182285Y-90690619D01*
X157229904Y-90785857D01*
X157229904Y-90881095D01*
X157182285Y-91023952D01*
X156610857Y-91595380D01*
X157229904Y-91595380D01*
%TO.C,R21*%
X155325142Y-94610380D02*
X154991809Y-94134190D01*
X154753714Y-94610380D02*
X154753714Y-93610380D01*
X155134666Y-93610380D01*
X155229904Y-93658000D01*
X155277523Y-93705619D01*
X155325142Y-93800857D01*
X155325142Y-93943714D01*
X155277523Y-94038952D01*
X155229904Y-94086571D01*
X155134666Y-94134190D01*
X154753714Y-94134190D01*
X155706095Y-93705619D02*
X155753714Y-93658000D01*
X155848952Y-93610380D01*
X156087047Y-93610380D01*
X156182285Y-93658000D01*
X156229904Y-93705619D01*
X156277523Y-93800857D01*
X156277523Y-93896095D01*
X156229904Y-94038952D01*
X155658476Y-94610380D01*
X156277523Y-94610380D01*
X157229904Y-94610380D02*
X156658476Y-94610380D01*
X156944190Y-94610380D02*
X156944190Y-93610380D01*
X156848952Y-93753238D01*
X156753714Y-93848476D01*
X156658476Y-93896095D01*
%TO.C,R20*%
X126490162Y-91722380D02*
X126156829Y-91246190D01*
X125918734Y-91722380D02*
X125918734Y-90722380D01*
X126299686Y-90722380D01*
X126394924Y-90770000D01*
X126442543Y-90817619D01*
X126490162Y-90912857D01*
X126490162Y-91055714D01*
X126442543Y-91150952D01*
X126394924Y-91198571D01*
X126299686Y-91246190D01*
X125918734Y-91246190D01*
X126871115Y-90817619D02*
X126918734Y-90770000D01*
X127013972Y-90722380D01*
X127252067Y-90722380D01*
X127347305Y-90770000D01*
X127394924Y-90817619D01*
X127442543Y-90912857D01*
X127442543Y-91008095D01*
X127394924Y-91150952D01*
X126823496Y-91722380D01*
X127442543Y-91722380D01*
X128061591Y-90722380D02*
X128156829Y-90722380D01*
X128252067Y-90770000D01*
X128299686Y-90817619D01*
X128347305Y-90912857D01*
X128394924Y-91103333D01*
X128394924Y-91341428D01*
X128347305Y-91531904D01*
X128299686Y-91627142D01*
X128252067Y-91674761D01*
X128156829Y-91722380D01*
X128061591Y-91722380D01*
X127966353Y-91674761D01*
X127918734Y-91627142D01*
X127871115Y-91531904D01*
X127823496Y-91341428D01*
X127823496Y-91103333D01*
X127871115Y-90912857D01*
X127918734Y-90817619D01*
X127966353Y-90770000D01*
X128061591Y-90722380D01*
%TO.C,R19*%
X126490162Y-94673580D02*
X126156829Y-94197390D01*
X125918734Y-94673580D02*
X125918734Y-93673580D01*
X126299686Y-93673580D01*
X126394924Y-93721200D01*
X126442543Y-93768819D01*
X126490162Y-93864057D01*
X126490162Y-94006914D01*
X126442543Y-94102152D01*
X126394924Y-94149771D01*
X126299686Y-94197390D01*
X125918734Y-94197390D01*
X127442543Y-94673580D02*
X126871115Y-94673580D01*
X127156829Y-94673580D02*
X127156829Y-93673580D01*
X127061591Y-93816438D01*
X126966353Y-93911676D01*
X126871115Y-93959295D01*
X127918734Y-94673580D02*
X128109210Y-94673580D01*
X128204448Y-94625961D01*
X128252067Y-94578342D01*
X128347305Y-94435485D01*
X128394924Y-94245009D01*
X128394924Y-93864057D01*
X128347305Y-93768819D01*
X128299686Y-93721200D01*
X128204448Y-93673580D01*
X128013972Y-93673580D01*
X127918734Y-93721200D01*
X127871115Y-93768819D01*
X127823496Y-93864057D01*
X127823496Y-94102152D01*
X127871115Y-94197390D01*
X127918734Y-94245009D01*
X128013972Y-94292628D01*
X128204448Y-94292628D01*
X128299686Y-94245009D01*
X128347305Y-94197390D01*
X128394924Y-94102152D01*
%TO.C,R18*%
X134497142Y-91595380D02*
X134163809Y-91119190D01*
X133925714Y-91595380D02*
X133925714Y-90595380D01*
X134306666Y-90595380D01*
X134401904Y-90643000D01*
X134449523Y-90690619D01*
X134497142Y-90785857D01*
X134497142Y-90928714D01*
X134449523Y-91023952D01*
X134401904Y-91071571D01*
X134306666Y-91119190D01*
X133925714Y-91119190D01*
X135449523Y-91595380D02*
X134878095Y-91595380D01*
X135163809Y-91595380D02*
X135163809Y-90595380D01*
X135068571Y-90738238D01*
X134973333Y-90833476D01*
X134878095Y-90881095D01*
X136020952Y-91023952D02*
X135925714Y-90976333D01*
X135878095Y-90928714D01*
X135830476Y-90833476D01*
X135830476Y-90785857D01*
X135878095Y-90690619D01*
X135925714Y-90643000D01*
X136020952Y-90595380D01*
X136211428Y-90595380D01*
X136306666Y-90643000D01*
X136354285Y-90690619D01*
X136401904Y-90785857D01*
X136401904Y-90833476D01*
X136354285Y-90928714D01*
X136306666Y-90976333D01*
X136211428Y-91023952D01*
X136020952Y-91023952D01*
X135925714Y-91071571D01*
X135878095Y-91119190D01*
X135830476Y-91214428D01*
X135830476Y-91404904D01*
X135878095Y-91500142D01*
X135925714Y-91547761D01*
X136020952Y-91595380D01*
X136211428Y-91595380D01*
X136306666Y-91547761D01*
X136354285Y-91500142D01*
X136401904Y-91404904D01*
X136401904Y-91214428D01*
X136354285Y-91119190D01*
X136306666Y-91071571D01*
X136211428Y-91023952D01*
%TO.C,R17*%
X134497142Y-94673580D02*
X134163809Y-94197390D01*
X133925714Y-94673580D02*
X133925714Y-93673580D01*
X134306666Y-93673580D01*
X134401904Y-93721200D01*
X134449523Y-93768819D01*
X134497142Y-93864057D01*
X134497142Y-94006914D01*
X134449523Y-94102152D01*
X134401904Y-94149771D01*
X134306666Y-94197390D01*
X133925714Y-94197390D01*
X135449523Y-94673580D02*
X134878095Y-94673580D01*
X135163809Y-94673580D02*
X135163809Y-93673580D01*
X135068571Y-93816438D01*
X134973333Y-93911676D01*
X134878095Y-93959295D01*
X135782857Y-93673580D02*
X136449523Y-93673580D01*
X136020952Y-94673580D01*
%TO.C,R16*%
X130440162Y-91625580D02*
X130106829Y-91149390D01*
X129868734Y-91625580D02*
X129868734Y-90625580D01*
X130249686Y-90625580D01*
X130344924Y-90673200D01*
X130392543Y-90720819D01*
X130440162Y-90816057D01*
X130440162Y-90958914D01*
X130392543Y-91054152D01*
X130344924Y-91101771D01*
X130249686Y-91149390D01*
X129868734Y-91149390D01*
X131392543Y-91625580D02*
X130821115Y-91625580D01*
X131106829Y-91625580D02*
X131106829Y-90625580D01*
X131011591Y-90768438D01*
X130916353Y-90863676D01*
X130821115Y-90911295D01*
X132249686Y-90625580D02*
X132059210Y-90625580D01*
X131963972Y-90673200D01*
X131916353Y-90720819D01*
X131821115Y-90863676D01*
X131773496Y-91054152D01*
X131773496Y-91435104D01*
X131821115Y-91530342D01*
X131868734Y-91577961D01*
X131963972Y-91625580D01*
X132154448Y-91625580D01*
X132249686Y-91577961D01*
X132297305Y-91530342D01*
X132344924Y-91435104D01*
X132344924Y-91197009D01*
X132297305Y-91101771D01*
X132249686Y-91054152D01*
X132154448Y-91006533D01*
X131963972Y-91006533D01*
X131868734Y-91054152D01*
X131821115Y-91101771D01*
X131773496Y-91197009D01*
%TO.C,R15*%
X130433142Y-94516380D02*
X130099809Y-94040190D01*
X129861714Y-94516380D02*
X129861714Y-93516380D01*
X130242666Y-93516380D01*
X130337904Y-93564000D01*
X130385523Y-93611619D01*
X130433142Y-93706857D01*
X130433142Y-93849714D01*
X130385523Y-93944952D01*
X130337904Y-93992571D01*
X130242666Y-94040190D01*
X129861714Y-94040190D01*
X131385523Y-94516380D02*
X130814095Y-94516380D01*
X131099809Y-94516380D02*
X131099809Y-93516380D01*
X131004571Y-93659238D01*
X130909333Y-93754476D01*
X130814095Y-93802095D01*
X132290285Y-93516380D02*
X131814095Y-93516380D01*
X131766476Y-93992571D01*
X131814095Y-93944952D01*
X131909333Y-93897333D01*
X132147428Y-93897333D01*
X132242666Y-93944952D01*
X132290285Y-93992571D01*
X132337904Y-94087809D01*
X132337904Y-94325904D01*
X132290285Y-94421142D01*
X132242666Y-94468761D01*
X132147428Y-94516380D01*
X131909333Y-94516380D01*
X131814095Y-94468761D01*
X131766476Y-94421142D01*
%TO.C,R14*%
X146626142Y-91625580D02*
X146292809Y-91149390D01*
X146054714Y-91625580D02*
X146054714Y-90625580D01*
X146435666Y-90625580D01*
X146530904Y-90673200D01*
X146578523Y-90720819D01*
X146626142Y-90816057D01*
X146626142Y-90958914D01*
X146578523Y-91054152D01*
X146530904Y-91101771D01*
X146435666Y-91149390D01*
X146054714Y-91149390D01*
X147578523Y-91625580D02*
X147007095Y-91625580D01*
X147292809Y-91625580D02*
X147292809Y-90625580D01*
X147197571Y-90768438D01*
X147102333Y-90863676D01*
X147007095Y-90911295D01*
X148435666Y-90958914D02*
X148435666Y-91625580D01*
X148197571Y-90577961D02*
X147959476Y-91292247D01*
X148578523Y-91292247D01*
%TO.C,R13*%
X146689142Y-94516380D02*
X146355809Y-94040190D01*
X146117714Y-94516380D02*
X146117714Y-93516380D01*
X146498666Y-93516380D01*
X146593904Y-93564000D01*
X146641523Y-93611619D01*
X146689142Y-93706857D01*
X146689142Y-93849714D01*
X146641523Y-93944952D01*
X146593904Y-93992571D01*
X146498666Y-94040190D01*
X146117714Y-94040190D01*
X147641523Y-94516380D02*
X147070095Y-94516380D01*
X147355809Y-94516380D02*
X147355809Y-93516380D01*
X147260571Y-93659238D01*
X147165333Y-93754476D01*
X147070095Y-93802095D01*
X147974857Y-93516380D02*
X148593904Y-93516380D01*
X148260571Y-93897333D01*
X148403428Y-93897333D01*
X148498666Y-93944952D01*
X148546285Y-93992571D01*
X148593904Y-94087809D01*
X148593904Y-94325904D01*
X148546285Y-94421142D01*
X148498666Y-94468761D01*
X148403428Y-94516380D01*
X148117714Y-94516380D01*
X148022476Y-94468761D01*
X147974857Y-94421142D01*
%TO.C,R12*%
X142625142Y-91595380D02*
X142291809Y-91119190D01*
X142053714Y-91595380D02*
X142053714Y-90595380D01*
X142434666Y-90595380D01*
X142529904Y-90643000D01*
X142577523Y-90690619D01*
X142625142Y-90785857D01*
X142625142Y-90928714D01*
X142577523Y-91023952D01*
X142529904Y-91071571D01*
X142434666Y-91119190D01*
X142053714Y-91119190D01*
X143577523Y-91595380D02*
X143006095Y-91595380D01*
X143291809Y-91595380D02*
X143291809Y-90595380D01*
X143196571Y-90738238D01*
X143101333Y-90833476D01*
X143006095Y-90881095D01*
X143958476Y-90690619D02*
X144006095Y-90643000D01*
X144101333Y-90595380D01*
X144339428Y-90595380D01*
X144434666Y-90643000D01*
X144482285Y-90690619D01*
X144529904Y-90785857D01*
X144529904Y-90881095D01*
X144482285Y-91023952D01*
X143910857Y-91595380D01*
X144529904Y-91595380D01*
%TO.C,R11*%
X142625142Y-94673580D02*
X142291809Y-94197390D01*
X142053714Y-94673580D02*
X142053714Y-93673580D01*
X142434666Y-93673580D01*
X142529904Y-93721200D01*
X142577523Y-93768819D01*
X142625142Y-93864057D01*
X142625142Y-94006914D01*
X142577523Y-94102152D01*
X142529904Y-94149771D01*
X142434666Y-94197390D01*
X142053714Y-94197390D01*
X143577523Y-94673580D02*
X143006095Y-94673580D01*
X143291809Y-94673580D02*
X143291809Y-93673580D01*
X143196571Y-93816438D01*
X143101333Y-93911676D01*
X143006095Y-93959295D01*
X144529904Y-94673580D02*
X143958476Y-94673580D01*
X144244190Y-94673580D02*
X144244190Y-93673580D01*
X144148952Y-93816438D01*
X144053714Y-93911676D01*
X143958476Y-93959295D01*
%TO.C,R10*%
X138568162Y-91625580D02*
X138234829Y-91149390D01*
X137996734Y-91625580D02*
X137996734Y-90625580D01*
X138377686Y-90625580D01*
X138472924Y-90673200D01*
X138520543Y-90720819D01*
X138568162Y-90816057D01*
X138568162Y-90958914D01*
X138520543Y-91054152D01*
X138472924Y-91101771D01*
X138377686Y-91149390D01*
X137996734Y-91149390D01*
X139520543Y-91625580D02*
X138949115Y-91625580D01*
X139234829Y-91625580D02*
X139234829Y-90625580D01*
X139139591Y-90768438D01*
X139044353Y-90863676D01*
X138949115Y-90911295D01*
X140139591Y-90625580D02*
X140234829Y-90625580D01*
X140330067Y-90673200D01*
X140377686Y-90720819D01*
X140425305Y-90816057D01*
X140472924Y-91006533D01*
X140472924Y-91244628D01*
X140425305Y-91435104D01*
X140377686Y-91530342D01*
X140330067Y-91577961D01*
X140234829Y-91625580D01*
X140139591Y-91625580D01*
X140044353Y-91577961D01*
X139996734Y-91530342D01*
X139949115Y-91435104D01*
X139901496Y-91244628D01*
X139901496Y-91006533D01*
X139949115Y-90816057D01*
X139996734Y-90720819D01*
X140044353Y-90673200D01*
X140139591Y-90625580D01*
%TO.C,R9*%
X139037333Y-94643380D02*
X138704000Y-94167190D01*
X138465904Y-94643380D02*
X138465904Y-93643380D01*
X138846857Y-93643380D01*
X138942095Y-93691000D01*
X138989714Y-93738619D01*
X139037333Y-93833857D01*
X139037333Y-93976714D01*
X138989714Y-94071952D01*
X138942095Y-94119571D01*
X138846857Y-94167190D01*
X138465904Y-94167190D01*
X139513523Y-94643380D02*
X139704000Y-94643380D01*
X139799238Y-94595761D01*
X139846857Y-94548142D01*
X139942095Y-94405285D01*
X139989714Y-94214809D01*
X139989714Y-93833857D01*
X139942095Y-93738619D01*
X139894476Y-93691000D01*
X139799238Y-93643380D01*
X139608761Y-93643380D01*
X139513523Y-93691000D01*
X139465904Y-93738619D01*
X139418285Y-93833857D01*
X139418285Y-94071952D01*
X139465904Y-94167190D01*
X139513523Y-94214809D01*
X139608761Y-94262428D01*
X139799238Y-94262428D01*
X139894476Y-94214809D01*
X139942095Y-94167190D01*
X139989714Y-94071952D01*
%TO.C,R8*%
X103096333Y-84737380D02*
X102763000Y-84261190D01*
X102524904Y-84737380D02*
X102524904Y-83737380D01*
X102905857Y-83737380D01*
X103001095Y-83785000D01*
X103048714Y-83832619D01*
X103096333Y-83927857D01*
X103096333Y-84070714D01*
X103048714Y-84165952D01*
X103001095Y-84213571D01*
X102905857Y-84261190D01*
X102524904Y-84261190D01*
X103667761Y-84165952D02*
X103572523Y-84118333D01*
X103524904Y-84070714D01*
X103477285Y-83975476D01*
X103477285Y-83927857D01*
X103524904Y-83832619D01*
X103572523Y-83785000D01*
X103667761Y-83737380D01*
X103858238Y-83737380D01*
X103953476Y-83785000D01*
X104001095Y-83832619D01*
X104048714Y-83927857D01*
X104048714Y-83975476D01*
X104001095Y-84070714D01*
X103953476Y-84118333D01*
X103858238Y-84165952D01*
X103667761Y-84165952D01*
X103572523Y-84213571D01*
X103524904Y-84261190D01*
X103477285Y-84356428D01*
X103477285Y-84546904D01*
X103524904Y-84642142D01*
X103572523Y-84689761D01*
X103667761Y-84737380D01*
X103858238Y-84737380D01*
X103953476Y-84689761D01*
X104001095Y-84642142D01*
X104048714Y-84546904D01*
X104048714Y-84356428D01*
X104001095Y-84261190D01*
X103953476Y-84213571D01*
X103858238Y-84165952D01*
%TO.C,R7*%
X126083333Y-63815380D02*
X125750000Y-63339190D01*
X125511904Y-63815380D02*
X125511904Y-62815380D01*
X125892857Y-62815380D01*
X125988095Y-62863000D01*
X126035714Y-62910619D01*
X126083333Y-63005857D01*
X126083333Y-63148714D01*
X126035714Y-63243952D01*
X125988095Y-63291571D01*
X125892857Y-63339190D01*
X125511904Y-63339190D01*
X126416666Y-62815380D02*
X127083333Y-62815380D01*
X126654761Y-63815380D01*
%TO.C,R6*%
X132179333Y-81402380D02*
X131846000Y-80926190D01*
X131607904Y-81402380D02*
X131607904Y-80402380D01*
X131988857Y-80402380D01*
X132084095Y-80450000D01*
X132131714Y-80497619D01*
X132179333Y-80592857D01*
X132179333Y-80735714D01*
X132131714Y-80830952D01*
X132084095Y-80878571D01*
X131988857Y-80926190D01*
X131607904Y-80926190D01*
X133036476Y-80402380D02*
X132846000Y-80402380D01*
X132750761Y-80450000D01*
X132703142Y-80497619D01*
X132607904Y-80640476D01*
X132560285Y-80830952D01*
X132560285Y-81211904D01*
X132607904Y-81307142D01*
X132655523Y-81354761D01*
X132750761Y-81402380D01*
X132941238Y-81402380D01*
X133036476Y-81354761D01*
X133084095Y-81307142D01*
X133131714Y-81211904D01*
X133131714Y-80973809D01*
X133084095Y-80878571D01*
X133036476Y-80830952D01*
X132941238Y-80783333D01*
X132750761Y-80783333D01*
X132655523Y-80830952D01*
X132607904Y-80878571D01*
X132560285Y-80973809D01*
%TO.C,R5*%
X120495333Y-63815380D02*
X120162000Y-63339190D01*
X119923904Y-63815380D02*
X119923904Y-62815380D01*
X120304857Y-62815380D01*
X120400095Y-62863000D01*
X120447714Y-62910619D01*
X120495333Y-63005857D01*
X120495333Y-63148714D01*
X120447714Y-63243952D01*
X120400095Y-63291571D01*
X120304857Y-63339190D01*
X119923904Y-63339190D01*
X121400095Y-62815380D02*
X120923904Y-62815380D01*
X120876285Y-63291571D01*
X120923904Y-63243952D01*
X121019142Y-63196333D01*
X121257238Y-63196333D01*
X121352476Y-63243952D01*
X121400095Y-63291571D01*
X121447714Y-63386809D01*
X121447714Y-63624904D01*
X121400095Y-63720142D01*
X121352476Y-63767761D01*
X121257238Y-63815380D01*
X121019142Y-63815380D01*
X120923904Y-63767761D01*
X120876285Y-63720142D01*
%TO.C,R4*%
X114907333Y-63815380D02*
X114574000Y-63339190D01*
X114335904Y-63815380D02*
X114335904Y-62815380D01*
X114716857Y-62815380D01*
X114812095Y-62863000D01*
X114859714Y-62910619D01*
X114907333Y-63005857D01*
X114907333Y-63148714D01*
X114859714Y-63243952D01*
X114812095Y-63291571D01*
X114716857Y-63339190D01*
X114335904Y-63339190D01*
X115764476Y-63148714D02*
X115764476Y-63815380D01*
X115526380Y-62767761D02*
X115288285Y-63482047D01*
X115907333Y-63482047D01*
%TO.C,R3*%
X158849333Y-62606380D02*
X158516000Y-62130190D01*
X158277904Y-62606380D02*
X158277904Y-61606380D01*
X158658857Y-61606380D01*
X158754095Y-61654000D01*
X158801714Y-61701619D01*
X158849333Y-61796857D01*
X158849333Y-61939714D01*
X158801714Y-62034952D01*
X158754095Y-62082571D01*
X158658857Y-62130190D01*
X158277904Y-62130190D01*
X159182666Y-61606380D02*
X159801714Y-61606380D01*
X159468380Y-61987333D01*
X159611238Y-61987333D01*
X159706476Y-62034952D01*
X159754095Y-62082571D01*
X159801714Y-62177809D01*
X159801714Y-62415904D01*
X159754095Y-62511142D01*
X159706476Y-62558761D01*
X159611238Y-62606380D01*
X159325523Y-62606380D01*
X159230285Y-62558761D01*
X159182666Y-62511142D01*
%TO.C,R2*%
X109319333Y-59464380D02*
X108986000Y-58988190D01*
X108747904Y-59464380D02*
X108747904Y-58464380D01*
X109128857Y-58464380D01*
X109224095Y-58512000D01*
X109271714Y-58559619D01*
X109319333Y-58654857D01*
X109319333Y-58797714D01*
X109271714Y-58892952D01*
X109224095Y-58940571D01*
X109128857Y-58988190D01*
X108747904Y-58988190D01*
X109700285Y-58559619D02*
X109747904Y-58512000D01*
X109843142Y-58464380D01*
X110081238Y-58464380D01*
X110176476Y-58512000D01*
X110224095Y-58559619D01*
X110271714Y-58654857D01*
X110271714Y-58750095D01*
X110224095Y-58892952D01*
X109652666Y-59464380D01*
X110271714Y-59464380D01*
%TO.C,R1*%
X151483333Y-88801380D02*
X151150000Y-88325190D01*
X150911904Y-88801380D02*
X150911904Y-87801380D01*
X151292857Y-87801380D01*
X151388095Y-87849000D01*
X151435714Y-87896619D01*
X151483333Y-87991857D01*
X151483333Y-88134714D01*
X151435714Y-88229952D01*
X151388095Y-88277571D01*
X151292857Y-88325190D01*
X150911904Y-88325190D01*
X152435714Y-88801380D02*
X151864285Y-88801380D01*
X152150000Y-88801380D02*
X152150000Y-87801380D01*
X152054761Y-87944238D01*
X151959523Y-88039476D01*
X151864285Y-88087095D01*
%TO.C,Q5*%
X131742761Y-58837619D02*
X131647523Y-58790000D01*
X131552285Y-58694761D01*
X131409428Y-58551904D01*
X131314190Y-58504285D01*
X131218952Y-58504285D01*
X131266571Y-58742380D02*
X131171333Y-58694761D01*
X131076095Y-58599523D01*
X131028476Y-58409047D01*
X131028476Y-58075714D01*
X131076095Y-57885238D01*
X131171333Y-57790000D01*
X131266571Y-57742380D01*
X131457047Y-57742380D01*
X131552285Y-57790000D01*
X131647523Y-57885238D01*
X131695142Y-58075714D01*
X131695142Y-58409047D01*
X131647523Y-58599523D01*
X131552285Y-58694761D01*
X131457047Y-58742380D01*
X131266571Y-58742380D01*
X132599904Y-57742380D02*
X132123714Y-57742380D01*
X132076095Y-58218571D01*
X132123714Y-58170952D01*
X132218952Y-58123333D01*
X132457047Y-58123333D01*
X132552285Y-58170952D01*
X132599904Y-58218571D01*
X132647523Y-58313809D01*
X132647523Y-58551904D01*
X132599904Y-58647142D01*
X132552285Y-58694761D01*
X132457047Y-58742380D01*
X132218952Y-58742380D01*
X132123714Y-58694761D01*
X132076095Y-58647142D01*
%TO.C,Q4*%
X126154761Y-58837619D02*
X126059523Y-58790000D01*
X125964285Y-58694761D01*
X125821428Y-58551904D01*
X125726190Y-58504285D01*
X125630952Y-58504285D01*
X125678571Y-58742380D02*
X125583333Y-58694761D01*
X125488095Y-58599523D01*
X125440476Y-58409047D01*
X125440476Y-58075714D01*
X125488095Y-57885238D01*
X125583333Y-57790000D01*
X125678571Y-57742380D01*
X125869047Y-57742380D01*
X125964285Y-57790000D01*
X126059523Y-57885238D01*
X126107142Y-58075714D01*
X126107142Y-58409047D01*
X126059523Y-58599523D01*
X125964285Y-58694761D01*
X125869047Y-58742380D01*
X125678571Y-58742380D01*
X126964285Y-58075714D02*
X126964285Y-58742380D01*
X126726190Y-57694761D02*
X126488095Y-58409047D01*
X127107142Y-58409047D01*
%TO.C,Q3*%
X120566761Y-58837619D02*
X120471523Y-58790000D01*
X120376285Y-58694761D01*
X120233428Y-58551904D01*
X120138190Y-58504285D01*
X120042952Y-58504285D01*
X120090571Y-58742380D02*
X119995333Y-58694761D01*
X119900095Y-58599523D01*
X119852476Y-58409047D01*
X119852476Y-58075714D01*
X119900095Y-57885238D01*
X119995333Y-57790000D01*
X120090571Y-57742380D01*
X120281047Y-57742380D01*
X120376285Y-57790000D01*
X120471523Y-57885238D01*
X120519142Y-58075714D01*
X120519142Y-58409047D01*
X120471523Y-58599523D01*
X120376285Y-58694761D01*
X120281047Y-58742380D01*
X120090571Y-58742380D01*
X120852476Y-57742380D02*
X121471523Y-57742380D01*
X121138190Y-58123333D01*
X121281047Y-58123333D01*
X121376285Y-58170952D01*
X121423904Y-58218571D01*
X121471523Y-58313809D01*
X121471523Y-58551904D01*
X121423904Y-58647142D01*
X121376285Y-58694761D01*
X121281047Y-58742380D01*
X120995333Y-58742380D01*
X120900095Y-58694761D01*
X120852476Y-58647142D01*
%TO.C,Q2*%
X114978761Y-58837619D02*
X114883523Y-58790000D01*
X114788285Y-58694761D01*
X114645428Y-58551904D01*
X114550190Y-58504285D01*
X114454952Y-58504285D01*
X114502571Y-58742380D02*
X114407333Y-58694761D01*
X114312095Y-58599523D01*
X114264476Y-58409047D01*
X114264476Y-58075714D01*
X114312095Y-57885238D01*
X114407333Y-57790000D01*
X114502571Y-57742380D01*
X114693047Y-57742380D01*
X114788285Y-57790000D01*
X114883523Y-57885238D01*
X114931142Y-58075714D01*
X114931142Y-58409047D01*
X114883523Y-58599523D01*
X114788285Y-58694761D01*
X114693047Y-58742380D01*
X114502571Y-58742380D01*
X115312095Y-57837619D02*
X115359714Y-57790000D01*
X115454952Y-57742380D01*
X115693047Y-57742380D01*
X115788285Y-57790000D01*
X115835904Y-57837619D01*
X115883523Y-57932857D01*
X115883523Y-58028095D01*
X115835904Y-58170952D01*
X115264476Y-58742380D01*
X115883523Y-58742380D01*
%TO.C,Q1*%
X151554761Y-92619619D02*
X151459523Y-92572000D01*
X151364285Y-92476761D01*
X151221428Y-92333904D01*
X151126190Y-92286285D01*
X151030952Y-92286285D01*
X151078571Y-92524380D02*
X150983333Y-92476761D01*
X150888095Y-92381523D01*
X150840476Y-92191047D01*
X150840476Y-91857714D01*
X150888095Y-91667238D01*
X150983333Y-91572000D01*
X151078571Y-91524380D01*
X151269047Y-91524380D01*
X151364285Y-91572000D01*
X151459523Y-91667238D01*
X151507142Y-91857714D01*
X151507142Y-92191047D01*
X151459523Y-92381523D01*
X151364285Y-92476761D01*
X151269047Y-92524380D01*
X151078571Y-92524380D01*
X152459523Y-92524380D02*
X151888095Y-92524380D01*
X152173809Y-92524380D02*
X152173809Y-91524380D01*
X152078571Y-91667238D01*
X151983333Y-91762476D01*
X151888095Y-91810095D01*
%TO.C,J3*%
X146744666Y-62020380D02*
X146744666Y-62734666D01*
X146697047Y-62877523D01*
X146601809Y-62972761D01*
X146458952Y-63020380D01*
X146363714Y-63020380D01*
X147125619Y-62020380D02*
X147744666Y-62020380D01*
X147411333Y-62401333D01*
X147554190Y-62401333D01*
X147649428Y-62448952D01*
X147697047Y-62496571D01*
X147744666Y-62591809D01*
X147744666Y-62829904D01*
X147697047Y-62925142D01*
X147649428Y-62972761D01*
X147554190Y-63020380D01*
X147268476Y-63020380D01*
X147173238Y-62972761D01*
X147125619Y-62925142D01*
%TO.C,FB1*%
X90872571Y-98199333D02*
X90872571Y-98532666D01*
X91396380Y-98532666D02*
X90396380Y-98532666D01*
X90396380Y-98056476D01*
X90872571Y-97342190D02*
X90920190Y-97199333D01*
X90967809Y-97151714D01*
X91063047Y-97104095D01*
X91205904Y-97104095D01*
X91301142Y-97151714D01*
X91348761Y-97199333D01*
X91396380Y-97294571D01*
X91396380Y-97675523D01*
X90396380Y-97675523D01*
X90396380Y-97342190D01*
X90444000Y-97246952D01*
X90491619Y-97199333D01*
X90586857Y-97151714D01*
X90682095Y-97151714D01*
X90777333Y-97199333D01*
X90824952Y-97246952D01*
X90872571Y-97342190D01*
X90872571Y-97675523D01*
X91396380Y-96151714D02*
X91396380Y-96723142D01*
X91396380Y-96437428D02*
X90396380Y-96437428D01*
X90539238Y-96532666D01*
X90634476Y-96627904D01*
X90682095Y-96723142D01*
%TO.C,D5*%
X118468484Y-83382660D02*
X118468484Y-82382660D01*
X118706580Y-82382660D01*
X118849437Y-82430280D01*
X118944675Y-82525518D01*
X118992294Y-82620756D01*
X119039913Y-82811232D01*
X119039913Y-82954089D01*
X118992294Y-83144565D01*
X118944675Y-83239803D01*
X118849437Y-83335041D01*
X118706580Y-83382660D01*
X118468484Y-83382660D01*
X119944675Y-82382660D02*
X119468484Y-82382660D01*
X119420865Y-82858851D01*
X119468484Y-82811232D01*
X119563722Y-82763613D01*
X119801818Y-82763613D01*
X119897056Y-82811232D01*
X119944675Y-82858851D01*
X119992294Y-82954089D01*
X119992294Y-83192184D01*
X119944675Y-83287422D01*
X119897056Y-83335041D01*
X119801818Y-83382660D01*
X119563722Y-83382660D01*
X119468484Y-83335041D01*
X119420865Y-83287422D01*
%TO.C,D4*%
X118471024Y-75777900D02*
X118471024Y-74777900D01*
X118709120Y-74777900D01*
X118851977Y-74825520D01*
X118947215Y-74920758D01*
X118994834Y-75015996D01*
X119042453Y-75206472D01*
X119042453Y-75349329D01*
X118994834Y-75539805D01*
X118947215Y-75635043D01*
X118851977Y-75730281D01*
X118709120Y-75777900D01*
X118471024Y-75777900D01*
X119899596Y-75111234D02*
X119899596Y-75777900D01*
X119661500Y-74730281D02*
X119423405Y-75444567D01*
X120042453Y-75444567D01*
%TO.C,D3*%
X118473564Y-68145200D02*
X118473564Y-67145200D01*
X118711660Y-67145200D01*
X118854517Y-67192820D01*
X118949755Y-67288058D01*
X118997374Y-67383296D01*
X119044993Y-67573772D01*
X119044993Y-67716629D01*
X118997374Y-67907105D01*
X118949755Y-68002343D01*
X118854517Y-68097581D01*
X118711660Y-68145200D01*
X118473564Y-68145200D01*
X119378326Y-67145200D02*
X119997374Y-67145200D01*
X119664040Y-67526153D01*
X119806898Y-67526153D01*
X119902136Y-67573772D01*
X119949755Y-67621391D01*
X119997374Y-67716629D01*
X119997374Y-67954724D01*
X119949755Y-68049962D01*
X119902136Y-68097581D01*
X119806898Y-68145200D01*
X119521183Y-68145200D01*
X119425945Y-68097581D01*
X119378326Y-68049962D01*
%TO.C,D2*%
X108747904Y-63926380D02*
X108747904Y-62926380D01*
X108986000Y-62926380D01*
X109128857Y-62974000D01*
X109224095Y-63069238D01*
X109271714Y-63164476D01*
X109319333Y-63354952D01*
X109319333Y-63497809D01*
X109271714Y-63688285D01*
X109224095Y-63783523D01*
X109128857Y-63878761D01*
X108986000Y-63926380D01*
X108747904Y-63926380D01*
X109700285Y-63021619D02*
X109747904Y-62974000D01*
X109843142Y-62926380D01*
X110081238Y-62926380D01*
X110176476Y-62974000D01*
X110224095Y-63021619D01*
X110271714Y-63116857D01*
X110271714Y-63212095D01*
X110224095Y-63354952D01*
X109652666Y-63926380D01*
X110271714Y-63926380D01*
%TO.C,D1*%
X91142380Y-103819095D02*
X90142380Y-103819095D01*
X90142380Y-103581000D01*
X90190000Y-103438142D01*
X90285238Y-103342904D01*
X90380476Y-103295285D01*
X90570952Y-103247666D01*
X90713809Y-103247666D01*
X90904285Y-103295285D01*
X90999523Y-103342904D01*
X91094761Y-103438142D01*
X91142380Y-103581000D01*
X91142380Y-103819095D01*
X91142380Y-102295285D02*
X91142380Y-102866714D01*
X91142380Y-102581000D02*
X90142380Y-102581000D01*
X90285238Y-102676238D01*
X90380476Y-102771476D01*
X90428095Y-102866714D01*
%TO.C,C13*%
X146689142Y-88706142D02*
X146641523Y-88753761D01*
X146498666Y-88801380D01*
X146403428Y-88801380D01*
X146260571Y-88753761D01*
X146165333Y-88658523D01*
X146117714Y-88563285D01*
X146070095Y-88372809D01*
X146070095Y-88229952D01*
X146117714Y-88039476D01*
X146165333Y-87944238D01*
X146260571Y-87849000D01*
X146403428Y-87801380D01*
X146498666Y-87801380D01*
X146641523Y-87849000D01*
X146689142Y-87896619D01*
X147641523Y-88801380D02*
X147070095Y-88801380D01*
X147355809Y-88801380D02*
X147355809Y-87801380D01*
X147260571Y-87944238D01*
X147165333Y-88039476D01*
X147070095Y-88087095D01*
X147974857Y-87801380D02*
X148593904Y-87801380D01*
X148260571Y-88182333D01*
X148403428Y-88182333D01*
X148498666Y-88229952D01*
X148546285Y-88277571D01*
X148593904Y-88372809D01*
X148593904Y-88610904D01*
X148546285Y-88706142D01*
X148498666Y-88753761D01*
X148403428Y-88801380D01*
X148117714Y-88801380D01*
X148022476Y-88753761D01*
X147974857Y-88706142D01*
%TO.C,C12*%
X142708162Y-88736342D02*
X142660543Y-88783961D01*
X142517686Y-88831580D01*
X142422448Y-88831580D01*
X142279591Y-88783961D01*
X142184353Y-88688723D01*
X142136734Y-88593485D01*
X142089115Y-88403009D01*
X142089115Y-88260152D01*
X142136734Y-88069676D01*
X142184353Y-87974438D01*
X142279591Y-87879200D01*
X142422448Y-87831580D01*
X142517686Y-87831580D01*
X142660543Y-87879200D01*
X142708162Y-87926819D01*
X143660543Y-88831580D02*
X143089115Y-88831580D01*
X143374829Y-88831580D02*
X143374829Y-87831580D01*
X143279591Y-87974438D01*
X143184353Y-88069676D01*
X143089115Y-88117295D01*
X144041496Y-87926819D02*
X144089115Y-87879200D01*
X144184353Y-87831580D01*
X144422448Y-87831580D01*
X144517686Y-87879200D01*
X144565305Y-87926819D01*
X144612924Y-88022057D01*
X144612924Y-88117295D01*
X144565305Y-88260152D01*
X143993877Y-88831580D01*
X144612924Y-88831580D01*
%TO.C,C11*%
X138463162Y-88706142D02*
X138415543Y-88753761D01*
X138272686Y-88801380D01*
X138177448Y-88801380D01*
X138034591Y-88753761D01*
X137939353Y-88658523D01*
X137891734Y-88563285D01*
X137844115Y-88372809D01*
X137844115Y-88229952D01*
X137891734Y-88039476D01*
X137939353Y-87944238D01*
X138034591Y-87849000D01*
X138177448Y-87801380D01*
X138272686Y-87801380D01*
X138415543Y-87849000D01*
X138463162Y-87896619D01*
X139415543Y-88801380D02*
X138844115Y-88801380D01*
X139129829Y-88801380D02*
X139129829Y-87801380D01*
X139034591Y-87944238D01*
X138939353Y-88039476D01*
X138844115Y-88087095D01*
X140367924Y-88801380D02*
X139796496Y-88801380D01*
X140082210Y-88801380D02*
X140082210Y-87801380D01*
X139986972Y-87944238D01*
X139891734Y-88039476D01*
X139796496Y-88087095D01*
%TO.C,C9*%
X148435333Y-70824342D02*
X148387714Y-70871961D01*
X148244857Y-70919580D01*
X148149619Y-70919580D01*
X148006761Y-70871961D01*
X147911523Y-70776723D01*
X147863904Y-70681485D01*
X147816285Y-70491009D01*
X147816285Y-70348152D01*
X147863904Y-70157676D01*
X147911523Y-70062438D01*
X148006761Y-69967200D01*
X148149619Y-69919580D01*
X148244857Y-69919580D01*
X148387714Y-69967200D01*
X148435333Y-70014819D01*
X148911523Y-70919580D02*
X149102000Y-70919580D01*
X149197238Y-70871961D01*
X149244857Y-70824342D01*
X149340095Y-70681485D01*
X149387714Y-70491009D01*
X149387714Y-70110057D01*
X149340095Y-70014819D01*
X149292476Y-69967200D01*
X149197238Y-69919580D01*
X149006761Y-69919580D01*
X148911523Y-69967200D01*
X148863904Y-70014819D01*
X148816285Y-70110057D01*
X148816285Y-70348152D01*
X148863904Y-70443390D01*
X148911523Y-70491009D01*
X149006761Y-70538628D01*
X149197238Y-70538628D01*
X149292476Y-70491009D01*
X149340095Y-70443390D01*
X149387714Y-70348152D01*
%TO.C,C7*%
X158849333Y-65465142D02*
X158801714Y-65512761D01*
X158658857Y-65560380D01*
X158563619Y-65560380D01*
X158420761Y-65512761D01*
X158325523Y-65417523D01*
X158277904Y-65322285D01*
X158230285Y-65131809D01*
X158230285Y-64988952D01*
X158277904Y-64798476D01*
X158325523Y-64703238D01*
X158420761Y-64608000D01*
X158563619Y-64560380D01*
X158658857Y-64560380D01*
X158801714Y-64608000D01*
X158849333Y-64655619D01*
X159182666Y-64560380D02*
X159849333Y-64560380D01*
X159420761Y-65560380D01*
%TO.C,C4*%
X159484333Y-79943142D02*
X159436714Y-79990761D01*
X159293857Y-80038380D01*
X159198619Y-80038380D01*
X159055761Y-79990761D01*
X158960523Y-79895523D01*
X158912904Y-79800285D01*
X158865285Y-79609809D01*
X158865285Y-79466952D01*
X158912904Y-79276476D01*
X158960523Y-79181238D01*
X159055761Y-79086000D01*
X159198619Y-79038380D01*
X159293857Y-79038380D01*
X159436714Y-79086000D01*
X159484333Y-79133619D01*
X160341476Y-79371714D02*
X160341476Y-80038380D01*
X160103380Y-78990761D02*
X159865285Y-79705047D01*
X160484333Y-79705047D01*
%TO.C,C3*%
X132179333Y-71307142D02*
X132131714Y-71354761D01*
X131988857Y-71402380D01*
X131893619Y-71402380D01*
X131750761Y-71354761D01*
X131655523Y-71259523D01*
X131607904Y-71164285D01*
X131560285Y-70973809D01*
X131560285Y-70830952D01*
X131607904Y-70640476D01*
X131655523Y-70545238D01*
X131750761Y-70450000D01*
X131893619Y-70402380D01*
X131988857Y-70402380D01*
X132131714Y-70450000D01*
X132179333Y-70497619D01*
X132512666Y-70402380D02*
X133131714Y-70402380D01*
X132798380Y-70783333D01*
X132941238Y-70783333D01*
X133036476Y-70830952D01*
X133084095Y-70878571D01*
X133131714Y-70973809D01*
X133131714Y-71211904D01*
X133084095Y-71307142D01*
X133036476Y-71354761D01*
X132941238Y-71402380D01*
X132655523Y-71402380D01*
X132560285Y-71354761D01*
X132512666Y-71307142D01*
%TO.C,C2*%
X152499333Y-65211142D02*
X152451714Y-65258761D01*
X152308857Y-65306380D01*
X152213619Y-65306380D01*
X152070761Y-65258761D01*
X151975523Y-65163523D01*
X151927904Y-65068285D01*
X151880285Y-64877809D01*
X151880285Y-64734952D01*
X151927904Y-64544476D01*
X151975523Y-64449238D01*
X152070761Y-64354000D01*
X152213619Y-64306380D01*
X152308857Y-64306380D01*
X152451714Y-64354000D01*
X152499333Y-64401619D01*
X152880285Y-64401619D02*
X152927904Y-64354000D01*
X153023142Y-64306380D01*
X153261238Y-64306380D01*
X153356476Y-64354000D01*
X153404095Y-64401619D01*
X153451714Y-64496857D01*
X153451714Y-64592095D01*
X153404095Y-64734952D01*
X152832666Y-65306380D01*
X153451714Y-65306380D01*
%TO.C,C1*%
X148435333Y-68165142D02*
X148387714Y-68212761D01*
X148244857Y-68260380D01*
X148149619Y-68260380D01*
X148006761Y-68212761D01*
X147911523Y-68117523D01*
X147863904Y-68022285D01*
X147816285Y-67831809D01*
X147816285Y-67688952D01*
X147863904Y-67498476D01*
X147911523Y-67403238D01*
X148006761Y-67308000D01*
X148149619Y-67260380D01*
X148244857Y-67260380D01*
X148387714Y-67308000D01*
X148435333Y-67355619D01*
X149387714Y-68260380D02*
X148816285Y-68260380D01*
X149102000Y-68260380D02*
X149102000Y-67260380D01*
X149006761Y-67403238D01*
X148911523Y-67498476D01*
X148816285Y-67546095D01*
%TD*%
M02*
