%TF.GenerationSoftware,KiCad,Pcbnew,(5.1.8)-1*%
%TF.CreationDate,2021-02-10T22:47:22+08:00*%
%TF.ProjectId,mpg,6d70672e-6b69-4636-9164-5f7063625858,rev?*%
%TF.SameCoordinates,Original*%
%TF.FileFunction,Soldermask,Bot*%
%TF.FilePolarity,Negative*%
%FSLAX46Y46*%
G04 Gerber Fmt 4.6, Leading zero omitted, Abs format (unit mm)*
G04 Created by KiCad (PCBNEW (5.1.8)-1) date 2021-02-10 22:47:22*
%MOMM*%
%LPD*%
G01*
G04 APERTURE LIST*
%ADD10R,1.900000X1.900000*%
%ADD11C,1.900000*%
%ADD12C,2.600000*%
%ADD13C,3.250000*%
%ADD14O,1.700000X1.700000*%
%ADD15R,1.700000X1.700000*%
%ADD16C,4.000000*%
%ADD17C,1.600000*%
%ADD18R,1.600000X1.600000*%
%ADD19C,1.800000*%
%ADD20R,1.800000X1.800000*%
%ADD21C,0.800000*%
%ADD22C,6.400000*%
%ADD23C,2.000000*%
%ADD24C,0.254000*%
%ADD25C,0.100000*%
G04 APERTURE END LIST*
D10*
%TO.C,J5*%
X100550000Y-97664000D03*
D11*
X101820000Y-95124000D03*
X103090000Y-97664000D03*
X104360000Y-95124000D03*
X105630000Y-97664000D03*
X106900000Y-95124000D03*
X108170000Y-97664000D03*
X109440000Y-95124000D03*
D12*
X97220000Y-100954000D03*
X112770000Y-100954000D03*
D13*
X99280000Y-104004000D03*
X110710000Y-104004000D03*
%TD*%
D14*
%TO.C,J4*%
X108597000Y-89238000D03*
D15*
X106057000Y-89238000D03*
%TD*%
D14*
%TO.C,J2*%
X143776000Y-72220000D03*
X143776000Y-74760000D03*
X143776000Y-77300000D03*
D15*
X143776000Y-79840000D03*
%TD*%
D16*
%TO.C,J1*%
X175220000Y-102424000D03*
X128120000Y-102424000D03*
D17*
X166905000Y-103844000D03*
X164135000Y-103844000D03*
X161365000Y-103844000D03*
X158595000Y-103844000D03*
X155825000Y-103844000D03*
X153055000Y-103844000D03*
X150285000Y-103844000D03*
X147515000Y-103844000D03*
X144745000Y-103844000D03*
X141975000Y-103844000D03*
X139205000Y-103844000D03*
X136435000Y-103844000D03*
X168290000Y-101004000D03*
X165520000Y-101004000D03*
X162750000Y-101004000D03*
X159980000Y-101004000D03*
X157210000Y-101004000D03*
X154440000Y-101004000D03*
X151670000Y-101004000D03*
X148900000Y-101004000D03*
X146130000Y-101004000D03*
X143360000Y-101004000D03*
X140590000Y-101004000D03*
X137820000Y-101004000D03*
D18*
X135050000Y-101004000D03*
%TD*%
D19*
%TO.C,D6*%
X120484200Y-93515360D03*
D20*
X117944200Y-93515360D03*
%TD*%
D21*
%TO.C,H2*%
X175197056Y-62191056D03*
X175900000Y-60494000D03*
X175197056Y-58796944D03*
X173500000Y-58094000D03*
X171802944Y-58796944D03*
X171100000Y-60494000D03*
X171802944Y-62191056D03*
X173500000Y-62894000D03*
D22*
X173500000Y-60494000D03*
%TD*%
D21*
%TO.C,H1*%
X95907056Y-62121056D03*
X96610000Y-60424000D03*
X95907056Y-58726944D03*
X94210000Y-58024000D03*
X92512944Y-58726944D03*
X91810000Y-60424000D03*
X92512944Y-62121056D03*
X94210000Y-62824000D03*
D22*
X94210000Y-60424000D03*
%TD*%
D23*
%TO.C,SW1*%
X165438000Y-66886000D03*
X169938000Y-66886000D03*
X165438000Y-73386000D03*
X169938000Y-73386000D03*
%TD*%
D14*
%TO.C,J3*%
X138950000Y-62568000D03*
X141490000Y-62568000D03*
D15*
X144030000Y-62568000D03*
%TD*%
D19*
%TO.C,D5*%
X120476580Y-85890280D03*
D20*
X117936580Y-85890280D03*
%TD*%
D19*
%TO.C,D4*%
X120479120Y-78285520D03*
D20*
X117939120Y-78285520D03*
%TD*%
D19*
%TO.C,D3*%
X120481660Y-70652820D03*
D20*
X117941660Y-70652820D03*
%TD*%
D24*
X105546460Y-55582980D02*
X105546460Y-61250483D01*
X98471155Y-68831347D01*
X98456034Y-68851125D01*
X98445062Y-68873473D01*
X98438660Y-68897532D01*
X98437000Y-68917953D01*
X98431939Y-82703295D01*
X94305180Y-86830054D01*
X89366660Y-86827603D01*
X89366660Y-55580480D01*
X105546460Y-55582980D01*
D25*
G36*
X105546460Y-55582980D02*
G01*
X105546460Y-61250483D01*
X98471155Y-68831347D01*
X98456034Y-68851125D01*
X98445062Y-68873473D01*
X98438660Y-68897532D01*
X98437000Y-68917953D01*
X98431939Y-82703295D01*
X94305180Y-86830054D01*
X89366660Y-86827603D01*
X89366660Y-55580480D01*
X105546460Y-55582980D01*
G37*
M02*
